<?xml version="1.0" encoding="UTF-8" standalone="no"?><!DOCTYPE svg PUBLIC "-//W3C//DTD SVG 1.1//EN" "http://www.w3.org/Graphics/SVG/1.1/DTD/svg11.dtd"><svg width="100%" height="100%" viewBox="0 0 13878 6870" version="1.1" xmlns="http://www.w3.org/2000/svg" xmlns:xlink="http://www.w3.org/1999/xlink" xml:space="preserve" xmlns:serif="http://www.serif.com/" style="fill-rule:evenodd;clip-rule:evenodd;stroke-linejoin:round;stroke-miterlimit:2;"><path d="M11448,6067.8l-10.743,12.344c-211.64,242.5 -540.741,455.563 -1028.42,630.938c-97.172,35.593 -200.327,68.5 -310.01,100.687l-9152.01,0c-0.593,-6.844 -632.55,-526.125 -588.43,-1566.72c122.214,-2898.44 2930.22,-3192.44 4237.64,-3790.38c820.315,-392.823 1080.34,-735.591 1792.15,-1086.5c405.386,-193.181 883.522,-330.193 1519.67,-362.384c451.891,-22.607 1055.84,18.488 1613.28,167.156c825.459,200.856 1488.39,685.559 1508.35,1661.92c11.449,622.719 227.825,1254.78 411.345,1825.66c93.011,285.688 181.861,564.5 243.841,833.032c136.526,591.874 141.311,1131.69 -236.661,1574.25Z" style="fill:#cbecef;fill-rule:nonzero;"/><rect x="7556.12" y="806.781" width="3108.45" height="2851.28" style="fill:#d8e7ea;fill-rule:nonzero;"/><path d="M7550.85,2049.38c0,0 893.057,-70.068 1534.4,350.802c641.379,420.87 1581.74,-104.904 1581.74,-104.904l0,1373.1l-3116.15,0l0,-1619Z" style="fill:#9dc2cb;fill-rule:nonzero;"/><path d="M7576.14,1899.35l0,-193.607c0,0 1335.87,-172.26 1626.53,-65.098c290.663,107.183 1379.42,-305.308 1468.61,-246.384l0,246.384c0,0 -2718.5,166.113 -3095.13,258.705Z" style="fill:#9dc2cb;fill-rule:nonzero;"/><path d="M8257.24,1098.43c0,-46.266 35.646,-83.756 79.614,-83.756c44,0 79.645,37.49 79.645,83.756c0,46.256 -35.645,83.752 -79.645,83.752c-43.968,0 -79.614,-37.496 -79.614,-83.752Z" style="fill:#9dc2cb;fill-rule:nonzero;"/><path d="M9188.08,835.112l4.836,0c19.943,0 36.462,-61.193 36.462,-135.788l1.759,-594.738c-41.959,-1.872 -58.478,-12.572 -83.916,-1.872l4.365,596.61c0,74.595 16.519,135.788 36.494,135.788Z" style="fill:#92a2ad;fill-rule:nonzero;"/><path d="M9170.24,618.273c-282.497,0 -511.509,254.705 -511.509,568.879l1022.99,0c0,-314.174 -228.98,-568.879 -511.477,-568.879Z" style="fill:#92a2ad;fill-rule:nonzero;"/><path d="M9210.98,625.21c-14.699,-3.372 -29.679,-5.143 -44.911,-5.143c-184.039,0 -333.249,253.902 -333.249,567.085l89.853,0c0,-287.259 125.53,-524.598 288.307,-561.942Z" style="fill:#bec7ce;fill-rule:nonzero;"/><path d="M7542.65,3677.18c0,0 -14.403,50.124 -9.158,55.406c5.246,5.281 14.063,2.156 15.056,0c4.594,-9.875 -5.898,-55.406 -5.898,-55.406Z" style="fill:#cadae5;fill-rule:nonzero;"/><path d="M1894.04,2704.05c0.409,-3.437 0.85,-6.968 1.325,-10.562c4.337,-32.594 11.922,-58.094 21.4,-78c-0.947,-0.781 -1.903,-1.562 -2.819,-2.344c-0.541,-0.469 -1.047,-0.906 -1.575,-1.375c-1.572,-1.375 -3.106,-2.719 -4.578,-4.093c-0.656,-0.594 -1.3,-1.188 -1.938,-1.813c-1.34,-1.282 -2.625,-2.563 -3.871,-3.844c-0.547,-0.563 -1.11,-1.125 -1.638,-1.687c-1.703,-1.782 -3.334,-3.594 -4.841,-5.375c-18.022,-21.5 -7.775,-53.844 20.275,-61.094c4.022,-1.031 8.385,-1.75 13.116,-2.031l-0.412,0.218c1.721,-0.218 3.471,-0.375 5.284,-0.375l1.159,0c0,0 14.069,-191.031 202.747,-191.031c14.081,0 29.15,1.062 45.244,3.344c100.1,14.219 149.941,56.469 175.803,105.5c-159.387,77.562 -315.166,162.031 -464.681,254.562Z" style="fill:#becbd6;fill-rule:nonzero;"/><path d="M2044.32,6787.55l-281.472,0l0,-48.593c0,-33.344 18.512,-82.813 33.503,-125.282c-11.534,-8.062 -19.262,-19.406 -20.544,-36l-42.262,-544.375c-6.5,-80.937 -0.053,-162.375 19.103,-241.25l9.778,-40.25c0,0 -188.387,-737.715 -121.081,-1217.62l-15.131,-562.719c-81.157,35.156 -165.032,63.937 -222.291,63.937c-26.894,0 -47.925,-6.375 -60.028,-21.375c-57.385,-71.156 151.512,-797.875 282.425,-826.531c31.947,-23.375 128.719,-84.906 283.65,-103.312c18.469,-3.469 37.472,-6.063 56.947,-7.688c4.55,-16.407 9.247,-37 12.203,-59.719c1.2,-9.25 2.103,-18.844 2.584,-28.625l0.006,-0.187c0.385,-7.907 0.397,-16 0.154,-24.125c-17.55,-14.313 -30.704,-26.844 -37.541,-47.282c-12.056,-5.843 -48.047,-30.719 -53.744,-120.906c-1.915,-8.969 -2.309,-17.656 -0.756,-25.25c0.006,-19.5 1.281,-41.469 4.219,-66.344c149.515,-92.531 305.294,-177 464.681,-254.562c26.309,49.875 27.809,106.781 32.15,148.437c0.203,1.938 0.409,3.813 0.628,5.688c0.031,0.281 0.066,0.562 0.097,0.844c0.041,0.343 0.084,0.656 0.122,1l0.006,0c17.213,11.624 70.316,51.25 57.988,76.375c-6.825,13.906 -52.982,29.312 -112.925,37.125c0.484,34.25 -6.282,73.562 -17.375,112.062c-3.547,12.656 -7.494,24.938 -12.228,37.219c-5.525,15.906 -11.838,31.094 -18.941,45.562c-15.781,34.688 -34.059,80.375 -51.422,98.063c-12.013,12.344 -28.769,20.031 -48.306,23.625l-0.416,0.094c-7.219,1.281 -14.819,2.031 -22.7,2.25l-0.731,0.031c-1.563,0.031 -3.131,0.031 -4.709,0.031c-2.313,0 -4.651,-0.031 -7.013,-0.125c-2.463,8.313 -5.594,21.5 -6.331,36.625c1.728,0.063 3.49,0.125 5.209,0.219c22.428,1.187 43.972,2.969 64.569,5.469c-9.113,-6.376 -15.125,-7.282 -15.125,-7.282c112.631,3.438 182.616,50.156 216.481,80.5c3.225,2.844 6.344,5.782 9.335,8.782c10.218,10.187 15.19,17 15.19,17c4.597,5.968 8.509,15.843 12.084,29.437c1.325,5.031 2.563,10.563 3.725,16.531c3.01,11.532 5.732,23.969 8.176,37.219l519.39,-0.031l-139.25,409.063c39,-33.001 43.813,-68.657 68,-68.657c5.281,0 11.469,1.688 19.125,5.469l-20.219,38.406c0,0 11.626,40.563 -7.093,57.344c0,0 13.187,44.062 -25.722,82.343c0,0 -37.5,25.782 -80.747,43.126c-5.5,13.75 -16.656,40.844 -32.313,74l-79.522,233.656c0,0 -24.903,-5.656 -64.8,-14.25c-10.746,9.968 -21.753,18.625 -32.968,25.656c-11.085,6.938 -22.085,10.094 -32.919,10.094c-32.728,0 -63.937,-28.688 -91.353,-68.062c-0.791,-0.157 -1.578,-0.313 -2.366,-0.469c-0.34,8.281 -0.665,16.437 -0.981,24.468c-0.019,0.469 -0.041,0.938 -0.062,1.407l13.846,417.75l-83.943,72.781c59.471,306.344 143.553,807.75 110.825,1050.09c-18.272,135.281 -154.532,860.718 -163.429,908.031c22.466,25.312 47.563,49.781 66.713,58.062c44.753,19.282 215.609,88.469 235.947,133.219c6.087,13.375 -4.278,22.406 -1.291,28.969l-349.79,0l-27.25,-12.719l-12.716,12.719l-103.912,0c-10.025,-29.031 -43.476,-137.031 -16.325,-215.438c-16.754,-10.5 -28.663,-23.906 -27.926,-39.125c8.488,-175.406 48.901,-677.25 122.275,-855.5c28.272,-68.718 -65.309,-369.218 -133.718,-569.656c-22.019,289.906 -45.441,627.031 -45.441,627.031l-41.966,886.063l-32.993,5.406c7.256,18.063 18.959,39.063 37.887,59.438c37.038,39.875 37.106,91.031 35.066,104.593Zm-437.094,-3077.25c-1.281,2.719 -2.566,5.469 -3.862,8.188c-18.094,38.344 -63.188,111 -60.932,111c0.529,0 3.666,-4 10.372,-13.406c4.21,-5.875 27.769,-18.063 59.831,-32.688c-1.871,-24.687 -3.681,-49.094 -5.409,-73.094Zm332.041,-846.562c0.04,0.781 0.043,1.5 0.09,2.281c0.041,-0.687 0.1,-1.469 0.147,-2.156l-0.237,-0.125Z" style="fill:#b7c5d0;fill-rule:nonzero;"/><path d="M2515.42,6784.74l-27.25,-12.719l-12.716,12.719l-103.915,0c-10.319,-29.875 -45.497,-143.531 -13.757,-222.344c36.822,-91.406 150.732,-67 150.732,-67c0,0 77.29,107.844 122.04,127.156c44.75,19.282 215.594,88.469 235.938,133.219c6.097,13.375 -4.278,22.406 -1.278,28.969l-349.794,0Z" style="fill:#221415;fill-rule:nonzero;"/><path d="M1986.93,6787.55l0,-48.593c0,-56 52.269,-157.625 52.269,-194.938c0,-37.344 144.45,30.313 144.45,30.313c0,0 1.156,56.343 49.687,108.625c37.041,39.875 37.107,91.031 35.069,104.593l-281.475,0Z" style="fill:#221415;fill-rule:nonzero;"/><path d="M2329.96,5146.74c32.554,97.219 95.775,323.687 120.635,421.625c2.537,-13.688 -23.125,-143.313 -22.21,-163.438c10.25,-225.5 -71.756,-471.531 -71.756,-471.531l-26.669,213.344Z" style="fill:#1c484f;fill-rule:nonzero;"/><path d="M2563.38,4349.9l-423.381,7.782l13.169,67.218l-271.075,18.438c-109.513,470.781 104.412,1308.47 104.412,1308.47l-9.775,40.25c-19.156,78.875 -25.606,160.313 -19.103,241.25l42.26,544.375c3.731,48.282 62.128,52.125 109.937,59.969l118.616,-19.531l41.968,-886.063c0,0 29.46,-311.781 55.838,-596.343c67.037,199.125 150.184,473.687 123.322,538.968c-73.378,178.25 -113.791,680.094 -122.275,855.5c-1.763,36.438 68.865,62.688 105.347,62.688l130.74,-25.906c0,0 145,-770.657 163.888,-910.5c49.009,-362.875 -163.888,-1306.56 -163.888,-1306.56Z" style="fill:#327f94;fill-rule:nonzero;"/><path d="M2022.31,5751.4c-69.878,47.313 -70.918,204.313 -64.684,281.906l42.26,544.375c4.887,31.688 26.934,41.313 44.559,47.282c0,0 -60.55,-351.407 -57.519,-475.344c2.331,-95.281 -21.003,-305.063 35.384,-398.219Z" style="fill:#27606d;fill-rule:nonzero;"/><path d="M1990.74,4536.77l270.197,-24.187l-26.947,-100.75l-351.9,31.5c-101.688,437.156 78.572,1203.03 104.412,1308.47c20.947,-2.843 -124.39,-740.406 4.238,-1215.03Z" style="fill:#27606d;fill-rule:nonzero;"/><path d="M2215.43,4600.37c121.731,43.719 318.6,-57.25 318.6,-57.25l7.347,132.25c28.647,-7.688 52.531,-19.781 82.634,-29.656c-36.247,-194.313 -60.625,-295.813 -60.625,-295.813l-423.381,7.782l13.169,67.218l-271.075,18.438c-18.303,78.687 -27.56,100.906 -30.303,194.468c55.822,21.782 187.665,56.594 353.115,56.594l10.519,-94.031Z" style="fill:#1c484f;fill-rule:nonzero;"/><path d="M2653.07,3179.15c85.847,142.656 161.144,719.313 161.144,719.313l150.812,-122.376l62.625,43.375c0,0 -95.75,255.219 -213.437,328.938c-117.653,73.75 -225.9,-280.625 -225.9,-280.625l64.756,-688.625Z" style="fill:#fff;fill-rule:nonzero;"/><path d="M2700.39,3592.4c0,11.406 -0.169,22.969 -0.169,34.719c-0.338,30.281 -0.681,61.25 -1.356,92.375c0,11.563 -0.344,23.313 -0.685,34.875c-0.506,33.719 -1.356,67.562 -2.378,101.094c-0.347,11.906 -0.684,23.812 -1.022,35.562c-0.853,31.125 -1.875,62.094 -3.066,92.062c-0.337,11.907 -0.853,23.813 -1.187,35.376c-1.359,33.344 -2.725,65.5 -3.919,95.968c-0.506,12.094 -1.019,24 -1.697,35.563c-1.021,25.875 -2.215,50.375 -3.231,73c-0.681,12.594 -1.197,24.656 -1.875,36.062c-1.187,24.844 -2.381,46.813 -3.231,65.001c-0.856,15.656 -1.709,28.593 -2.213,38.624c-0.85,15.844 -1.365,24.344 -1.365,24.344c0,0 -92.735,99.719 -297.091,132.031c-359.537,57 -482.387,-72.125 -482.387,-72.125c0,0 -1.869,-19.062 -4.766,-52.437c-1.184,-11.031 -2.206,-23.625 -3.566,-37.75c-2.218,-25.344 -4.94,-55.125 -8.003,-88.313c-1.022,-11.562 -2.04,-23.656 -3.062,-36.062c-2.719,-28.938 -5.447,-60.094 -8.169,-92.563c-1.012,-11.593 -2.037,-23.5 -3.059,-35.406c-2.725,-31.656 -5.447,-64.5 -8.335,-97.844c-1.022,-11.75 -1.878,-23.469 -2.897,-35.406c-2.212,-27.219 -4.418,-54.937 -6.803,-82.5c-0.853,-11.75 -1.706,-23.5 -2.728,-35.25c-19.731,-250.625 -35.384,-495.281 -26.203,-540.062c15.997,-77.594 121.666,-176.438 272.247,-218.469c38.459,-10.719 79.631,-17.687 123.022,-19.75c58.703,-2.719 114.006,-3.219 164.709,-0.5c130,6.812 230.731,34.188 284.503,97.5c2.213,2.219 4.078,4.594 5.953,6.969c4.591,5.968 8.504,15.843 12.079,29.437c3.24,12.25 5.956,27.406 8.34,44.938c1.534,10.531 2.725,21.937 3.913,34.187c2.55,24.688 4.425,52.75 5.784,83.219c0.509,11.062 1.022,22.625 1.366,34.375c0.853,24.656 1.528,50.531 1.868,77.562c0.172,11.407 0.344,22.813 0.51,34.563c0.169,24.312 0.169,49.5 0.169,75.031Z" style="fill:#ffe696;fill-rule:nonzero;"/><path d="M2956.78,3639.27c0,0 -24.437,52.563 -41.437,75.438c-17.032,22.875 -47.594,92.093 10.874,123.031c58.501,30.969 178.344,-51.532 178.344,-51.532c38.938,-38.281 25.75,-82.343 25.75,-82.343c18.719,-16.781 7.094,-57.344 7.094,-57.344l20.188,-38.406c-43.313,-21.375 -39.5,24.062 -88.813,64.656c-11.906,9.813 -44.781,16.969 -60.593,23.281l-0.063,-0.031c-21.406,8.562 -40.594,13.094 -40.594,13.094l0.032,-0.125c0.343,-2.844 4.499,-40.563 2.687,-59.719c-1.969,-19.844 -13.469,-10 -13.469,-10Z" style="fill:#ffc39a;fill-rule:nonzero;"/><path d="M3109.15,3758.52c0,0 3.5,-32.844 -6.812,-33.937c0,0 -13.438,4.937 -17.407,15.906c-4,10.968 -0.562,28.875 -25.093,46.844c-24.5,18 -11.313,-97.563 -11.313,-97.563c10.5,25.594 51.156,-0.969 56.219,-20.906c5.062,-19.906 13.469,-27.469 21.437,-30.657c7.938,-3.218 11.219,8.313 11.219,8.313c0,0 -6.75,-1.219 -12.468,2.719c-5.719,3.906 -25.501,26.812 -26.376,37.313c-0.844,10.531 3.157,-10.188 12.657,-5.938c9.499,4.281 12.125,13.843 12.125,13.843c0,0 -9.563,-7.749 -15.563,0.344c-6,8.063 -8.187,24.094 -8.187,24.094c0,0 29.281,-5.625 9.562,39.625Z" style="fill:#ec996b;fill-rule:nonzero;"/><path d="M2178.23,3077.71c0,0 -75.868,22.875 -27.15,51.25c48.713,28.343 133.791,89.031 218.869,50.187c85.075,-38.844 84.484,-127.187 -191.719,-101.437Z" style="fill:#ffc39a;fill-rule:nonzero;"/><path d="M2425.35,3072.8c0,0 113.662,16.501 102.713,431.094c-10.947,414.594 29.106,1153.88 29.106,1153.88l143.219,-124.187l-15.844,-478.157c0,0 67.265,-692.656 -18.185,-876.343c0,0 -73.29,-101.188 -241.009,-106.282Z" style="fill:#f77f0f;fill-rule:nonzero;"/><path d="M2134.76,3084.09c0,0 133.994,334.593 122.05,666.375c-11.943,331.812 -86.384,907.312 -86.384,907.312l-303.425,-65.031l-17.394,-646.875l-10.953,-749.219c0,0 103.047,-89.812 296.106,-112.562Z" style="fill:#f77f0f;fill-rule:nonzero;"/><path d="M1975.2,4579.96c-103.387,-124.437 -17.394,-646.875 -17.394,-646.875c0,0 -87.35,-578.187 -10.956,-749.218c21.606,-48.375 65.903,-57.344 190.922,-92c-1.931,-5.063 -3.013,-7.781 -3.013,-7.781c-193.059,22.75 -296.106,112.562 -296.106,112.562l10.953,749.219l17.394,646.875l303.425,65.031c0,0 1.628,-12.625 4.428,-35.031c0,0 -167.031,-3.531 -199.653,-42.782Z" style="fill:#bc5c0d;fill-rule:nonzero;"/><path d="M2275.54,4082.34c0,0 9.275,10.032 -15.869,20.657c-15.369,6.5 -32.291,8.188 -48.894,6.437c-18.347,-1.937 -45.422,-6.874 -52.637,-18.625c-0.813,-1.343 66.515,-334.968 66.515,-334.968l133.603,5.125l-82.718,321.374Z" style="fill:#867641;fill-rule:nonzero;"/><path d="M2218.12,4083.65c0,0 -37.569,-8.937 -35.75,-12.437c3.456,-6.625 43.259,-7.907 43.259,-7.907l-7.509,20.344Z" style="fill:#ffe696;fill-rule:nonzero;"/><path d="M2182.38,4071.21c0,0 72.116,-6.5 94.578,17.781l153.422,-698.125l-25.622,-1l-222.378,681.344Z" style="fill:#b39d57;fill-rule:nonzero;"/><path d="M2912,4136.99c0,0 -448.972,-101.781 -589.5,-98.125c-140.541,3.656 -164.356,51.937 -164.356,51.937c0,0 -19.194,-28.781 66.515,-334.968c85.719,-306.188 159.328,-493.563 159.328,-493.563l825.732,-0.031l-297.719,874.75Z" style="fill:#fff;fill-rule:nonzero;"/><path d="M1858.21,3186.59c-130.209,0 -348.772,754.843 -290.234,827.437c78.387,97.219 530.772,-168.906 530.772,-168.906l-28.653,-157.75c0,0 -277.713,107.031 -293.21,128.719c-35.275,49.375 28.219,-50.25 50.563,-97.594c49.384,-104.656 90.875,-193 90.875,-193c0,0 -30.272,-338.906 -60.113,-338.906Z" style="fill:#ffe696;fill-rule:nonzero;"/><path d="M1807.57,3231.4c29.837,0 75.087,254.156 60.112,338.875c-9.284,52.531 -41.49,88.375 -90.878,193.031c-22.34,47.344 -85.834,146.969 -50.562,97.594c15.5,-21.687 238.009,-111.468 293.206,-128.719c34.662,-10.843 25.972,142.907 25.972,142.907c32.881,-17.969 53.328,-29.969 53.328,-29.969l-28.653,-157.75c0,0 -277.713,107.031 -293.21,128.719c-35.275,49.375 28.219,-50.25 50.563,-97.594c49.384,-104.656 83.122,-140.25 90.875,-193c28.844,-196.344 -30.272,-338.906 -60.113,-338.906c-19.818,0 -41.69,17.531 -64.318,47.437c4.653,-1.719 9.218,-2.625 13.678,-2.625Z" style="fill:#ffcb6a;fill-rule:nonzero;"/><path d="M2073.38,3705.49c0,0 141.522,-20.656 183.763,-35.75c42.231,-15.063 95.031,15.875 128.975,9.062c33.937,-6.781 19.603,27.157 -11.319,27.157c-30.922,0 -65.616,-10.563 -65.616,0c0,10.562 53.55,14.343 92.766,6.031c39.225,-8.281 39.225,-8.281 39.225,4.531c0,12.813 -57.322,39.969 -133.506,30.157c0,0 -17.719,3.406 -12.066,9.062c5.656,5.656 92.775,-10.562 116.906,0c24.138,10.562 9.057,29.406 -48.268,33.938c-57.322,4.531 -69.388,0.781 -73.163,10.562c-3.772,9.812 85.231,-7.531 89.753,6.812c4.528,14.313 -118.409,41.469 -141.034,37.688c-22.628,-3.781 -148.097,-38.438 -148.097,-38.438l-18.319,-100.812Z" style="fill:#ffc39a;fill-rule:nonzero;"/><path d="M2380.16,3028.46c0,0 -24.135,59.375 3.968,103.968c0,0 -89.215,72.782 -205.9,-17.25c0,0 59.635,-143.874 4.778,-245.281c0,0 13.647,0.687 35.25,3.062c0,0 25.191,155.501 161.904,155.501Z" style="fill:#ffc39a;fill-rule:nonzero;"/><path d="M2218.26,2872.96l-0.193,-0.031c-0.832,31.688 -6.344,61.594 -12.257,85.126c1.016,20.249 -0.2,40.187 -2.612,58.749c79.116,54 143.987,34.594 174.337,19.282c1.491,-4.813 2.629,-7.625 2.629,-7.625c-136.713,0 -161.904,-155.501 -161.904,-155.501Z" style="fill:#ec996b;fill-rule:nonzero;"/><path d="M2543.49,2831.02c-3.547,12.656 -7.494,24.938 -12.228,37.219c-5.525,15.906 -11.835,31.094 -18.935,45.562c-15.787,34.688 -34.062,80.375 -51.425,98.063c-46.162,47.344 -162.037,26.969 -238.978,-35.188c-50.9,-41.187 -76.44,-52.5 -45.203,-196.687c50.284,-232.063 173.831,-255.438 345.469,-152.437c49.319,29.624 45.765,118.531 21.3,203.468Z" style="fill:#ffc39a;fill-rule:nonzero;"/><path d="M2522.19,2627.55c-106.003,-63.625 -193.65,-79.001 -257.041,-26.813c60.825,-31.844 139.872,-13.219 233.122,42.75c49.319,29.625 45.766,118.531 21.303,203.469c-3.55,12.656 -7.494,24.968 -12.231,37.25c-5.522,15.906 -11.838,31.062 -18.938,45.531c-15.784,34.687 -34.059,80.375 -51.422,98.094l-0.609,0.562c9.441,-4.125 17.75,-9.562 24.528,-16.531c17.363,-17.688 35.638,-63.375 51.425,-98.063c7.1,-14.468 13.41,-29.656 18.935,-45.562c4.734,-12.281 8.681,-24.563 12.228,-37.219c24.465,-84.937 28.019,-173.844 -21.3,-203.468Z" style="fill:#efa884;fill-rule:nonzero;"/><path d="M2266.1,2971.93c-50.9,-41.218 -76.444,-52.531 -45.206,-196.687c26.894,-124.125 74.744,-188.531 139.69,-205.844c-87.603,-2.812 -151.196,59.844 -183.862,210.594c-31.237,144.187 -5.697,155.5 45.203,196.687c60.656,49 145.488,72.001 201.303,56.376c-50.743,-1.594 -110.944,-23.813 -157.128,-61.126Z" style="fill:#ffdbc2;fill-rule:nonzero;"/><path d="M2561.22,2686.02c0,0 -88.447,-97.281 -265.516,-86.094c0,0 -66.184,124.126 -89.406,181.25c0,0 -67.288,8.126 -33.956,136.969c0,0 -79.841,-21.781 -52.891,-224.656c23.359,-175.844 141.222,-145.157 141.222,-145.157c0,0 49.165,-75.437 179.831,-54.749c134.922,21.343 188.391,134.531 120.716,192.437Z" style="fill:#42210b;fill-rule:nonzero;"/><path d="M2364.24,2759.18c-3.216,12.843 0.484,24.562 8.262,26.187c7.784,1.656 16.697,-7.437 19.916,-20.25c3.218,-12.844 -0.482,-24.563 -8.263,-26.219c-7.781,-1.625 -16.697,7.469 -19.915,20.282Z" style="fill-rule:nonzero;"/><path d="M2489.92,2795.87c-3.219,12.844 0.478,24.562 8.259,26.219c7.778,1.624 16.697,-7.438 19.916,-20.281c3.219,-12.813 -0.478,-24.563 -8.263,-26.188c-7.778,-1.625 -16.697,7.438 -19.912,20.25Z" style="fill-rule:nonzero;"/><path d="M2461.49,2811.05c0,0 12.896,26.438 22.525,49.5c5.478,13.126 15.931,51.5 -48.622,18.532c0,0 -10.347,-33.876 26.097,-68.032Z" style="fill:#ec996b;fill-rule:nonzero;"/><path d="M2206.3,2781.18c0,0 -30,-52.5 -74.616,-33.5c-44.618,18.969 -1.028,113.094 40.681,118.625c41.71,5.563 33.935,-85.125 33.935,-85.125Z" style="fill:#ffdbc2;fill-rule:nonzero;"/><path d="M2149.24,2808.96c3.115,12.875 11.84,21.531 19.49,19.343c7.657,-2.156 11.325,-14.344 8.213,-27.187c-3.119,-12.844 -11.844,-21.532 -19.497,-19.344c-7.647,2.156 -11.325,14.344 -8.206,27.188Z" style="fill:#ffc39a;fill-rule:nonzero;"/><path d="M2453.6,2928.02l-92.737,-9.875c0,0 -14.332,46 31.803,55.031c46.137,9.032 60.934,-45.156 60.934,-45.156Z" style="fill:#ec996b;fill-rule:nonzero;"/><path d="M2616.36,2609.93c0,0 -120.263,89.126 -214.513,53.438c-78.166,-29.594 -230.184,-16.813 -275.969,-67.875c-22.244,-24.813 -2.528,-63.781 31.972,-63.813l1.156,0c0,0 16.263,-220.625 247.991,-187.687c212.078,30.156 198.566,185.968 209.363,265.937Z" style="fill:#f2a71b;fill-rule:nonzero;"/><path d="M2399.13,2626.65c-69.54,-5.156 -215.528,-17.25 -239.765,-98.406c-0.25,2.156 -0.357,3.437 -0.357,3.437l-1.156,0c-34.5,0.032 -54.216,39 -31.972,63.813c45.785,51.062 197.803,38.281 275.969,67.875c94.25,35.688 214.513,-53.438 214.513,-53.438c-0.516,-3.843 -0.972,-7.843 -1.407,-12c0,0 -59.853,40.25 -215.825,28.719Z" style="fill:#b38412;fill-rule:nonzero;"/><path d="M2171.69,2538.62c-0.385,-0.032 -0.769,-0.032 -1.154,-0.032c-28.409,0.063 -48.418,28.063 -37.053,52.563c5.507,11.844 14.441,21 25.885,28.344c33.525,15.937 81.781,22.094 130.89,33.375c-3.943,-65.937 -3.546,-133.563 17.338,-196.656c10.944,-33.063 23.925,-63.657 52.919,-85.969c11.85,-9.094 26.068,-15.531 40.568,-21.406c-213.946,-18.813 -229.393,189.781 -229.393,189.781Z" style="fill:#ffe696;fill-rule:nonzero;"/><path d="M2152.98,2531.84c-34.653,14.218 18.734,116.781 323.469,110.75c84.759,-1.688 135.8,-34.282 139.359,-37.125c17.213,11.624 70.316,51.25 57.991,76.375c-12.288,25.031 -151.9,54.937 -270.166,36.625c-122.975,-19.031 -242.322,-73.782 -284.04,-123.5c-18.022,-21.5 -7.775,-53.844 20.278,-61.094c4.012,-1.031 8.381,-1.75 13.109,-2.031Z" style="fill:#ffb500;fill-rule:nonzero;"/><path d="M2266.32,2624.12c-118.553,-28.937 -137.638,-82.313 -113.341,-92.281c-4.728,0.281 -9.097,1 -13.109,2.031c-28.053,7.25 -38.3,39.594 -20.278,61.094c26.381,31.437 83.865,64.875 153.637,90.031c-1.294,-4.063 -15.856,-29.094 -6.909,-60.875Z" style="fill:#ffe696;fill-rule:nonzero;"/><path d="M2178.92,2521.93l23.64,-11.531l70.882,26.438l-8.457,87.718l-23.64,11.532l-62.425,-114.157Z" style="fill:#f2a71b;fill-rule:nonzero;"/><path d="M2170.96,2604.43l7.957,-82.5l70.878,26.438l-8.453,87.719l-70.382,-31.657Z" style="fill:#b38412;fill-rule:nonzero;"/><path d="M2359.32,4937.59l-33.075,198.125c0,0 82.472,263.468 91.556,299.093c9.081,35.657 35.375,161.094 36.15,183.657c7.938,-115.032 -77.725,-633.532 -94.631,-680.875Z" style="fill:#1c484f;fill-rule:nonzero;"/><path d="M4836.34,6796.9c-97.312,0 -177.531,-3.906 -188.906,-8.969c-1.062,0.032 -1.719,0.094 -1.719,0.094c1.032,-26.125 15.188,-102.062 93.407,-102.062l16.344,-1.282l27.468,-65.281c7.407,-17.656 28.782,-22.687 51.438,-22.687c4.062,0 8.188,0.156 12.25,0.437c8.75,-15.062 8.406,-44.656 4.968,-74.219l-73.093,-12.031l-45.5,-960.906c0,0 -28.719,-374.281 -54.375,-665.063c-73.625,217.094 -169.875,530 -139.938,602.813c79.594,193.344 123.407,737.594 132.625,927.781c1.094,22.656 -23.625,41.688 -52.375,53.781c-4.25,27.032 -10.937,62.407 -15.718,94.469c-4.469,29.75 4.187,59.906 24.156,84.688c1.344,1.687 2.625,3.312 3.75,4.875c31.562,18.875 24.531,74.406 17.156,101.093c-2.938,10.563 -32.5,12.969 -41.906,14.407c-28.687,4.437 -57.937,6.406 -87,8.093c-19,1.094 -41.156,1.532 -64.875,1.532c-67.062,0 -146.312,-3.469 -200.157,-5.032c-27.999,-0.843 -56.124,-3.468 -83.593,-8.156c-0.375,-0.062 -0.75,-0.125 -1.125,-0.187c4.094,-62.719 19.062,-94.969 131.968,-96.094c40.532,-0.406 119.907,-20.188 132.751,-53.219l0.156,-0.375c3.187,-8 11.75,-12.156 20.406,-12.156c5.438,0 10.969,1.656 15.188,5.062c16.437,-38.343 0.875,-141.156 0.75,-141.843l-55.563,-11.032c0,0 -157.25,-835.75 -177.75,-987.437c-53.156,-393.531 177.75,-1416.97 177.75,-1416.97l0.25,0c-21.031,-41.406 -26.5,-84.125 -17.656,-118.313c2.063,-7.937 4.219,-15.468 6.468,-22.749c-1.906,3.343 -3.343,5.75 -4.218,7.156c0.5,0.906 0.437,1.937 -0.187,2.625c-36.094,39.812 -76.938,44.938 -84.876,45.562l-0.249,0c-0.813,0 -1.594,-0.281 -2.251,-0.812l-20.218,-20.875c-118.313,-5.407 -299.031,-55.75 -346.875,-55.75c-4.625,0 -8,0.469 -9.969,1.5c-23.125,12.156 -24.688,64.969 -60.406,97.938c-29.219,27 -39.126,59.781 -57.375,59.781c-4.063,0 -8.532,-1.625 -13.751,-5.282c-13.093,-9.281 -15.062,-27.562 -13.405,-44.625c-3.969,-0.718 -7.969,-1.156 -12.001,-1.156l-9.031,-26.531c-12.812,5.281 -26.187,11.844 -32.437,18.156c-10.75,10.844 -28.156,64.281 -28.156,64.281c0,0 15.625,43.5 6.25,47.688c-0.344,0.156 -0.72,0.219 -1.157,0.219c-11.812,0 -59.062,-53.125 -61.094,-93.313c-1.75,-34.312 17.938,-80.031 24.969,-95.219c1.563,-3.343 3.688,-6.281 6.407,-8.781c4.624,-4.25 13.062,-11.969 23.656,-21.344c-9.313,-3.312 -16.063,-8.531 -12.469,-16.656c5.187,-11.781 36.062,-22.031 62.688,-25.844c27.499,-22.031 55.343,-41.812 70.531,-45.312c24.125,-5.563 177.625,-25.5 280.656,-38.594l-3.531,-3.625c-1.126,-0.875 -1.438,-2.187 -0.813,-3.188c6.219,-9.499 38.844,-56.406 88.438,-72.937c0.312,-0.094 0.656,-0.156 1.031,-0.156c0.937,0 1.938,0.375 2.656,1.031l5.344,6.375c36.812,-62.344 101.468,-139.437 98.343,-155.438c-40.906,-210.843 43.688,-428.062 146.532,-520.999c0,0 0.125,0.968 0.343,2.687c41.594,-41.594 97.219,-70.25 164.876,-95.781c-0.844,-0.313 -1.656,-0.625 -2.5,-0.969c0,0 5.062,-1.437 13.406,-3.781c0,-0.469 0.031,-0.938 0,-1.375l0,-0.469c-0.062,-6.031 -0.469,-12.187 -1.156,-18.312c-10.875,1.156 -32.438,4.062 -69.407,5.281c-2.281,0.063 -4.562,0.125 -6.968,0.187c-0.907,0.032 -1.813,0.063 -2.719,0.063c-47.25,0 -82.531,-38.563 -98,-85.938c-12.469,-38.093 -59.719,-238.5 -59.719,-238.5c-1.125,-3.499 -2.156,-6.968 -3.094,-10.406c-0.312,-1.125 -0.562,-2.219 -0.843,-3.312c-0.625,-2.281 -1.188,-4.563 -1.719,-6.813c-0.281,-1.312 -0.532,-2.562 -0.813,-3.844c-0.437,-2.031 -0.843,-4.062 -1.218,-6.062c-0.219,-1.313 -0.438,-2.625 -0.657,-3.906c-0.312,-1.969 -0.594,-3.875 -0.843,-5.813c-0.126,-0.906 -0.282,-1.875 -0.375,-2.781c-45.75,-5.062 -82.313,-12.906 -91.157,-24.656c-25.093,-33.188 78.657,-117.125 78.657,-117.125c4.625,-0.344 9.249,-0.657 13.875,-0.969c-4.626,0.312 -9.25,0.625 -13.875,0.969c2.812,-165.157 130.437,-246.094 261.906,-246.094c148.093,0 301.031,102.75 285.844,303.625c0,0 -3.625,-1 -10.376,-2.688c-4.812,50.219 -19.062,102.75 -34.031,147c7.438,10.063 11.344,22.844 14.563,35.157c4.906,18.687 -6.781,41.968 -19.156,56.812c-5.688,6.813 -24.125,13.656 -38.594,15.157c-0.187,0.406 -0.313,0.593 -0.313,0.593l-0.156,-0.562c-0.406,0.062 -0.812,0.125 -1.187,0.125c-3.532,22.968 -7.063,44.093 -9.719,59.437c-3.031,17.344 -11.719,33.156 -24.812,44.938l-0.157,0.156l0.406,0.562c1.532,2.188 3.063,4.375 4.531,6.438l0.469,0.656c7.251,10.156 13.844,19.094 20.032,27.063c9.999,12.906 18.968,23.437 27.906,32.968c26.781,6 55.344,16.688 84.281,31.032c65.875,29.968 134,81.562 196.813,152.593c21.594,19.438 43.593,43.657 65.75,73.125c125.437,166.844 284,523.719 275.031,616.938c-8.969,93.219 -75,206.437 -75,206.437c14.656,18.875 16.562,51.001 16.406,68.626c-0.062,7.593 -4.75,14.53 -11.781,17.624c-22.438,9.875 -43.687,17.375 -63.844,23.094c-21.531,41.282 -69.844,95.313 -124.375,149.469c-7,16.531 -16.562,29.281 -28.25,37.656c-1.406,1 -2.844,1.938 -4.312,2.813c75.406,520.281 -130.469,1326.44 -130.469,1326.44l10.625,43.656c20.781,85.563 27.75,173.875 20.719,261.625l-45.844,590.375c-2.031,26.532 -19.313,40.688 -42.625,49.313c-0.25,20.25 -0.031,40.937 0.969,59.937c2,36.469 27.406,61.625 26,80.25c-0.375,0.188 -0.782,0.313 -1.157,0.5c17.532,10.782 23.094,95.844 17.688,123.813c-0.312,3.375 -0.531,5.625 -0.531,5.844c0,5.625 -85.219,10.187 -190.376,10.187Zm-340.093,-161c10.906,7.875 24.063,12.438 42.156,12.656l0.625,0c-15.218,-4.218 -30.093,-8.625 -42.781,-12.656Zm-696.656,-2677.34c0,0 -3.782,1.188 -9.563,3.188l4.031,15.281c2.594,-10.812 5.532,-18.469 5.532,-18.469Zm591.718,-1576.09c-3.218,0.156 -6.406,0.343 -9.593,0.531c3.187,-0.188 6.375,-0.375 9.593,-0.531Zm14.282,-0.625c-3.094,0.124 -6.157,0.25 -9.25,0.406c3.093,-0.156 6.156,-0.282 9.25,-0.406Zm15.375,-0.5c-3.5,0.093 -7.032,0.187 -10.532,0.312c3.5,-0.125 7.032,-0.219 10.532,-0.312Zm17.312,-0.344c-4.656,0.063 -9.281,0.156 -13.906,0.25c4.625,-0.094 9.25,-0.187 13.906,-0.25Z" style="fill:#b7c5d0;fill-rule:nonzero;"/><rect x="3125.09" y="3988.18" width="1395.22" height="2171.12" style="fill:#6e7a82;fill-rule:nonzero;"/><rect x="3125.09" y="3988.18" width="145.813" height="2790.88" style="fill:#92a2ad;fill-rule:nonzero;"/><rect x="4363.72" y="3988.18" width="145.781" height="2790.88" style="fill:#92a2ad;fill-rule:nonzero;"/><rect x="3231.34" y="4087.52" width="1182.19" height="512.844" style="fill:#cadae5;fill-rule:nonzero;"/><rect x="3545.09" y="4322.74" width="541" height="106.781" style="fill:#fff;fill-rule:nonzero;"/><rect x="3231.34" y="4770.9" width="1182.19" height="512.844" style="fill:#cadae5;fill-rule:nonzero;"/><rect x="3545.09" y="5006.12" width="541" height="106.781" style="fill:#fff;fill-rule:nonzero;"/><rect x="3231.34" y="5454.27" width="1182.19" height="512.844" style="fill:#cadae5;fill-rule:nonzero;"/><rect x="3545.09" y="5689.49" width="541" height="106.781" style="fill:#fff;fill-rule:nonzero;"/><path d="M5134.93,6432.46c0,0 33.563,127.031 10.25,162.25c-6.25,9.468 126.813,81.437 168.188,59.093c1.438,-19 -24.5,-44.625 -26.5,-81.843c-3.594,-66.063 2.656,-151.938 3.531,-171.969" style="fill:#ffc39a;fill-rule:nonzero;"/><path d="M4762.87,6459.9c0,0 21.812,143.219 -11.938,158c-7.125,3.125 142.219,48.594 176.469,47.156c8.907,-0.343 3.844,-8.625 -4.937,-19.531c-20.344,-25.25 -29.156,-55.969 -24.625,-86.344c7.406,-49.437 19.25,-106.812 20.187,-130.343" style="fill:#ffc39a;fill-rule:nonzero;"/><path d="M5344.12,5547.3c0,0 236.562,-926.312 115.469,-1446.94l-314.844,-18.563l-438.531,-84.781c0,0 -235.438,1043.57 -181.25,1444.84c20.906,154.656 181.25,1006.84 181.25,1006.84l144.562,28.656c40.344,0 118.438,-29.031 116.5,-69.344c-9.375,-193.937 -54.062,-748.875 -135.219,-946.031c-30.562,-74.219 67.594,-393.309 142.688,-614.656c26.156,296.5 55.437,678.156 55.437,678.156l46.406,979.781l131.157,21.594c52.875,-8.656 117.469,-12.875 121.593,-66.313l46.719,-601.968c7.188,-89.5 0.063,-179.532 -21.125,-266.782l-10.812,-44.5Z" style="fill:#327f94;fill-rule:nonzero;"/><path d="M5459.59,4100.37l-314.844,-18.563l-438.531,-84.781c0,0 -8.563,38 -22.063,102.25c91.375,80.719 307.125,189.594 802.438,177c-5.532,-62.062 -14.282,-121.219 -27,-175.906Z" style="fill:#1c484f;fill-rule:nonzero;"/><path d="M4939.75,4399.93c0,0 -20.313,-19.718 2.344,126.25c22.656,146 88.093,999.313 88.093,999.313l46.406,979.781l131.157,21.594c9.187,-1.5 18.719,-2.875 28.218,-4.375l-101.468,-14.563l-66.656,-978.625c0,0 -83.063,-851.781 -108.719,-997.281c-25.688,-145.468 -11.875,-128.812 -11.875,-128.812" style="fill:#1c484f;fill-rule:nonzero;"/><path d="M4456.9,6764.65c-0.406,-0.062 -0.781,-0.125 -1.187,-0.187c4.187,-63.938 19.468,-96.844 134.562,-97.969c41.344,-0.406 122.281,-20.594 135.375,-54.281l0.156,-0.375c6,-14.938 30.344,-16.813 40.063,-3.344c16.25,22.469 33.156,36.719 65.906,37.156c22.844,0.313 45.563,-1.937 68.344,-1.75c61.437,0.406 52.812,76.688 43.687,109.688c-3,10.781 -33.156,13.218 -42.718,14.718c-29.25,4.5 -59.094,6.5 -88.719,8.219c-74.188,4.313 -195.938,-1.375 -270.281,-3.562c-28.532,-0.844 -57.188,-3.532 -85.188,-8.313Z" style="fill:#0a2327;fill-rule:nonzero;"/><path d="M5310.87,6653.62c-6.063,-2.406 -12.938,-3.156 -19.625,-4.063c-20.25,-2.656 -36.813,-8.031 -50.5,-20.25c-17.219,-15.437 -33.688,-26.531 -59.719,-31.375c-31.344,-5.843 -86.875,-13.093 -99.937,17.969l-27.969,66.563l-16.688,1.312c-79.781,0 -94.187,77.438 -95.25,104.063c0,0 0.656,-0.032 1.751,-0.063c11.593,5.125 93.405,9.125 192.624,9.125c107.219,0 194.126,-4.656 194.126,-10.375c0,-0.219 0.218,-2.531 0.531,-5.969c5.656,-29.218 -0.438,-119.468 -19.344,-126.937Z" style="fill:#0a2327;fill-rule:nonzero;"/><path d="M4596.4,3887.99c-130.781,-1.469 -355.843,-68.188 -379.406,-55.781c-23.563,12.375 -25.157,66.218 -61.594,99.875c-36.437,33.625 -43.406,76.125 -72.5,55.531c-29.125,-20.594 -4.5,-84.875 -4.5,-84.875c0,0 -49.594,15.438 -63.719,29.656c-10.968,11.063 -28.687,65.531 -28.687,65.531c0,0 15.938,44.375 6.344,48.657c-9.563,4.281 -61.313,-52.438 -63.469,-94.938c-1.781,-34.969 18.281,-81.625 25.468,-97.093c1.594,-3.407 3.782,-6.376 6.532,-8.938c20.531,-18.906 113.906,-103.625 147.25,-111.313c37.563,-8.656 382.625,-51.468 382.625,-51.468l105.656,205.156Z" style="fill:#ffc39a;fill-rule:nonzero;"/><path d="M4738.97,2931.3c-104.907,94.75 -191.157,316.25 -149.438,531.25c4,20.501 -101.5,139.75 -122,203.407l219.781,87.781c0,0 27.844,-65.75 68.813,-205.375c40.969,-139.625 -17.156,-617.063 -17.156,-617.063Z" style="fill:#ffe696;fill-rule:nonzero;"/><path d="M4618.31,3677.96c58.124,-12.438 84.124,-138.5 80.999,-164.344c-12.531,-104.625 -98.562,-237.844 -42.156,-440.438c12.219,-43.843 37.656,-76.125 72.063,-99.75c16.687,118.032 21.281,455.438 26.906,574.938c9.438,200 -66.375,313.75 -66.375,313.75l-205.938,-247.594c0,0 76.375,75.844 134.501,63.438Z" style="fill:#ffcb6a;fill-rule:nonzero;"/><path d="M4690.56,3863.18c-36.782,40.594 -78.438,45.813 -86.532,46.438c-0.906,0.062 -1.812,-0.219 -2.562,-0.812l-210.75,-217.563c-1.157,-0.875 -1.5,-2.219 -0.844,-3.219c6.344,-9.719 39.625,-57.531 90.156,-74.375c1.219,-0.406 2.782,-0.031 3.781,0.875l206.407,245.25c1.062,1 1.187,2.469 0.344,3.406Z" style="fill:#ffe696;fill-rule:nonzero;"/><path d="M4688.47,3876.4c27.094,-104.844 74.343,-148.719 36.843,-267.25c-49.562,-156.656 -100.937,-297.938 -68.093,-502.188c32.875,-204.218 176.344,-250.843 396.031,-318.874c96.937,-30.031 266.156,66.124 373.406,187.531c89.313,101.125 152.594,257.438 154.313,454.406c2.781,315.75 -85.157,397.125 -60.032,597.938c12.657,101.125 -15.187,165.562 -64.968,174.875c-49.75,9.281 -252.001,-46.188 -445.001,-48.125c-251.999,-2.563 -348.656,-177.094 -322.499,-278.313Z" style="fill:#f77f0f;fill-rule:nonzero;"/><path d="M5251.28,3007.52c-87.344,-104.156 -215.625,-120.281 -346.406,-172.125c0,0 162.812,-46.625 190.5,-46.656c101.469,-0.219 224.031,65.468 331.281,186.875c89.313,101.125 152.594,257.438 154.313,454.406c2.781,315.75 -85.157,397.125 -60.032,597.938c12.657,101.125 -15.187,165.562 -64.968,174.875c-33.5,6.25 -136.313,-16.844 -258.75,-33.188l0.031,-0.031c71.094,-24.688 31.406,-58.281 49.937,-125.781c18.532,-67.469 153.719,-107.407 86.532,-279.282c-54.063,-138.375 -22.657,-286.031 -125.313,-427.687c-78,-108.25 111.313,-247.688 42.875,-329.344Z" style="fill:#bc5c0d;fill-rule:nonzero;"/><path d="M5439.15,3813.52c9.25,-39.875 12.656,-85.875 12.656,-85.875c0,0 -143.343,-275.656 -221.312,-364.406c-77.969,-88.719 -166.094,-229.75 -88.563,-355.5c77.5,-125.75 211.25,-144.406 351.657,42.312c127.906,170.126 289.562,534 280.437,629.063c-9.156,95.062 -76.469,210.5 -76.469,210.5l-258.406,-76.094Z" style="fill:#ffe696;fill-rule:nonzero;"/><path d="M5490.12,3807.87c9.25,-39.875 12.625,-85.875 12.625,-85.875c0,0 -143.344,-275.656 -221.313,-364.375c-77.968,-88.75 -166.093,-229.781 -88.562,-355.531c28.312,-45.907 64.125,-77.532 105.031,-90.094c-62.25,-4.657 -116.437,31.594 -155.969,95.75c-77.531,125.75 10.594,266.781 88.563,355.5c77.969,88.75 221.312,364.406 221.312,364.406c0,0 -3.406,46 -12.656,85.875l258.406,76.094c0,0 3.813,-6.562 9.75,-17.781l-217.187,-63.969Z" style="fill:#ffcb6a;fill-rule:nonzero;"/><path d="M5423.47,3995.15l0.063,0c41.094,17.375 113.5,34.188 213.344,5.969l0.312,0c-50.75,97.218 -247.218,264.062 -331.062,340.875c-83.844,76.812 -72.5,-75.282 -72.5,-75.282l189.843,-271.562Z" style="fill:#ffc39a;fill-rule:nonzero;"/><path d="M5637.18,4001.12l-0.312,0c-46.281,13.062 -86.656,16.469 -120.75,14.625l-210,326.25c83.844,-76.813 280.312,-243.657 331.062,-340.875Z" style="fill:#ec996b;fill-rule:nonzero;"/><path d="M5697.56,3889.62l-249.718,-125.312l-8.688,49.218l258.406,76.094Z" style="fill:#ffcb6a;fill-rule:nonzero;"/><path d="M5697.56,3889.62l-289.093,-88.281l-22.782,159.593c-1.125,7.719 2.344,15.407 9.032,19.563c32.812,20.344 139.812,70.844 307.531,-2.937c7.187,-3.125 11.969,-10.219 12.031,-17.969c0.187,-17.969 -1.781,-50.719 -16.719,-69.969Z" style="fill:#ffe696;fill-rule:nonzero;"/><path d="M5343.22,4781.49c18,-10.125 24.406,-32.906 14.312,-50.938l-315.875,-563.031l-65.25,36.625l315.875,563c10.094,18.031 32.906,24.438 50.938,14.344Z" style="fill:#5a3538;fill-rule:nonzero;"/><path d="M4792.06,4146.62l21.75,-12.219c11.875,-6.656 26.532,-3.656 35.001,6.438l29.968,-16.813l-0.281,-0.375c-7.406,-9.187 -4.781,-22.844 5.531,-28.625l132.344,-74.25c0,0 105.344,-59.125 180.063,48.063c3.156,4.499 -0.844,10.593 -6.126,9.218c-29.656,-7.844 -96.999,-18.281 -142.906,29.344l13.594,37.969c3.125,8.781 -0.531,18.531 -8.656,23.094l-80.719,45.281c-8.125,4.562 -18.344,2.593 -24.219,-4.656l-5.625,-6.969l-44.375,24.906c5.406,12.906 0.531,28.063 -11.969,35.063l-21.75,12.218c-3.218,1.813 -7.281,0.657 -9.093,-2.562l-65.094,-116.031c-1.813,-3.219 -0.656,-7.282 2.562,-9.094Z" style="fill:#92a2ad;fill-rule:nonzero;"/><path d="M5238.81,4261.24c0,0 -60.531,38.344 -99.187,58.687c-38.625,20.344 -90.094,34.219 -107.188,89.375c-6.375,20.532 7.344,77.782 43.438,129.407c53.719,76.781 97.187,56.469 112.656,43.562c-4.562,-10.593 -25.75,-37 -3.062,-66.469c22.687,-29.468 28.249,-24.5 59.281,-44c46.625,-29.344 37.531,-88.374 54.969,-115.093" style="fill:#ffc39a;fill-rule:nonzero;"/><path d="M5014.15,3753.74c-45.187,-5.844 -161.75,-52.344 -278.437,-102.719c10.656,61.438 -4.75,101.969 -23.063,151.375c20.313,12.313 39.938,21 58.094,24.594c129.75,25.625 346.5,-59.969 346.5,-59.969l-103.094,-13.281Z" style="fill:#bc5c0d;fill-rule:nonzero;"/><path d="M4894.12,2723.62c0,0 40.562,95.562 17.218,147.094c13.657,37.062 137.063,38.875 251.438,-59.938c-30.281,-27.906 -52.156,-53.813 -97.031,-120.312c19.531,-27.313 -171.625,33.156 -171.625,33.156Z" style="fill:#ffc39a;fill-rule:nonzero;"/><path d="M4951.81,2841.62c75.813,-22.344 130.063,-61.375 159.657,-86.969c-12.813,-16.562 -27.313,-36.937 -45.719,-64.187c19.531,-27.313 -171.625,33.156 -171.625,33.156c0,0 29.281,69.094 23.719,121.437c17.218,-1.406 28.062,-2.937 33.968,-3.437Z" style="fill:#ec996b;fill-rule:nonzero;"/><path d="M4920.81,2810.65c-10.125,0.844 -34.625,4.719 -81.344,5.906c-49.562,1.532 -86.593,-38.343 -102.687,-87.562c-12.719,-38.844 -60.906,-243.219 -60.906,-243.219c-77.688,-242.5 276.969,-275.313 338.344,-256.375c61.781,19.063 90.25,94.969 114.187,169.063c8.688,26.812 8.469,72.281 4.437,120c-4.218,49.344 -15.499,118.187 -21.875,154.812c-3.062,17.656 -11.906,33.813 -25.281,45.781c-28.156,25.313 -84.406,67.844 -164.875,91.594Z" style="fill:#ffc39a;fill-rule:nonzero;"/><path d="M4759.15,2728.99c-12.718,-38.844 -60.906,-243.219 -60.906,-243.219c-63.937,-199.593 164.969,-257.125 282.219,-260.656c-106.907,-3.688 -372.907,47.375 -304.594,260.656c0,0 48.187,204.375 60.906,243.219c16.094,49.219 53.125,89.094 102.687,87.562c4.094,-0.093 7.969,-0.219 11.719,-0.375c-44.187,-4.031 -77.125,-41.593 -92.031,-87.187Z" style="fill:#ffdbc2;fill-rule:nonzero;"/><path d="M4739.12,2553.99c0.469,6.969 4.937,12.343 10,12c5.031,-0.344 8.781,-6.25 8.312,-13.188c-0.468,-6.968 -4.937,-12.312 -10,-12c-5.062,0.344 -8.781,6.25 -8.312,13.188Z" style="fill-rule:nonzero;"/><path d="M4885.65,2534.87c0.469,6.937 4.938,12.312 10,11.969c5.063,-0.344 8.781,-6.25 8.312,-13.188c-0.437,-6.969 -4.906,-12.312 -9.968,-12c-5.063,0.344 -8.782,6.25 -8.344,13.219Z" style="fill-rule:nonzero;"/><path d="M4943.37,2502.93c0,0 -43.5,-32.375 -77.344,0.531l1.875,-29.25c0,0 65.688,-26.563 75.469,28.719Z" style="fill:#42210b;fill-rule:nonzero;"/><path d="M4769.4,2509.74c0,0 -45.062,-20.782 -70.5,11.563c0,0 -2.312,-46.594 68.156,-35.157l2.344,23.594Z" style="fill:#42210b;fill-rule:nonzero;"/><path d="M4779.9,2642.9c0.094,4.719 0.719,10.125 4.563,12.813c2.468,1.687 5.593,1.843 8.562,1.969c21.563,0.75 44.219,1.249 63.281,-8.813c1.375,-10.344 -2.031,-20.656 -5.718,-30.406c-5.281,-13.969 -25.282,-78.719 -46.188,-69.5c-21.625,9.5 -24.875,74.937 -24.5,93.937Z" style="fill:#ec996b;fill-rule:nonzero;"/><path d="M4906.34,2696.87c-8.125,5.094 -17,8.719 -26.094,11.5c-4.531,1.5 -9.187,2.468 -13.844,3.531c-4.656,0.906 -9.375,1.563 -14.125,2.188c-4.75,0.375 -9.5,0.718 -14.25,0.812c-4.75,-0.062 -9.531,-0.031 -14.281,-0.531c-9.469,-0.813 -18.875,-2.5 -27.906,-5.75l0.062,-0.625c18.5,2 37.25,1.937 55.719,-0.125c18.531,-1.875 36.844,-5.75 54.531,-11.594l0.188,0.594Z" style="fill-rule:nonzero;"/><path d="M5196.15,2258.77c-27.062,-102.531 -118.406,-84.156 -118.406,-84.156l-0.031,0.125c-43.438,-61.532 -146.5,-108.594 -257.344,-91.906c-150.188,22.625 -38.719,263.437 91.875,240.968c12.969,-2.25 25.312,6.532 27.375,19.5c7.281,46.376 37.094,97.094 100.75,108c24.125,4.125 43.656,21.844 50.125,45.438l31.781,116.375c0,0 108.938,-221.438 73.875,-354.344Z" style="fill:#42210b;fill-rule:nonzero;"/><path d="M5086.06,2510.71c7.219,-12.282 19.376,-21.688 33.25,-24.844c13.876,-3.187 29.25,0.187 40.063,9.406c12.625,10.813 17.906,27.75 22.125,43.844c5,19.031 -6.937,42.781 -19.531,57.906c-8.75,10.469 -46.969,21.031 -56.438,12.906" style="fill:#ffc39a;fill-rule:nonzero;"/><path d="M5127.15,2551.87c2.781,14.312 10,24.906 16.125,23.719c6.125,-1.188 8.844,-13.75 6.063,-28.032c-2.782,-14.281 -10,-24.875 -16.126,-23.687c-6.124,1.187 -8.843,13.719 -6.062,28Z" style="fill:#ec996b;fill-rule:nonzero;"/><path d="M5211.9,2356.09c0,0 -291.094,-79.063 -558.5,-58.625c6.031,-358.094 587.781,-328.001 558.5,58.625Z" style="fill:#f2a71b;"/><path d="M5097.56,2330.59c0,0 -144.781,114.187 -196.281,118.187c-51.469,4 -302.531,1.969 -328.094,-31.906c-25.593,-33.844 80.219,-119.406 80.219,-119.406c163.031,-12.469 334.844,12.062 444.156,33.125Z" style="fill:#ffb500;"/><path d="M4824.78,2258.55c-19.937,2.656 -38.375,-11.468 -41,-31.406c-2.625,-19.937 11.469,-38.344 31.407,-41c19.937,-2.625 38.374,11.469 41,31.406c2.656,19.938 -11.469,38.375 -31.407,41Z" style="fill:#ffe696;"/><path d="M4046.28,3820.59l32.5,123.969c-7.062,-2.343 -14.375,-3.593 -21.812,-3.593l-37.875,-111.219c0,0 -55.875,-2.281 -46.813,-22.875c9.063,-20.594 95.156,-36.594 104.219,-22.875c9.062,13.719 -30.219,36.593 -30.219,36.593Z" style="fill:#92a2ad;fill-rule:nonzero;"/><path d="M8212.72,4035.24l0,317.969c0,34.843 -28.499,63.312 -63.343,63.312l-1495.28,0c-34.844,0 -63.313,-28.469 -63.313,-63.312l0,-317.969c0,-34.813 28.469,-63.313 63.313,-63.313l1495.28,0c34.844,0 63.343,28.5 63.343,63.313Z" style="fill:#cadae5;fill-rule:nonzero;"/><path d="M7545.87,3681.55c-5.594,11.875 -18.437,16.844 -18.437,16.844c-9.126,-0.312 -217.532,-6.343 -243.813,273.531l-66.594,0c8.875,-94.562 52.344,-223.594 170.938,-289.156c71.281,-39.375 156.468,-34.187 159.312,-34.093l0.156,0.375c1.157,2.218 6.813,14.875 -1.562,32.499Z" style="fill:#92a2ad;fill-rule:nonzero;"/><path d="M7545.87,3681.55c-5.594,11.875 -18.437,16.844 -18.437,16.844c-9.126,-0.312 -217.532,-6.343 -243.813,273.531l-33.594,0c8.844,-94.562 52.344,-223.594 170.906,-289.156c44.594,-24.594 94.594,-31.812 126.5,-33.718c1.157,2.218 6.813,14.875 -1.562,32.499Z" style="fill:#6e7a82;fill-rule:nonzero;"/><path d="M8212.72,4294.93l0,18.563c0,27.469 -28.062,49.937 -62.343,49.937l-1472.09,0c-34.281,0 -62.344,-22.468 -62.344,-49.937l0,-250.75c0,-27.469 28.063,-49.938 62.344,-49.938l201.062,0c146.938,68.251 736.5,320.907 1333.38,282.125Z" style="fill:#dfe9ef;fill-rule:nonzero;"/><rect x="5903" y="4398.37" width="370.375" height="2416.16" style="fill:#92a2ad;fill-rule:nonzero;"/><rect x="6276.37" y="4405.21" width="2250.66" height="2416.19" style="fill:#cadae5;fill-rule:nonzero;"/><rect x="6276.37" y="4405.21" width="1778.38" height="2416.19" style="fill:#6e7a82;fill-rule:nonzero;"/><rect x="6276.37" y="4405.21" width="435.469" height="2416.19" style="fill:#cadae5;fill-rule:nonzero;"/><rect x="8513.78" y="4405.21" width="671.469" height="2416.19" style="fill:#92a2ad;fill-rule:nonzero;"/><path d="M7582.87,5593.3l-407.344,0c-24.875,0 -45.031,-20.187 -45.031,-45.062l0,-561.312c0,-24.907 20.156,-45.063 45.031,-45.063l95.062,0l0,-456l49.969,0l0,456l262.313,0c24.875,0 45.031,20.156 45.031,45.063l0,561.312c0,24.875 -20.156,45.062 -45.031,45.062Z" style="fill:#adb6bd;fill-rule:nonzero;"/><path d="M7155.22,5271.55l0,-284.624c0,-11.216 9.124,-20.344 20.312,-20.344l407.344,0c11.187,0 20.313,9.128 20.313,20.344l0,284.624l-447.969,0Z" style="fill:#cadae5;fill-rule:nonzero;"/><path d="M7427.75,4547.68l-325.625,0l0,34.594l325.625,0c13.594,0 24.656,11.063 24.656,24.656l0,341.938l34.594,0l0,-341.938c0,-32.656 -26.594,-59.25 -59.25,-59.25Z" style="fill:#d6dbde;fill-rule:nonzero;"/><path d="M7486.69,4821.4l-33.594,0c-10.156,0 -18.469,-8.281 -18.469,-18.437l0,-110.156c0,-10.125 8.313,-18.438 18.469,-18.438l33.594,0c10.125,0 18.437,8.313 18.437,18.438l0,110.156c0,10.156 -8.312,18.437 -18.437,18.437Z" style="fill:#cadae5;fill-rule:nonzero;"/><path d="M7545.87,4725.09l-76,0l0,39.531l50.375,0l20.656,46.188l526.407,0l0,-39.532l-500.782,0l-20.656,-46.187Z" style="fill:#c1c8cd;fill-rule:nonzero;"/><rect x="7249.94" y="4408.24" width="94.781" height="78.969" style="fill:#cadae5;fill-rule:nonzero;"/><path d="M7020.44,4406.8l-49.407,0l1.406,135.594c0,26.094 21.251,47.313 47.313,47.313l88,0l0,-49.407l-85.875,0l-1.437,-133.5Z" style="fill:#cadae5;fill-rule:nonzero;"/></svg>