<svg xmlns="http://www.w3.org/2000/svg" xmlns:xlink="http://www.w3.org/1999/xlink" viewBox="0 0 48 48"><defs><style>.cls-1{fill:url(#linear-gradient);}.cls-2{fill:url(#linear-gradient-2);}.cls-3{fill:url(#linear-gradient-3);}</style><linearGradient id="linear-gradient" x1="24" y1="61" x2="24" y2="1.8" gradientUnits="userSpaceOnUse"><stop offset="0" stop-color="#273a9b"/><stop offset="0.56" stop-color="#202f65"/><stop offset="1" stop-color="#021e2f"/></linearGradient><linearGradient id="linear-gradient-2" x1="24" y1="69.36" x2="24" y2="21.64" xlink:href="#linear-gradient"/><linearGradient id="linear-gradient-3" x1="24" y1="39.83" x2="24" y2="2.07" gradientUnits="userSpaceOnUse"><stop offset="0" stop-color="#27e9de"/><stop offset="0.52" stop-color="#03a4ec"/><stop offset="1" stop-color="#2547a8"/></linearGradient></defs><title>arrow, up, upload, move</title><g id="ART"><circle class="cls-1" cx="24" cy="24" r="21"/><path class="cls-2" d="M13.18,27V42a20.85,20.85,0,0,0,21.64,0V27L24,22.17Z"/><path class="cls-3" d="M34.43,26l-9.48-9.48a1.34,1.34,0,0,0-1.89,0L13.57,26a1.34,1.34,0,0,0,0,1.89l2.35,2.35a1.34,1.34,0,0,0,1.89,0L24,24l6.19,6.18a1.34,1.34,0,0,0,1.89,0l2.35-2.35A1.34,1.34,0,0,0,34.43,26Z"/></g></svg>