<?xml version="1.0" encoding="UTF-8" standalone="no"?><!DOCTYPE svg PUBLIC "-//W3C//DTD SVG 1.1//EN" "http://www.w3.org/Graphics/SVG/1.1/DTD/svg11.dtd"><svg width="100%" height="100%" viewBox="0 0 1807 1807" version="1.1" xmlns="http://www.w3.org/2000/svg" xmlns:xlink="http://www.w3.org/1999/xlink" xml:space="preserve" xmlns:serif="http://www.serif.com/" style="fill-rule:evenodd;clip-rule:evenodd;stroke-linejoin:round;stroke-miterlimit:2;"><g><clipPath id="_clip1"><path d="M1398.11,155.29l-1223.75,244.28l249.318,1248.98l1223.75,-244.28l-249.318,-1248.98Z"/></clipPath><g clip-path="url(#_clip1)"><path d="M1506.28,0l-1506.28,300.678l300.678,1506.28l1506.28,-300.678l-300.678,-1506.28Z" style="fill:none;"/><path d="M1107.92,643.309l30.042,15.658l0.224,-137.629l-121.183,63.67l27.279,19.809l-149.903,239.569l64.517,40.299l149.024,-241.376Z" style="fill:#b3f400;fill-rule:nonzero;"/><g><path d="M1193.74,782.252l26.821,13.726l-13.767,-103.819l-95.329,40.32l24.921,16.681l-101.615,171.198l58.275,34.511l100.694,-172.617Z" style="fill:#b3f400;fill-rule:nonzero;"/></g><clipPath id="_clip2"><path d="M899.957,427.913l-180.274,291.483l157.049,97.131l180.274,-291.484l-157.049,-97.13Z"/></clipPath><g clip-path="url(#_clip2)"><path d="M1026.57,484.579l38.333,19.764l-0.491,-175.211l-153.914,81.74l34.84,25.063l-189.482,305.832l82.361,50.938l188.353,-308.126Z" style="fill:#b3f400;fill-rule:nonzero;"/></g><g><path d="M1278.76,340.679c-78.81,-52.582 -171.472,-68.243 -257.575,-51.056c-86.102,17.187 -165.65,67.225 -218.232,146.035c-52.583,78.811 -68.244,171.473 -51.057,257.575c17.188,86.102 67.225,165.65 146.035,218.233l0.003,0.001c78.81,52.582 171.471,68.243 257.572,51.056c86.102,-17.187 165.648,-67.224 218.231,-146.034l0.001,-0.002c52.582,-78.81 68.244,-171.473 51.056,-257.575c-17.187,-86.103 -67.225,-165.651 -146.035,-218.232l0.001,-0.001Zm-248.179,-3.983c74.061,-14.784 153.76,-1.315 221.541,43.908c67.781,45.224 110.817,113.645 125.601,187.705c14.783,74.059 1.314,153.76 -43.909,221.541l-0.001,0.002c-45.224,67.78 -113.643,110.815 -187.703,125.599c-74.059,14.783 -153.758,1.314 -221.538,-43.908l-0.002,-0.002c-67.781,-45.223 -110.817,-113.644 -125.601,-187.703c-14.783,-74.061 -1.315,-153.761 43.909,-221.542c45.223,-67.781 113.644,-110.817 187.703,-125.6l0,0Z" style="fill:#00629f;fill-rule:nonzero;stroke:#00629f;stroke-width:40.63px;"/><path d="M875.542,1053.14c9.042,-14.045 4.981,-32.789 -9.064,-41.831l54.508,-74.002l-52.562,-31.455l-50.943,73.911c-14.045,-9.042 -32.789,-4.981 -41.831,9.064l-325.566,505.674c-9.043,14.045 -4.982,32.789 9.063,41.831l48.997,31.546c14.045,9.042 32.789,4.981 41.831,-9.064l325.567,-505.674Z" style="fill:#00629f;"/><path d="M857.129,1006.54c-3.455,5.691 -10.616,7.12 -15.992,3.193c-5.376,-3.928 -6.932,-11.725 -3.476,-17.416l73.84,-121.581c3.456,-5.69 10.616,-7.12 15.992,-3.192c5.376,3.927 6.932,11.725 3.476,17.415l-73.84,121.581Z" style="fill:#00629f;fill-rule:nonzero;"/></g><path d="M1506.28,0l-1506.28,300.678l300.678,1506.28l1506.28,-300.678l-300.678,-1506.28Z" style="fill:none;"/><clipPath id="_clip3"><path d="M898.828,429.504l101.302,-163.794l157.049,97.13l-101.302,163.794l-157.049,-97.13Z"/></clipPath><g clip-path="url(#_clip3)"><path d="M1025.44,486.171l38.334,19.763l-0.492,-175.211l-153.914,81.741l34.84,25.063l-189.482,305.831l82.361,50.939l188.353,-308.126Z" style="fill:#b3f400;fill-rule:nonzero;"/></g></g></g></svg>