<?xml version="1.0" encoding="UTF-8" standalone="no"?><!DOCTYPE svg PUBLIC "-//W3C//DTD SVG 1.1//EN" "http://www.w3.org/Graphics/SVG/1.1/DTD/svg11.dtd"><svg width="100%" height="100%" viewBox="0 0 27624 15808" version="1.1" xmlns="http://www.w3.org/2000/svg" xmlns:xlink="http://www.w3.org/1999/xlink" xml:space="preserve" xmlns:serif="http://www.serif.com/" style="fill-rule:evenodd;clip-rule:evenodd;stroke-linejoin:round;stroke-miterlimit:2;"><path d="M3189.95,9277.78c-794.531,339.83 -3369.81,1441.29 -3179.99,2472.57c131.836,716.224 1496.95,853.008 5623.2,2313.32c3441.52,1218.1 3317.07,1414.97 4496.02,1542.97c2521.67,273.568 3212.88,-613.932 6241.26,-339.974c1898.7,171.745 1992.71,553.776 3619.66,540.365c638.933,-5.209 2653.39,-42.578 4542.06,-1076.69c1669.66,-914.323 3598.83,-2644.08 2970.05,-3743.68c-332.175,-580.729 -1265.49,-794.557 -1705.73,-890.508c-9655.6,-2104.74 -16242.1,-3540.43 -22606.5,-818.359Z" style="fill:#efeef7;fill-rule:nonzero;"/><path d="M6925.02,12171.1c-17.526,191.927 -201.445,341.368 -351.966,456.302c-205.911,157.188 -459.141,259.349 -718.347,250.222c-254.322,-8.946 -582.096,-123.164 -755.455,-362.448c-94.974,-131.107 -105.651,-247.37 -236.289,-297.604c-209.336,-80.378 -584.544,94.375 -795,136.901c-29.948,6.041 -61.107,11.849 -90.287,5.065c-130.247,-30.365 -128.633,-223.216 -133.867,-325.651c-6.054,-118.959 35.469,-317.552 -136.002,-326.641c-118.868,-6.328 -274.206,69.128 -370.651,-23.06c-9.714,-9.31 -47.422,-45.364 -43.451,-91.94c6.849,-80.091 144.505,-127.161 204.102,-159.7c118.528,-64.74 241.054,-122.253 366.562,-172.058c121.602,-48.255 236.68,-41.08 362.018,-64.974c114.193,-21.757 198.268,-85.859 292.057,-149.726c174.024,-118.464 375.261,-205.599 579.831,-254.18c315.053,-74.844 639.193,-11.211 935.807,75.781c267.553,78.49 621.042,164.74 734.076,438.724c41.836,101.446 45.951,213.112 72.617,318.815c39.922,158.269 175.781,171.146 292.097,260.235c46.275,35.443 101.081,87.682 23.372,130.26c-74.205,40.703 -226.757,24.193 -230,135.482c-0.208,6.797 -0.625,13.528 -1.224,20.195Z" style="fill:#c6c2e1;fill-rule:nonzero;"/><path d="M3611.37,11535.2c449.05,-100.469 906.628,-176.029 1367.36,-188.776c299.075,-8.268 601.511,9.974 892.708,82.226c193.959,48.099 374.727,118.789 546.758,219.154c116.485,67.943 222.956,149.622 333.763,225.937c39.805,27.422 80.703,53.946 125.039,73.503c72.852,32.149 154.076,33.685 232.188,43.529c18.711,2.343 37.408,4.7 56.119,7.096c39.779,4.987 39.401,-57.487 0,-62.435c-54.205,-6.888 -108.359,-13.711 -162.565,-20.534c-12.59,-1.588 -25.208,-3.19 -37.773,-4.765c-4.089,-0.521 -8.138,-0.977 -12.201,-1.537c-7.851,-1.094 2.384,0.143 2.331,0.117c-9.661,-3.281 -19.713,-5.338 -29.388,-8.763c-4.961,-1.744 -9.844,-3.672 -14.765,-5.599c-7.279,-2.838 6.393,2.891 -1.016,-0.416c-2.825,-1.25 -5.664,-2.487 -8.489,-3.789c-10.222,-4.701 -20.261,-9.805 -30.144,-15.196c-21.497,-11.666 -42.317,-24.648 -62.747,-38.177c-107.904,-71.341 -209.193,-151.861 -319.688,-219.505c-164.844,-100.885 -343.515,-177.63 -529.518,-229.961c-278.268,-78.333 -569.7,-105.39 -857.982,-105.104c-438.607,0.404 -876.432,62.513 -1305.46,149.753c-67.2,13.645 -134.218,28.06 -201.132,43.02c-39.193,8.763 -22.604,68.998 16.601,60.222Z" style="fill:#fff;fill-rule:nonzero;"/><path d="M4665.15,11302.6c-229.479,95.221 -429.57,265.612 -534.101,494.075c-9.883,21.615 -18.568,43.659 -26.875,65.886c-14.05,37.708 46.276,53.984 60.221,16.601c1.979,-5.299 3.867,-10.651 5.899,-15.911c1.588,-4.271 3.281,-8.477 4.947,-12.683c0.56,-1.367 3.412,-8.281 1.993,-4.883c-1.302,3.113 2.291,-5.325 3.047,-6.992c14.362,-32.5 30.82,-63.984 49.14,-94.427c58.425,-97.005 135.768,-182.708 225.677,-251.562c69.18,-53.021 146.198,-96.498 226.641,-129.883c36.602,-15.195 20.547,-75.651 -16.589,-60.221Z" style="fill:#fff;fill-rule:nonzero;"/><path d="M5485.24,11312.6c-308.724,62.539 -595.755,214.856 -777.343,478.398c-50.665,73.581 -90.938,153.32 -123.698,236.315c-14.766,37.37 45.586,53.607 60.208,16.615c109.44,-277.253 325.404,-488.255 602.318,-597.149c82.578,-32.448 168.203,-56.354 255.13,-73.958c39.336,-7.982 22.682,-68.177 -16.615,-60.221Z" style="fill:#fff;fill-rule:nonzero;"/><path d="M4366.74,11337.5c-9.102,-3.242 -18.138,-6.718 -27.083,-10.39c0,0 -8.881,-3.698 -4.141,-1.68c-1.979,-0.833 -3.932,-1.693 -5.912,-2.539c-5.065,-2.201 -10.117,-4.427 -15.13,-6.706c-21.562,-9.739 -42.864,-20.039 -63.984,-30.677c-35.951,-18.112 -71.537,-37.031 -106.393,-57.226c-34.831,-20.196 -66.302,33.763 -31.511,53.945c75.677,43.828 155.013,86.081 237.539,115.495c15.886,5.638 34.18,-6.407 38.412,-21.823c4.74,-17.266 -5.847,-32.735 -21.797,-38.399Z" style="fill:#fff;fill-rule:nonzero;"/><path d="M6745.88,11807.2c-3.229,0.677 -11.967,1.667 1.146,0.026c-3.308,0.417 -6.641,0.82 -9.974,1.185c-9.714,1.003 -19.376,1.992 -29.115,2.995c-29.375,3.02 -58.776,6.367 -88.06,10.26c-88.581,11.81 -176.55,28.203 -262.63,52.331c-199.219,55.846 -407.331,156.38 -513.763,342.995c-71.172,124.818 -81.81,269.166 -58.672,408.698c6.588,39.57 66.757,22.773 60.221,-16.602c-18.919,-113.88 -12.057,-234.479 40.716,-338.893c44.922,-88.893 117.123,-159.531 200.443,-212.774c156.406,-99.96 343.333,-146.315 525.299,-172.122c24.649,-3.503 62.67,-7.969 94.506,-11.237c18.659,-1.94 38.059,-2.787 56.471,-6.641c39.297,-8.268 22.682,-68.463 -16.588,-60.221Z" style="fill:#fff;fill-rule:nonzero;"/><path d="M5675.67,11044.8c-9.023,58.242 15.912,118.985 41.185,170.143c38.529,77.904 94.193,148.139 159.401,205.352c30.091,26.432 74.427,-17.578 44.154,-44.141c-59.453,-52.161 -109.284,-114.205 -145.521,-184.622c-13.034,-25.3 -24.036,-51.524 -31.601,-78.984c-1.772,-6.381 -3.347,-12.813 -4.662,-19.31c-0.456,-2.266 -2.409,-15.3 -1.732,-9.245c-0.573,-5.156 -0.976,-10.339 -0.99,-15.534c-0.025,-3.008 1.433,-16.536 -0.025,-7.044c2.565,-16.654 -4.245,-33.568 -21.81,-38.412c-14.805,-4.049 -35.821,5.039 -38.399,21.797Z" style="fill:#fff;fill-rule:nonzero;"/><path d="M4893.14,10923.3c-50.065,74.218 -56.81,160.768 -15.195,240.39c38.216,73.138 104.44,128.529 169.596,176.902c13.529,10.064 34.857,2.213 42.708,-11.199c9.31,-15.924 2.37,-32.656 -11.197,-42.734c-53.985,-40.091 -108.36,-86.276 -142.188,-145.325c-15.091,-26.367 -25.195,-55.508 -25.221,-86.133c-0.026,-37.057 15.026,-70.144 35.429,-100.365c22.513,-33.424 -31.562,-64.726 -53.932,-31.536Z" style="fill:#fff;fill-rule:nonzero;"/><path d="M6471.44,11185.6c-39.154,108.334 -26.147,228.829 9.817,336.212c33.359,99.569 85.846,195.715 157.539,272.968c27.396,29.531 71.472,-14.713 44.141,-44.153c-64.193,-69.167 -111.563,-156.25 -141.472,-245.417c-32.786,-97.787 -45.507,-204.245 -9.804,-303.008c13.672,-37.865 -46.641,-54.18 -60.221,-16.602Z" style="fill:#fff;fill-rule:nonzero;"/><path d="M6161.62,11461.5c-142.084,26.458 -280.756,80.39 -406.341,151.471c-118.386,66.967 -236.199,155.026 -304.649,275.183c-19.922,34.961 34.011,66.445 53.906,31.51c64.544,-113.307 177.266,-194.245 289.037,-256.589c119.427,-66.627 250.026,-116.315 384.661,-141.354c39.44,-7.343 22.747,-67.539 -16.614,-60.221Z" style="fill:#fff;fill-rule:nonzero;"/><path d="M7024,10067.9c151.602,-88.659 203.816,-298.164 240.469,-466.836c50.13,-230.664 36.575,-479.115 -71.159,-689.505c-105.676,-206.381 -326.64,-432.695 -591.094,-483.255c-144.934,-27.722 -244.987,8.424 -336.9,-80c-147.253,-141.654 -148.112,-518.789 -194.362,-708.919c-6.576,-27.058 -13.816,-54.988 -30.716,-76.472c-75.391,-95.729 -233.894,-19.883 -320.443,15.43c-100.495,40.95 -248.347,151.992 -322.123,13.997c-51.172,-95.625 -48.945,-253.008 -162.304,-296.927c-11.406,-4.427 -55.755,-21.615 -92.657,-0.325c-63.463,36.614 -49.062,168.411 -52.89,230.156c-7.604,122.812 -7.735,246.198 -0.3,369.01c7.162,118.984 57.605,211.146 86.328,323.842c26.172,102.629 5.782,196.783 -10.664,298.867c-30.52,189.4 -24.622,389.14 14.362,576.731c60.014,288.881 237.826,531.758 424.271,742.93c168.177,190.43 375.99,448.789 645.768,436.146c99.87,-4.675 193.607,-44.414 291.12,-63.268c146.055,-28.243 209.206,78.906 327.67,140.456c47.122,24.478 111.418,49.504 116.536,-31.055c4.87,-76.992 -67.708,-196.498 22.89,-242.201c5.521,-2.786 10.912,-5.742 16.198,-8.802Z" style="fill:#c6c2e1;fill-rule:nonzero;"/><path d="M5160.21,7592.35c91.146,411.524 206.797,819.818 374.349,1207.24c110.039,254.335 244.206,499.935 417.904,716.666c115.664,144.337 249.883,272.591 401.432,378.803c102.032,71.523 211.745,129.127 319.323,191.51c20.586,11.953 40.977,24.219 60.756,37.396c8.88,5.885 17.565,12.005 26.145,18.268c2.214,1.589 4.349,3.255 6.511,4.883c3.828,2.903 -5.846,-4.701 -0.027,0.013c4.271,3.424 8.503,6.862 12.683,10.43c14.271,12.252 28.177,25.599 39.635,40.573c-9.258,-12.097 1.915,4.114 3.659,6.874l20.313,32.123c17.175,27.188 34.349,54.375 51.497,81.536c8.92,14.089 17.839,28.204 26.745,42.292c21.393,33.88 75.482,2.604 53.893,-31.511c-26.471,-41.927 -52.956,-83.841 -79.453,-125.755c-15.221,-24.088 -29.284,-48.099 -49.14,-68.698c-30.496,-31.653 -67.501,-57.122 -104.74,-80.195c-98.555,-61.224 -202.826,-112.422 -300.169,-175.781c-143.581,-93.425 -271.068,-204.935 -385.99,-336.471c-170.495,-195.092 -303.242,-421.224 -413.177,-655c-169.636,-360.769 -286.94,-745.339 -380.404,-1132.14c-14.44,-59.739 -28.255,-119.635 -41.523,-179.674c-8.685,-39.206 -68.907,-22.605 -60.222,16.614Z" style="fill:#fff;fill-rule:nonzero;"/><path d="M5493.04,8533.93c-9.323,-211.367 51.015,-428.984 189.102,-590.547c11.926,-13.972 24.609,-27.188 37.473,-40.299c28.164,-28.699 -15.963,-72.904 -44.166,-44.154c-113.75,115.924 -190.977,265.169 -224.805,423.815c-17.578,82.513 -23.763,166.992 -20.039,251.185c1.771,40.025 64.219,40.26 62.435,0Z" style="fill:#fff;fill-rule:nonzero;"/><path d="M5817.14,9198.54c-63.49,-262.083 -53.099,-540.612 84.635,-778.099c38.932,-67.122 86.054,-128.503 139.271,-184.909c27.539,-29.231 -16.537,-73.476 -44.154,-44.14c-98.034,103.958 -175.872,224.804 -223.945,359.7c-46.563,130.599 -63.073,271.276 -55.143,409.389c4.947,85.884 18.88,171.132 39.114,254.661c9.479,39.049 69.688,22.513 60.222,-16.602Z" style="fill:#fff;fill-rule:nonzero;"/><path d="M5390.9,8238.45c-28.893,-29.18 -60.937,-55.287 -93.164,-80.638c-30.976,-24.388 -62.46,-48.177 -94.817,-70.69c-13.464,-9.349 -35.274,-2.891 -42.709,11.224c-8.437,15.925 -3.164,32.747 11.198,42.708c13.243,9.193 26.29,18.646 39.258,28.243c8.203,6.08 16.381,12.226 24.519,18.398c2.122,1.641 4.244,3.268 6.366,4.896c4.623,3.541 -1.653,-1.329 1.185,0.924c4.35,3.372 8.711,6.758 13.008,10.156c31.498,24.818 62.761,50.378 90.99,78.933c11.51,11.64 32.799,12.382 44.166,0c11.498,-12.513 12.266,-31.732 0,-44.154Z" style="fill:#fff;fill-rule:nonzero;"/><path d="M6712.58,10047.6c-8.646,-36.498 -24.752,-72.058 -36.158,-107.774c-22.995,-72.044 -42.214,-145.351 -55.639,-219.792c-30.937,-171.341 -34.271,-366.979 64.883,-517.968c65.938,-100.456 172.24,-160.704 285.795,-192.656c38.645,-10.873 22.213,-71.146 -16.589,-60.222c-110.495,31.107 -216.25,86.758 -290.039,176.654c-62.37,75.977 -99.557,168.346 -114.805,265.065c-28.099,178.698 4.727,363.021 56.524,534.479c13.958,46.237 34.7,91.849 45.807,138.815c9.284,39.089 69.479,22.526 60.221,-16.601Z" style="fill:#fff;fill-rule:nonzero;"/><path d="M5645.86,9520.84c3.178,-2.122 6.472,-3.959 9.896,-5.703c5.547,-2.852 -0.13,-0.404 6.276,-2.539c9.701,-3.191 19.518,-5.742 29.545,-7.67c25.547,-4.883 51.966,-5.494 77.903,-4.752c69.857,2.018 140.039,18.255 204.089,46.185c15.442,6.731 33.502,4.544 42.734,-11.211c7.721,-13.23 4.323,-35.951 -11.198,-42.708c-74.609,-32.54 -154.075,-52.344 -235.625,-54.714c-49.752,-1.432 -112.044,0.534 -155.13,29.206c-33.307,22.174 -2.057,76.25 31.51,53.906Z" style="fill:#fff;fill-rule:nonzero;"/><path d="M5259.26,8905.41c33.281,-55.755 83.971,-82.422 148.594,-77.253c61.119,4.87 119.921,33.191 173.124,61.824c35.378,19.075 66.954,-34.818 31.537,-53.92c-65.781,-35.416 -137.591,-67.487 -213.32,-70.885c-82.904,-3.75 -151.836,38.333 -193.867,108.698c-20.639,34.596 33.333,66.028 53.932,31.536Z" style="fill:#fff;fill-rule:nonzero;"/><path d="M6075.94,10118.2c66.524,-66.446 160.561,-97.448 252.475,-107.071c85.429,-8.945 174.257,-3.463 256.354,22.839c38.359,12.304 54.791,-47.969 16.614,-60.195c-91.341,-29.284 -192.122,-35.196 -286.953,-23.451c-103.906,12.839 -207.227,48.386 -282.643,123.737c-28.451,28.438 15.677,72.604 44.153,44.141Z" style="fill:#fff;fill-rule:nonzero;"/><path d="M6201.5,9699.11c-31.223,-120.378 -39.974,-246.914 -31.223,-370.807c8.177,-116.042 32.487,-239.128 100.677,-335.807c23.19,-32.904 -30.912,-64.141 -53.933,-31.524c-72.955,103.477 -99.049,235.638 -108.633,359.623c-10.182,131.614 -0.286,267.174 32.891,395.13c10.104,38.854 70.312,22.383 60.221,-16.615Z" style="fill:#fff;fill-rule:nonzero;"/><path d="M4433.52,10354.2c0,0 345,-246.341 942.409,106.979c-270.261,227.839 -593.49,335.808 -942.409,-106.979Z" style="fill:#9594c9;fill-rule:nonzero;"/><path d="M5362.75,9661.65c0,0 -256.081,258.412 -38.816,813.06c230.117,-197.682 366.003,-456.641 38.816,-813.06Z" style="fill:#9594c9;fill-rule:nonzero;"/><path d="M4009.91,9686.75c0,0 320.924,-145.377 751.263,238.763c-256.992,142.357 -537.93,178.399 -751.263,-238.763Z" style="fill:#9594c9;fill-rule:nonzero;"/><path d="M4732.54,9142.82c0,0 -238.711,259.128 -8.893,788.229c215.742,-199.388 338.086,-454.844 8.893,-788.229Z" style="fill:#9594c9;fill-rule:nonzero;"/><path d="M3663.21,9275.8c0,0 198.464,-137.917 536.458,67.877c-155.715,127.904 -340.781,187.11 -536.458,-67.877Z" style="fill:#9594c9;fill-rule:nonzero;"/><path d="M4159.47,8904.11c0,0 -117.604,136.706 35.847,443.242c121.575,-125.273 170.26,-256.054 -35.847,-443.242Z" style="fill:#9594c9;fill-rule:nonzero;"/><path d="M5053.01,10932c0,0 383.841,-367.878 981.289,-14.545c-152.682,254.063 -444.714,445.04 -981.289,14.545Z" style="fill:#9594c9;fill-rule:nonzero;"/><path d="M5909.2,10094c0,0 -275.977,366.758 88.086,842.617c202.148,-156.901 335.924,-426.771 -88.086,-842.617Z" style="fill:#9594c9;fill-rule:nonzero;"/><path d="M5683.99,11456.1c0,0 295.886,-441.745 955.274,-225c-94.544,280.951 -338.711,530.17 -955.274,225Z" style="fill:#9594c9;fill-rule:nonzero;"/><path d="M6604.28,10256.1c0,0 -369.414,382.383 -18.529,981.224c254.714,-151.653 446.836,-442.89 18.529,-981.224Z" style="fill:#9594c9;fill-rule:nonzero;"/><path d="M3886.14,8970.35c18.958,61.914 57.695,117.917 94.818,170.118c58.255,81.926 122.239,159.882 187.526,236.275c161.692,189.167 333.724,369.622 508.828,546.342c158.75,160.208 320.377,318.216 488.997,468.059c77.656,69.011 158.75,133.229 240.977,196.797c151.732,117.383 306.471,231.042 468.346,334.206c160.534,102.318 327.969,193.789 503.464,267.93c187.278,79.075 382.421,135.312 579.127,185.52c48.294,12.331 96.628,24.362 144.975,36.381c66.314,16.471 94.583,-85.873 28.228,-102.357c-194.843,-48.451 -390.156,-97.005 -579.231,-165.117c-175.886,-63.347 -343.776,-146.381 -504.662,-241.355c-162.513,-95.937 -317.734,-203.801 -468.724,-316.914c-100.182,-75.025 -200.273,-150.846 -294.935,-232.838c-159.609,-138.242 -311.432,-285.846 -461.054,-434.74c-177.488,-176.692 -351.498,-357.304 -517.045,-545.312c-36.106,-40.977 -71.783,-82.396 -106.732,-124.414c-16.028,-19.271 -31.927,-38.685 -47.604,-58.243c-7.434,-9.27 -14.818,-18.593 -22.148,-27.942c-3.32,-4.245 -6.641,-8.49 -9.948,-12.735c6.745,8.685 -5.221,-6.862 -6.784,-8.919c-42.943,-56.471 -84.687,-114.544 -116.25,-178.242c-1.289,-2.578 -2.252,-5.326 -3.581,-7.865c-1.445,-2.812 4.805,13.139 1.329,3.034c-1.823,-5.325 -3.907,-10.52 -5.573,-15.872c-19.961,-65.118 -122.461,-37.357 -102.344,28.203Z" style="fill:#b5bcdf;fill-rule:nonzero;"/><path d="M6552.44,11186.5c-27.305,32.083 -64.922,55.078 -100.742,76.393c-46.628,27.721 -95.43,52.526 -145.625,73.177c-120.847,49.649 -259.31,65.951 -388.373,45.846c-39.322,-6.145 -56.25,54.011 -16.614,60.196c140.156,21.849 289.844,8.034 421.588,-45.846c55.3,-22.618 109.193,-48.881 160.534,-79.467c40.013,-23.802 82.891,-50.338 113.386,-86.145c25.911,-30.43 -18.047,-74.805 -44.154,-44.154Z" style="fill:#b5bcdf;fill-rule:nonzero;"/><path d="M6580.21,10472.6c23.438,123.58 42.396,249.661 45.873,375.586c3.138,114.296 -10.495,230.585 -71.484,329.687c-21.12,34.297 32.877,65.703 53.919,31.485c64.961,-105.534 82.669,-230.313 80.221,-352.37c-2.708,-134.258 -23.333,-269.271 -48.32,-400.99c-7.487,-39.427 -67.67,-22.76 -60.209,16.602Z" style="fill:#b5bcdf;fill-rule:nonzero;"/><path d="M5942.74,10895.1c-88.907,42.304 -194.897,47.344 -291.654,46.848c-101.185,-0.546 -202.63,-10.703 -301.979,-29.96c-39.232,-7.644 -56.055,52.539 -16.589,60.195c107.253,20.82 217.109,32.187 326.406,32.227c106.198,0.026 218.204,-9.141 315.326,-55.365c36.289,-17.253 4.622,-71.133 -31.51,-53.945Z" style="fill:#b5bcdf;fill-rule:nonzero;"/><path d="M5911.4,10219c40.834,108.503 65.274,225.846 76.589,340.989c6.315,64.427 8.776,130.261 0.664,194.623c-6.302,50.273 -19.414,105.364 -52.24,145.404c-25.286,30.807 18.646,75.247 44.154,44.153c82.175,-100.208 81.836,-248.112 71.12,-370.547c-10.951,-125.26 -35.69,-253.242 -80.079,-371.224c-14.023,-37.252 -74.4,-21.106 -60.208,16.602Z" style="fill:#b5bcdf;fill-rule:nonzero;"/><path d="M5338.91,9736.21c24.283,122.032 33.697,241.016 24.83,365.196c-8.008,112.396 -24.531,228.033 -64.948,333.789c-14.336,37.591 45.99,53.828 60.221,16.601c42.318,-110.781 58.763,-232.708 67.175,-350.39c9.284,-129.714 -1.719,-254.375 -27.057,-381.784c-7.852,-39.388 -68.073,-22.721 -60.221,16.588Z" style="fill:#b5bcdf;fill-rule:nonzero;"/><path d="M4561.49,10414.6c77.071,64.609 194.219,77.279 290.274,87.799c117.291,12.787 237.096,15.091 354.713,5.17c41.394,-3.49 87.006,-6.068 126.068,-21.511c36.953,-14.609 20.859,-75.026 -16.588,-60.221c-28.842,11.406 -60.86,14.544 -90.873,17.591c-51.067,5.117 -102.474,7.018 -153.789,7.266c-113.659,0.572 -229.909,-5.092 -341.002,-30.678c-41.875,-9.661 -94.024,-23.893 -124.662,-49.57c-30.612,-25.664 -74.987,18.294 -44.141,44.154Z" style="fill:#b5bcdf;fill-rule:nonzero;"/><path d="M4718.29,9279.06c3.02,6.003 7.161,17.812 11.158,31.341c5.508,18.685 9.987,37.644 13.972,56.693c10.585,50.755 17.317,102.252 20.533,153.984c6.472,103.229 5.352,224.349 -54.882,313.294c-22.604,33.347 31.471,64.636 53.906,31.511c66.211,-97.747 70.573,-231.042 63.424,-344.805c-3.542,-56.367 -10.859,-112.76 -22.252,-168.047c-7.37,-35.638 -15.547,-72.721 -31.927,-105.481c-17.982,-35.951 -71.875,-4.375 -53.932,31.51Z" style="fill:#b5bcdf;fill-rule:nonzero;"/><path d="M4121.65,9768.49c72.304,42.07 154.427,72.865 233.294,99.635c108.086,36.667 239.674,73.777 352.708,37.8c38.151,-12.122 21.823,-72.448 -16.614,-60.221c-103.971,33.099 -226.615,-5.821 -325.456,-39.831c-71.901,-24.753 -146.419,-52.891 -212.422,-91.289c-34.805,-20.261 -66.276,33.698 -31.51,53.906Z" style="fill:#b5bcdf;fill-rule:nonzero;"/><path d="M4151.22,9027.18c28.073,47.461 33.438,102.682 34.714,156.758c0.989,43.046 2.161,95.195 -30.704,127.851c-28.541,28.36 15.613,72.513 44.141,44.141c44.076,-43.789 50.17,-107.474 49.102,-166.471c-1.172,-66.797 -8.698,-135.248 -43.347,-193.815c-20.442,-34.545 -74.44,-3.165 -53.906,31.536Z" style="fill:#b5bcdf;fill-rule:nonzero;"/><path d="M3745.1,9331.18c32.084,13.49 67.956,18.959 102.084,24.441c49.244,7.877 98.88,13.411 148.606,17.083c46.498,3.411 93.36,5.508 139.987,3.516c31.68,-1.355 68.177,-2.487 96.576,-18.438c35.039,-19.701 3.607,-73.659 -31.511,-53.919c-6.406,3.594 1.042,0.039 -1.002,0.755c-2.761,0.938 -5.534,1.823 -8.36,2.604c-5.82,1.549 -11.783,2.656 -17.747,3.555c-10.768,1.666 -31.719,2.851 -46.862,3.333c-45.521,1.38 -91.198,-0.768 -136.575,-4.245c-44.727,-3.437 -89.389,-8.268 -133.646,-15.638c-31.771,-5.286 -65.065,-10.69 -94.935,-23.268c-15.677,-6.576 -34.206,7.097 -38.412,21.823c-5.156,17.942 6.328,31.901 21.797,38.398Z" style="fill:#b5bcdf;fill-rule:nonzero;"/><path d="M9605.5,1305.2c0,0 355.547,-58.399 678.606,435.287c-291.64,72.342 -578.671,33.385 -678.606,-435.287Z" style="fill:#9594c9;fill-rule:nonzero;"/><path d="M10574.1,1125.78c0,0 -292.279,100.991 -334.74,605.521c249.687,-64.362 450.508,-210.924 334.74,-605.521Z" style="fill:#9594c9;fill-rule:nonzero;"/><path d="M9532.91,637.209c0,0 299.336,9.557 483.359,464.05c-249.44,12.095 -477.213,-65.821 -483.359,-464.05Z" style="fill:#9594c9;fill-rule:nonzero;"/><path d="M10288.2,493.576c0,0 -279.323,108.046 -302.617,597.812c239.375,-71.093 428.555,-219.987 302.617,-597.812Z" style="fill:#9594c9;fill-rule:nonzero;"/><path d="M9422.71,193.68c0,0 203.139,-30.703 383.711,253.086c-166.797,39.128 -330.143,14.817 -383.711,-253.086Z" style="fill:#9594c9;fill-rule:nonzero;"/><path d="M9940.71,96.44c0,0 -141.002,60.131 -139.036,351.498c139.739,-49.922 225.976,-131.393 139.036,-351.498Z" style="fill:#9594c9;fill-rule:nonzero;"/><path d="M9861.09,1978.39c0,0 430.833,-136.498 753.854,357.188c-211.797,136.471 -506.172,172.525 -753.854,-357.188Z" style="fill:#9594c9;fill-rule:nonzero;"/><path d="M10828.6,1660.58c0,0 -348.151,176.12 -249.076,675.716c213.086,-43.815 416.367,-199.426 249.076,-675.716Z" style="fill:#9594c9;fill-rule:nonzero;"/><path d="M10145.6,2614.94c0,0 391.458,-225.858 812.995,186.889c-177.539,178.802 -457.292,277.239 -812.995,-186.889Z" style="fill:#9594c9;fill-rule:nonzero;"/><path d="M11297.8,2045.11c0,0 -425.26,152.995 -382.369,741.406c251.159,-20.065 506.992,-170.078 382.369,-741.406Z" style="fill:#9594c9;fill-rule:nonzero;"/><path d="M9700.52,38.719c-9.505,59.414 -0.808,119.545 8.593,178.45c13.113,82.188 32.344,163.425 52.956,244.025c52.644,205.989 116.498,409.206 184.128,610.69c61.094,181.978 125.182,363.385 197.89,541.132c95.547,233.711 213.386,461.641 345.027,676.915c84.544,138.254 178.58,271.132 284.87,393.58c111.224,128.177 237.395,241.992 366.211,352.109c32.148,27.5 64.478,54.766 96.783,82.057c21.901,18.477 53.62,21.472 75.078,0c18.959,-18.97 22.005,-56.497 0,-75.064c-127.942,-107.995 -256.184,-216.224 -373.06,-336.342c-110.065,-113.15 -207.213,-237.421 -294.153,-369.049c-88.034,-133.281 -165.99,-272.943 -238.685,-415.091c-50.821,-99.453 -101.028,-199.622 -145.157,-302.291c-4.231,-9.78 0.665,1.666 -0.624,-1.369c-1.524,-3.644 -3.047,-7.291 -4.544,-10.91c-3.698,-8.894 -7.371,-17.773 -11.016,-26.68c-7.253,-17.839 -14.414,-35.743 -21.51,-53.684c-15.613,-39.571 -30.808,-79.311 -45.73,-119.141c-35.013,-93.438 -68.528,-187.41 -100.964,-281.771c-69.439,-202.071 -134.661,-405.886 -190.742,-612.097c-23.294,-85.586 -45.116,-171.719 -62.369,-258.737c-3.633,-18.151 -7.031,-36.366 -10.078,-54.648c-1.315,-7.787 -2.566,-15.612 -3.75,-23.412c-0.547,-3.776 -1.094,-7.538 -1.641,-11.289c-1.875,-12.643 0.886,8.438 -0.508,-3.971c-2.916,-25.846 -5.677,-51.784 -5.235,-77.852c0.079,-5.246 0.339,-10.442 0.639,-15.651c0.143,-2.2 0.56,-4.414 0.599,-6.614c0.169,-10.221 -1.784,12.071 -0.638,4.934c4.518,-28.267 -7.318,-57.122 -37.07,-65.3c-25.3,-6.952 -60.743,8.595 -65.3,37.071Z" style="fill:#b5bcdf;fill-rule:nonzero;"/><path d="M10901.9,2733.37c-31.888,13.698 -71.536,15.885 -105.82,18.229c-47.982,3.294 -96.354,3.242 -144.284,-0.56c-107.266,-8.529 -214.271,-50.638 -301.992,-112.149c-32.956,-23.098 -64.206,30.99 -31.511,53.907c96.98,68.008 215.352,111.289 333.503,120.69c51.328,4.05 103.216,3.932 154.544,-0.208c43.217,-3.503 86.993,-8.789 127.071,-26.003c36.823,-15.794 5.065,-69.61 -31.511,-53.906Z" style="fill:#b5bcdf;fill-rule:nonzero;"/><path d="M11194.2,2197.84c-29.101,105.077 -62.11,211.21 -108.425,310.143c-39.687,84.856 -92.252,165.781 -172.877,216.627c-33.907,21.38 -2.631,75.443 31.497,53.919c87.344,-55.078 147.878,-139.726 191.862,-231.732c50.625,-105.885 86.901,-219.453 118.164,-332.37c10.743,-38.776 -49.479,-55.325 -60.221,-16.587Z" style="fill:#b5bcdf;fill-rule:nonzero;"/><path d="M10555.4,2279.41c-84.336,-1.21 -167.344,-36.653 -241.523,-73.997c-77.709,-39.114 -151.98,-85.729 -221.303,-138.294c-32.018,-24.284 -63.177,29.909 -31.51,53.919c73.242,55.521 152.005,104.61 234.596,144.896c80.573,39.297 168.868,74.622 259.74,75.911c40.195,0.56 40.221,-61.874 0,-62.435Z" style="fill:#b5bcdf;fill-rule:nonzero;"/><path d="M10778.2,1761.72c-9.558,97.317 -36.199,195.195 -70.456,286.549c-32.188,85.781 -79.336,194.869 -168.126,235.416c-36.51,16.654 -4.791,70.495 31.537,53.906c100.013,-45.663 154.583,-163.971 192.109,-260.469c39.05,-100.428 66.85,-208.007 77.37,-315.402c3.919,-39.975 -58.542,-39.702 -62.434,0Z" style="fill:#b5bcdf;fill-rule:nonzero;"/><path d="M10523.9,1170.37c-27.096,101.406 -63.502,194.883 -116.367,285.664c-48.398,83.085 -104.024,165.391 -174.739,231.25c-29.48,27.435 14.752,71.537 44.166,44.141c74.323,-69.205 133.607,-156.524 184.506,-243.88c55.416,-95.169 94.244,-194.284 122.656,-300.573c10.377,-38.867 -49.831,-55.443 -60.222,-16.602Z" style="fill:#b5bcdf;fill-rule:nonzero;"/><path d="M9678.56,1406.52c34.218,76.875 122.591,131.771 190.716,174.687c86.029,54.18 177.864,100.807 272.591,137.775c33.555,13.111 68.542,26.353 104.765,29.36c40.04,3.36 39.819,-59.113 0,-62.434c-8.958,-0.755 2.722,0.742 -3.541,-0.469c-3.815,-0.702 -7.578,-1.51 -11.367,-2.409c-9.193,-2.16 -18.295,-4.896 -27.292,-7.76c-21.914,-6.992 -43.411,-15.235 -64.687,-23.998c-54.844,-22.603 -108.242,-49.127 -160.195,-77.721c-54.337,-29.896 -108.06,-62.318 -157.188,-100.352c-34.297,-26.576 -71.849,-57.643 -89.883,-98.176c-16.289,-36.642 -70.118,-4.922 -53.919,31.497Z" style="fill:#b5bcdf;fill-rule:nonzero;"/><path d="M10221.4,590.243c0.105,15.377 -0.56,15.482 -2.812,28.164c-2.786,15.794 -6.367,31.471 -10.365,46.992c-11.094,43.191 -25.312,85.717 -42.318,126.914c-32.682,79.193 -79.01,171.003 -156.315,215.052c-34.935,19.884 -3.502,73.854 31.511,53.906c88.789,-50.559 142.096,-150.286 180.377,-241.224c18.595,-44.192 34.375,-89.583 46.42,-136.002c7.799,-30.066 16.172,-62.5 15.937,-93.802c-0.26,-40.183 -62.708,-40.26 -62.435,0Z" style="fill:#b5bcdf;fill-rule:nonzero;"/><path d="M9582.62,742.587c27.461,41.419 61.68,79.727 94.961,116.419c55.183,60.807 115.794,119.219 185.417,163.308c35.26,22.355 74.765,41.758 116.445,47.942c16.64,2.448 33.568,-4.167 38.399,-21.823c4.062,-14.701 -5.014,-35.925 -21.797,-38.398c-70.182,-10.405 -131.302,-58.19 -182.917,-104.024c-52.891,-47.005 -101.081,-99.439 -145.599,-154.388c-4.492,-5.533 -8.932,-11.133 -13.333,-16.718c-0.795,-1.003 -1.576,-1.993 -2.344,-2.995c-2.838,-3.621 3.177,4.126 0.56,0.715c-1.51,-1.939 -3.008,-3.919 -4.492,-5.885c-3.893,-5.129 -7.799,-10.273 -11.38,-15.664c-22.123,-33.346 -76.198,-2.11 -53.92,31.511Z" style="fill:#b5bcdf;fill-rule:nonzero;"/><path d="M9883.47,185.309c3.712,47.564 -12.838,92.395 -32.811,134.817c-8.503,18.15 -17.683,36.55 -29.858,52.578c-8.958,11.757 -23.359,23.828 -36.08,28.098c-16.003,5.327 -26.446,21.525 -21.81,38.399c4.284,15.613 22.33,27.162 38.424,21.797c50,-16.719 79.779,-60.091 101.563,-105.741c25.247,-52.956 47.682,-110.145 43.021,-169.948c-1.289,-16.823 -13.425,-31.225 -31.224,-31.225c-15.885,0 -32.54,14.322 -31.225,31.225Z" style="fill:#b5bcdf;fill-rule:nonzero;"/><path d="M9459.97,268.863c20.13,23.281 46.784,41.679 71.64,59.427c33.607,24.01 68.49,46.197 104.089,67.096c34.141,20.039 69.024,39.192 105.26,55.17c25.026,11.042 54.922,25.625 83.152,23.985c39.973,-2.332 40.234,-64.78 0,-62.449c-1.992,0.131 -3.932,0.065 -5.951,-0.014c-4.74,-0.168 7.865,2.136 -0.625,-0.143c-5.039,-1.38 -10.091,-2.421 -15.065,-3.958c-15.573,-4.83 -24.037,-8.594 -35.99,-14.036c-35.325,-16.028 -69.387,-34.832 -102.786,-54.557c-33.841,-19.975 -67.084,-41.146 -99.114,-63.96c-21.758,-15.481 -41.342,-28.632 -60.47,-50.702c-26.38,-30.43 -70.377,13.907 -44.14,44.141Z" style="fill:#b5bcdf;fill-rule:nonzero;"/><path d="M18068.1,11676.8l-10618.3,1148.16c-355.911,38.477 -666.524,-240.377 -666.524,-598.359l0,-9574.91c0,-353.906 303.854,-631.406 656.302,-599.375l10618.3,965.156c310.027,28.165 547.397,288.099 547.397,599.362l0,7461.6c0,307.356 -231.641,565.3 -537.24,598.359Z" style="fill:#5957a5;fill-rule:nonzero;"/><path d="M17984.2,11203.3l-10580.3,898.255l0,-9108.62l10703.6,662.67l-123.309,7547.69Z" style="fill:#d9d4ea;fill-rule:nonzero;"/><path d="M10696.7,10329.7l-1819.77,108.294l0.156,-69.922l1819.96,-106.21l-0.351,67.838Z" style="fill:#fff;fill-rule:nonzero;"/><path d="M10696.1,10454l-1819.43,112.122l0.169,-69.908l1819.6,-110l-0.338,67.786Z" style="fill:#fff;fill-rule:nonzero;"/><path d="M10695.5,10569.8l-1819.13,115.651l0.169,-69.87l1819.31,-113.58l-0.351,67.799Z" style="fill:#fff;fill-rule:nonzero;"/><path d="M10694.9,10694.1l-1818.78,119.479l0.169,-69.831l1818.96,-117.408l-0.352,67.76Z" style="fill:#fff;fill-rule:nonzero;"/><path d="M10694.3,10809.8l-1818.42,123.073l0.157,-69.818l1818.63,-120.976l-0.364,67.721Z" style="fill:#fff;fill-rule:nonzero;"/><path d="M10693.7,10933.9l-1818.1,126.862l0.144,-69.805l1818.31,-124.779l-0.352,67.722Z" style="fill:#fff;fill-rule:nonzero;"/><path d="M10693.1,11049.5l-1817.8,130.429l0.169,-69.765l1817.98,-128.347l-0.351,67.683Z" style="fill:#fff;fill-rule:nonzero;"/><path d="M10692.5,11173.6l-1817.43,134.219l0.143,-69.726l1817.66,-132.136l-0.365,67.643Z" style="fill:#fff;fill-rule:nonzero;"/><path d="M11772.6,4667.76l-2862.53,-107.513l0.339,-151.276l2863.14,114.713l-0.951,144.076Z" style="fill:#fff;fill-rule:nonzero;"/><path d="M11770.8,4931.74l-2861.42,-94.362l0.352,-151.145l2862.02,101.536l-0.951,143.971Z" style="fill:#fff;fill-rule:nonzero;"/><path d="M10611.2,6713.43l-1706.12,-3.489l0.169,-70.691l1706.3,5.469l-0.352,68.711Z" style="fill:#fff;fill-rule:nonzero;"/><path d="M10610.6,6839.38l-1705.78,0.143l0.169,-70.677l1705.95,1.848l-0.339,68.686Z" style="fill:#fff;fill-rule:nonzero;"/><path d="M10610,6956.69l-1705.5,3.542l0.169,-70.651l1705.68,-1.563l-0.352,68.672Z" style="fill:#fff;fill-rule:nonzero;"/><path d="M10609.4,7082.52l-1705.18,7.214l0.17,-70.651l1705.37,-5.196l-0.352,68.633Z" style="fill:#fff;fill-rule:nonzero;"/><path d="M10608.8,7199.74l-1704.87,10.599l0.169,-70.599l1705.04,-8.594l-0.338,68.594Z" style="fill:#fff;fill-rule:nonzero;"/><path d="M10608.2,7325.49l-1704.56,14.245l0.17,-70.586l1704.74,-12.252l-0.351,68.593Z" style="fill:#fff;fill-rule:nonzero;"/><path d="M10607.7,7442.62l-1704.29,17.631l0.17,-70.573l1704.44,-15.625l-0.325,68.567Z" style="fill:#fff;fill-rule:nonzero;"/><path d="M10607,7568.26l-1703.92,21.251l0.157,-70.495l1704.11,-19.284l-0.351,68.528Z" style="fill:#fff;fill-rule:nonzero;"/><path d="M10308.6,3988.02l-1397.04,-67.227l-0.938,409.974l1396.21,57.734l1.77,-400.481Z" style="fill:#f8a27a;fill-rule:nonzero;"/><path d="M17163.5,4317.93l-5096.17,-245.26l-7.084,990.911l5089.71,157.019l13.542,-902.67Z" style="fill:#efeef7;fill-rule:nonzero;"/><path d="M9161.5,10058.4l-283.686,15.169l-0.52,234.479l283.58,-16.25l0.626,-233.398Z" style="fill:#f8a27a;fill-rule:nonzero;"/><path d="M13003.5,10192.4l-1677.64,99.831l0.417,-67.135l1677.76,-97.865l-0.534,65.169Z" style="fill:#fff;fill-rule:nonzero;"/><path d="M13002.5,10311.9l-1677.34,103.359l0.417,-67.097l1677.49,-101.432l-0.56,65.17Z" style="fill:#fff;fill-rule:nonzero;"/><path d="M13001.5,10423.2l-1677.06,106.627l0.39,-67.07l1677.2,-104.688l-0.534,65.131Z" style="fill:#fff;fill-rule:nonzero;"/><path d="M13000.4,10542.6l-1676.8,110.182l0.43,-67.058l1676.94,-108.229l-0.573,65.105Z" style="fill:#fff;fill-rule:nonzero;"/><path d="M12999.5,10653.8l-1676.52,113.438l0.416,-67.031l1676.65,-111.498l-0.546,65.091Z" style="fill:#fff;fill-rule:nonzero;"/><path d="M12998.5,10773.1l-1676.2,116.954l0.39,-66.98l1676.37,-115.039l-0.559,65.065Z" style="fill:#fff;fill-rule:nonzero;"/><path d="M12997.5,10884.2l-1675.96,120.235l0.404,-66.941l1676.12,-118.333l-0.56,65.039Z" style="fill:#fff;fill-rule:nonzero;"/><path d="M12996.5,11003.4l-1675.68,123.75l0.416,-66.94l1675.82,-121.836l-0.559,65.026Z" style="fill:#fff;fill-rule:nonzero;"/><path d="M11589.2,9928.56l-261.25,13.971l-1.342,225.039l261.147,-14.96l1.445,-224.05Z" style="fill:#f8a27a;fill-rule:nonzero;"/><path d="M17108.2,10276.5l-3473.96,228.503l0.391,-36.302l3474.09,-226.225l-0.519,34.024Z" style="fill:#fff;fill-rule:nonzero;"/><path d="M17107.3,10338.9l-3473.7,232.617l0.376,-36.276l3473.71,-230.365l-0.391,34.024Z" style="fill:#fff;fill-rule:nonzero;"/><path d="M17106.4,10397l-3473.31,236.432l0.261,-36.25l3473.57,-234.18l-0.521,33.998Z" style="fill:#fff;fill-rule:nonzero;"/><path d="M17105.5,10459.4l-3473.05,240.56l0.391,-36.277l3473.05,-238.294l-0.391,34.011Z" style="fill:#fff;fill-rule:nonzero;"/><path d="M17104.6,10517.5l-3472.79,244.376l0.377,-36.238l3472.93,-242.135l-0.522,33.997Z" style="fill:#fff;fill-rule:nonzero;"/><path d="M17103.7,10579.8l-3472.4,248.477l0.261,-36.237l3472.66,-246.237l-0.519,33.997Z" style="fill:#fff;fill-rule:nonzero;"/><path d="M17102.7,10637.9l-3472.15,252.318l0.403,-36.211l3472.27,-250.091l-0.522,33.984Z" style="fill:#fff;fill-rule:nonzero;"/><path d="M17101.8,10700.2l-3471.88,256.419l0.391,-36.211l3472,-254.192l-0.519,33.984Z" style="fill:#fff;fill-rule:nonzero;"/><path d="M17115.6,9775.65l-3476.17,195.403l-4.05,411.836l3474.49,-220.911l5.729,-386.328Z" style="fill:#f8a27a;fill-rule:nonzero;"/><path d="M9707.05,7688.07l154.232,-2.188l146.601,451.406l390.079,-8.555l199.049,-412.877l-596.901,8.958l-0.273,66.927l480.508,-7.721l-134.818,279.362l-276.81,5.794l-146.276,-451.25l-215.143,2.852l-0.248,67.292Z" style="fill:#6c66ae;fill-rule:nonzero;"/><path d="M10447.5,8212l-22.851,0.52c-0.066,11.772 -5.664,22.384 -14.818,30.352c-9.154,7.917 -21.563,12.916 -35.495,13.268c-13.919,0.339 -26.289,-4.075 -35.416,-11.588c-9.076,-7.526 -14.61,-17.891 -14.584,-29.687c0.065,-11.797 5.69,-22.409 14.843,-30.365c9.207,-7.93 21.628,-12.93 35.561,-13.256c13.918,-0.325 26.288,4.115 35.377,11.628c9.076,7.513 14.57,17.877 14.532,29.648l22.851,-0.52l22.838,-0.521c0.131,-22.357 -10.533,-42.487 -27.747,-56.732c-17.187,-14.271 -41.276,-22.877 -67.669,-22.266c-26.459,0.56 -50.664,10.235 -68.06,25.326c-17.448,15.013 -28.333,35.73 -28.437,58.112c-0.105,22.422 10.637,42.604 27.943,56.836c17.251,14.257 41.367,22.813 67.811,22.122c26.381,-0.638 50.535,-10.364 67.852,-25.403c17.357,-15.039 28.229,-35.691 28.307,-57.995l-22.838,0.521Z" style="fill:#6c66ae;fill-rule:nonzero;"/><path d="M10065.7,8220.89l-23.125,0.546c-0.065,11.863 -5.755,22.527 -14.987,30.535c-9.284,7.995 -21.862,13.033 -35.976,13.385c-14.089,0.313 -26.641,-4.115 -35.886,-11.654c-9.218,-7.577 -14.817,-18.007 -14.792,-29.869c0.053,-11.888 5.743,-22.579 15.04,-30.599c9.309,-7.969 21.887,-13.008 36.002,-13.347c14.089,-0.286 26.615,4.141 35.859,11.719c9.168,7.552 14.753,17.982 14.74,29.83l23.125,-0.546l23.125,-0.521c0.104,-22.474 -10.677,-42.748 -28.151,-57.096c-17.422,-14.336 -41.797,-22.995 -68.554,-22.383c-26.772,0.586 -51.29,10.3 -68.92,25.495c-17.656,15.13 -28.711,35.964 -28.763,58.502c-0.091,22.539 10.769,42.891 28.32,57.175c17.514,14.375 41.928,22.969 68.712,22.292c26.757,-0.639 51.21,-10.43 68.736,-25.613c17.566,-15.116 28.529,-35.911 28.62,-58.372l-23.125,0.521Z" style="fill:#6c66ae;fill-rule:nonzero;"/><path d="M10032.6,7819.34l64.414,218.138l25.587,-0.508l-69.31,-217.981l-20.691,0.351Z" style="fill:#6c66ae;fill-rule:nonzero;"/><path d="M10109.5,7818.08l64.232,217.865l25.521,-0.534l-69.102,-217.682l-20.651,0.351Z" style="fill:#6c66ae;fill-rule:nonzero;"/><path d="M10186.3,7816.81l64.024,217.579l25.456,-0.508l-68.92,-217.422l-20.56,0.351Z" style="fill:#6c66ae;fill-rule:nonzero;"/><path d="M10262.8,7815.53l63.841,217.291l25.39,-0.495l-68.711,-217.135l-20.52,0.339Z" style="fill:#6c66ae;fill-rule:nonzero;"/><path d="M10359.6,7813.93l-20.482,0.353l40.156,136.926l14.753,-28.268l-34.427,-109.011Z" style="fill:#6c66ae;fill-rule:nonzero;"/><path d="M10435.7,7812.66l-20.417,0.338l13.008,44.375l13.411,-25.69l-6.002,-19.023Z" style="fill:#6c66ae;fill-rule:nonzero;"/><path d="M10582.5,6563.38l-1676.98,-7.696l2.995,-1309.73l1680.19,44.088l-6.211,1273.33Z" style="fill:#c6c2e1;fill-rule:nonzero;"/><path d="M9666.33,6182.64l0.025,0" style="fill:none;"/><path d="M10078.4,5864.78c1.316,18.436 2.188,37.07 2.149,56.054l-91.549,-1.758c0.065,-19.062 -0.86,-37.708 -2.305,-56.133l-474.102,-9.427c-1.601,18.503 -2.721,37.253 -2.761,56.484l-93.32,-1.77c0.065,-19.167 0.938,-38.008 2.396,-56.589l-131.862,-2.617l110.482,460.598l698.841,8.607l110.626,-450.898l-128.595,-2.551Z" style="fill:#6c66ae;fill-rule:nonzero;"/><path d="M9509.86,5909.99c0.039,-19.231 1.185,-37.981 2.786,-56.484c8.399,-95.964 36.849,-181.042 76.954,-242.5c23.788,-36.627 51.471,-64.726 79.414,-82.487c28.151,-17.812 55.273,-25.521 82.812,-24.844c27.513,0.769 54.492,9.831 82.383,29.037c20.742,14.336 41.262,34.375 60.052,59.427c28.164,37.5 52.266,86.081 68.945,141.875c11.928,39.726 19.87,83.229 23.516,128.919c1.458,18.411 2.369,37.096 2.304,56.159l91.55,1.745c0.065,-18.997 -0.808,-37.631 -2.148,-56.067c-7.63,-106.967 -37.696,-204.115 -84.87,-280.482c-27.839,-44.831 -61.615,-82.761 -101.915,-110.86c-40.156,-28.034 -88.15,-46.107 -139.544,-47.435c-51.497,-1.459 -99.843,14.05 -140.494,40.039c-30.704,19.57 -57.761,44.987 -81.433,74.896c-35.507,44.922 -63.528,100.013 -83.047,162.253c-14.387,46.002 -24.01,95.937 -28.164,148.45c-1.458,18.581 -2.33,37.422 -2.395,56.589l93.294,1.77Z" style="fill:#6c66ae;fill-rule:nonzero;"/><path d="M12956.5,6718.25l-1571.02,-3.23l0.417,-67.812l1571.13,5.065l-0.534,65.977Z" style="fill:#fff;fill-rule:nonzero;"/><path d="M12955.5,6839.16l-1570.72,0.144l0.418,-67.774l1570.87,1.693l-0.573,65.937Z" style="fill:#fff;fill-rule:nonzero;"/><path d="M12954.5,6951.79l-1570.47,3.268l0.39,-67.747l1570.61,-1.445l-0.533,65.924Z" style="fill:#fff;fill-rule:nonzero;"/><path d="M12953.5,7072.64l-1570.2,6.627l0.417,-67.747l1570.34,-4.792l-0.559,65.912Z" style="fill:#fff;fill-rule:nonzero;"/><path d="M12952.5,7185.18l-1569.95,9.766l0.417,-67.709l1570.09,-7.93l-0.56,65.873Z" style="fill:#fff;fill-rule:nonzero;"/><path d="M12951.5,7305.93l-1569.65,13.112l0.378,-67.696l1569.83,-11.289l-0.561,65.873Z" style="fill:#fff;fill-rule:nonzero;"/><path d="M12950.6,7418.39l-1569.41,16.224l0.403,-67.656l1569.57,-14.402l-0.56,65.834Z" style="fill:#fff;fill-rule:nonzero;"/><path d="M12949.5,7539.03l-1569.17,19.596l0.416,-67.643l1569.28,-17.747l-0.534,65.794Z" style="fill:#fff;fill-rule:nonzero;"/><path d="M12119.9,7653.58l142.044,-2.031l133.36,433.425l359.466,-7.904l184.986,-396.302l-550.09,8.242l-0.495,64.271l442.799,-7.136l-125.3,268.138l-255.065,5.3l-133.086,-433.203l-198.164,2.591l-0.455,64.609Z" style="fill:#6c66ae;fill-rule:nonzero;"/><path d="M12800.1,8157.05l-21.094,0.482c-0.104,11.302 -5.299,21.497 -13.763,29.114c-8.463,7.591 -19.935,12.409 -32.76,12.722c-12.813,0.312 -24.232,-3.932 -32.591,-11.16c-8.372,-7.239 -13.424,-17.187 -13.347,-28.515c0.104,-11.315 5.339,-21.511 13.802,-29.141c8.491,-7.617 19.962,-12.382 32.8,-12.695c12.826,-0.26 24.206,3.998 32.604,11.185c8.308,7.239 13.347,17.187 13.255,28.49l21.094,-0.482l21.042,-0.469c0.182,-21.471 -9.557,-40.808 -25.404,-54.505c-15.768,-13.711 -37.917,-21.966 -62.278,-21.433c-24.375,0.522 -46.706,9.779 -62.813,24.219c-16.107,14.44 -26.224,34.336 -26.393,55.834c-0.182,21.51 9.622,40.898 25.495,54.583c15.872,13.685 38.073,21.927 62.422,21.276c24.361,-0.573 46.654,-9.87 62.682,-24.349c16.041,-14.401 26.12,-34.219 26.289,-55.625l-21.042,0.469Z" style="fill:#6c66ae;fill-rule:nonzero;"/><path d="M12448.2,8165.27l-21.315,0.494c-0.104,11.368 -5.377,21.603 -13.907,29.311c-8.593,7.643 -20.194,12.474 -33.176,12.799c-12.982,0.313 -24.545,-3.984 -33.034,-11.211c-8.45,-7.317 -13.568,-17.318 -13.516,-28.711c0.092,-11.38 5.378,-21.64 13.959,-29.323c8.607,-7.669 20.208,-12.487 33.215,-12.812c12.982,-0.248 24.519,4.023 32.996,11.276c8.398,7.292 13.529,17.304 13.463,28.671l21.315,-0.494l21.315,-0.482c0.17,-21.615 -9.7,-41.067 -25.729,-54.818c-15.99,-13.814 -38.424,-22.135 -63.073,-21.575c-24.687,0.521 -47.304,9.844 -63.58,24.401c-16.329,14.531 -26.563,34.531 -26.719,56.159c-0.182,21.641 9.792,41.146 25.885,54.909c16.068,13.789 38.542,22.057 63.217,21.432c24.635,-0.599 47.2,-9.961 63.411,-24.518c16.237,-14.493 26.445,-34.427 26.588,-55.99l-21.315,0.482Z" style="fill:#6c66ae;fill-rule:nonzero;"/><path d="M12419.2,7779.76l58.542,209.466l23.567,-0.482l-63.047,-209.283l-19.062,0.299Z" style="fill:#6c66ae;fill-rule:nonzero;"/><path d="M12490.1,7778.6l58.385,209.192l23.529,-0.495l-62.891,-209.023l-19.023,0.326Z" style="fill:#6c66ae;fill-rule:nonzero;"/><path d="M12560.8,7777.43l58.217,208.946l23.463,-0.495l-62.721,-208.789l-18.959,0.338Z" style="fill:#6c66ae;fill-rule:nonzero;"/><path d="M12631.3,7776.24l58.034,208.672l23.412,-0.455l-62.527,-208.529l-18.919,0.312Z" style="fill:#6c66ae;fill-rule:nonzero;"/><path d="M12720.6,7774.79l-18.867,0.312l36.51,131.498l13.698,-27.123l-31.341,-104.687Z" style="fill:#6c66ae;fill-rule:nonzero;"/><path d="M12790.7,7773.62l-18.842,0.325l11.823,42.617l12.474,-24.675l-5.455,-18.267Z" style="fill:#6c66ae;fill-rule:nonzero;"/><path d="M12930.5,6574.18l-1544.1,-7.083l7.683,-1255.92l1546.78,40.586l-10.364,1222.42Z" style="fill:#c6c2e1;fill-rule:nonzero;"/><path d="M12333.2,5859.24c-0.624,83.242 -78.06,149.597 -173.203,148.23c-95.495,-1.381 -172.656,-70.378 -172.083,-154.115c0.585,-83.776 78.75,-150.182 174.271,-148.295c95.208,1.876 171.627,70.899 171.015,154.18Z" style="fill:#6c66ae;fill-rule:nonzero;"/><path d="M12137,6121.52l-325.065,-4.037l1.94,-284.596l325.183,5.638l-2.058,282.995Z" style="fill:#fff;fill-rule:nonzero;"/><path d="M12527.3,6202.04l-320.587,-3.568l162.879,-279.974l157.708,283.542Z" style="fill:#fff;fill-rule:nonzero;"/><path d="M15122,6722.69l-1451.3,-2.982l0.65,-65.13l1451.43,4.661l-0.782,63.451Z" style="fill:#fff;fill-rule:nonzero;"/><path d="M15120.6,6838.98l-1451.04,0.117l0.651,-65.105l1451.17,1.564l-0.781,63.424Z" style="fill:#fff;fill-rule:nonzero;"/><path d="M15119.3,6947.3l-1450.78,3.007l0.521,-65.078l1451.04,-1.328l-0.781,63.399Z" style="fill:#fff;fill-rule:nonzero;"/><path d="M15118,7063.5l-1450.65,6.107l0.65,-65.065l1450.78,-4.44l-0.78,63.398Z" style="fill:#fff;fill-rule:nonzero;"/><path d="M15116.7,7171.73l-1450.39,9.011l0.652,-65.053l1450.52,-7.317l-0.782,63.359Z" style="fill:#fff;fill-rule:nonzero;"/><path d="M15115.4,7287.86l-1450.26,12.097l0.652,-65l1450.26,-10.443l-0.652,63.346Z" style="fill:#fff;fill-rule:nonzero;"/><path d="M15114.1,7396.02l-1450,15l0.65,-65l1450,-13.333l-0.651,63.333Z" style="fill:#fff;fill-rule:nonzero;"/><path d="M15112.6,7512.07l-1449.74,18.073l0.651,-64.974l1449.87,-16.407l-0.78,63.308Z" style="fill:#fff;fill-rule:nonzero;"/><path d="M14345.4,7621.77l131.251,-1.875l121.614,416.758l332.292,-7.291l172.526,-381.004l-508.595,7.631l-0.65,61.784l409.374,-6.602l-116.796,257.8l-235.938,4.883l-121.355,-416.589l-183.072,2.435l-0.651,62.07Z" style="fill:#6c66ae;fill-rule:nonzero;"/><path d="M14972.3,8106.31l-19.532,0.469c-0.13,10.873 -4.948,20.664 -12.76,27.995c-7.942,7.305 -18.49,11.888 -30.338,12.2c-11.849,0.261 -22.397,-3.802 -30.079,-10.755c-7.681,-6.965 -12.369,-16.549 -12.238,-27.447c0.128,-10.886 4.946,-20.69 12.89,-28.034c7.812,-7.292 18.489,-11.889 30.338,-12.162c11.849,-0.273 22.395,3.854 30.077,10.781c7.684,6.98 12.241,16.563 12.11,27.422l19.532,-0.469l19.401,-0.429c0.26,-20.651 -8.595,-39.245 -23.178,-52.435c-14.583,-13.19 -35.025,-21.185 -57.551,-20.664c-22.526,0.482 -43.23,9.388 -58.074,23.268c-14.973,13.867 -24.479,32.943 -24.738,53.633c-0.261,20.677 8.853,39.349 23.436,52.513c14.584,13.19 35.157,21.12 57.683,20.56c22.526,-0.534 43.098,-9.479 57.942,-23.359c14.975,-13.867 24.349,-32.917 24.48,-53.516l-19.401,0.429Z" style="fill:#6c66ae;fill-rule:nonzero;"/><path d="M14647,8113.91l-19.791,0.469c-0.131,10.912 -4.948,20.782 -12.891,28.165c-7.942,7.343 -18.751,11.966 -30.729,12.278c-11.98,0.286 -22.656,-3.854 -30.468,-10.833c-7.814,-7.005 -12.501,-16.628 -12.371,-27.591c0.13,-10.951 5.078,-20.82 13.021,-28.191c7.942,-7.369 18.62,-11.991 30.729,-12.265c11.98,-0.26 22.656,3.88 30.47,10.847c7.682,7.017 12.369,16.64 12.239,27.59l19.791,-0.469l19.662,-0.455c0.261,-20.742 -8.855,-39.479 -23.568,-52.721c-14.714,-13.282 -35.417,-21.29 -58.203,-20.795c-22.787,0.508 -43.75,9.428 -58.855,23.399c-15.104,13.971 -24.739,33.177 -24.87,53.972c-0.259,20.82 8.855,39.57 23.699,52.824c14.844,13.282 35.547,21.264 58.333,20.678c22.787,-0.56 43.62,-9.571 58.724,-23.529c14.974,-13.919 24.479,-33.073 24.74,-53.828l-19.662,0.455Z" style="fill:#6c66ae;fill-rule:nonzero;"/><path d="M14621.5,7743.26l53.385,201.42l21.744,-0.456l-57.551,-201.276l-17.578,0.312Z" style="fill:#6c66ae;fill-rule:nonzero;"/><path d="M14687,7742.17l53.256,201.185l21.744,-0.43l-57.421,-201.055l-17.579,0.3Z" style="fill:#6c66ae;fill-rule:nonzero;"/><path d="M14752.3,7741.09l53.126,200.938l21.613,-0.43l-57.162,-200.808l-17.577,0.3Z" style="fill:#6c66ae;fill-rule:nonzero;"/><path d="M14817.6,7740.01l52.996,200.717l21.613,-0.456l-57.031,-200.56l-17.578,0.299Z" style="fill:#6c66ae;fill-rule:nonzero;"/><path d="M14900.1,7738.64l-17.448,0.3l33.334,126.458l12.63,-26.042l-28.516,-100.716Z" style="fill:#6c66ae;fill-rule:nonzero;"/><path d="M14965,7737.56l-17.449,0.3l10.808,40.977l11.587,-23.698l-4.946,-17.579Z" style="fill:#6c66ae;fill-rule:nonzero;"/><path d="M15098.4,6584.16l-1426.43,-6.549l11.589,-1206.37l1428.78,37.473l-13.932,1175.44Z" style="fill:#c6c2e1;fill-rule:nonzero;"/><path d="M14548.8,5897.05c-0.781,80.04 -72.656,143.829 -160.546,142.579c-88.152,-1.289 -159.115,-67.54 -158.334,-148.034c0.782,-80.494 73.307,-144.323 161.458,-142.604c88.021,1.744 158.334,68.033 157.422,148.059Z" style="fill:#6c66ae;fill-rule:nonzero;"/><path d="M14366.7,6149.24l-300.26,-3.736l2.864,-273.425l300.26,5.195l-2.864,271.966Z" style="fill:#fff;fill-rule:nonzero;"/><path d="M14727,6226.47l-296.224,-3.295l151.562,-269.192l144.662,272.487Z" style="fill:#fff;fill-rule:nonzero;"/><path d="M17127.6,6726.82l-1344.79,-2.773l0.782,-62.67l1344.92,4.324l-0.91,61.119Z" style="fill:#fff;fill-rule:nonzero;"/><path d="M17125.9,6838.8l-1344.66,0.117l0.782,-62.643l1344.79,1.432l-0.911,61.094Z" style="fill:#fff;fill-rule:nonzero;"/><path d="M17124.4,6943.11l-1344.4,2.812l0.781,-62.63l1344.53,-1.25l-0.911,61.068Z" style="fill:#fff;fill-rule:nonzero;"/><path d="M17122.7,7055.03l-1344.27,5.664l0.911,-62.591l1344.27,-4.128l-0.91,61.055Z" style="fill:#fff;fill-rule:nonzero;"/><path d="M17121.1,7159.27l-1344.01,8.346l0.781,-62.565l1344.14,-6.797l-0.911,61.016Z" style="fill:#fff;fill-rule:nonzero;"/><path d="M17119.5,7271.1l-1343.88,11.224l0.782,-62.552l1343.88,-9.674l-0.78,61.002Z" style="fill:#fff;fill-rule:nonzero;"/><path d="M17118,7375.28l-1343.75,13.906l0.782,-62.539l1343.88,-12.331l-0.911,60.964Z" style="fill:#fff;fill-rule:nonzero;"/><path d="M17116.3,7487.07l-1343.49,16.77l0.782,-62.526l1343.62,-15.22l-0.91,60.976Z" style="fill:#fff;fill-rule:nonzero;"/><path d="M16404.6,7592.34l121.614,-1.732l111.329,401.329l308.204,-6.745l161.198,-366.862l-471.616,7.057l-0.78,59.493l379.557,-6.121l-109.245,248.216l-218.62,4.545l-111.198,-401.198l-169.661,2.253l-0.782,59.765Z" style="fill:#6c66ae;fill-rule:nonzero;"/><path d="M16984,8059.34l-17.968,0.43c-0.261,10.456 -4.818,19.883 -11.98,26.927c-7.421,7.031 -17.317,11.459 -28.254,11.732c-11.068,0.26 -20.703,-3.698 -27.865,-10.391c-7.162,-6.705 -11.459,-15.95 -11.198,-26.432c0.13,-10.495 4.687,-19.935 11.978,-26.966c7.293,-7.032 17.189,-11.458 28.256,-11.706c10.937,-0.247 20.703,3.724 27.865,10.404c7.032,6.732 11.328,15.951 11.198,26.432l17.968,-0.43l18.1,-0.442c0.26,-19.857 -7.943,-37.8 -21.355,-50.469c-13.542,-12.773 -32.422,-20.443 -53.385,-19.961c-20.833,0.43 -40.105,8.985 -53.906,22.344c-13.932,13.346 -22.787,31.732 -23.047,51.627c-0.391,19.922 7.942,37.917 21.484,50.6c13.542,12.721 32.552,20.377 53.385,19.83c20.964,-0.495 40.104,-9.075 53.907,-22.435c13.931,-13.346 22.656,-31.654 22.917,-51.536l-18.1,0.442Z" style="fill:#6c66ae;fill-rule:nonzero;"/><path d="M16682.4,8066.38l-18.358,0.43c-0.13,10.521 -4.689,20 -12.11,27.11c-7.291,7.07 -17.317,11.51 -28.515,11.81c-11.069,0.234 -20.965,-3.737 -28.125,-10.456c-7.293,-6.771 -11.589,-16.055 -11.459,-26.575c0.261,-10.561 4.818,-20.053 12.239,-27.149c7.293,-7.057 17.319,-11.51 28.517,-11.771c11.067,-0.261 20.963,3.763 28.125,10.482c7.161,6.745 11.459,16.029 11.328,26.549l18.358,-0.43l18.23,-0.429c0.261,-19.948 -8.073,-38.021 -21.745,-50.781c-13.541,-12.799 -32.681,-20.547 -53.905,-20.066c-21.094,0.469 -40.496,9.063 -54.558,22.488c-14.062,13.424 -22.917,31.9 -23.308,51.953c-0.259,20.013 8.203,38.112 21.875,50.885c13.673,12.786 32.813,20.469 54.037,19.948c21.094,-0.521 40.495,-9.153 54.426,-22.591c14.064,-13.424 22.917,-31.862 23.178,-51.836l-18.23,0.429Z" style="fill:#6c66ae;fill-rule:nonzero;"/><path d="M16660,7709.46l48.828,193.958l20.183,-0.391l-52.735,-193.867l-16.276,0.3Z" style="fill:#6c66ae;fill-rule:nonzero;"/><path d="M16720.8,7708.45l48.567,193.789l20.182,-0.456l-52.473,-193.62l-16.276,0.287Z" style="fill:#6c66ae;fill-rule:nonzero;"/><path d="M16781.4,7707.44l48.437,193.542l20.182,-0.416l-52.343,-193.399l-16.276,0.273Z" style="fill:#6c66ae;fill-rule:nonzero;"/><path d="M16841.8,7706.43l48.439,193.32l20.051,-0.39l-52.214,-193.204l-16.276,0.274Z" style="fill:#6c66ae;fill-rule:nonzero;"/><path d="M16918.4,7705.16l-16.146,0.273l30.34,121.836l11.978,-25.117l-26.172,-96.992Z" style="fill:#6c66ae;fill-rule:nonzero;"/><path d="M16978.5,7704.18l-16.146,0.26l9.766,39.493l10.939,-22.852l-4.559,-16.901Z" style="fill:#6c66ae;fill-rule:nonzero;"/><path d="M17106.3,6593.39l-1321.75,-6.081l14.975,-1160.57l1323.57,34.727l-16.798,1131.93Z" style="fill:#c6c2e1;fill-rule:nonzero;"/><path d="M16599,5932.05c-1.043,77.018 -67.709,138.476 -149.22,137.317c-81.641,-1.185 -147.265,-64.896 -146.223,-142.356c1.041,-77.461 68.359,-138.985 150.13,-137.37c81.511,1.601 146.484,65.378 145.313,142.409Z" style="fill:#6c66ae;fill-rule:nonzero;"/><path d="M16429.3,6174.88l-277.994,-3.45l3.514,-263.152l278.126,4.858l-3.646,261.744Z" style="fill:#fff;fill-rule:nonzero;"/><path d="M16763,6249.07l-274.609,-3.034l141.406,-259.206l133.203,262.24Z" style="fill:#fff;fill-rule:nonzero;"/><path d="M10566.8,9786.7l-1668.93,83.698l2.994,-1296.43l1672.07,-48.034l-6.133,1260.77Z" style="fill:#c6c2e1;fill-rule:nonzero;"/><path d="M9918.61,9084.6c-0.338,85.885 -83.711,158.854 -186.576,163.008c-103.229,4.153 -186.901,-62.487 -186.628,-148.894c0.287,-86.458 84.48,-159.505 187.748,-163.124c102.904,-3.633 185.807,63.099 185.456,149.01Z" style="fill:#6c66ae;fill-rule:nonzero;"/><path d="M9707.65,9366.58l-351.445,14.896l0.872,-293.711l351.602,-13.177l-1.029,291.992Z" style="fill:#fff;fill-rule:nonzero;"/><path d="M10129.7,9426.74l-346.433,15.144l174.857,-298.308l171.576,283.164Z" style="fill:#fff;fill-rule:nonzero;"/><path d="M12904.3,9669.47l-1537.29,77.097l7.604,-1243.7l1539.96,-44.258l-10.273,1210.86Z" style="fill:#c6c2e1;fill-rule:nonzero;"/><path d="M12309.6,8994.21c-0.625,82.448 -77.708,152.37 -172.447,156.198c-95.066,3.828 -171.902,-60.26 -171.316,-143.203c0.612,-82.942 78.386,-152.969 173.477,-156.302c94.804,-3.333 170.912,60.847 170.286,143.307Z" style="fill:#6c66ae;fill-rule:nonzero;"/><path d="M12114.2,9264.57l-323.62,13.711l1.914,-281.849l323.737,-12.136l-2.031,280.274Z" style="fill:#fff;fill-rule:nonzero;"/><path d="M12502.8,9323.03l-319.192,13.946l162.161,-286.081l157.031,272.135Z" style="fill:#fff;fill-rule:nonzero;"/><path d="M15063.3,9561.22l-1420.57,71.237l11.458,-1195.08l1422.92,-40.886l-13.803,1164.73Z" style="fill:#c6c2e1;fill-rule:nonzero;"/><path d="M14515.9,8910.8c-0.911,79.27 -72.395,146.38 -159.895,149.922c-87.89,3.555 -158.594,-58.178 -157.812,-137.93c0.91,-79.739 73.046,-146.901 160.937,-150c87.5,-3.073 157.682,58.698 156.77,138.008Z" style="fill:#6c66ae;fill-rule:nonzero;"/><path d="M14334.4,9170.45l-298.958,12.656l2.865,-270.885l299.088,-11.211l-2.995,269.44Z" style="fill:#fff;fill-rule:nonzero;"/><path d="M14693.4,9227.26l-295.051,12.917l150.781,-274.831l144.27,261.914Z" style="fill:#fff;fill-rule:nonzero;"/><path d="M17063.5,9460.92l-1316.8,66.029l14.843,-1150.12l1318.62,-37.903l-16.668,1121.99Z" style="fill:#c6c2e1;fill-rule:nonzero;"/><path d="M16558.1,8833.59c-1.042,76.354 -67.448,140.873 -148.698,144.141c-81.38,3.294 -146.615,-56.237 -145.702,-133.008c1.171,-76.784 68.098,-141.367 149.609,-144.245c81.119,-2.826 145.963,56.771 144.791,133.112Z" style="fill:#6c66ae;fill-rule:nonzero;"/><path d="M16389.1,9083.35l-277.083,11.731l3.515,-260.78l277.213,-10.391l-3.645,259.44Z" style="fill:#fff;fill-rule:nonzero;"/><path d="M16721.5,9138.61l-273.438,11.953l140.756,-264.413l132.682,252.46Z" style="fill:#fff;fill-rule:nonzero;"/><path d="M14298.6,6065.53l-787.109,1799.88l495.963,-85.938c0,0 -140.365,2430.3 2194.4,2523.22l-21.355,-969.623c-1456.25,-437.331 -1297.79,-1656.17 -1297.79,-1656.17l496.485,-32.057l-1080.6,-1579.31Z" style="fill:#5956a5;fill-rule:nonzero;"/><path d="M17332.4,8392.96l-6.25,-0.716l6.25,0.755l0,-0.039l-6.25,-0.716l6.25,0.755c0.391,-3.047 13.932,-113.606 67.058,-278.802c39.843,-123.919 101.952,-278.515 197.266,-441.796c143.098,-245.014 360.155,-509.271 690.104,-722.11c330.078,-212.657 773.827,-374.935 1375.13,-411.823l-9.376,-153.112c-559.114,34.102 -995.964,174.18 -1334.77,366.862c-254.036,144.44 -452.734,318.216 -607.161,497.226c-231.641,268.594 -363.803,548.529 -438.412,761.693c-74.609,213.242 -91.667,360.053 -92.187,364.336l152.473,17.514l-0.13,-0.027Z" style="fill:#a3add8;fill-rule:nonzero;"/><path d="M17332.4,6430.53l-6.25,-0.702l6.25,0.741l0,-0.039l-6.25,-0.702l6.25,0.741c0.391,-3.06 13.932,-113.619 67.058,-278.802c39.843,-123.919 101.952,-278.515 197.266,-441.797c143.098,-245.026 360.155,-509.297 690.104,-722.109c330.078,-212.682 773.827,-374.935 1375.13,-411.823l-9.376,-153.112c-559.114,34.101 -995.964,174.18 -1334.77,366.862c-254.036,144.441 -452.734,318.191 -607.161,497.213c-231.641,268.608 -363.803,548.542 -438.412,761.706c-74.609,213.243 -91.667,360.027 -92.187,364.337l152.473,17.486l-0.13,0Z" style="fill:#a3add8;fill-rule:nonzero;"/><path d="M17332.4,4468.08l-6.25,-0.729l6.25,0.755l0,-0.026l-6.25,-0.729l6.25,0.755c0.391,-3.047 13.932,-113.606 67.058,-278.802c39.843,-123.906 101.952,-278.489 197.266,-441.784c143.098,-245.013 360.155,-509.27 690.104,-722.109c330.078,-212.682 773.827,-374.935 1375.13,-411.809l-9.376,-153.126c-559.114,34.101 -995.964,174.18 -1334.77,366.862c-254.036,144.441 -452.734,318.203 -607.161,497.227c-231.641,268.594 -363.803,548.528 -438.412,761.693c-74.609,213.242 -91.667,360.051 -92.187,364.336l152.473,17.486l-0.13,0Z" style="fill:#a3add8;fill-rule:nonzero;"/><path d="M20761.7,3497.01l-291.406,0c-268.49,0 -486.068,217.618 -486.068,486.068l0,558.854l1263.54,0l0,-558.854c0,-268.45 -217.708,-486.068 -486.067,-486.068Z" style="fill:#5957a5;fill-rule:nonzero;"/><path d="M20980.9,3099.12c0,201.484 -163.411,364.83 -364.843,364.83c-201.563,0 -364.844,-163.346 -364.844,-364.83c0,-201.511 163.281,-364.844 364.844,-364.844c201.432,0 364.843,163.333 364.843,364.844Z" style="fill:#5957a5;fill-rule:nonzero;"/><path d="M20722.7,1274.75l-291.406,0c-268.359,0 -486.067,217.605 -486.067,486.054l0,558.855l1263.54,0l0,-558.855c0,-268.449 -217.577,-486.054 -486.067,-486.054Z" style="fill:#5957a5;fill-rule:nonzero;"/><path d="M20941.8,876.845c0,201.51 -163.28,364.844 -364.842,364.844c-201.434,0 -364.844,-163.334 -364.844,-364.844c0,-201.497 163.41,-364.831 364.844,-364.831c201.562,0 364.842,163.334 364.842,364.831Z" style="fill:#5957a5;fill-rule:nonzero;"/><path d="M20759.8,5598.95l-291.406,0c-268.489,0 -486.067,217.617 -486.067,486.068l0,558.854l1263.54,0l0,-558.854c0,-268.451 -217.709,-486.068 -486.069,-486.068Z" style="fill:#5957a5;fill-rule:nonzero;"/><path d="M20978.9,5201.05c0,201.509 -163.412,364.843 -364.844,364.843c-201.562,0 -364.844,-163.334 -364.844,-364.843c0,-201.498 163.282,-364.832 364.844,-364.832c201.432,0 364.844,163.334 364.844,364.832Z" style="fill:#5957a5;fill-rule:nonzero;"/><path d="M21331,5398.42l258.464,0l250,910.534l663.542,0l338.541,-828.451l-1017.97,0l0,134.337l817.968,0l-228.775,559.778l-470.834,0l-250.001,-910.547l-360.937,0l0,134.349Z" style="fill:#6c66ae;fill-rule:nonzero;"/><path d="M22627.7,6479.7l-78.385,0c0,23.841 -9.505,45.026 -25.131,60.677c-15.625,15.612 -36.849,25.117 -60.678,25.143c-23.827,-0.026 -45.051,-9.531 -60.676,-25.143c-15.626,-15.651 -25.131,-36.836 -25.131,-60.677c0,-23.854 9.505,-45.039 25.131,-60.69c15.625,-15.612 36.849,-25.131 60.676,-25.143c23.829,0.012 45.053,9.531 60.678,25.143c15.626,15.651 25.131,36.836 25.131,60.69l78.385,0c0,-45.235 -18.49,-86.523 -48.178,-116.093c-29.557,-29.676 -70.832,-48.126 -116.016,-48.112c-45.312,-0.014 -86.587,18.436 -116.145,48.112c-29.688,29.57 -48.047,70.858 -48.047,116.093c0,45.209 18.359,86.511 48.047,116.094c29.558,29.648 70.833,48.112 116.145,48.099c45.184,0.013 86.459,-18.451 116.016,-48.099c29.688,-29.583 48.178,-70.885 48.178,-116.094Z" style="fill:#6c66ae;fill-rule:nonzero;"/><path d="M21977.1,6479.7l-78.386,0c0,23.841 -9.635,45.026 -25.129,60.677c-15.755,15.612 -36.848,25.117 -60.678,25.143c-23.827,-0.026 -45.051,-9.531 -60.806,-25.143c-15.495,-15.651 -25.131,-36.836 -25.131,-60.677c0,-23.854 9.636,-45.039 25.131,-60.69c15.755,-15.612 36.979,-25.131 60.806,-25.143c23.83,0.012 44.923,9.531 60.678,25.143c15.494,15.651 25.129,36.836 25.129,60.69l78.386,0c0,-45.235 -18.489,-86.523 -48.176,-116.093c-29.558,-29.676 -70.835,-48.126 -116.017,-48.112c-45.312,-0.014 -86.588,18.436 -116.144,48.112c-29.688,29.57 -48.178,70.858 -48.178,116.093c0,45.209 18.49,86.511 48.178,116.094c29.556,29.648 70.832,48.112 116.144,48.099c45.182,0.013 86.459,-18.451 116.017,-48.099c29.687,-29.583 48.176,-70.885 48.176,-116.094Z" style="fill:#6c66ae;fill-rule:nonzero;"/><path d="M21879,5671.3l110.547,440.82l43.359,0l-118.88,-440.82l-35.026,0Z" style="fill:#6c66ae;fill-rule:nonzero;"/><path d="M22009.2,5671.3l110.546,440.82l43.49,0l-119.011,-440.82l-35.025,0Z" style="fill:#6c66ae;fill-rule:nonzero;"/><path d="M22139.5,5671.3l110.677,440.82l43.359,0l-119.011,-440.82l-35.025,0Z" style="fill:#6c66ae;fill-rule:nonzero;"/><path d="M22269.8,5671.3l110.548,440.82l43.359,0l-119.01,-440.82l-34.897,0Z" style="fill:#6c66ae;fill-rule:nonzero;"/><path d="M22435,5671.3l-35.027,0l69.663,277.955l24.999,-56.51l-59.635,-221.445Z" style="fill:#6c66ae;fill-rule:nonzero;"/><path d="M22565.2,5671.3l-35.027,0l22.657,90.169l22.787,-51.537l-10.417,-38.632Z" style="fill:#6c66ae;fill-rule:nonzero;"/><path d="M21200.7,3296.47l258.593,0l250.001,910.547l663.541,0l338.542,-828.451l-1018.1,0l0,134.349l818.098,0l-228.775,559.765l-470.834,0l-250.001,-910.546l-361.067,0l0,134.336Z" style="fill:#6c66ae;fill-rule:nonzero;"/><path d="M22497.5,4377.74l-78.386,0c0,23.841 -9.505,45.052 -25.131,60.703c-15.624,15.586 -36.848,25.117 -60.677,25.143c-23.828,-0.026 -45.052,-9.557 -60.806,-25.143c-15.496,-15.651 -25.001,-36.862 -25.001,-60.703c0,-23.829 9.505,-45.039 25.001,-60.691c15.754,-15.611 36.978,-25.116 60.806,-25.142c23.829,0.026 45.053,9.531 60.677,25.142c15.626,15.652 25.131,36.862 25.131,60.691l78.386,0c0,-45.208 -18.49,-86.523 -48.178,-116.094c-29.558,-29.661 -70.833,-48.125 -116.016,-48.112c-45.312,-0.013 -86.587,18.451 -116.145,48.112c-29.688,29.571 -48.178,70.886 -48.048,116.094c-0.13,45.221 18.36,86.51 48.048,116.106c29.558,29.649 70.833,48.112 116.145,48.086c45.183,0.026 86.458,-18.437 116.016,-48.086c29.688,-29.596 48.178,-70.885 48.178,-116.106Z" style="fill:#6c66ae;fill-rule:nonzero;"/><path d="M21846.7,4377.74l-78.255,0c-0.129,23.841 -9.635,45.052 -25.26,60.703c-15.624,15.586 -36.848,25.117 -60.677,25.143c-23.697,-0.026 -45.052,-9.557 -60.676,-25.143c-15.626,-15.677 -25.131,-36.862 -25.131,-60.703c0,-23.829 9.505,-45.039 25.131,-60.691c15.624,-15.611 36.979,-25.116 60.676,-25.142c23.829,0.026 45.053,9.531 60.677,25.142c15.625,15.652 25.131,36.862 25.26,60.691l78.255,0c0,-45.208 -18.358,-86.523 -48.046,-116.094c-29.557,-29.661 -70.834,-48.125 -116.146,-48.112c-45.182,-0.013 -86.459,18.451 -116.015,48.112c-29.688,29.571 -48.178,70.886 -48.178,116.094c0,45.221 18.49,86.51 48.178,116.106c29.556,29.649 70.833,48.112 116.015,48.086c45.312,0.026 86.589,-18.437 116.146,-48.086c29.688,-29.596 48.046,-70.885 48.046,-116.106Z" style="fill:#6c66ae;fill-rule:nonzero;"/><path d="M21748.8,3569.36l110.547,440.807l43.359,0l-118.881,-440.807l-35.025,0Z" style="fill:#6c66ae;fill-rule:nonzero;"/><path d="M21879,3569.36l110.547,440.807l43.359,0l-118.88,-440.807l-35.026,0Z" style="fill:#6c66ae;fill-rule:nonzero;"/><path d="M22009.2,3569.36l110.546,440.807l43.49,0l-119.011,-440.807l-35.025,0Z" style="fill:#6c66ae;fill-rule:nonzero;"/><path d="M22139.5,3569.36l110.677,440.807l43.359,0l-119.011,-440.807l-35.025,0Z" style="fill:#6c66ae;fill-rule:nonzero;"/><path d="M22304.7,3569.36l-34.897,0l69.663,277.969l24.999,-56.524l-59.765,-221.445Z" style="fill:#6c66ae;fill-rule:nonzero;"/><path d="M22435,3569.36l-35.027,0l22.528,90.169l22.917,-51.537l-10.418,-38.632Z" style="fill:#6c66ae;fill-rule:nonzero;"/><path d="M21254,1074.2l258.464,0l249.999,910.534l663.541,0l338.542,-828.438l-1017.97,0l0,134.336l817.968,0l-228.775,559.765l-470.834,0l-250,-910.533l-360.937,0l0,134.336Z" style="fill:#6c66ae;fill-rule:nonzero;"/><path d="M22550.8,2155.48l-78.386,0c0,23.828 -9.505,45.039 -25.131,60.691c-15.624,15.586 -36.848,25.129 -60.676,25.143c-23.829,-0.014 -45.053,-9.557 -60.677,-25.143c-15.625,-15.652 -25.131,-36.863 -25.131,-60.691c0,-23.842 9.506,-45.039 25.131,-60.703c15.624,-15.611 36.848,-25.118 60.677,-25.143c23.828,0.025 45.052,9.532 60.676,25.143c15.626,15.664 25.131,36.861 25.131,60.703l78.386,0c0,-45.209 -18.491,-86.523 -48.178,-116.106c-29.556,-29.661 -70.833,-48.126 -116.015,-48.099c-45.312,-0.027 -86.589,18.438 -116.146,48.099c-29.688,29.583 -48.046,70.897 -48.046,116.106c0,45.209 18.358,86.511 48.046,116.107c29.557,29.635 70.834,48.099 116.146,48.073c45.182,0.026 86.459,-18.438 116.015,-48.073c29.687,-29.596 48.178,-70.898 48.178,-116.107Z" style="fill:#6c66ae;fill-rule:nonzero;"/><path d="M21900,2155.48l-78.256,0c-0.13,23.828 -9.635,45.039 -25.131,60.691c-15.754,15.586 -36.978,25.129 -60.806,25.143c-23.699,-0.014 -44.923,-9.557 -60.677,-25.143c-15.626,-15.665 -25.131,-36.863 -25.131,-60.691c0,-23.842 9.505,-45.039 25.131,-60.703c15.754,-15.611 36.978,-25.118 60.677,-25.143c23.828,0.025 45.052,9.532 60.806,25.143c15.496,15.664 25.001,36.861 25.131,60.703l78.256,0c0.13,-45.209 -18.36,-86.523 -48.048,-116.106c-29.558,-29.661 -70.833,-48.126 -116.145,-48.099c-45.183,-0.027 -86.458,18.438 -116.016,48.099c-29.688,29.583 -48.178,70.897 -48.178,116.106c0,45.209 18.49,86.511 48.178,116.107c29.558,29.635 70.833,48.099 116.016,48.073c45.312,0.026 86.587,-18.438 116.145,-48.073c29.688,-29.596 48.178,-70.898 48.048,-116.107Z" style="fill:#6c66ae;fill-rule:nonzero;"/><path d="M21802.1,1347.09l110.546,440.807l43.359,0l-118.88,-440.807l-35.025,0Z" style="fill:#6c66ae;fill-rule:nonzero;"/><path d="M21932.3,1347.09l110.547,440.807l43.359,0l-118.881,-440.807l-35.025,0Z" style="fill:#6c66ae;fill-rule:nonzero;"/><path d="M22062.5,1347.09l110.547,440.807l43.489,0l-119.01,-440.807l-35.026,0Z" style="fill:#6c66ae;fill-rule:nonzero;"/><path d="M22192.8,1347.09l110.547,440.807l43.359,0l-119.011,-440.807l-34.895,0Z" style="fill:#6c66ae;fill-rule:nonzero;"/><path d="M22357.9,1347.09l-34.895,0l69.662,277.969l25,-56.524l-59.767,-221.445Z" style="fill:#6c66ae;fill-rule:nonzero;"/><path d="M22488.3,1347.09l-35.025,0l22.656,90.156l22.786,-51.537l-10.417,-38.619Z" style="fill:#6c66ae;fill-rule:nonzero;"/><rect x="16276.4" y="8577.08" width="1685.55" height="2622.33" style="fill:#5956a5;fill-rule:nonzero;"/><rect x="16431.4" y="8801.65" width="1126.82" height="408.92" style="fill:#fff;fill-rule:nonzero;"/><rect x="17634.9" y="8716.78" width="151.432" height="1546.2" style="fill:#9594c9;fill-rule:nonzero;"/><path d="M16440.5,10644c-14.583,33.425 -1557.81,2052.46 -1557.81,2052.46l224.479,34.7l1802.35,-1851.55l-469.011,-235.612Z" style="fill:#9594c9;fill-rule:nonzero;"/><path d="M17797.9,10644c14.583,33.425 1557.81,2052.46 1557.81,2052.46l-224.479,34.7l-1802.34,-1851.55l469.011,-235.612Z" style="fill:#9594c9;fill-rule:nonzero;"/><path d="M16506.1,8994.66c0,59.635 18.359,93.529 46.614,93.529c31.771,0 46.875,-37.058 46.875,-95.651c0,-56.446 -14.453,-93.516 -46.614,-93.516c-27.084,0 -46.875,33.177 -46.875,95.638Zm124.609,-3.503c0,77.982 -28.906,121.029 -79.818,121.029c-44.791,0 -75.13,-41.98 -75.911,-117.864c0,-76.941 33.203,-119.298 79.818,-119.298c48.307,0 75.911,43.034 75.911,116.133Z" style="fill:#6c66ae;fill-rule:nonzero;"/><path d="M16659.4,9108.32l0,-19.048l24.351,-23.672c58.594,-55.742 85.025,-85.391 85.416,-120c0,-23.295 -11.328,-44.805 -45.573,-44.805c-20.833,0 -38.022,10.573 -48.698,19.388l-9.766,-21.836c15.755,-13.437 38.411,-23.321 64.844,-23.321c49.48,0 70.313,33.88 70.313,66.693c0,42.357 -30.729,76.589 -79.038,123.177l-18.488,16.954l0,0.689l103.124,0l0,25.781l-146.485,0Z" style="fill:#6c66ae;fill-rule:nonzero;"/><path d="M16847.9,9072.68c8.854,5.639 29.297,14.454 50.78,14.454c39.975,0 52.344,-25.403 51.955,-44.44c-0.391,-32.149 -29.297,-45.912 -59.246,-45.912l-17.317,0l0,-23.281l17.317,0c22.526,0 51.171,-11.653 51.171,-38.815c0,-18.372 -11.717,-34.61 -40.233,-34.61c-18.36,0 -36.068,8.139 -45.964,15.183l-8.073,-22.578c11.979,-8.842 35.287,-17.657 60.027,-17.657c45.182,0 65.624,26.81 65.624,54.727c0,23.633 -14.062,43.75 -42.318,53.984l0,0.691c28.256,5.65 51.173,26.849 51.173,58.945c0,36.68 -28.647,68.815 -83.725,68.815c-25.781,0 -48.306,-8.099 -59.635,-15.521l8.464,-23.985Z" style="fill:#6c66ae;fill-rule:nonzero;"/><path d="M17158.6,8905.02l-87.499,0l-8.855,58.945c5.339,-0.728 10.287,-1.418 18.749,-1.418c17.71,0 35.288,3.88 49.349,12.344c18.1,10.273 32.944,30.013 32.944,58.957c0,44.806 -35.677,78.334 -85.418,78.334c-25.129,0 -46.223,-7.07 -57.162,-14.115l7.684,-23.633c9.505,5.625 28.254,12.696 49.089,12.696c29.297,0 54.296,-19.05 54.296,-49.792c-0.261,-29.596 -20.051,-50.781 -65.885,-50.781c-13.151,0 -23.308,1.38 -31.772,2.448l14.714,-110.118l109.766,0l0,26.133Z" style="fill:#6c66ae;fill-rule:nonzero;"/><path d="M17270.3,8907.85l-0.78,0l-39.845,21.497l-5.989,-23.619l50.13,-26.837l26.433,0l0,229.427l-29.949,0l0,-200.468Z" style="fill:#6c66ae;fill-rule:nonzero;"/><path d="M17384,9108.32l0,-19.048l24.349,-23.672c58.594,-55.742 85.157,-85.391 85.417,-120c0,-23.295 -11.328,-44.805 -45.442,-44.805c-20.833,0 -38.152,10.573 -48.828,19.388l-9.766,-21.836c15.885,-13.437 38.411,-23.321 64.974,-23.321c49.349,0 70.182,33.88 70.182,66.693c0,42.357 -30.729,76.589 -79.037,123.177l-18.358,16.954l0,0.689l102.993,0l0,25.781l-146.484,0Z" style="fill:#6c66ae;fill-rule:nonzero;"/><path d="M22581.5,12998.3c0,51.731 -624.349,93.659 -1394.53,93.659c-770.313,0 -1394.66,-41.928 -1394.66,-93.659c0,-51.719 624.349,-93.672 1394.66,-93.672c770.182,0 1394.53,41.953 1394.53,93.672Z" style="fill:#c6c2e1;fill-rule:nonzero;"/><path d="M20541,7252.82c0,0 -10.287,237.696 -34.375,268.685c-24.088,30.989 234.245,68.893 285.937,24.101l51.562,-44.778l0,-382.357c0,-55.117 -303.124,134.349 -303.124,134.349Z" style="fill:#f8a27a;fill-rule:nonzero;"/><path d="M20317.3,7526.11c0,0 206.64,-49.375 218.099,-66.588c11.458,-17.24 21.875,186.002 260.677,26.393c151.041,81.015 181.12,90.885 181.12,90.885c0,0 -170.833,305.287 -179.949,317.891c-9.244,12.604 -294.009,152.721 -349.087,79.232c-55.08,-73.503 -101.042,-135.495 -119.402,-177.982c-18.36,-42.474 -37.891,-246.849 -36.718,-250.339c1.171,-3.437 25.26,-19.492 25.26,-19.492Z" style="fill:#f8a27a;fill-rule:nonzero;"/><path d="M20350.8,7545.89c13.672,-27.253 158.985,-116.537 181.12,-136.901c22.136,-20.417 75.912,102.487 80.339,126.302c4.427,23.828 -151.823,171.38 -172.265,163.034c-20.314,-8.294 -102.996,-125.143 -89.194,-152.435Z" style="fill:#7c79b9;fill-rule:nonzero;"/><path d="M20647,7535.16c-30.208,17.735 57.422,179.532 93.881,174.076c36.457,-5.429 172.135,-167.057 172.135,-167.057c0,0 -55.078,-105.625 -57.292,-133.19c-27.604,-29.87 -178.515,108.451 -208.724,126.171Z" style="fill:#7c79b9;fill-rule:nonzero;"/><path d="M20377.6,6860.91c0,0 -249.088,-252.839 -28.515,-404.922c220.442,-152.096 501.822,-216.732 667.318,-24.726c165.364,192.004 309.765,437.252 144.401,633.06c-165.366,195.819 -108.335,351.705 -357.423,230.039c-248.958,-121.667 -444.791,-321.276 -425.781,-433.451Z" style="fill:#202020;fill-rule:nonzero;"/><path d="M20399.1,6660.05c0,0 9.505,176.797 -9.505,368.803c-19.012,192.005 163.41,321.275 245.182,313.684c81.771,-7.604 326.953,-32.317 353.646,-515.208c7.551,-287.057 -152.084,-334.57 -285.157,-349.805c-133.072,-15.195 -290.885,3.829 -304.166,182.526Z" style="fill:#f8a27a;fill-rule:nonzero;"/><path d="M20509.6,6414.59c0,0 -37.37,192.929 101.822,183.724c139.324,-9.167 198.959,75.794 240.235,96.471c41.406,20.664 195.313,78.073 179.167,-32.174c-16.017,-110.222 -9.116,-222.747 -126.303,-257.175c-117.057,-34.466 -289.323,-39.049 -394.921,9.154Z" style="fill:#202020;fill-rule:nonzero;"/><path d="M20554.4,6464.57c0,0 57.943,127.448 -13.28,194.635c-71.095,67.136 -146.876,167.058 -136.59,275.56c8.594,49.935 -50,41.341 -60.287,-55.117c-10.285,-96.458 -58.594,-353.073 80.079,-415.078c92.188,-29.297 130.078,0 130.078,0Z" style="fill:#202020;fill-rule:nonzero;"/><path d="M21292.1,9429.97c0,0 119.402,249.244 43.88,307.017c-75.389,57.735 -218.49,28.608 -218.49,0c0,-28.619 51.955,-325.234 104.038,-330.442c52.084,-5.208 70.572,23.425 70.572,23.425Z" style="fill:#f8a27a;fill-rule:nonzero;"/><path d="M20125.4,9002.76c0,0 -128.255,1233.31 94.401,2147.2c222.786,913.919 438.412,1554.77 438.412,1554.77l220.442,0c0,0 -404.037,-1917.59 -266.276,-2569.8c0,0 546.484,2546.81 822.006,2606.51l151.562,-101.042c0,0 -598.308,-1711.73 -392.058,-2484.79c206.251,-773.073 -76.433,-1152.84 -76.433,-1152.84c0,0 -840.494,-50.547 -992.056,0Z" style="fill:#3c4a9f;fill-rule:nonzero;"/><path d="M18885,6629.01l141.667,190.377c0,0 62.109,113.659 70.832,129.675c8.725,16.016 -48.567,74.987 -48.567,74.987c0,0 -150.911,-49.375 -163.932,-74.987c-13.021,-25.612 -5.989,-159.18 48.568,-188.672c-50.261,-59.818 -97.135,-153.489 -48.568,-131.38Z" style="fill:#f8a27a;fill-rule:nonzero;"/><path d="M20291.9,7525.82c0,0 -396.095,92.578 -622.266,-25.912c-226.172,-118.463 -593.62,-614.531 -593.62,-614.531l-49.349,147.448c0,0 288.931,557.422 513.151,665.872c224.349,108.438 679.037,177.487 752.084,117.93c73.177,-59.597 0,-290.807 0,-290.807Z" style="fill:#7c79b9;fill-rule:nonzero;"/><path d="M21040.5,8019.85c0,0 -272.005,254.909 -320.312,327.266c-48.178,72.304 60.415,191.745 127.473,242.266c67.058,50.52 451.172,288.215 444.401,632.682c-578.775,110.234 -1109.24,261.797 -1295.31,65.442c41.407,-354.817 191.405,-524.427 308.854,-652.604c117.578,-128.177 -36.718,-318.815 -36.718,-318.815c0,0 -123.959,-99.87 -137.762,-261.797c-6.9,-96.445 89.584,-199.765 89.584,-199.765c0,0 6.901,-192.917 -13.802,-254.935c-20.702,-61.992 127.475,-82.67 127.475,-82.67c0,0 10.285,606.264 365.103,330.704c354.818,-275.612 241.146,-282.474 241.146,-282.474c0,0 433.984,106.51 99.87,454.7Z" style="fill:#6c66ae;fill-rule:nonzero;"/><path d="M21106.1,7655.24c0,0 312.111,195.664 243.23,1532.21l-22.917,280.17l-64.322,0c0,0 -169.531,-1070.17 -220.313,-1382.5c-50.651,-312.317 -41.016,-409.648 64.322,-429.882Z" style="fill:#7c79b9;fill-rule:nonzero;"/><path d="M20755.9,12767.6c-66.667,-26.875 -92.188,-63.308 -193.361,-6.94c-123.046,68.489 -244.14,92.2 -235.937,168.255c2.344,21.067 8.985,42.916 20.835,45.078c170.051,31.237 343.489,13.893 480.467,-55.482c49.35,-24.974 139.585,-38.568 140.495,-93.672c0.652,-37.93 -30.077,-41.146 -51.431,-118.164c-15.235,-55.56 -66.537,99.076 -161.068,60.925Z" style="fill:#5956a5;fill-rule:nonzero;"/><path d="M21523.4,12764.1c68.88,-42.734 90.885,-91.497 210.806,-35.703c145.834,67.864 282.292,80.351 285.417,175.977c0.913,26.497 -2.994,54.57 -15.624,58.945c-181.511,62.565 -374.349,65.43 -535.677,-1.628c-58.073,-24.127 -159.114,-28.333 -168.88,-96.692c-6.771,-47.006 26.561,-55.339 37.629,-153.985c7.944,-71.159 88.672,113.75 186.329,53.086Z" style="fill:#5956a5;fill-rule:nonzero;"/><path d="M19838.7,10244.6l-1702.47,-590.013l302.734,-873.399l1702.47,590.027l-302.734,873.385Z" style="fill:#7c79b9;fill-rule:nonzero;"/><path d="M19781.6,10145.4l-1539.19,-533.398l253.646,-731.589l1539.06,533.359l-253.516,731.628Z" style="fill:#fff;fill-rule:nonzero;"/><path d="M19744.3,10046.6l-1411.33,-489.088l200.391,-578.243l1411.33,489.089l-200.391,578.242Z" style="fill:#c6c2e1;fill-rule:nonzero;"/><path d="M19203.9,9535.44c-1.693,-2.213 -3.385,-4.375 -5.209,-6.497c-13.151,-15.547 -31.509,-28.294 -52.994,-35.756c-8.333,-2.864 -15.495,-6.953 -21.745,-11.992c-9.114,-7.552 -16.015,-17.239 -19.531,-27.617c-3.516,-10.429 -3.775,-21.458 -0.131,-32.161c2.475,-7.11 6.381,-13.229 11.589,-18.32c7.553,-7.644 17.839,-12.904 29.167,-15.157c11.458,-2.239 23.829,-1.549 36.068,2.708c8.333,2.852 15.495,6.954 21.615,11.993c9.244,7.539 16.145,17.213 19.661,27.617c3.516,10.417 3.775,21.471 0.131,32.148l22.656,7.878l22.786,7.877c4.297,-12.474 5.598,-25.455 4.036,-38.164c-2.343,-19.062 -10.807,-37.46 -24.088,-53.007c-13.282,-15.56 -31.511,-28.308 -53.125,-35.782c-14.322,-5 -29.036,-7.226 -43.1,-6.966c-21.224,0.391 -41.146,6.341 -57.422,16.901c-16.276,10.547 -29.036,25.807 -35.416,44.532c-4.427,12.461 -5.598,25.468 -4.036,38.164c1.954,16.484 8.593,32.448 18.88,46.536c1.693,2.188 3.385,4.375 5.208,6.471c13.282,15.573 31.511,28.308 53.125,35.756c8.203,2.877 15.365,6.979 21.485,11.992c9.244,7.578 16.145,17.239 19.661,27.643c3.516,10.43 3.777,21.459 0.13,32.162c-2.474,7.096 -6.38,13.242 -11.588,18.307c-7.552,7.643 -17.839,12.904 -29.297,15.156c-11.328,2.253 -23.697,1.576 -35.938,-2.708c-8.333,-2.839 -15.494,-6.94 -21.615,-11.98c-9.244,-7.538 -16.145,-17.213 -19.661,-27.63c-3.515,-10.39 -3.775,-21.445 -0.129,-32.122l-45.444,-15.755c-4.297,12.461 -5.598,25.455 -4.036,38.138c2.345,19.075 10.676,37.474 24.088,53.021c13.282,15.547 31.511,28.32 53.126,35.781c14.323,4.987 29.037,7.213 43.098,6.979c21.224,-0.39 41.147,-6.354 57.423,-16.914c16.276,-10.534 29.036,-25.794 35.416,-44.544c4.427,-12.448 5.6,-25.456 4.037,-38.164c-1.953,-16.472 -8.594,-32.435 -18.881,-46.524Z" style="fill:#2e2e7a;fill-rule:nonzero;"/><path d="M19080.3,9721.82l-25.001,-8.658l141.797,-409.154l25.131,8.659l-141.927,409.153Z" style="fill:#2e2e7a;fill-rule:nonzero;"/><path d="M22055.6,11439.7l-1562.5,-617.877l187.37,-721.068l2029.95,303.828l-654.818,1035.12Z" style="fill:#7c79b9;fill-rule:nonzero;"/><path d="M21986.3,11327.4l-1428.65,-538.19l165.626,-612.278l1773.83,303.189l-510.807,847.279Z" style="fill:#fff;fill-rule:nonzero;"/><path d="M21945.3,11219.7l-1330.08,-473.815l136.589,-489.05l1575.65,305.092l-382.161,657.773Z" style="fill:#c6c2e1;fill-rule:nonzero;"/><path d="M21336.2,10693.6c-1.563,-2.044 -3.255,-4.036 -5.078,-5.976c-13.021,-14.258 -31.251,-25.469 -52.734,-31.29c-8.203,-2.213 -15.235,-5.676 -21.224,-10.064c-8.985,-6.589 -15.365,-15.3 -18.49,-24.935c-3.125,-9.649 -2.995,-20.091 1.041,-30.56c2.605,-7.018 6.771,-13.203 12.11,-18.516c7.943,-8.008 18.49,-13.984 30.077,-17.187c11.72,-3.243 24.349,-3.698 36.981,-0.664c8.333,2.031 15.754,5.416 22.004,9.83c9.375,6.615 16.146,15.56 19.401,25.534c3.255,9.987 3.125,20.847 -1.302,31.628l23.828,6.107l24.09,6.184c5.337,-12.708 7.291,-25.755 6.25,-38.32c-1.433,-18.906 -9.766,-36.588 -23.439,-50.924c-13.542,-14.245 -32.421,-25.092 -54.817,-30.274c-14.844,-3.424 -30.079,-4.102 -44.662,-2.369c-21.613,2.578 -41.796,10.351 -58.463,22.122c-16.276,11.627 -29.167,27.291 -36.068,45.547c-4.557,12.096 -6.12,24.388 -5.079,36.185c1.434,15.286 7.293,29.791 16.798,42.343c1.562,1.967 3.125,3.893 4.817,5.755c12.371,13.816 29.819,24.831 50.912,30.782c8.073,2.291 15.235,5.82 21.224,10.299c8.984,6.732 15.494,15.625 18.75,25.365c3.124,9.765 2.996,20.221 -1.172,30.482c-2.734,6.796 -7.032,12.669 -12.369,17.578c-7.943,7.357 -18.36,12.487 -29.688,14.844c-11.328,2.343 -23.438,1.953 -35.156,-1.732c-7.944,-2.422 -14.713,-6.029 -20.443,-10.495c-8.594,-6.667 -14.714,-15.326 -17.839,-24.74c-2.994,-9.414 -2.994,-19.544 0.911,-29.479l-42.446,-12.565c-4.298,11.51 -5.73,23.334 -4.689,34.766c1.693,17.148 8.985,33.528 20.965,47.278c11.978,13.79 28.775,25.039 49.087,31.563c13.672,4.388 27.734,6.315 41.537,5.95c20.964,-0.586 41.016,-6.328 57.812,-16.432c17.058,-10.208 30.729,-24.922 38.282,-42.904c5.078,-12.057 6.901,-24.583 5.989,-36.744c-1.432,-15.795 -7.551,-30.912 -17.708,-43.972Z" style="fill:#2e2e7a;fill-rule:nonzero;"/><path d="M21206.5,10870.6l-23.308,-7.774l156.25,-395.898l26.172,5.742l-159.114,397.93Z" style="fill:#2e2e7a;fill-rule:nonzero;"/><path d="M18876.3,11532.9l-1193.1,-1350.17l692.709,-612.057l1193.1,1350.17l-692.709,612.057Z" style="fill:#7c79b9;fill-rule:nonzero;"/><path d="M18875.3,11418.4l-1078.52,-1220.64l580.208,-512.709l1078.64,1220.63l-580.338,512.721Z" style="fill:#fff;fill-rule:nonzero;"/><path d="M18891.3,11314l-988.932,-1119.23l458.594,-405.234l988.931,1119.22l-458.593,405.247Z" style="fill:#c6c2e1;fill-rule:nonzero;"/><path d="M18671.7,10603.3c-0.391,-2.721 -0.781,-5.43 -1.302,-8.151c-3.907,-20.052 -13.542,-40.13 -28.647,-57.266c-5.859,-6.51 -10.155,-13.633 -13.021,-21.055c-4.296,-11.08 -5.467,-22.877 -3.514,-33.671c2.082,-10.821 7.291,-20.586 15.755,-28.073c5.599,-5 12.11,-8.36 19.01,-10.313c10.417,-2.891 22.006,-2.409 32.943,1.198c11.067,3.607 21.484,10.326 30.079,20.065c5.728,6.537 10.024,13.646 13.02,21.055c4.297,11.12 5.468,22.904 3.384,33.685c-2.082,10.82 -7.16,20.559 -15.624,28.073l15.885,18.033l16.015,18.021c9.896,-8.723 17.319,-19.44 22.267,-31.276c7.291,-17.721 8.984,-37.89 5.079,-57.981c-3.907,-20.066 -13.543,-40.157 -28.778,-57.253c-10.024,-11.406 -21.743,-20.573 -34.114,-27.279c-18.619,-10.091 -38.932,-14.674 -58.333,-13.476c-19.401,1.211 -37.891,8.268 -52.734,21.38c-9.896,8.737 -17.318,19.453 -22.266,31.25c-6.38,15.378 -8.464,32.513 -6.38,49.857c0.391,2.721 0.782,5.456 1.301,8.164c3.907,20.065 13.543,40.13 28.647,57.265c5.859,6.511 10.026,13.62 13.021,21.042c4.296,11.081 5.468,22.878 3.516,33.672c-2.084,10.833 -7.293,20.586 -15.756,28.086c-5.599,4.987 -12.109,8.359 -19.01,10.299c-10.418,2.891 -22.006,2.409 -32.943,-1.172c-11.068,-3.632 -21.485,-10.325 -30.078,-20.078c-5.73,-6.536 -10.026,-13.659 -12.89,-21.067c-4.428,-11.107 -5.6,-22.904 -3.516,-33.685c1.953,-10.821 7.16,-20.56 15.624,-28.073l-31.9,-36.055c-9.896,8.75 -17.319,19.44 -22.267,31.276c-7.291,17.722 -8.983,37.904 -5.077,57.982c3.906,20.065 13.671,40.156 28.776,57.252c10.026,11.407 21.745,20.574 34.114,27.279c18.75,10.092 38.933,14.675 58.334,13.477c19.4,-1.198 37.891,-8.256 52.735,-21.394c9.896,-8.71 17.317,-19.439 22.265,-31.236c6.38,-15.365 8.464,-32.514 6.38,-49.857Z" style="fill:#2e2e7a;fill-rule:nonzero;"/><path d="M18472.7,10705l-17.578,-19.83l324.48,-286.732l17.577,19.844l-324.479,286.718Z" style="fill:#2e2e7a;fill-rule:nonzero;"/><path d="M21857.8,9606.94l-1689.06,627.265l-321.745,-866.523l1689.06,-627.265l321.746,866.523Z" style="fill:#7c79b9;fill-rule:nonzero;"/><path d="M21750.7,9566.7l-1526.95,567.071l-269.533,-725.873l1526.95,-567.057l269.53,725.859Z" style="fill:#fff;fill-rule:nonzero;"/><path d="M21659,9514.16l-1400.13,519.961l-213.02,-573.672l1400.13,-519.987l213.021,573.698Z" style="fill:#c6c2e1;fill-rule:nonzero;"/><path d="M20916.9,9463.32c-2.605,-0.664 -5.339,-1.263 -8.073,-1.745c-20.053,-3.555 -42.318,-1.784 -63.672,6.185c-8.203,2.995 -16.407,4.427 -24.349,4.479c-11.849,0.065 -23.308,-3.099 -32.682,-8.88c-9.375,-5.781 -16.537,-14.102 -20.574,-24.701c-2.604,-7.07 -3.386,-14.323 -2.734,-21.51c1.041,-10.729 5.599,-21.302 13.021,-30.3c7.292,-8.945 17.317,-16.302 29.557,-20.833c8.073,-3.021 16.276,-4.453 24.219,-4.492c11.979,-0.065 23.307,3.099 32.682,8.867c9.375,5.781 16.667,14.102 20.572,24.727l22.526,-8.412l22.658,-8.359c-4.689,-12.37 -11.98,-23.164 -21.224,-32.005c-13.933,-13.256 -32.163,-22.071 -52.214,-25.638c-20.183,-3.529 -42.448,-1.771 -63.802,6.185c-14.323,5.286 -27.083,12.903 -37.761,22.083c-16.146,13.776 -27.734,31.015 -33.593,49.544c-5.86,18.477 -5.86,38.346 1.041,56.901c4.557,12.383 11.849,23.164 21.094,31.992c12.11,11.472 27.343,19.61 44.271,23.894c2.603,0.677 5.339,1.237 8.073,1.757c20.052,3.555 42.317,1.784 63.672,-6.184c8.203,-3.034 16.406,-4.467 24.349,-4.48c11.849,-0.065 23.307,3.06 32.682,8.867c9.375,5.782 16.667,14.089 20.572,24.675c2.606,7.083 3.386,14.349 2.734,21.511c-1.041,10.768 -5.598,21.328 -13.021,30.325c-7.29,8.945 -17.317,16.302 -29.556,20.807c-8.072,3.047 -16.276,4.466 -24.218,4.505c-11.98,0.066 -23.308,-3.072 -32.682,-8.854c-9.377,-5.807 -16.668,-14.115 -20.574,-24.726l-45.182,16.783c4.687,12.344 11.979,23.165 21.224,31.993c13.931,13.255 32.161,22.057 52.213,25.625c20.182,3.555 42.448,1.797 63.803,-6.185c14.192,-5.287 27.083,-12.904 37.759,-22.057c16.147,-13.789 27.734,-31.042 33.595,-49.545c5.858,-18.515 5.858,-38.359 -1.043,-56.914c-4.557,-12.382 -11.848,-23.177 -21.094,-32.005c-12.108,-11.458 -27.343,-19.596 -44.269,-23.88Z" style="fill:#2e2e7a;fill-rule:nonzero;"/><path d="M20940.2,9685.67l-24.869,9.192l-150.782,-405.937l24.87,-9.193l150.781,405.938Z" style="fill:#2e2e7a;fill-rule:nonzero;"/><path d="M23455.7,9637.69l-1598.83,516.784l-313.802,-675.704l1759.77,-1056.35l152.865,1215.27Z" style="fill:#7c79b9;fill-rule:nonzero;"/><path d="M23330.9,9595.01l-1444.79,493.139l-261.588,-577.904l1561.85,-893.985l144.532,978.75Z" style="fill:#fff;fill-rule:nonzero;"/><path d="M23230.7,9538.03l-1327.73,480.104l-205.599,-464.283l1410.03,-766.498l123.307,750.677Z" style="fill:#c6c2e1;fill-rule:nonzero;"/><path d="M22426,9519.34c-2.473,-0.56 -5.077,-1.067 -7.551,-1.419c-19.141,-2.721 -40.365,0.182 -60.678,9.427c-7.682,3.477 -15.364,5.3 -22.786,5.716c-11.068,0.573 -21.614,-2.083 -30.078,-7.513c-8.594,-5.442 -15.235,-13.58 -18.751,-24.218c-2.342,-7.123 -3.124,-14.532 -2.342,-21.993c1.041,-11.237 5.339,-22.538 12.238,-32.421c7.032,-9.896 16.407,-18.334 28.126,-23.998c7.812,-3.763 15.624,-5.859 23.177,-6.419c11.459,-0.873 22.396,1.732 31.251,7.357c8.853,5.651 15.754,14.114 19.14,25.247l22.265,-10.417l22.526,-10.559c-3.906,-13.23 -10.677,-24.571 -19.531,-33.594c-13.152,-13.594 -30.729,-22.006 -50.391,-24.375c-19.531,-2.396 -41.016,1.276 -61.719,11.549c-13.671,6.784 -25.781,15.899 -35.937,26.497c-14.975,15.717 -25.651,34.61 -30.99,54.245c-5.209,19.401 -5.209,39.675 1.043,58.165c4.166,12.187 10.806,22.708 19.14,31.119c10.807,10.899 24.61,18.36 39.973,21.967c2.345,0.585 4.818,1.067 7.293,1.432c18.359,2.773 38.801,0.169 58.854,-8.659c7.682,-3.372 15.494,-5.157 22.917,-5.534c11.328,-0.521 22.004,2.187 30.599,7.682c8.722,5.521 15.233,13.659 18.488,24.219c2.214,7.031 2.605,14.284 1.693,21.471c-1.563,10.716 -6.25,21.342 -13.541,30.352c-7.292,8.958 -16.797,16.341 -28.256,21.016c-7.551,3.124 -15.104,4.674 -22.395,4.869c-10.937,0.326 -21.094,-2.447 -29.558,-7.747c-8.333,-5.351 -14.713,-13.164 -18.099,-23.308l-40.625,17.24c4.038,11.628 10.418,21.706 18.491,29.831c12.238,12.161 28.254,20.169 46.223,23.164c17.968,3.047 38.151,1.042 57.943,-6.823c13.282,-5.299 25.39,-12.839 35.808,-21.862c15.885,-13.737 27.734,-30.95 34.244,-49.44c6.641,-18.711 7.943,-38.789 2.213,-57.461c-3.775,-12.539 -10.285,-23.385 -18.749,-32.096c-11.068,-11.354 -25.521,-19.076 -41.668,-22.709Z" style="fill:#2e2e7a;fill-rule:nonzero;"/><path d="M22438.5,9738.35l-22.917,8.854l-131.251,-404.896l23.96,-12.252l130.208,408.294Z" style="fill:#2e2e7a;fill-rule:nonzero;"/><rect x="14940.2" y="6019.8" width="1718.75" height="87.396" style="fill:#7c79b9;fill-rule:nonzero;"/><path d="M15978,4429.07l-1215.36,1215.25l61.848,61.823l1215.23,-1215.25l-61.718,-61.823Z" style="fill:#7c79b9;fill-rule:nonzero;"/><rect x="14371.6" y="3785.8" width="87.369" height="1718.65" style="fill:#7c79b9;fill-rule:nonzero;"/><path d="M12780.9,4466.77l1215.22,1215.27l61.849,-61.822l-1215.25,-1215.26l-61.823,61.81Z" style="fill:#7c79b9;fill-rule:nonzero;"/><rect x="12137.6" y="5985.7" width="1718.66" height="87.409" style="fill:#7c79b9;fill-rule:nonzero;"/><path d="M12818.6,7663.82l1215.27,-1215.26l-61.849,-61.81l-1215.25,1215.27l61.823,61.797Z" style="fill:#7c79b9;fill-rule:nonzero;"/><rect x="14337.5" y="6588.47" width="87.369" height="1718.63" style="fill:#7c79b9;fill-rule:nonzero;"/><path d="M16015.6,7626.14l-1215.23,-1215.27l-61.849,61.824l1215.23,1215.27l61.849,-61.824Z" style="fill:#7c79b9;fill-rule:nonzero;"/><rect x="17180.1" y="4444.51" width="155.859" height="4132.57" style="fill:#a3add8;fill-rule:nonzero;"/><path d="M11591.4,13664.3c0,51.693 -624.388,93.75 -1394.58,93.75c-770.222,0 -1394.6,-42.057 -1394.6,-93.75c0,-51.692 624.374,-93.619 1394.6,-93.619c770.195,0 1394.58,41.927 1394.58,93.619Z" style="fill:#5956a5;fill-rule:nonzero;"/><path d="M9464.77,12639.1l108.217,737.201l132.734,16.276l-20.417,-843.334l-220.534,89.857Z" style="fill:#f8a27a;fill-rule:nonzero;"/><path d="M9822.13,13570.3c-79.648,-47.005 -11.224,-98.034 -8.189,-126.693c3.086,-28.515 -61.237,-32.682 -71.459,-31.627c-0.638,0.13 -2.539,0 -5.299,0c-3.464,-11.459 -6.354,-25.143 -4.896,-36.732c3.06,-24.479 -86.771,-55.078 -165.144,-38.802c-51.706,10.69 -52.135,49.87 -46.458,75.39c-29.075,3.907 -46.797,10.938 -38.555,23.698c28.594,43.881 54.128,93.894 32.67,111.198c-21.446,17.448 -100.04,42.969 -17.357,105.209l347.149,0c0,0 57.174,-34.753 -22.462,-81.641Z" style="fill:#0d3942;fill-rule:nonzero;"/><path d="M10449,12549.2c0,0 247.774,722.891 254.557,843.347c129.337,136.849 231.459,59.231 231.459,59.231c0,0 -294.049,-800.481 -302.227,-959.752c-8.163,-159.258 -183.789,57.174 -183.789,57.174Z" style="fill:#f8a27a;fill-rule:nonzero;"/><path d="M10713.6,13367.6c0,0 -67.383,-30.599 -71.484,65.364c-4.076,95.964 14.31,214.453 14.31,214.453c0,0 571.77,16.276 604.439,0c6.107,-102.213 -69.44,-126.041 -138.854,-138.671c-69.44,-12.501 -147.266,-132.032 -170.65,-171.225c-23.347,-39.323 -70.313,77.084 -237.761,30.079Z" style="fill:#0d3942;fill-rule:nonzero;"/><path d="M10442.2,11246.4c70.768,-1121.77 -362.11,-2031.16 -362.11,-2031.16l-486.458,53.424c-142.643,-26.315 -194.284,-61.849 -194.284,-61.849c0,0 -710.586,1026.73 -106.146,2115.82c-76.223,735.117 157.93,1372.24 157.93,1372.24l250.482,0c0,0 104.036,-813.528 173.672,-1646.35c50.273,142.318 112.421,296.341 185.742,437.474c-16.367,506.419 370.286,1110.85 359.375,1127.19c-10.886,16.341 283.164,-21.797 283.164,-21.797c0,0 -43.555,-223.229 -261.367,-1344.99Z" style="fill:#2e2e7a;fill-rule:nonzero;"/><path d="M9593.66,9268.71c-183.867,-65.338 -167.93,-24.244 -167.93,-24.244c0,0 -257.461,248.45 -342.421,648.75c158.84,-94.245 467.669,-313.672 538.203,-626.42l-27.852,1.914Z" style="fill:#6275b8;fill-rule:nonzero;"/><path d="M10114.1,10143.7l-114.35,98.008c0,0 -5.897,-688.984 -20.194,-999.375l-144.597,9.87c33.32,220.365 176.992,1222.49 79.036,1516.37c163.347,-77.617 200.105,-624.87 200.105,-624.87Z" style="fill:#6275b8;fill-rule:nonzero;"/><path d="M9355.86,8235.13c-13.608,-10.886 -299.506,-430.196 -269.558,-800.469c29.961,-370.299 242.331,-310.378 242.331,-310.378c0,0 -5.43,-176.992 277.709,-95.299c283.163,81.679 362.134,414.063 367.564,592.292c5.456,178.203 0,646.523 0,646.523l-618.046,-32.669Z" style="fill:#202020;fill-rule:nonzero;"/><path d="M9106.16,8145.39c0,0 333.099,-149.18 763.359,-21.888c130.091,272.265 81.081,366.211 81.081,366.211c0,0 -437.005,10.196 -445.169,10.196c-8.178,0 -399.271,-354.519 -399.271,-354.519Z" style="fill:#f39175;fill-rule:nonzero;"/><path d="M9588.95,8431.82c0,0 192.239,138.424 834.284,42.252c642.043,-96.185 582.552,-123.815 636.249,-191.107c53.711,-67.317 347.695,-678.684 406.055,-787.187c58.385,-108.503 22.865,-302.526 0.677,-338.49c-22.175,-35.989 -157.005,-21.08 -149.114,203.958c0,0 -7.279,70.417 -31.016,29.232c-23.737,-41.198 -141.107,-91.236 -83.204,-11.953c57.931,79.245 106.198,135.82 91.876,211.185c-14.324,75.378 -400.638,578.02 -423.334,587.682c-22.682,9.662 -697.265,-93.294 -931.679,-54.244c-243.685,40.572 -356.302,176.744 -350.794,308.672Z" style="fill:#f39175;fill-rule:nonzero;"/><path d="M9140.76,8137.12c0,0 481.927,392.057 759.635,225.964c43.568,-27.214 -51.223,-251.159 -51.223,-251.159l48.502,11.575c0,0 506.42,637.097 266.836,952.942c-78.945,111.642 -84.401,138.855 -84.401,138.855c0,0 -558.164,146.771 -667.07,27.096c-114.349,-165.951 -321.276,-435.507 -321.276,-435.507c0,0 -130.69,-413.828 -92.578,-539.089c38.112,-125.221 141.575,-130.677 141.575,-130.677Z" style="fill:#efeef7;fill-rule:nonzero;"/><path d="M9056.37,8199.72c0,0 -187.851,144.323 -280.468,786.875c-92.553,642.565 -48.985,593.542 0,664.336c49.049,70.781 550.012,528.203 637.148,615.339c87.109,87.135 283.138,108.893 323.971,98.02c40.873,-10.885 65.365,-144.309 -152.461,-201.471c0,0 -65.338,-27.253 -19.049,-38.151c46.302,-10.872 127.956,-108.906 35.391,-76.224c-92.566,32.669 -160.652,62.63 -228.699,27.227c-68.085,-35.391 -438.372,-550 -441.106,-574.493c-2.708,-24.492 289.948,-640.963 320.013,-876.718c31.224,-245.026 -66.797,-392.057 -194.74,-424.74Z" style="fill:#f39175;fill-rule:nonzero;"/><path d="M9355.86,8123.5c0,0 62.63,-264.088 21.796,-381.185c179.688,54.453 255.938,103.45 255.938,103.45c0,0 -76.25,193.321 29.922,294.076c106.198,100.742 -87.109,59.87 -87.109,59.87l-220.547,-76.211Z" style="fill:#f39175;fill-rule:nonzero;"/><path d="M9828.74,7557.17c0,210.521 -132.253,381.172 -295.39,381.172c-163.152,0 -295.43,-170.651 -295.43,-381.172c0,-210.521 132.278,-381.159 295.43,-381.159c163.137,0 295.39,170.638 295.39,381.159Z" style="fill:#f39175;fill-rule:nonzero;"/><path d="M9301.92,7604.81c0,45.846 -28.646,83.06 -63.984,83.06c-35.326,0 -63.984,-37.214 -63.984,-83.06c0,-45.859 28.658,-83.033 63.984,-83.033c35.338,0 63.984,37.174 63.984,83.033Z" style="fill:#f39175;fill-rule:nonzero;"/><path d="M9194.37,7465.96c0,0 85.755,92.565 91.211,156.549c5.443,63.998 25.873,0 25.873,0c0,0 -29.949,-216.458 69.414,-292.669c99.374,-76.25 -91.211,-130.703 -93.243,-130.703c-2.044,0 -179.283,134.44 -93.255,266.823Z" style="fill:#202020;fill-rule:nonzero;"/><path d="M9394.48,7153.98c0,0 17.722,78.945 87.136,85.768c69.413,6.797 299.479,115.404 234.166,397.357c0,0 1.355,31.146 23.113,0c21.796,-31.146 97.252,-455.886 -128.36,-518.529c-225.586,-62.643 -216.055,35.404 -216.055,35.404Z" style="fill:#202020;fill-rule:nonzero;"/></svg>