<?xml version="1.0" encoding="UTF-8" standalone="no"?><!DOCTYPE svg PUBLIC "-//W3C//DTD SVG 1.1//EN" "http://www.w3.org/Graphics/SVG/1.1/DTD/svg11.dtd"><svg width="100%" height="100%" viewBox="0 0 554 554" version="1.1" xmlns="http://www.w3.org/2000/svg" xmlns:xlink="http://www.w3.org/1999/xlink" xml:space="preserve" xmlns:serif="http://www.serif.com/" style="fill-rule:evenodd;clip-rule:evenodd;stroke-linejoin:round;stroke-miterlimit:2;"><path d="M96.169,96.155c-66.81,66.811 -66.81,175.131 0,241.941c66.81,66.809 175.117,66.809 241.94,0c66.81,-66.81 66.81,-175.13 0,-241.941c-66.81,-66.795 -175.143,-66.795 -241.94,0Zm22.825,22.826c-53.997,53.997 -54.167,141.433 -0.56,195.664l0.547,0.586c6.315,6.303 16.537,6.303 22.839,0c6.315,-6.314 6.315,-16.524 0,-22.838l-0.352,-0.352c-41.224,-41.615 -41.12,-108.776 0.352,-150.234c20.586,-20.586 47.526,-31.004 74.518,-31.185l0.391,0.013c4.257,0.105 8.554,-1.472 11.809,-4.727c6.303,-6.302 6.303,-16.522 0,-22.825c-3.255,-3.255 -7.552,-4.832 -11.809,-4.727l-0.391,0.013c-35.261,0.195 -70.443,13.725 -97.344,40.612Zm307.435,274.948c20.872,-8.229 45.677,-3.867 62.409,12.865l47.917,47.917c22.487,22.486 22.487,59.517 0,82.005l-0.013,0.013c-22.5,22.5 -59.467,22.553 -82.019,0l-47.916,-47.918c-16.784,-16.783 -21.081,-41.523 -12.865,-62.381l-40.365,-40.379c-85.286,69.05 -210.664,63.92 -289.973,-15.39c-84.805,-84.804 -84.805,-222.278 0,-307.058c84.791,-84.804 222.265,-84.804 307.07,0c79.31,79.298 84.44,204.689 15.39,289.961l40.365,40.365Z" style="fill:#fff;"/></svg>