<?xml version="1.0" encoding="UTF-8" standalone="no"?><!DOCTYPE svg PUBLIC "-//W3C//DTD SVG 1.1//EN" "http://www.w3.org/Graphics/SVG/1.1/DTD/svg11.dtd"><svg width="100%" height="100%" viewBox="0 0 9430 7501" version="1.1" xmlns="http://www.w3.org/2000/svg" xmlns:xlink="http://www.w3.org/1999/xlink" xml:space="preserve" xmlns:serif="http://www.serif.com/" style="fill-rule:evenodd;clip-rule:evenodd;stroke-miterlimit:2;"><path d="M3445.61,7423.69c0,0 -3724.53,-193.219 -3428.9,-4106.94c295.641,-3913.72 4142.87,-3876.71 5397.27,-2376.95c1254.41,1499.76 4143.03,722.902 4010.62,3495.32c-132.374,2772.44 -3982.37,3291.19 -5979,2988.56Z" style="fill:#eef2f9;fill-rule:nonzero;"/><path d="M2074.05,4369.47l-13.094,-48.25" style="fill:none;stroke:#8fc0fa;stroke-width:21.88px;"/><path d="M2046.05,4224.47l-25.469,-93.875l-21.094,5.719l25.469,93.875l21.094,-5.719Zm-50.938,-187.75l-25.437,-93.875l-21.125,5.719l25.469,93.875l21.093,-5.719Zm-50.906,-187.75l-25.469,-93.875l-21.125,5.719l25.469,93.875l21.125,-5.719Zm-50.938,-187.75l-25.468,-93.875l-21.094,5.719l25.437,93.875l21.125,-5.719Zm-50.937,-187.75l-25.438,-93.875l-21.125,5.719l25.469,93.875l21.094,-5.719Zm-50.906,-187.75l-25.469,-93.875l-21.125,5.719l25.469,93.875l21.125,-5.719Zm-50.938,-187.75l-25.469,-93.875l-21.093,5.719l25.469,93.875l21.093,-5.719Zm-50.937,-187.781l-25.438,-93.875l-21.125,5.75l25.469,93.875l21.094,-5.75Z" style="fill:#8fc0fa;fill-rule:nonzero;"/><path d="M1638.64,2722.44l-10.125,-37.281l37.657,-8.657l-4.907,-21.312l-59.812,13.75l16.062,59.25l21.125,-5.75Z" style="fill:#8fc0fa;fill-rule:nonzero;"/><path d="M1763.48,2654.12l97.282,-22.406l-4.907,-21.313l-97.281,22.407l4.906,21.312Zm194.594,-44.781l97.312,-22.406l-4.906,-21.313l-97.312,22.407l4.906,21.312Zm194.625,-44.781l97.281,-22.407l-4.875,-21.312l-97.312,22.406l4.906,21.313Zm194.594,-44.782l97.312,-22.406l-4.906,-21.312l-97.312,22.406l4.906,21.312Zm194.625,-44.781l97.312,-22.406l-4.906,-21.312l-97.313,22.406l4.907,21.312Zm194.594,-44.781l97.312,-22.375l-4.906,-21.344l-97.313,22.406l4.907,21.313Zm194.624,-44.781l97.313,-22.375l-4.906,-21.344l-97.313,22.406l4.906,21.313Zm194.594,-44.781l97.313,-22.376l-4.907,-21.312l-97.281,22.375l4.875,21.313Zm194.625,-44.782l97.313,-22.375l-4.907,-21.312l-97.312,22.375l4.906,21.312Zm194.625,-44.781l97.281,-22.375l-4.906,-21.312l-97.281,22.375l4.906,21.312Zm194.594,-44.781l97.313,-22.375l-4.907,-21.313l-97.312,22.375l4.906,21.313Zm194.625,-44.782l97.281,-22.374l-4.906,-21.313l-97.285,22.375l4.91,21.312Zm194.594,-44.78l97.312,-22.376l-4.906,-21.313l-97.313,22.376l4.907,21.313Zm194.625,-44.751l97.281,-22.406l-4.875,-21.312l-97.313,22.374l4.907,21.344Zm194.593,-44.781l97.313,-22.406l-4.906,-21.313l-97.313,22.406l4.906,21.313Zm194.626,-44.788l97.312,-22.39l-4.906,-21.315l-97.313,22.386l4.907,21.319Zm194.593,-44.78l97.313,-22.388l-4.907,-21.319l-97.312,22.388l4.906,21.319Zm194.625,-44.779l97.313,-22.391l-4.907,-21.318l-97.312,22.393l4.906,21.316Zm194.594,-44.778l97.312,-22.39l-4.906,-21.316l-97.312,22.388l4.906,21.318Zm194.625,-44.781l97.313,-22.388l-4.907,-21.319l-97.312,22.388l4.906,21.319Zm194.593,-44.778l97.313,-22.391l-4.906,-21.319l-97.281,22.394l4.874,21.316Z" style="fill:#8fc0fa;fill-rule:nonzero;"/><path d="M5847.86,1703.09l48.719,-11.212l37.656,32.881" style="fill:none;stroke:#8fc0fa;stroke-width:21.88px;"/><path d="M6004.33,1800.45l77.281,67.453l14.375,-16.481l-77.281,-67.45l-14.375,16.478Zm154.531,134.906l77.281,67.453l14.375,-16.481l-77.249,-67.45l-14.407,16.478Zm154.562,134.891l77.282,67.469l14.375,-16.469l-77.281,-67.469l-14.376,16.469Zm154.532,134.906l77.281,67.469l14.375,-16.5l-77.281,-67.438l-14.375,16.469Zm154.563,134.907l77.249,67.469l14.406,-16.5l-77.281,-67.438l-14.374,16.469Zm154.531,134.906l77.281,67.469l14.375,-16.5l-77.281,-67.438l-14.375,16.469Zm154.531,134.906l77.281,67.469l14.375,-16.5l-77.25,-67.437l-14.406,16.468Zm154.562,134.906l77.281,67.469l14.376,-16.5l-77.282,-67.437l-14.375,16.468Zm154.532,134.907l77.281,67.437l14.375,-16.468l-77.25,-67.438l-14.406,16.469Zm154.562,134.906l77.25,67.438l14.406,-16.469l-77.281,-67.469l-14.375,16.5Zm154.531,134.906l77.282,67.438l14.375,-16.469l-77.282,-67.469l-14.375,16.5Zm154.532,134.907l77.281,67.437l14.406,-16.469l-77.281,-67.469l-14.406,16.501Zm154.562,134.906l77.281,67.437l14.375,-16.469l-77.281,-67.468l-14.375,16.5Z" style="fill:#8fc0fa;fill-rule:nonzero;"/><path d="M8013.39,3554.22l30.875,26.906l-20.687,35.344l18.875,11.063l29.812,-50.969l-44.468,-38.844l-14.407,16.5Z" style="fill:#8fc0fa;fill-rule:nonzero;"/><path d="M7974.64,3700.09l-48.968,83.625l18.906,11.031l48.937,-83.625l-18.875,-11.031Zm-97.906,167.219l-48.937,83.625l18.875,11.062l48.968,-83.625l-18.906,-11.062Zm-97.875,167.25l-48.938,83.625l18.876,11.031l48.937,-83.594l-18.875,-11.062Zm-97.875,167.218l-48.937,83.625l18.874,11.063l48.938,-83.625l-18.875,-11.063Zm-97.875,167.25l-48.937,83.625l18.875,11.032l48.937,-83.625l-18.875,-11.032Zm-97.875,167.219l-48.937,83.625l18.875,11.063l48.937,-83.625l-18.875,-11.063Zm-97.875,167.25l-48.969,83.625l18.906,11.032l48.938,-83.625l-18.875,-11.032Zm-97.906,167.219l-48.937,83.625l18.875,11.063l48.937,-83.625l-18.875,-11.063Zm-97.875,167.25l-48.938,83.625l18.876,11.031l48.937,-83.625l-18.875,-11.031Zm-97.875,167.219l-48.938,83.625l18.875,11.062l48.938,-83.625l-18.875,-11.062Z" style="fill:#8fc0fa;fill-rule:nonzero;"/><path d="M7005.27,5377.97l-25.251,43.156" style="fill:none;stroke:#8fc0fa;stroke-width:21.88px;"/><path d="M6741.52,5374.53l-3988.53,0c-72.406,0 -131.094,-58.687 -131.094,-131.065l0,-2621.72c0,-72.406 58.688,-131.093 131.094,-131.093l3988.53,0c72.407,0 131.094,58.687 131.094,131.093l0,2621.72c0,72.378 -58.687,131.065 -131.094,131.065Z" style="fill:#fff;fill-rule:nonzero;"/><path d="M3921.42,4956.09l-951.375,0c-9.75,0 -17.657,-7.906 -17.657,-17.687l0,-1787.75c0,-9.75 7.907,-17.656 17.657,-17.656l951.375,0c9.781,0 17.688,7.906 17.688,17.656l0,1787.75c0,9.781 -7.907,17.687 -17.688,17.687Z" style="fill:#c7defe;fill-rule:nonzero;"/><clipPath id="_clip1"><path d="M3921.42,4956.09l-951.375,0c-9.75,0 -17.657,-7.906 -17.657,-17.687l0,-1787.75c0,-9.75 7.907,-17.656 17.657,-17.656l951.375,0c9.781,0 17.688,7.906 17.688,17.656l0,1787.75c0,9.781 -7.907,17.687 -17.688,17.687Z" clip-rule="nonzero"/></clipPath><g clip-path="url(#_clip1)"><path d="M3921.42,4956.09l-951.375,0c-9.75,0 -17.657,-7.906 -17.657,-17.687l0,-1787.75c0,-9.75 7.907,-17.656 17.657,-17.656l951.375,0c9.781,0 17.688,7.906 17.688,17.656l0,1787.75c0,9.781 -7.907,17.687 -17.688,17.687Z" style="fill:#e2eaf7;fill-rule:nonzero;"/></g><rect x="4068.73" y="3133" width="2354.34" height="44.656" style="fill:#f3f6fc;fill-rule:nonzero;"/><rect x="4068.73" y="3225.78" width="2354.34" height="44.656" style="fill:#f3f6fc;fill-rule:nonzero;"/><rect x="4068.73" y="3318.59" width="2354.34" height="44.656" style="fill:#f3f6fc;fill-rule:nonzero;"/><rect x="4068.73" y="3411.41" width="2354.34" height="44.656" style="fill:#f3f6fc;fill-rule:nonzero;"/><rect x="4068.73" y="3504.22" width="2354.34" height="44.625" style="fill:#f3f6fc;fill-rule:nonzero;"/><rect x="4068.73" y="3597" width="2354.34" height="44.656" style="fill:#f3f6fc;fill-rule:nonzero;"/><path d="M6837.05,5224.66c0,64.69 -57.282,117.281 -127.719,117.281l-3924.16,0c-7.782,0 -15.344,-0.657 -22.688,-1.872c-59.625,-9.847 -105.031,-57.847 -105.031,-115.409l0,-2547.59l4179.59,0l0,2547.59Zm-18.969,-2938.62c-29.281,-23.032 -67.25,-36.938 -108.75,-36.938l-3924.16,0c-92.313,0 -167.438,68.938 -167.438,153.688l0,2821.88c0,69.315 50.156,127.971 118.875,147.093c15.344,4.316 31.656,6.629 48.563,6.629l3924.16,0c92.312,0 167.437,-68.941 167.437,-153.722l0,-2821.88c0,-46.688 -22.781,-88.594 -58.687,-116.75Z" style="fill:#2946fb;fill-rule:nonzero;"/><path d="M5935.98,2570.03l-1798.38,0c-57.968,0 -104.968,-43.126 -104.968,-96.344c0,-53.219 47,-96.344 104.968,-96.344l1798.38,0c57.968,0 104.968,43.125 104.968,96.344c0,53.218 -47,96.344 -104.968,96.344Z" style="fill:#fff;fill-rule:nonzero;"/><path d="M2784.39,2527.41c-5.125,0 -10.25,-1.782 -14.156,-5.375c-7.813,-7.188 -7.813,-18.813 0,-26.001l95.969,-88.093c7.813,-7.188 20.5,-7.188 28.312,0c7.813,7.156 7.813,18.812 0,26l-95.968,88.094c-3.907,3.593 -9.032,5.375 -14.157,5.375Z" style="fill:#fff;fill-rule:nonzero;"/><path d="M2880.36,2527.41c-5.125,0 -10.25,-1.782 -14.156,-5.375l-95.969,-88.094c-7.813,-7.188 -7.813,-18.844 0,-26c7.812,-7.188 20.5,-7.188 28.313,0l95.968,88.093c7.813,7.188 7.813,18.813 0,26.001c-3.906,3.593 -9.031,5.375 -14.156,5.375Z" style="fill:#fff;fill-rule:nonzero;"/><path d="M3260.83,2465c0,-14.187 12.531,-25.719 27.969,-25.719c15.406,0 27.937,11.532 27.937,25.719c0,14.125 -12.531,25.657 -27.937,25.657c-15.438,0 -27.969,-11.532 -27.969,-25.657Zm27.969,-62.437c-37.5,0 -68.032,28 -68.032,62.437c0,9.125 2.188,17.813 6.063,25.657c10.656,21.656 34.406,36.781 61.969,36.781c27.531,0 51.281,-15.125 61.968,-36.781c3.875,-7.844 6.032,-16.532 6.032,-25.657c0,-34.437 -30.5,-62.437 -68,-62.437Z" style="fill:#fff;fill-rule:nonzero;"/><path d="M3105.83,2483.38l-102.813,0c-11.062,0 -20.031,-8.25 -20.031,-18.375c0,-10.156 8.969,-18.375 20.031,-18.375l102.813,0c11.062,0 20.031,8.219 20.031,18.375c0,10.125 -8.969,18.375 -20.031,18.375Z" style="fill:#fff;fill-rule:nonzero;"/><path d="M4292.83,5341.94l-649.625,0c14.625,-173.719 25.937,-298.031 25.937,-298.031c0,0 281.594,140.406 400.157,199.687c57.781,28.875 145.812,66.941 223.531,98.344Zm163.344,-173.375c-135.875,-91.657 -424.875,-263.532 -509.375,-380.438c-2.532,-3.5 -5.094,-6.969 -7.687,-10.469l0,-877.968l210.749,-258.032l1557.41,0l-478.187,583.625l-92.406,112.782l-4.813,5.844l-92.437,112.781l-583.25,711.875Z" style="fill:#fff;fill-rule:nonzero;"/><path d="M3939.11,4777.66c-120.001,-160.218 -328.376,-312.531 -357.407,-331.374c-8.188,-5.344 -13.781,-7.282 -17.594,-7.282c-9.906,0 -7.594,13.188 -7.594,13.188c40.219,57.187 -17.875,106.031 -96.499,106.031c-16.938,0 -34.876,-2.281 -52.969,-7.219l532.063,-651.312l0,877.968Z" style="fill:#edf2fa;fill-rule:nonzero;"/><path d="M5743.86,3597l-1557.5,0l39.313,-48.156l1557.66,0l-39.469,48.156Zm76.031,-92.781l-1557.75,0l39.344,-48.156l1557.88,0l-39.469,48.156Zm76.063,-92.812l-1558,0l39.344,-48.157l1558.09,0l-39.437,48.157Zm76.031,-92.813l-1558.22,0l39.344,-48.156l1558.34,0l-39.469,48.156Zm76.031,-92.812l-1558.44,0l39.344,-48.126l1558.56,0l-39.469,48.126Zm76.063,-92.782l-1558.69,0l114.375,-140.031l66.844,-81.844l191.219,-234.062l1559.81,0l-373.563,455.937Z" style="fill:#fff;fill-rule:nonzero;"/><path d="M6087.48,3177.66l-1558.56,0l36.468,-44.656l1558.69,0l-36.594,44.656Z" style="fill:#f7f9fd;fill-rule:nonzero;"/><path d="M6011.45,3270.44l-1558.34,0l36.469,-44.656l1558.44,0l-36.562,44.656Z" style="fill:#f7f9fd;fill-rule:nonzero;"/><path d="M5935.39,3363.25l-1558.09,0l36.468,-44.656l1558.22,0l-36.594,44.656Z" style="fill:#f7f9fd;fill-rule:nonzero;"/><path d="M5859.36,3456.06l-1557.88,0l36.469,-44.656l1558,0l-36.594,44.656Z" style="fill:#f7f9fd;fill-rule:nonzero;"/><path d="M5783.33,3548.84l-1557.66,0l36.468,-44.625l1557.75,0l-36.562,44.625Z" style="fill:#f7f9fd;fill-rule:nonzero;"/><path d="M5707.27,3641.66l-1557.41,0l36.5,-44.656l1557.5,0l-36.594,44.656Z" style="fill:#f7f9fd;fill-rule:nonzero;"/><path d="M4284.27,5378.38l-644.126,0c1.032,-12.376 2.063,-24.504 3.063,-36.441l649.625,0c5.406,2.159 10.75,4.312 16.031,6.437l-21.468,26.159l-3.125,3.845Zm2213.38,-2701.32l-1559.81,0l87.406,-107l0,-0.031l910.751,0c57.968,0 104.968,-43.126 104.968,-96.344c0,-53.219 -47,-96.344 -104.968,-96.344l-753.313,0l104.781,-128.25l1421.88,0c41.5,0 79.469,13.906 108.75,36.938l-167.719,204.625l-152.718,186.406Z" style="fill:#788afc;fill-rule:nonzero;"/><path d="M5935.98,2570.03l-910.751,0l64.875,-79.375l92.532,-113.313l753.344,0c57.968,0 104.968,43.125 104.968,96.344c0,53.218 -47,96.344 -104.968,96.344Z" style="fill:#fff;fill-rule:nonzero;"/><path d="M2657.45,3725.75l0,-390.906l587.156,-657.781l396.687,0l-427.718,455.937l-243.531,0c-9.75,0 -17.657,7.906 -17.657,17.656l0,260.751l-294.937,314.343Z" style="fill:#fff;fill-rule:nonzero;"/><path d="M2952.39,3411.41l0,-260.751c0,-9.75 7.907,-17.656 17.657,-17.656l243.531,0l-261.188,278.407Z" style="fill:#edf2fa;fill-rule:nonzero;"/><path d="M2617.73,3768.09l0,-388.75l4.188,-4.656l35.531,-39.844l0,390.906l-35.531,37.875l-4.188,4.469Zm1023.56,-1091.03l-396.687,0l166.375,-186.406l215.625,-241.563l416.188,0l-226.625,241.563l-174.876,186.406Z" style="fill:#788afc;fill-rule:nonzero;"/><rect x="4098.52" y="3789.91" width="2324.56" height="1166.19" style="fill:#e2eaf7;fill-rule:nonzero;"/><path d="M5089.52,4078.72l0,547.125l490.126,-273.563l-490.126,-273.562Z" style="fill:#fff;fill-rule:nonzero;"/><path d="M3940.95,4133.38c-9.875,25.688 -69.25,-15.125 -98.906,36.25c-29.625,51.344 -73.125,139.063 -124.5,147.563c-51.344,8.531 -203.532,-50.75 -203.532,-50.75c-5.906,21.75 -39.5,94.906 -27.656,124.531c6.75,16.875 28.625,34.406 46.156,46.375c13.219,9 24,14.844 24,14.844c0,0 80.032,53.344 52.375,98.812c-27.656,45.438 -250.968,106.719 -308.249,55.313c-57.313,-51.375 -130.438,-235.156 -130.438,-235.156l27.656,-34.563c0,0 4.75,-2.844 12.094,-8.5c20.062,-15.469 59.468,-51.938 73.937,-108.844c6.875,-27.094 8.126,-58.812 -1.062,-95.094c-25.656,-101.25 5.281,-262.187 95.781,-334.249c34.907,-27.813 78.657,-42.407 131.469,-35.251c189.687,25.688 331.969,27.657 331.969,27.657c0,0 47.437,120.531 31.621,209.468c-15.808,88.907 77.16,115.938 67.285,141.594Z" style="fill:#f9c89a;fill-rule:nonzero;"/><path d="M3608.89,4551c-27.656,45.438 -250.968,106.719 -308.249,55.313c-57.313,-51.375 -130.438,-235.156 -130.438,-235.156l27.656,-34.563c0,0 4.75,-2.844 12.094,-8.5c127.656,194.062 273.469,216.969 312.968,194.25c39.5,-22.719 9.594,-85 9.594,-85c13.219,9 24,14.844 24,14.844c0,0 80.032,53.344 52.375,98.812Z" style="fill:#f3a566;fill-rule:nonzero;"/><path d="M6421.77,4509.5c-6.907,45.438 -307.251,55.344 -293.438,-37.562c1.75,-11.719 2.125,-23.907 1.407,-36.344c-4.907,-86 -61.188,-182.25 -64.626,-197.813c-3.969,-17.781 -122.531,15.813 -185.75,15.813c-63.25,0 -106.781,-144.375 -113.687,-173.031c-6.907,-28.657 -37.5,-27.532 -56.25,-51.25c-18.781,-23.719 81.031,-83 86.937,-168.938c5.938,-85.968 60.281,-193.656 60.281,-193.656c0,0 348.751,19.75 447.563,81.031c98.813,61.25 24.688,216.344 29.625,349.75c3.25,87.188 33.062,204.781 53.344,275.75c10.718,37.625 18.781,62.156 18.781,62.156c0,0 22.75,28.625 15.813,74.094Z" style="fill:#f9c89a;fill-rule:nonzero;"/><path d="M6421.77,4509.5c-6.907,45.438 -307.251,55.344 -293.438,-37.562c1.75,-11.719 2.125,-23.907 1.407,-36.344c1.874,0.75 97.155,40.812 170.499,-7.125c30.437,-19.875 61.25,-39.281 86.938,-55.219c10.718,37.625 18.781,62.156 18.781,62.156c0,0 22.75,28.625 15.813,74.094Z" style="fill:#f3a566;fill-rule:nonzero;"/><path d="M5830.95,3725.47c0,0 86.594,37.75 160.375,53.563c73.781,15.781 124.5,96.812 132.406,152.156c7.906,55.312 34.281,32.468 34.281,32.468c0,0 4.407,-107.249 26.157,-121.062c21.718,-13.844 96.812,-14.844 112.625,36.531c15.812,51.375 10.625,72.594 10.625,72.594c0,0 -36.313,165.531 -14.594,203.063c21.75,37.562 51.875,37.718 51.875,37.718l-7.406,-55c0,0 70.656,-354.187 -10.375,-402.625c-81,-48.406 -303.313,-93.843 -375.438,-84.969c-72.125,8.907 -112.875,56.625 -112.875,56.625l-7.656,18.938Z" style="fill:#f3a566;fill-rule:nonzero;"/><path d="M6145.14,3947.31c0,0 -3,-127.469 -80.063,-170.938c-77.063,-43.468 -568.594,-77.062 -411.5,-388.281c157.094,-311.219 393.25,-32.125 376.938,150.188c-16.313,182.281 322.593,-56.813 430.781,218.843c108.187,275.656 -121.5,403.969 -121.5,403.969c0,0 -35.594,19.875 -35.594,-30.5c0,-50.406 5.938,-106.719 5.938,-106.719c0,0 17.125,-179 -95.532,-153.969c0,0 -34.906,1.969 -46.094,63.25c-11.187,61.25 -23.374,14.157 -23.374,14.157Z" style="fill:#f47722;fill-rule:nonzero;"/><path d="M7276.42,6402.53c0,0 -15.157,4.437 -42.5,8.374c-35.782,5.157 -92.407,9.375 -163,1.532l-1057.19,0c0,0 -61.25,-818.094 -61.25,-909c0,0 -94.375,119.562 -285.562,118.062c-233.157,-1.781 -576.001,-80.531 -576.001,-80.531c0,0 -7.906,-156.094 13.844,-205.497c0,0 464.344,1.966 499.907,-41.5c35.593,-43.472 367.562,-580.94 436.719,-636.253c69.156,-55.375 35.968,-234.125 88.687,-209.969c0,0 96.687,86.938 265.813,-44.719c0,0 16.999,-29.874 42.687,4.375c25.687,34.25 742.968,613.876 837.844,1995.13Z" style="fill:#397cf2;fill-rule:nonzero;"/><path d="M5952.45,5503.44c0,0 265.781,-477.688 286.531,-467.344c20.75,10.406 -139.75,657.094 -270.687,742.781l-15.844,-275.437Z" style="fill:#2c5bf3;fill-rule:nonzero;"/><path d="M7233.92,6410.91c-35.782,5.157 -92.407,9.375 -163,1.532c1.968,-692.625 -233.188,-1331.84 -233.188,-1331.84c5.219,-269.063 321.219,1020.31 396.188,1330.31Z" style="fill:#2c5bf3;fill-rule:nonzero;"/><path d="M5109.67,5523.69c-85.937,-31.125 -348.281,60.781 -419.406,35.593c-11.687,-4.156 -22.468,-9.999 -32.281,-16.906c-50.031,-35.125 -75.906,-97.218 -75.906,-97.218l-13.344,-28.157c0,0 177.875,-128.937 238.625,-137.84c50.938,-7.472 220.844,53.309 274.313,73.121c10.312,3.813 16.281,6.094 16.281,6.094c0,0 97.687,196.438 11.718,165.313Z" style="fill:#f9c89a;fill-rule:nonzero;"/><path d="M4866.08,5307.88c0,0 52.906,56.594 45.688,80.313c-7.25,23.687 -62.594,21.219 -105.407,5.656c-42.813,-15.562 -211.125,76.875 -211.125,76.875l-13.156,-17.594l232.187,-114.343l51.813,-30.907Z" style="fill:#f3a566;fill-rule:nonzero;"/><path d="M4899.23,5387.85c-48.781,18.528 -96.594,-8.222 -97.781,-8.878l-0.031,-0.031c-38.532,-4.938 -212.188,80.968 -212.188,80.968c-3.906,-3.906 -8.187,-7.812 -12.781,-11.687c-14.594,-12.25 -32.188,-23.969 -50.156,-34.591c-48.876,-28.875 -100.313,-49.503 -100.313,-49.503c-92.875,-78.062 41.469,-162.031 41.469,-162.031c0,0 41.25,22.875 86.031,45.188c41.531,20.656 86.094,40.812 103.687,41.749c36.563,2.001 141.282,-22.718 169.938,-36.562c28.656,-13.813 34.563,74.125 63.219,99.812c28.656,25.688 8.906,35.566 8.906,35.566Z" style="fill:#f9c89a;fill-rule:nonzero;"/><path d="M4801.42,5378.94c-68.188,10.347 -212.188,80.968 -212.188,80.968c-3.906,-3.906 -8.187,-7.812 -12.781,-11.687c11.125,-8.156 27.937,-17.281 53.063,-27.125c96.812,-37.844 125.468,-109.312 135.343,-90.094c9.906,19.222 36.563,47.938 36.563,47.938Z" style="fill:#f3a566;fill-rule:nonzero;"/><path d="M5109.67,5523.69c-85.937,-31.125 -348.281,60.781 -419.406,35.593c-11.687,-4.156 -22.468,-9.999 -32.281,-16.906c19.437,2.656 62.031,4.406 81.657,-14.187c107.562,-101.813 202.874,-82.875 261.031,-75.063c54,7.25 81,-100.844 81,-100.844c10.312,3.813 16.281,6.094 16.281,6.094c0,0 97.687,196.438 11.718,165.313Z" style="fill:#f3a566;fill-rule:nonzero;"/><path d="M4757.17,5565.72c0,0 31.407,46.531 119.345,17.188c87.937,-29.375 103.75,-39.719 97.812,-93.25c-5.938,-53.532 -257.469,17.437 -217.157,76.062Z" style="fill:#f9c89a;fill-rule:nonzero;"/><path d="M4526.3,5413.63c-48.876,-28.875 -100.313,-49.503 -100.313,-49.503c-92.875,-78.062 41.469,-162.031 41.469,-162.031c0,0 41.25,22.875 86.031,45.188c-17.75,27.187 -42.718,82.784 -27.187,166.346Z" style="fill:#f3a566;fill-rule:nonzero;"/><path d="M4522.45,5231.47c0,0 -79.75,48.75 -49.094,153.941c0,0 5.969,15.278 -16.75,15.278c-22.719,0 -268.75,-97.813 -387.312,-157.094c-118.563,-59.281 -400.157,-199.687 -400.157,-199.687c0,0 -107.687,1182.78 -87.937,1348.75l-1159.94,0c0,0 -20.75,-838.5 29.657,-971.563c50.375,-133.031 -61.782,-312.844 -61.782,-312.844c0,0 272.219,-632.343 435.25,-703.5c163.031,-71.125 373.469,-68.156 373.469,-68.156c0,0 47.406,131.875 163.031,195.625c115.594,63.719 251.938,0 195.625,-80.031c0,0 -4.437,-25.188 25.188,-5.906c29.656,19.249 246.528,177.812 365.094,341.843c98.843,136.781 477.593,348.75 563.593,419.563c17.156,14.093 22.688,22.593 12.063,23.781Z" style="fill:#f8bc3f;fill-rule:nonzero;"/><path d="M2417.08,5992.53c0,0 185.437,32.094 256.437,94.344c70.969,62.25 242.969,93.375 348.094,59.282c105.125,-34.094 281.219,-80.032 341.281,-78.563c60.063,1.5 57.344,-340.844 57.344,-340.844l-1003.16,204.5l0,61.281Z" style="fill:#f6a438;fill-rule:nonzero;"/><path d="M3005.2,4810.84c0,0 -188.219,392.75 -204.532,419.406c-16.281,26.688 204.532,5.938 204.532,5.938c0,0 -83,-13.344 -50.406,-136.344c32.624,-123.031 118.562,-352.719 50.406,-289Z" style="fill:#f6a438;fill-rule:nonzero;"/><path d="M4522.45,5231.47c0,0 -79.75,48.75 -49.094,153.941c0,0 5.969,15.278 -16.75,15.278c-22.719,0 -268.75,-97.813 -387.312,-157.094c-118.563,-59.281 -400.157,-199.687 -400.157,-199.687c0,0 16.813,-162.907 55.344,-199.469c38.531,-36.563 -39.531,171.906 100.781,247c140.282,75.094 617.501,300.347 624.938,249.969c5.875,-40.001 14.937,-111.813 60.187,-133.719c17.156,14.093 22.688,22.593 12.063,23.781Z" style="fill:#f6a438;fill-rule:nonzero;"/><path d="M3424.61,5590.38c2.688,68.032 -6.312,161.125 -17.187,243.844c-13.782,104.719 -30.563,192.875 -30.563,192.875l-213.875,-19.75l14.406,-41.437l174.625,-501.469l38.688,-111.188l18.312,3.063l49.469,8.312c0,0 -39.969,71.625 -33.875,225.75Z" style="fill:#c7defe;fill-rule:nonzero;"/><path d="M3420.23,5309.78c0,0 -4.469,17.034 -11.219,46.531c-14.125,61.878 -38.156,178.656 -51.812,308.843l0,0.032c-10.781,102.594 -15.094,213.531 -3,312.5c0,0 -71.438,-4.188 -176.813,-11.781c-264.375,-19.094 -742.437,-59.844 -841.875,-110.719c-114.937,-58.813 -95.718,-539.938 -85.562,-705.25c2.125,-34.75 3.875,-55.532 3.875,-55.532c0,0 973.469,57.282 1166.41,215.376Z" style="fill:#fff;fill-rule:nonzero;"/><path d="M3310.73,5973.5c-264.406,-19.094 -875.781,-67.437 -975.219,-118.312c-76.219,-39 -93.437,-263.657 -93.437,-458.841c0,-99.156 4.469,-190.69 7.875,-246.409c0,0 1078.16,146.031 1097.28,191.469c8.094,19.218 7,68.031 4.75,123.031c-3,75.094 -41.25,509.062 -41.25,509.062Z" style="fill:#d3dae1;fill-rule:nonzero;"/><path d="M3317.58,5395.25l-49.313,577l-2.437,28.407c-2.063,24.375 -21.188,42.187 -42.656,39.687l-1062.34,-124.031c-21.594,-2.5 -37.219,-24.688 -34.625,-49.219l68.969,-652.688c2.593,-24.625 22.531,-41.999 44.156,-38.437l538.5,88.219l506.594,83.034c20.562,3.403 35.156,24.528 33.156,48.028Z" style="fill:#e32b2c;fill-rule:nonzero;"/><path d="M3268.26,5972.25l-2.437,28.407c-2.063,24.375 -21.188,42.187 -42.656,39.687l-409.626,-47.813l-246.624,-28.812l-406.094,-47.406c-21.594,-2.5 -37.219,-24.688 -34.625,-49.219l68.969,-652.688c2.593,-24.625 22.531,-41.999 44.156,-38.437l140.156,22.969l58.125,9.5l340.219,55.75c0,0 114.219,489.125 490.437,708.062Z" style="fill:#ca1017;fill-rule:nonzero;"/><path d="M2813.55,5992.53l-246.624,-28.812c0,0 -182.719,-428.656 -207.063,-563.031c-24.344,-134.375 19.625,-201.75 19.625,-201.75l58.125,9.5c0,0 350.031,622.469 375.937,784.093Z" style="fill:#ad000d;fill-rule:nonzero;"/><path d="M3115.45,6033.56c-2.312,21.156 -48,28.093 -48,28.093c0,0 2.656,1.251 6.156,3.376l0.032,0c5.093,3.125 11.906,8.281 14.562,14.437c4.437,10.344 -48.906,31.125 -48.906,31.125c0,0 -44.469,17.781 -57.813,19.25c-13.344,1.5 -88.906,-4.437 -111.156,-17.781c-22.219,-13.344 -123,-68.188 -158.094,-114.125c-21.625,-28.282 -103.906,-158.219 -163.968,-254l-0.032,0l-0.125,-0.188c-37.469,-59.75 -66.281,-106.156 -66.281,-106.156c-10.563,-95.031 155.844,-198.375 215.094,-147.969c19.719,16.75 32.562,48.907 41.718,86.407c18.407,75.249 22,171.906 36.844,208.499c22.219,54.844 246,91.907 265.281,143.75c19.281,51.876 57.782,65.219 72.5,94.719c1.907,3.844 2.563,7.375 2.188,10.563Z" style="fill:#f9c89a;fill-rule:nonzero;"/><path d="M3067.45,6061.66c0,0 -61.282,-58.281 -83.656,-95.156c-20.563,-33.875 56.5,58.656 131.656,67.063c-2.312,21.156 -48,28.093 -48,28.093Z" style="fill:#f3a566;fill-rule:nonzero;"/><path d="M2738.64,5576.03c0,0 -164.875,-1.157 -184.968,71.656c-18.969,68.781 -6.938,93.5 -5.563,96.062c-37.469,-59.75 -66.281,-106.156 -66.281,-106.156c-10.563,-95.031 155.844,-198.375 215.094,-147.969c19.719,16.75 32.562,48.907 41.718,86.407Z" style="fill:#f3a566;fill-rule:nonzero;"/><path d="M2389.14,5108.25c0,0 -88.406,165.969 -60.75,245c27.688,79.063 140.313,298.407 140.313,298.407c0,0 127.469,-151.657 263.812,-86.469c0,0 29.625,19.281 30.626,6.437c0.968,-12.843 -69.157,-204.531 -62.251,-225.278c6.907,-20.753 139.282,-194.253 139.282,-194.253c0,0 -309.282,-101.125 -451.032,-43.844Z" style="fill:#f8bc3f;fill-rule:nonzero;"/><path d="M3039.3,6110.59c0,0 -44.469,17.781 -57.813,19.25c-13.344,1.5 -88.906,-4.437 -111.156,-17.781c70.656,4.937 197.125,-50.407 197.125,-50.407c0,0 2.656,1.251 6.156,3.376l0.032,0c5.093,3.125 11.906,8.281 14.562,14.437c4.437,10.344 -48.906,31.125 -48.906,31.125Z" style="fill:#f3a566;fill-rule:nonzero;"/><path d="M3478.89,4105.72c-33.781,-6.312 -59.062,-35.906 -93.625,-0.313c-34.594,35.563 -43.031,96.313 -101.375,113.844c6.875,-27.094 8.126,-58.812 -1.062,-95.094c-25.656,-101.25 5.281,-262.187 95.781,-334.249c46.063,56.531 78.657,136.343 78.657,136.343c0,0 -48.626,20.063 -16.345,105.032c32.282,84.968 77.719,56 77.719,56c0,0 -4.625,25.031 -39.75,18.437Z" style="fill:#f3a566;fill-rule:nonzero;"/><path d="M3514.01,4266.44c0,0 -35.125,-6.407 -65.187,-28.657c-31.219,-23.062 35.219,142.407 35.219,142.407c0,0 -2.625,-32.719 29.968,-113.75Z" style="fill:#f3a566;fill-rule:nonzero;"/><path d="M3875.26,3789.91l-0.034,0c-4.466,9.656 -10.188,18.968 -17.153,27.75c-1.875,2.375 -3,3.625 -3,3.625c-58.594,-35.157 -208.656,73.656 -250.156,126.999c-41.5,53.376 -26.407,135.282 -69.156,35.594c-47.438,-110.656 -167.469,4.438 -182.282,84.469c-14.844,80.031 -140.812,197.094 -117.094,131.906c23.719,-65.219 -87.437,-128.937 -128.937,-299.375c-13.531,-55.656 -6.75,-106.25 14.219,-150.875c43.281,-92.031 146.906,-158.562 257,-191.5c202.968,-60.687 359.874,3.531 441.09,52.313c62.785,37.75 84.973,115.844 55.503,179.094Z" style="fill:#553130;fill-rule:nonzero;"/><path d="M3875.23,3789.91c-4.466,9.656 -10.188,18.968 -17.153,27.75c-1.875,2.375 -3,3.625 -3,3.625c-58.594,-35.157 -208.656,73.656 -250.156,126.999c-41.5,53.376 -26.407,135.282 -69.156,35.594c-47.438,-110.656 -167.469,4.438 -182.282,84.469c-14.844,80.031 -140.812,197.094 -117.094,131.906c23.719,-65.219 -87.437,-128.937 -128.937,-299.375c-13.531,-55.656 -6.75,-106.25 14.219,-150.875c80.312,105.594 360.187,190.938 479.312,126.531c136.344,-73.749 274.247,-86.624 274.247,-86.624Z" style="fill:#3a1616;fill-rule:nonzero;"/><path d="M8215.98,6416.75l-7120.72,0c-15.468,0 -28.125,-12.656 -28.125,-28.125l0,-66.625c0,-15.5 12.657,-28.125 28.125,-28.125l7120.72,0c15.469,0 28.125,12.625 28.125,28.125l0,66.625c0,15.469 -12.656,28.125 -28.125,28.125Z" style="fill:#2e48fb;fill-rule:nonzero;"/><path d="M2325.39,4318.5c0,50.563 -14.75,97.813 -40.406,138c-48.406,75.875 -135.562,126.531 -235.063,126.531c-152.156,0 -275.499,-118.437 -275.499,-264.531c0,-74.875 32.375,-142.5 84.5,-190.593c49.5,-45.782 116.843,-73.907 190.999,-73.907c152.157,0 275.469,118.438 275.469,264.5Z" style="fill:#8fc0fa;fill-rule:nonzero;"/><path d="M2325.39,4329.5c0,52.657 -14.75,101.875 -40.406,143.719c-234.25,-46.5 -359.343,-194.187 -426.062,-342.25c49.5,-47.687 116.843,-76.969 190.999,-76.969c152.157,0 275.469,123.344 275.469,275.5Z" style="fill:#c7defe;fill-rule:nonzero;"/><path d="M2023.58,4370.66c1.5,1.251 3,2.469 4.562,3.657c-1.562,-1.188 -3.062,-2.406 -4.562,-3.657Z" style="fill:#f95f35;fill-rule:nonzero;"/><path d="M2035.02,4379.12l-4.438,5.407l-6.531,7.968l-35.625,43.438l-6.094,7.406l-26.094,31.844l-3.594,4.375l-3.312,4.062c-2.031,2.469 -4.907,4 -8.062,4.313c-0.813,0.094 -1.625,0.094 -2.407,0c-2.312,-0.219 -4.5,-1.125 -6.344,-2.656c-2.156,-1.751 -3.625,-4.219 -4.156,-6.938c-0.344,-1.719 -0.281,-3.469 0.125,-5.125c0.188,-0.75 0.438,-1.5 0.781,-2.219l0.032,-0.094c0.406,-0.843 0.937,-1.687 1.531,-2.406l35.875,-43.75l7.531,-9.156l35.782,-43.656l6.437,-7.844c2.25,2.281 4.656,4.469 7.125,6.562c1.5,1.251 3,2.469 4.562,3.657c2.219,1.687 4.501,3.281 6.876,4.812Z" style="fill:#db3737;fill-rule:nonzero;"/><path d="M2052.39,4376.75c0,0.219 -2.218,4.219 -5.062,9.282c-4.313,-2.063 -8.406,-4.375 -12.312,-6.907l-4.438,5.407l-6.531,7.968c-4.844,-6.781 -10.282,-14.562 -14.031,-20.562l6.437,-7.844c-1.219,-1.187 -2.406,-2.438 -3.531,-3.719c16.125,-0.75 39.468,15.844 39.468,16.375Z" style="fill:#ba1717;fill-rule:nonzero;"/><path d="M2177.08,4319.91c-5.219,11.782 -12.812,22.094 -22.187,30.375c-7.751,6.844 -16.75,12.344 -26.688,16.157c-17.531,6.75 -36.344,7.75 -54.156,3.031c-4.5,-1.188 -8.969,-2.75 -13.313,-4.688c-21.531,-9.531 -38.062,-26.906 -46.531,-48.875c-8.375,-21.718 -7.906,-45.343 1.343,-66.687l0.313,-0.781c9.563,-21.532 26.907,-38.063 48.906,-46.532c11.125,-4.281 22.782,-6.25 34.344,-5.906c11.282,0.344 22.469,2.875 33.125,7.563c27.313,12.125 45.469,36.531 50.782,63.875c3.343,17.094 1.655,35.375 -5.938,52.468Zm-34.75,-139.125c-12.75,-5.656 -26.125,-8.843 -39.625,-9.593c-15.781,-0.875 -31.719,1.594 -46.906,7.469c-26.813,10.312 -48.25,30 -60.844,55.656c-0.656,1.312 -1.282,2.656 -1.875,4c-9.719,21.969 -11.907,45.375 -7.625,67.344c3.969,20.25 13.406,39.281 27.469,54.718c1.125,1.281 2.312,2.532 3.531,3.719c2.25,2.281 4.656,4.469 7.125,6.562c1.5,1.251 3,2.469 4.562,3.657c2.219,1.687 4.501,3.281 6.876,4.812c3.906,2.532 7.999,4.844 12.312,6.907c1.062,0.531 2.187,1.031 3.313,1.531c6.468,2.875 13.093,5.125 19.843,6.719c22.031,5.249 45.094,3.749 66.688,-4.563c14.531,-5.625 27.469,-13.969 38.312,-24.5c10.156,-9.938 18.438,-21.812 24.375,-35.219c25.281,-57 -0.531,-123.937 -57.531,-149.219Z" style="fill:#db3737;fill-rule:nonzero;"/><path d="M2436.3,2829.53c0,409.532 -321.938,743.875 -726.594,763.688c-12.594,0.625 -25.25,0.938 -38,0.938c-422.313,0 -764.656,-342.344 -764.656,-764.626c0,-329.187 208.062,-609.781 499.812,-717.499c82.5,-30.5 171.719,-47.125 264.844,-47.125c422.281,0 764.594,342.343 764.594,764.624Z" style="fill:#c7defe;fill-rule:nonzero;"/><clipPath id="_clip2"><path d="M1709.7,3593.22c-452.156,-484.875 -423.094,-1058.94 -302.844,-1481.19c82.5,-30.5 171.719,-47.125 264.844,-47.125c422.281,0 764.594,342.343 764.594,764.624c0,354.375 -241.032,652.438 -568.125,739.157c-7.031,1.843 -14.125,3.625 -21.219,5.281c-44.375,10.406 -90.281,16.969 -137.25,19.25Z"/></clipPath><g clip-path="url(#_clip2)"><rect x="1257.55" y="2064.91" width="1178.75" height="1528.31" style="fill:#b7d6fd;fill-rule:nonzero;"/></g><rect x="1923.7" y="2648.56" width="113.375" height="473.875" style="fill:#397cf2;fill-rule:nonzero;"/><rect x="1538.48" y="2870.06" width="113.375" height="252.375" style="fill:#397cf2;fill-rule:nonzero;"/><rect x="1345.86" y="2955.69" width="113.406" height="166.75" style="fill:#397cf2;fill-rule:nonzero;"/><rect x="1731.08" y="2770.34" width="113.406" height="352.094" style="fill:#397cf2;fill-rule:nonzero;"/><path d="M1355.02,2847.69l-18.312,-33.188l577.844,-319.031l18.312,33.188l-577.844,319.031Z" style="fill:#1f2a83;fill-rule:nonzero;"/><path d="M2005.58,2462.62l-117.156,6.282l64,98.312l53.156,-104.594Z" style="fill:#1f2a83;fill-rule:nonzero;"/><path d="M2037.08,3214.94l-770.875,0l0,-702.875l15.156,0l0,687.719l755.719,0l0,15.156Z" style="fill:#2946fb;fill-rule:nonzero;"/><path d="M6179.52,1543.24c5.999,43.819 4.28,89.116 -6.031,133.844l0,0.006c-4.564,19.803 -10.782,39.484 -18.782,58.887c-2.312,5.619 -4.75,11.157 -7.313,16.606c-84.156,179.525 -295.468,263.007 -480.75,186.695c-8.5,-3.504 -16.812,-7.279 -24.906,-11.328c-173.781,-86.713 -253.531,-294.329 -178.406,-476.738c21.906,-53.166 54.656,-98.587 94.656,-134.744c97.156,-87.928 237.063,-121.15 367.75,-78.056c8.594,2.837 17.157,6 25.657,9.506c127.687,52.581 210.656,167.719 228.125,295.322Z" style="fill:#f47722;fill-rule:nonzero;"/><path d="M6104.14,1715.15c-4.719,11.4 -9.906,22.44 -15.562,33.118c-84.875,160.094 -273.937,236.703 -446.844,179.685c-8.594,-2.832 -17.156,-6.001 -25.656,-9.504c-190.938,-78.634 -281.938,-297.153 -203.313,-488.062c18.157,-44.078 43.75,-82.828 74.782,-115.4l0.093,-0.1c19.438,-20.397 40.969,-38.366 64.125,-53.694c0.563,-0.371 0.844,-0.562 0.844,-0.562c99.844,-65.704 229.375,-82.494 348.219,-33.547c8.5,3.503 16.812,7.284 24.906,11.328c173.781,86.719 253.531,294.322 178.406,476.738Z" style="fill:#f8bc3e;fill-rule:nonzero;"/><path d="M6035.7,1686.97c-63.062,153.121 -238.344,226.125 -391.469,163.056c-153.125,-63.069 -226.125,-238.325 -163.031,-391.447c63.062,-153.125 238.313,-226.128 391.438,-163.059c153.125,63.069 226.124,238.328 163.062,391.45Z" style="fill:#f5b400;fill-rule:nonzero;"/><path d="M5495.45,1482.57c63.063,-153.122 238.343,-226.125 391.468,-163.057c57.313,23.613 103.407,62.964 135.344,110.982c-31.656,-58.838 -83.031,-107.544 -149.624,-134.978c-153.125,-63.069 -328.376,9.934 -391.438,163.059c-35.719,86.713 -27.782,180.507 13.625,257.025c-16.062,-39.537 -23.781,-82.49 -21.875,-125.978c0.844,-35.772 8.062,-71.99 22.5,-107.053Z" style="fill:#f47722;fill-rule:nonzero;"/><path d="M5839.83,1418.71l13.031,-31.619l-32.187,-13.26l-13.031,31.619c-53.157,-18.894 -77.063,-7.24 -99.563,47.407c-19.563,47.5 -22.625,66.543 -9.812,86.174c14.031,22.503 51.499,50.472 61.812,73.253c4.594,9.201 3.562,14.257 -0.875,25.291c-0.625,1.582 -1.313,3.284 -2.094,5.141c-12.406,30.14 -18.344,37.256 -40.812,28.003c-22.969,-9.468 -19.032,-23.381 -9.344,-46.875c2.718,-6.638 5.344,-11.538 7.531,-15.413l-56.687,-23.349c-5.313,8.565 -11.188,19.88 -16.876,33.677c-22.28,54.138 -6.124,78.713 37.97,99.279l-16.375,39.787l32.187,13.25l16.594,-40.306c53.281,17.553 78.125,2.093 105.531,-58.332c2.375,-5.175 4.719,-10.681 7.125,-16.524c21.687,-52.603 8.437,-64.022 -9.906,-84.725c-13.188,-14.394 -29.25,-27.578 -44.563,-44.044c-14.218,-14.819 -14.719,-18.006 -3.75,-44.562c10.5,-25.541 18.125,-29.563 36.532,-21.988c21.437,8.834 20.093,20.822 11.249,42.269c-3.156,7.659 -5.25,12.768 -7.656,17.153l56.188,23.141c4.187,-7.238 9.187,-16.523 14.875,-30.307c20,-48.525 10.062,-72.322 -37.094,-94.14Z" style="fill:#f3f6fc;fill-rule:nonzero;"/><path d="M7906.14,5814.81c98.187,-41.938 151.687,-148.969 126.968,-252.344c-1.656,-6.875 -3.656,-13.75 -6,-20.594c-31.281,-90.875 -116.343,-147.968 -207.344,-147.968c-18.562,0 -37.375,2.375 -56.031,7.312c4.875,-2.063 9.875,-3.997 14.969,-5.75c23.625,-8.156 47.719,-12 71.406,-12c53,0 104,19.375 143.5,53.5c19.657,16.969 36.438,37.562 49.25,61.25c5.687,10.5 10.562,21.563 14.563,33.219c1.156,3.375 2.249,6.75 3.218,10.156c32.594,111.625 -28.031,230.313 -139.187,268.563c-5.094,1.75 -10.188,3.312 -15.312,4.656Z" style="fill:#f1b792;fill-rule:nonzero;"/><path d="M7819.73,5832.59c-91,0 -176.062,-57.094 -207.343,-147.969c-9.095,-26.437 -12.844,-53.437 -11.813,-79.781l0,-0.094c0.625,-16.5 3.156,-32.75 7.406,-48.5c0.094,-0.375 0.156,-0.562 0.156,-0.562c18.438,-67.625 68.938,-125.25 140.219,-149.781c5.125,-1.747 10.25,-3.31 15.375,-4.688c18.656,-4.937 37.469,-7.312 56.031,-7.312c91.001,0 176.063,57.093 207.344,147.968c2.344,6.844 4.344,13.719 6,20.594c24.719,103.375 -28.781,210.406 -126.968,252.344c-0.032,0 -0.032,0.031 -0.032,0.031c-4.875,2.062 -9.875,4 -15,5.75c-23.625,8.156 -47.687,12 -71.375,12Zm-164.999,-158.469c26.093,70.781 93.218,115.063 164.999,115.063c19,0 38.312,-3.094 57.25,-9.625c91.844,-31.625 140.688,-131.719 109.062,-223.563c-25.093,-72.875 -93.28,-118.687 -166.281,-118.687c-16.906,0 -34.093,2.468 -51.031,7.625c-0.125,0.031 -0.25,0.062 -0.344,0.093c-0.031,0.032 -0.062,0.032 -0.093,0.032c-1.938,0.593 -3.875,1.219 -5.781,1.875c-72.844,25.093 -118.626,93.218 -118.688,166.125c-0.031,19.062 3.063,38.406 9.625,57.437c0.062,0.188 0.125,0.375 0.187,0.563c0,0.031 0.032,0.062 0.032,0.125c0.062,0.156 0.125,0.344 0.187,0.531c0.063,0.188 0.156,0.375 0.219,0.594l0,0.031c0.093,0.188 0.156,0.375 0.219,0.563l0,0.031c0.156,0.406 0.281,0.812 0.438,1.187Z" style="fill:#f3d8a0;fill-rule:nonzero;"/><path d="M7819.73,5789.19c-71.781,0 -138.906,-44.282 -164.999,-115.063c18.499,50.157 57.593,87 104.374,104.219c-22.406,-11.188 -42.438,-27.094 -58.468,-46.969c-13.501,-16.062 -24.376,-34.812 -31.595,-55.844c-31.624,-91.843 17.188,-191.937 109.032,-223.562c18.968,-6.531 38.281,-9.625 57.25,-9.625c15.469,0 30.719,2.063 45.375,6c-19.344,-7.188 -40.031,-11 -61.063,-11c-16.875,0 -34,2.437 -50.906,7.594c16.938,-5.157 34.125,-7.625 51.031,-7.625c73.001,0 141.188,45.812 166.281,118.687c31.626,91.844 -17.218,191.938 -109.062,223.563c-18.938,6.531 -38.25,9.625 -57.25,9.625Zm21.344,-81.156l8.218,23.875l19.282,-6.657l-8.313,-24.187c30.251,-12.938 35.188,-29.375 23.844,-66.594c-1,-3.187 -2.093,-6.531 -3.281,-10.031c-10.875,-31.563 -21.125,-31.438 -37.219,-33.438c-11.375,-1.219 -23.562,-0.812 -36.687,-2.125c-12,-1 -13.469,-2.219 -18.938,-18.156c-5.281,-15.313 -3.469,-20.031 7.562,-23.844c2.876,-0.968 5.313,-1.468 7.407,-1.468c7.281,0 10.5,5.749 13.937,15.718c1.563,4.594 2.626,7.657 3.282,10.531l33.687,-11.593c-0.969,-4.813 -2.375,-10.844 -5.188,-19.125c-7.343,-21.344 -16.624,-30.594 -32.562,-30.594c-5.813,0 -12.469,1.219 -20.281,3.531l-6.532,-18.937l-19.312,6.625l6.532,18.969c-30.719,12.281 -36.719,26.687 -25.438,59.468c9.813,28.5 15.844,38.063 29.094,41.75c14.906,4.438 42.25,2.219 55.625,8.25c5.562,2.282 7.094,4.906 9.406,11.469c0.343,0.938 0.688,1.969 1.093,3.094c6.219,18.062 6.376,23.5 -7.125,28.125c-2.749,0.969 -5.124,1.406 -7.155,1.406c-8.126,0 -11.251,-7.125 -15.126,-18.406c-1.374,-3.969 -2.124,-7.156 -2.656,-9.688l-34,11.688c0.969,5.844 2.781,13.094 5.625,21.375c8.125,23.562 19.125,32.437 35,32.437c6,0 12.719,-1.25 20.219,-3.468Zm-186.343,-33.907c-0.157,-0.375 -0.282,-0.781 -0.438,-1.187c0.156,0.406 0.281,0.781 0.438,1.187Zm-0.438,-1.218c-0.063,-0.188 -0.126,-0.375 -0.219,-0.563c0.093,0.188 0.156,0.375 0.219,0.563Zm-0.219,-0.594c-0.063,-0.219 -0.156,-0.406 -0.219,-0.594c0.063,0.188 0.156,0.375 0.219,0.594Zm-0.219,-0.594c-0.062,-0.187 -0.125,-0.375 -0.187,-0.531c0.062,0.156 0.125,0.344 0.187,0.531Zm-0.219,-0.656c-0.062,-0.188 -0.125,-0.375 -0.187,-0.563c0.062,0.188 0.125,0.375 0.187,0.563Zm114.657,-226c0.031,0 0.062,0 0.093,-0.032c-0.031,0 -0.062,0.032 -0.093,0.032Z" style="fill:#f1d482;fill-rule:nonzero;"/><path d="M7759.11,5778.34c-46.781,-17.219 -85.875,-54.062 -104.374,-104.219c-0.157,-0.406 -0.282,-0.781 -0.438,-1.187l0,-0.031c-0.063,-0.188 -0.126,-0.375 -0.219,-0.563l0,-0.031c-0.063,-0.219 -0.156,-0.406 -0.219,-0.594c-0.062,-0.187 -0.125,-0.375 -0.187,-0.531c0,-0.063 -0.032,-0.094 -0.032,-0.125c-0.062,-0.188 -0.125,-0.375 -0.187,-0.563c-6.562,-19.031 -9.656,-38.375 -9.625,-57.437c0.062,-72.907 45.844,-141.032 118.688,-166.125c1.906,-0.656 3.843,-1.282 5.781,-1.875c0.031,0 0.062,-0.032 0.093,-0.032c0.094,-0.031 0.219,-0.062 0.344,-0.093c16.906,-5.157 34.031,-7.594 50.906,-7.594c21.032,0 41.719,3.812 61.063,11c-14.656,-3.937 -29.906,-6 -45.375,-6c-18.969,0 -38.282,3.094 -57.25,9.625c-91.844,31.625 -140.656,131.719 -109.032,223.562c7.219,21.032 18.094,39.782 31.595,55.844c16.03,19.875 36.062,35.781 58.468,46.969Z" style="fill:#f1b792;fill-rule:nonzero;"/><path d="M7849.3,5731.91l-8.218,-23.875c-7.5,2.218 -14.219,3.468 -20.219,3.468c-15.875,0 -26.875,-8.875 -35,-32.437c-2.844,-8.281 -4.656,-15.531 -5.625,-21.375l34,-11.688c0.532,2.532 1.282,5.719 2.656,9.688c3.875,11.281 7,18.406 15.126,18.406c2.031,0 4.406,-0.437 7.155,-1.406c13.501,-4.625 13.344,-10.063 7.125,-28.125c-0.405,-1.125 -0.75,-2.156 -1.093,-3.094c-2.312,-6.563 -3.844,-9.187 -9.406,-11.469c-13.375,-6.031 -40.719,-3.812 -55.625,-8.25c-13.25,-3.687 -19.281,-13.25 -29.094,-41.75c-11.281,-32.781 -5.281,-47.187 25.438,-59.468l-6.532,-18.969l19.312,-6.625l6.532,18.937c7.812,-2.312 14.468,-3.531 20.281,-3.531c15.938,0 25.219,9.25 32.562,30.594c2.813,8.281 4.219,14.312 5.188,19.125l-33.687,11.593c-0.656,-2.874 -1.719,-5.937 -3.282,-10.531c-3.437,-9.969 -6.656,-15.718 -13.937,-15.718c-2.094,0 -4.531,0.5 -7.407,1.468c-11.031,3.813 -12.843,8.531 -7.562,23.844c5.469,15.937 6.938,17.156 18.938,18.156c13.125,1.313 25.312,0.906 36.687,2.125c16.094,2 26.344,1.875 37.219,33.438c1.188,3.5 2.281,6.844 3.281,10.031c11.344,37.219 6.407,53.656 -23.844,66.594l8.313,24.187l-19.282,6.657Z" style="fill:#f0f4fa;fill-rule:nonzero;"/><path d="M833.859,4430.75c98.188,-41.968 151.688,-149 126.969,-252.344c-1.656,-6.874 -3.656,-13.781 -6,-20.593c-31.281,-90.906 -116.312,-147.969 -207.344,-147.969c-18.531,0 -37.375,2.375 -56.031,7.312c4.906,-2.093 9.875,-4 15,-5.749c23.625,-8.157 47.718,-12.032 71.375,-12.032c53.031,0 104,19.407 143.531,53.532c19.625,16.968 36.438,37.562 49.25,61.25c5.656,10.5 10.562,21.562 14.563,33.218c1.156,3.375 2.218,6.75 3.218,10.125c32.563,111.657 -28.062,230.313 -139.187,268.594c-5.094,1.75 -10.219,3.313 -15.344,4.656Z" style="fill:#f0cebb;fill-rule:nonzero;"/><path d="M747.453,4448.53c-91,0 -176.031,-57.094 -207.313,-147.969c-9.125,-26.438 -12.875,-53.438 -11.843,-79.781l0,-0.094c0.656,-16.5 3.156,-32.781 7.406,-48.5c0.094,-0.375 0.156,-0.594 0.156,-0.594c18.469,-67.594 68.969,-125.219 140.247,-149.781c5.097,-1.75 10.222,-3.281 15.347,-4.657c18.656,-4.937 37.5,-7.312 56.031,-7.312c91.032,0 176.063,57.063 207.344,147.969c2.344,6.812 4.344,13.719 6,20.593c24.719,103.344 -28.781,210.376 -126.969,252.344l-0.031,0c-4.875,2.094 -9.875,4.032 -14.969,5.781c-23.625,8.126 -47.719,12.001 -71.406,12.001Zm-165.438,-159.688c25.782,71.5 93.278,116.25 165.469,116.25c18.969,0 38.282,-3.094 57.25,-9.625c91.844,-31.594 140.656,-131.687 109.063,-223.531c-25.094,-72.875 -93.313,-118.688 -166.313,-118.688c-17.062,0 -34.375,2.5 -51.469,7.75c-1.937,0.594 -3.843,1.219 -5.781,1.875c-72.843,25.063 -118.625,93.188 -118.687,166.125c-0.032,19.031 3.093,38.406 9.625,57.438c0.062,0.187 0.125,0.375 0.187,0.562c0.031,0.031 0.031,0.063 0.031,0.094c0.063,0.188 0.125,0.375 0.219,0.531l0,0.032c0.063,0.187 0.125,0.375 0.188,0.593c0,0 0.031,0 0.031,0.032c0.062,0.187 0.125,0.374 0.187,0.562Z" style="fill:#f1e2c3;fill-rule:nonzero;"/><path d="M747.484,4405.09c-72.191,0 -139.687,-44.75 -165.469,-116.25c18.313,50.781 57.688,88.062 104.813,105.406c-22.406,-11.156 -42.437,-27.094 -58.469,-46.968c-13.5,-16.063 -24.344,-34.813 -31.594,-55.844c-31.625,-91.844 17.216,-191.907 109.063,-223.532c18.937,-6.531 38.25,-9.624 57.25,-9.624c15.437,0 30.687,2.062 45.344,5.968c-19.344,-7.156 -40,-10.968 -61.063,-10.968c-17.031,0 -34.281,2.499 -51.344,7.718c17.094,-5.25 34.407,-7.75 51.469,-7.75c73,0 141.219,45.813 166.313,118.688c31.593,91.844 -17.219,191.937 -109.063,223.531c-18.968,6.531 -38.281,9.625 -57.25,9.625Zm21.313,-81.125l8.218,23.844l19.282,-6.625l-8.313,-24.188c30.281,-12.937 35.219,-29.375 23.844,-66.593c-0.969,-3.188 -2.063,-6.532 -3.281,-10.032c-10.844,-31.562 -21.094,-31.469 -37.219,-33.469c-11.375,-1.218 -23.563,-0.781 -36.688,-2.093c-12,-1 -13.437,-2.219 -18.937,-18.157c-5.282,-15.312 -3.469,-20.031 7.563,-23.843c2.874,-1 5.312,-1.469 7.437,-1.469c7.25,0 10.469,5.719 13.906,15.719c1.594,4.594 2.656,7.656 3.282,10.5l33.687,-11.594c-0.938,-4.812 -2.344,-10.844 -5.187,-19.094c-7.345,-21.344 -16.626,-30.593 -32.532,-30.593c-5.812,0 -12.5,1.218 -20.312,3.531l-6.531,-18.969l-19.282,6.656l6.531,18.969c-30.718,12.281 -36.753,26.687 -25.472,59.469c9.816,28.5 15.847,38.062 29.129,41.719c14.875,4.468 42.218,2.25 55.594,8.281c5.593,2.281 7.093,4.906 9.437,11.468c0.344,0.938 0.688,1.969 1.063,3.063c6.218,18.094 6.374,23.531 -7.094,28.156c-2.782,0.969 -5.157,1.407 -7.188,1.407c-8.125,0 -11.25,-7.157 -15.125,-18.407c-1.375,-3.968 -2.125,-7.156 -2.656,-9.718l-34,11.718c1,5.813 2.781,13.094 5.625,21.375c8.125,23.563 19.125,32.407 35.031,32.407c6,0 12.688,-1.251 20.188,-3.438Zm-186.782,-35.125c-0.062,-0.188 -0.125,-0.375 -0.187,-0.562c0.062,0.187 0.125,0.374 0.187,0.562Zm-0.218,-0.594c-0.063,-0.218 -0.125,-0.406 -0.188,-0.593c0.063,0.187 0.125,0.375 0.188,0.593Zm-0.188,-0.625c-0.094,-0.156 -0.156,-0.343 -0.219,-0.531c0.063,0.188 0.125,0.344 0.219,0.531Zm-0.25,-0.625c-0.062,-0.187 -0.125,-0.375 -0.187,-0.562c0.062,0.187 0.125,0.375 0.187,0.562Z" style="fill:#f0e0b1;fill-rule:nonzero;"/><path d="M686.828,4394.25c-47.125,-17.344 -86.5,-54.625 -104.813,-105.406c-0.062,-0.188 -0.125,-0.375 -0.187,-0.562c0,-0.032 -0.031,-0.032 -0.031,-0.032c-0.063,-0.218 -0.125,-0.406 -0.188,-0.593l0,-0.032c-0.094,-0.187 -0.156,-0.343 -0.219,-0.531c0,-0.031 0,-0.063 -0.031,-0.094c-0.062,-0.187 -0.125,-0.375 -0.187,-0.562c-6.532,-19.032 -9.657,-38.407 -9.625,-57.438c0.062,-72.937 45.844,-141.062 118.687,-166.125c1.938,-0.656 3.844,-1.281 5.781,-1.875c17.063,-5.219 34.313,-7.718 51.344,-7.718c21.063,0 41.719,3.812 61.063,10.968c-14.657,-3.906 -29.907,-5.968 -45.344,-5.968c-19,0 -38.313,3.093 -57.25,9.624c-91.847,31.625 -140.688,131.688 -109.063,223.532c7.25,21.031 18.094,39.781 31.594,55.844c16.032,19.874 36.063,35.812 58.469,46.968Z" style="fill:#f0cebb;fill-rule:nonzero;"/><path d="M777.015,4347.81l-8.218,-23.844c-7.5,2.187 -14.188,3.438 -20.188,3.438c-15.906,0 -26.906,-8.844 -35.031,-32.407c-2.844,-8.281 -4.625,-15.562 -5.625,-21.375l34,-11.718c0.531,2.562 1.281,5.75 2.656,9.718c3.875,11.25 7,18.407 15.125,18.407c2.031,0 4.406,-0.438 7.188,-1.407c13.468,-4.625 13.312,-10.062 7.094,-28.156c-0.375,-1.094 -0.719,-2.125 -1.063,-3.063c-2.344,-6.562 -3.844,-9.187 -9.437,-11.468c-13.376,-6.031 -40.719,-3.813 -55.594,-8.281c-13.282,-3.657 -19.313,-13.219 -29.129,-41.719c-11.281,-32.782 -5.246,-47.188 25.472,-59.469l-6.531,-18.969l19.282,-6.656l6.531,18.969c7.812,-2.313 14.5,-3.531 20.312,-3.531c15.906,0 25.187,9.249 32.532,30.593c2.843,8.25 4.249,14.282 5.187,19.094l-33.687,11.594c-0.626,-2.844 -1.688,-5.906 -3.282,-10.5c-3.437,-10 -6.656,-15.719 -13.906,-15.719c-2.125,0 -4.563,0.469 -7.437,1.469c-11.032,3.812 -12.845,8.531 -7.563,23.843c5.5,15.938 6.937,17.157 18.937,18.157c13.125,1.312 25.313,0.875 36.688,2.093c16.125,2 26.375,1.907 37.219,33.469c1.218,3.5 2.312,6.844 3.281,10.032c11.375,37.218 6.437,53.656 -23.844,66.593l8.313,24.188l-19.282,6.625Z" style="fill:#eff3fa;fill-rule:nonzero;"/><path d="M8582.26,4936.88c-7.969,35.656 -22.312,70.219 -43.125,101.907c-9.25,14.031 -19.718,27.468 -31.499,40.187c-3.407,3.687 -6.875,7.281 -10.407,10.781c-116.75,114.813 -304.343,118.781 -425.906,6.438c-5.594,-5.156 -10.938,-10.469 -16.031,-15.938c-109.657,-117.062 -111.782,-300.75 -1.188,-420.406c32.219,-34.875 70.656,-60.625 112,-77.156c100.5,-40.157 218.406,-25.688 307.188,45.219c5.843,4.687 11.562,9.593 17.156,14.75c83.75,77.375 114.938,190.374 91.812,294.218Z" style="fill:#f47722;fill-rule:nonzero;"/><path d="M8474.48,5048.31c-6.906,7.5 -14.094,14.562 -21.562,21.187c-111.688,99.594 -280.126,104.594 -397.625,10.781c-5.844,-4.687 -11.563,-9.593 -17.156,-14.75c-125.251,-115.749 -132.938,-311.093 -17.219,-436.343c26.75,-28.907 57.687,-51.563 91.062,-67.875l0.125,-0.032c20.906,-10.218 42.75,-17.937 65.063,-23.156c0.562,-0.125 0.844,-0.187 0.844,-0.187c96.156,-22.219 201.312,2 279.249,74.062c5.594,5.156 10.938,10.469 16.032,15.907c109.656,117.093 111.781,300.75 1.187,420.406Z" style="fill:#f8bc3e;fill-rule:nonzero;"/><path d="M8429.61,5006.84c-92.843,100.437 -249.531,106.625 -349.968,13.812c-100.47,-92.843 -106.657,-249.531 -13.813,-349.968c92.843,-100.469 249.5,-106.657 349.968,-13.813c100.438,92.844 106.626,249.5 13.813,349.969Z" style="fill:#f5b400;fill-rule:nonzero;"/><path d="M8069.98,4693.38c92.844,-100.469 249.5,-106.656 349.969,-13.812c37.594,34.75 62,78.468 72.938,124.812c-7.626,-54.656 -33.407,-107.125 -77.095,-147.5c-100.468,-92.844 -257.125,-86.656 -349.968,13.813c-52.562,56.875 -73.344,131.781 -63.282,202.937c-1.093,-35.218 5.282,-70.718 19.251,-103.844c10.937,-27.468 26.937,-53.406 48.187,-76.406Z" style="fill:#f47722;fill-rule:nonzero;"/><path d="M8354.98,4742.84l19.157,-20.75l-21.094,-19.5l-19.157,20.719c-35.75,-29.875 -57.593,-27.719 -90.719,8.125c-28.812,31.156 -36.656,45.031 -32.374,63.906c4.406,21.469 25.374,53.875 26.843,74.469c0.906,8.437 -1.375,12.062 -7.937,19.344c-0.969,1.062 -1.969,2.156 -3.093,3.374c-18.282,19.782 -24.939,23.594 -39.657,9.969c-15.094,-13.937 -8.031,-23.562 6.218,-39c4,-4.343 7.438,-7.375 10.25,-9.75l-37.187,-34.375c-6.563,5.094 -14.375,12.188 -22.719,21.25c-32.843,35.5 -27.375,59.188 0.876,87.75l-24.125,26.125l21.093,19.5l24.437,-26.437c36.219,28.906 59.907,24.062 98.5,-14.844c3.313,-3.344 6.72,-6.937 10.251,-10.75c31.906,-34.5 24.937,-47.156 16.687,-68.469c-6.093,-14.937 -14.75,-29.75 -21.875,-46.906c-6.75,-15.562 -6.218,-18.156 9.906,-35.594c15.469,-16.75 22.531,-17.656 34.594,-6.531c14.063,13 9.594,21.906 -3.406,35.969c-4.656,5.031 -7.75,8.375 -10.875,11.093l36.875,34.063c5.312,-4.406 11.844,-10.156 20.219,-19.188c29.406,-31.843 28.562,-53.125 -1.688,-83.562Z" style="fill:#f3f6fc;fill-rule:nonzero;"/><path d="M7809.3,2160.53c-13.406,-4.969 -26.969,-9.938 -40.438,-14.875c55.844,-113.032 37.781,-252.266 -51.375,-347.469c5.844,4.669 11.562,9.574 17.125,14.728c83.781,77.4 114.938,190.397 91.813,294.209c-4.032,18.188 -9.751,36.063 -17.125,53.407Z" style="fill:#f9b587;fill-rule:nonzero;"/><path d="M7524.98,2348.47c-74.968,0 -150.093,-27.125 -209.5,-82c-5.562,-5.156 -10.906,-10.469 -16,-15.906c56.344,44.968 124.406,67.25 192.313,67.25c73.687,0 147.187,-26.219 205.312,-78.032c7.438,-6.656 14.625,-13.718 21.532,-21.187c20.687,-22.344 37.406,-46.938 50.218,-72.937c13.469,4.937 27.032,9.906 40.438,14.875c-7.125,16.749 -15.782,32.968 -26,48.53c-9.219,14.032 -19.719,27.469 -31.469,40.188c-3.406,3.688 -6.875,7.281 -10.437,10.75c-59.688,58.75 -137.938,88.469 -216.407,88.469Z" style="fill:#f1af85;fill-rule:nonzero;"/><path d="M7768.86,2145.66c-19.281,-7.031 -38.531,-14.001 -57.937,-20.938c50,-94.5 34.156,-213.725 -44.938,-291.812l0,-0.003c-0.156,-0.151 -0.312,-0.31 -0.468,-0.46c0,-0.019 -0.032,-0.044 -0.063,-0.062c-0.125,-0.141 -0.281,-0.282 -0.438,-0.422c-0.031,-0.031 -0.062,-0.069 -0.094,-0.103c-0.124,-0.131 -0.28,-0.266 -0.406,-0.398c-0.031,-0.024 -0.062,-0.052 -0.093,-0.078c-0.251,-0.237 -0.5,-0.49 -0.75,-0.724c-0.063,-0.06 -0.126,-0.119 -0.188,-0.176c-0.063,-0.081 -0.156,-0.171 -0.25,-0.249c-0.093,-0.094 -0.187,-0.185 -0.281,-0.279c-0.094,-0.078 -0.157,-0.153 -0.25,-0.231c-0.094,-0.1 -0.187,-0.194 -0.312,-0.291c-0.063,-0.074 -0.157,-0.149 -0.219,-0.222c-0.125,-0.103 -0.219,-0.209 -0.344,-0.309c-0.062,-0.068 -0.125,-0.137 -0.219,-0.206c-0.093,-0.109 -0.219,-0.219 -0.344,-0.328c-0.062,-0.063 -0.125,-0.125 -0.187,-0.187c-0.125,-0.119 -0.25,-0.238 -0.375,-0.357c-0.063,-0.056 -0.125,-0.103 -0.188,-0.159c-0.187,-0.172 -0.374,-0.344 -0.562,-0.516c-0.407,-0.384 -0.813,-0.762 -1.25,-1.143c-47.406,-43.219 -107.093,-64.604 -166.656,-64.629l-0.25,0c-65.313,0.031 -130.407,25.747 -178.907,76.51c-0.125,0.122 -0.25,0.253 -0.374,0.374c-0.063,0.079 -0.157,0.157 -0.219,0.235c-0.032,0.025 -0.032,0.05 -0.063,0.075c-0.468,0.488 -0.906,0.962 -1.375,1.457c-0.281,0.306 -0.563,0.618 -0.875,0.924c-0.187,0.209 -0.375,0.422 -0.562,0.631c-0.063,0.076 -0.125,0.141 -0.188,0.213c-0.156,0.14 -0.281,0.282 -0.406,0.422c-0.063,0.081 -0.125,0.162 -0.219,0.243c-0.125,0.129 -0.218,0.26 -0.344,0.391c-0.093,0.088 -0.156,0.182 -0.25,0.269c-0.125,0.132 -0.218,0.244 -0.343,0.375c-0.063,0.085 -0.157,0.169 -0.219,0.253c-0.125,0.138 -0.25,0.263 -0.344,0.4c-0.093,0.082 -0.156,0.166 -0.218,0.247c-0.157,0.141 -0.282,0.285 -0.407,0.428c-0.063,0.069 -0.125,0.134 -0.187,0.206c-0.125,0.176 -0.282,0.347 -0.438,0.522c-0.031,0.037 -0.094,0.085 -0.125,0.122c-0.375,0.431 -0.75,0.878 -1.125,1.309c-0.062,0.051 -0.093,0.1 -0.125,0.151c-0.156,0.168 -0.313,0.337 -0.438,0.505c-0.062,0.063 -0.124,0.116 -0.155,0.176c-0.157,0.159 -0.282,0.322 -0.407,0.478c-0.063,0.062 -0.125,0.132 -0.188,0.193c-0.124,0.163 -0.249,0.325 -0.406,0.488c-0.031,0.056 -0.093,0.11 -0.125,0.162c-0.156,0.176 -0.312,0.351 -0.468,0.529c-0.031,0.044 -0.063,0.087 -0.094,0.131c-0.188,0.212 -0.344,0.422 -0.532,0.637l0,0.013c-0.781,0.913 -1.531,1.844 -2.281,2.766c-27.437,33.812 -44.562,72.968 -51.531,113.462c-19.531,-6.541 -39,-13.078 -58.5,-19.653c10.875,-53.406 36.063,-104.6 75.75,-147.553c26.719,-28.916 57.687,-51.559 91.063,-67.875l0.094,-0.05c20.906,-10.216 42.75,-17.938 65.093,-23.15c0.532,-0.128 0.812,-0.197 0.812,-0.197c22.907,-5.288 46.344,-7.94 69.782,-7.94c74.969,0 150.094,27.121 209.5,82.006c5.563,5.153 10.906,10.469 16.031,15.928c89.156,95.203 107.219,234.437 51.375,347.469Z" style="fill:#fbdb97;fill-rule:nonzero;"/><path d="M7491.8,2317.81c-67.907,0 -135.969,-22.282 -192.313,-67.25l-0.031,-0.031c-5.844,-4.657 -11.563,-9.563 -17.125,-14.719c-82.312,-76.062 -113.844,-186.469 -92.969,-288.794c19.5,6.575 38.969,13.112 58.5,19.653c-13.812,79.953 11.906,165.078 75.938,224.235c47.625,44.031 107.906,65.781 168.031,65.781c66.656,0 133.125,-26.75 181.937,-79.563c14.938,-16.187 27.313,-33.812 37.157,-52.406c19.406,6.937 38.656,13.907 57.937,20.938c-12.812,25.999 -29.531,50.593 -50.218,72.937c-6.907,7.469 -14.094,14.531 -21.532,21.187c-58.125,51.813 -131.625,78.032 -205.312,78.032Z" style="fill:#f3d594;fill-rule:nonzero;"/><path d="M7710.92,2124.72c-56.938,-20.344 -114.407,-40.344 -172.188,-60.094c7.25,-15.968 2.25,-26.406 -3.344,-40.843c-6.062,-14.938 -14.718,-29.763 -21.844,-46.916c-6.749,-15.557 -6.218,-18.163 9.876,-35.582c8.781,-9.506 14.875,-13.918 20.687,-13.918c4.437,0 8.719,2.565 13.937,7.391c14.063,12.999 9.563,21.893 -3.437,35.959c-4.625,5.028 -7.75,8.381 -10.843,11.087l36.843,34.041c5.313,-4.375 11.875,-10.125 20.219,-19.175c29.438,-31.834 28.594,-53.109 -1.656,-83.556l19.156,-20.744l-21.094,-19.506l-19.187,20.74c-16.469,-13.784 -30,-20.756 -43.031,-20.756c-15.251,0 -29.844,9.532 -47.688,28.853c-28.781,31.163 -36.656,45.028 -32.344,63.913c4.407,21.456 25.375,53.887 26.813,74.481c0.219,1.969 0.25,3.656 0.125,5.187c-14.031,-4.75 -27.969,-9.468 -42.031,-14.187c2.937,-2.969 5.499,-5.219 7.718,-7.094l-37.188,-34.353c-6.593,5.11 -14.374,12.197 -22.75,21.228c-0.624,0.688 -1.249,1.344 -1.843,2.031c-43.281,-14.531 -86.594,-29.012 -130.063,-43.58c2.751,-9.913 6.156,-19.688 10.188,-29.269c10.937,-27.457 26.938,-53.426 48.187,-76.425c48.813,-52.819 115.282,-79.576 181.969,-79.576c60.094,0 120.375,21.753 168.001,65.773c37.624,34.755 61.999,78.471 72.937,124.831c-7.251,-52.1 -31,-102.206 -71.063,-141.753c79.094,78.087 94.938,197.312 44.938,291.812Zm-463.063,-158.041l0,-0.006c6.969,-40.494 24.094,-79.65 51.531,-113.462c-27.437,33.809 -44.531,72.977 -51.531,113.468Z" style="fill:#fad675;fill-rule:nonzero;"/><path d="M7491.83,2256.69c-60.125,0 -120.406,-21.75 -168.031,-65.781c-64.032,-59.157 -89.75,-144.282 -75.938,-224.235l0,0.006c-4.406,25.55 -4.781,51.635 -1.156,77.229c-0.75,-25.063 2.25,-50.222 9.062,-74.581c43.469,14.568 86.782,29.049 130.063,43.58c-30.75,34.406 -24.969,57.72 2.718,85.751l-24.124,26.093l21.125,19.531l24.437,-26.468c15.469,12.374 28.656,18.562 41.719,18.562c17.469,0 34.656,-11.093 56.75,-33.406c3.313,-3.313 6.75,-6.906 10.281,-10.719c10.281,-11.156 16.531,-20.031 20,-27.625c57.781,19.75 115.25,39.75 172.188,60.094c-9.844,18.594 -22.219,36.219 -37.157,52.406c-48.812,52.813 -115.281,79.563 -181.937,79.563Zm-45.75,-175.844c-4.532,0 -9.094,-2.656 -14.969,-8.062c-15.062,-13.938 -8.031,-23.594 6.219,-39c0.875,-0.969 1.75,-1.844 2.563,-2.688c14.062,4.719 28,9.437 42.031,14.187c-0.501,5.125 -3,8.563 -8.063,14.157c-0.938,1.031 -1.968,2.156 -3.094,3.375c-11,11.906 -17.812,18.031 -24.687,18.031Z" style="fill:#f2d072;fill-rule:nonzero;"/><path d="M7299.39,1853.21c0.75,-0.922 1.5,-1.853 2.281,-2.766c-0.781,0.919 -1.531,1.837 -2.281,2.766Zm2.281,-2.779c0.188,-0.215 0.344,-0.425 0.532,-0.637c-0.188,0.209 -0.344,0.425 -0.532,0.637Zm0.626,-0.768c0.156,-0.178 0.312,-0.353 0.468,-0.529c-0.156,0.179 -0.312,0.351 -0.468,0.529Zm0.593,-0.691c0.157,-0.163 0.282,-0.325 0.406,-0.488c-0.124,0.163 -0.249,0.325 -0.406,0.488Zm0.594,-0.681c0.125,-0.156 0.25,-0.319 0.407,-0.478c-0.157,0.162 -0.282,0.319 -0.407,0.478Zm0.562,-0.654c0.125,-0.168 0.282,-0.337 0.438,-0.505c-0.156,0.165 -0.313,0.34 -0.438,0.505Zm0.563,-0.656c0.375,-0.431 0.75,-0.878 1.125,-1.309c-0.375,0.437 -0.75,0.869 -1.125,1.309Zm1.25,-1.431c0.156,-0.175 0.313,-0.346 0.438,-0.522c-0.125,0.173 -0.282,0.347 -0.438,0.522Zm0.625,-0.728c0.125,-0.143 0.25,-0.287 0.407,-0.428c-0.157,0.144 -0.282,0.285 -0.407,0.428Zm0.625,-0.675c0.094,-0.137 0.219,-0.262 0.344,-0.4c-0.125,0.134 -0.25,0.266 -0.344,0.4Zm0.563,-0.653c0.125,-0.131 0.218,-0.243 0.343,-0.375c-0.125,0.128 -0.218,0.25 -0.343,0.375Zm0.593,-0.644c0.126,-0.131 0.219,-0.262 0.344,-0.391c-0.125,0.132 -0.218,0.257 -0.344,0.391Zm0.563,-0.634c0.125,-0.14 0.25,-0.282 0.406,-0.422c-0.125,0.14 -0.281,0.282 -0.406,0.422Zm0.594,-0.635c0.187,-0.209 0.375,-0.422 0.562,-0.631c0.312,-0.306 0.594,-0.618 0.875,-0.924c-0.281,0.306 -0.563,0.618 -0.875,0.924c-0.187,0.209 -0.375,0.422 -0.562,0.631Zm2.812,-3.012c0.031,-0.025 0.031,-0.05 0.063,-0.075c-0.032,0.025 -0.032,0.05 -0.063,0.075Zm0.282,-0.31c0.124,-0.121 0.249,-0.252 0.374,-0.374c-0.125,0.122 -0.25,0.253 -0.374,0.374Zm353.468,-5.355c-0.156,-0.154 -0.312,-0.307 -0.468,-0.46c0.156,0.15 0.312,0.309 0.468,0.46Zm-0.531,-0.522c-0.156,-0.144 -0.281,-0.279 -0.438,-0.422c0.157,0.14 0.313,0.281 0.438,0.422Zm-0.532,-0.525c-0.124,-0.131 -0.28,-0.266 -0.406,-0.398c0.126,0.132 0.282,0.267 0.406,0.398Zm-0.499,-0.476c-0.251,-0.243 -0.5,-0.481 -0.75,-0.724c0.25,0.234 0.499,0.487 0.75,0.724Zm-0.938,-0.9c-0.063,-0.084 -0.156,-0.168 -0.25,-0.249c0.094,0.078 0.187,0.168 0.25,0.249Zm-0.531,-0.528c-0.094,-0.078 -0.157,-0.156 -0.25,-0.231c0.093,0.078 0.156,0.153 0.25,0.231Zm-0.562,-0.522c-0.063,-0.074 -0.157,-0.146 -0.219,-0.222c0.062,0.073 0.156,0.148 0.219,0.222Zm-0.563,-0.531c-0.062,-0.071 -0.125,-0.134 -0.219,-0.206c0.094,0.069 0.157,0.138 0.219,0.206Zm-0.563,-0.534c-0.062,-0.063 -0.125,-0.125 -0.187,-0.187c0.062,0.062 0.125,0.124 0.187,0.187Zm-0.562,-0.544c-0.063,-0.056 -0.125,-0.106 -0.188,-0.159c0.063,0.056 0.125,0.103 0.188,0.159Zm-2,-1.818c-47.375,-43.213 -107.093,-64.598 -166.656,-64.629c59.563,0.025 119.25,21.41 166.656,64.629Zm-166.906,-64.629l0.156,0l-0.156,0Z" style="fill:#fad675;fill-rule:nonzero;"/><path d="M7737.05,1974.66c-10.938,-46.36 -35.313,-90.076 -72.937,-124.831c-47.626,-44.02 -107.907,-65.773 -168.001,-65.773c-66.687,0 -133.156,26.757 -181.969,79.576c-21.249,22.999 -37.25,48.968 -48.187,76.425c-4.032,9.581 -7.437,19.356 -10.188,29.269c-2.687,-0.898 -5.218,-1.751 -7.906,-2.648c7,-40.491 24.094,-79.659 51.531,-113.468c0.75,-0.929 1.5,-1.847 2.281,-2.766l0,-0.013c0.188,-0.212 0.344,-0.428 0.532,-0.637c0.031,-0.044 0.063,-0.087 0.094,-0.131c0.156,-0.178 0.312,-0.35 0.468,-0.529c0.032,-0.052 0.094,-0.106 0.125,-0.162c0.157,-0.163 0.282,-0.325 0.406,-0.488c0.063,-0.061 0.125,-0.131 0.188,-0.193c0.125,-0.159 0.25,-0.316 0.407,-0.478c0.031,-0.06 0.093,-0.113 0.155,-0.176c0.125,-0.165 0.282,-0.34 0.438,-0.505c0.032,-0.051 0.063,-0.1 0.125,-0.151c0.375,-0.44 0.75,-0.872 1.125,-1.309c0.031,-0.037 0.094,-0.085 0.125,-0.122c0.156,-0.175 0.313,-0.349 0.438,-0.522c0.062,-0.072 0.124,-0.137 0.187,-0.206c0.125,-0.143 0.25,-0.284 0.407,-0.428c0.062,-0.081 0.125,-0.165 0.218,-0.247c0.094,-0.134 0.219,-0.266 0.344,-0.4c0.062,-0.084 0.156,-0.168 0.219,-0.253c0.125,-0.125 0.218,-0.247 0.343,-0.375c0.094,-0.087 0.157,-0.181 0.25,-0.269c0.126,-0.134 0.219,-0.259 0.344,-0.391c0.094,-0.081 0.156,-0.162 0.219,-0.243c0.125,-0.14 0.281,-0.282 0.406,-0.422c0.063,-0.072 0.125,-0.137 0.188,-0.213c0.187,-0.209 0.375,-0.422 0.562,-0.631c0.312,-0.306 0.594,-0.618 0.875,-0.924c0.469,-0.495 0.907,-0.969 1.375,-1.457c0.031,-0.025 0.031,-0.05 0.063,-0.075c0.062,-0.078 0.156,-0.156 0.219,-0.235c0.124,-0.121 0.249,-0.252 0.374,-0.374c48.5,-50.763 113.594,-76.479 178.907,-76.51l0.25,0c59.563,0.031 119.281,21.416 166.656,64.629c0.437,0.381 0.843,0.759 1.25,1.143c0.188,0.172 0.375,0.344 0.562,0.516c0.063,0.053 0.125,0.103 0.188,0.159c0.125,0.119 0.25,0.238 0.375,0.357c0.062,0.062 0.125,0.124 0.187,0.187c0.125,0.109 0.251,0.219 0.344,0.328c0.094,0.072 0.157,0.135 0.219,0.206c0.125,0.1 0.219,0.206 0.344,0.309c0.062,0.076 0.156,0.148 0.219,0.222c0.125,0.097 0.218,0.191 0.312,0.291c0.093,0.075 0.156,0.153 0.25,0.231c0.094,0.094 0.188,0.185 0.281,0.279c0.094,0.081 0.187,0.165 0.25,0.249c0.062,0.057 0.125,0.116 0.188,0.176c0.25,0.243 0.499,0.481 0.75,0.724c0.031,0.026 0.062,0.054 0.093,0.078c0.126,0.132 0.282,0.267 0.406,0.398c0.032,0.034 0.063,0.072 0.094,0.103c0.157,0.143 0.282,0.278 0.438,0.422c0.031,0.018 0.063,0.043 0.063,0.062c0.156,0.153 0.312,0.306 0.468,0.46l0,0.003c40.063,39.547 63.812,89.653 71.063,141.753Z" style="fill:#f9b587;fill-rule:nonzero;"/><path d="M7246.7,2043.91c-3.625,-25.594 -3.25,-51.679 1.156,-77.229c2.688,0.897 5.219,1.75 7.906,2.648c-6.812,24.359 -9.812,49.518 -9.062,74.581Z" style="fill:#f1af85;fill-rule:nonzero;"/><path d="M7538.73,2064.62c-18.938,-6.468 -37.813,-12.906 -56.812,-19.344c0.125,-1.531 0.094,-3.218 -0.125,-5.187c-1.438,-20.594 -22.406,-53.025 -26.813,-74.481c-4.312,-18.885 3.563,-32.75 32.344,-63.913c17.844,-19.321 32.437,-28.853 47.688,-28.853c13.031,0 26.562,6.972 43.031,20.756l19.187,-20.74l21.094,19.506l-19.156,20.744c30.25,30.447 31.094,51.722 1.656,83.556c-8.344,9.05 -14.906,14.8 -20.219,19.175l-36.843,-34.041c3.093,-2.706 6.218,-6.059 10.843,-11.087c13,-14.066 17.5,-22.96 3.437,-35.959c-5.218,-4.826 -9.5,-7.391 -13.937,-7.391c-5.812,0 -11.906,4.412 -20.687,13.918c-16.094,17.419 -16.625,20.025 -9.876,35.582c7.126,17.153 15.782,31.978 21.844,46.916c5.594,14.437 10.594,24.875 3.344,40.843Zm-98.843,-33.531c-17.907,-6.062 -36.063,-12.156 -54.063,-18.188c0.594,-0.687 1.219,-1.343 1.843,-2.031c8.376,-9.031 16.157,-16.118 22.75,-21.228l37.188,34.353c-2.219,1.875 -4.781,4.125 -7.718,7.094Z" style="fill:#f9fafd;fill-rule:nonzero;"/><path d="M7385.55,2144.28l-21.125,-19.531l24.124,-26.093c-27.687,-28.031 -33.468,-51.345 -2.718,-85.751c18,6.032 36.156,12.126 54.063,18.188c-0.813,0.844 -1.688,1.719 -2.563,2.688c-14.25,15.406 -21.281,25.062 -6.219,39c5.875,5.406 10.437,8.062 14.969,8.062c6.875,0 13.687,-6.125 24.687,-18.031c1.126,-1.219 2.156,-2.344 3.094,-3.375c5.063,-5.594 7.562,-9.032 8.063,-14.157c18.999,6.438 37.874,12.876 56.812,19.344c-3.469,7.594 -9.719,16.469 -20,27.625c-3.531,3.813 -6.968,7.406 -10.281,10.719c-22.094,22.313 -39.281,33.406 -56.75,33.406c-13.063,0 -26.25,-6.188 -41.719,-18.562l-24.437,26.468Z" style="fill:#f1f4fb;fill-rule:nonzero;"/><path d="M3249.73,1723.22c94.125,-45.738 141.406,-153.044 112.281,-253.037c-1.937,-6.669 -4.218,-13.304 -6.843,-19.885c-33.594,-84.071 -114.313,-135.228 -199.625,-135.228c-21.563,0 -43.407,3.266 -64.875,10.088l0,0.006l0,-0.009c4.687,-2.275 9.5,-4.394 14.406,-6.353c26.125,-10.447 53.125,-15.397 79.656,-15.397c48.25,0 95.063,16.372 132.657,45.812c20.03,15.665 37.468,35.034 51.124,57.607l0,0.003c6.063,9.993 11.376,20.606 15.844,31.809c1.281,3.244 2.5,6.503 3.625,9.775c37.188,107.737 -16.5,226.778 -123.469,269.516c-4.906,1.953 -9.843,3.721 -14.781,5.293Z" style="fill:#f1af85;fill-rule:nonzero;"/><path d="M3155.67,1744.99c-85.344,0 -166.063,-51.16 -199.625,-135.231c-10.188,-25.45 -15.126,-51.688 -15.407,-77.532l0,-0.087c-0.156,-16.185 1.532,-32.222 4.969,-47.822c0.063,-0.379 0.125,-0.572 0.125,-0.572c14.844,-67.069 61.532,-125.869 130.125,-153.278c4.906,-1.959 9.844,-3.726 14.813,-5.297l0,-0.006c21.468,-6.822 43.312,-10.088 64.875,-10.088c85.312,0 166.031,51.157 199.625,135.228c2.625,6.581 4.906,13.216 6.843,19.885c29.125,99.993 -18.156,207.299 -112.281,253.037c0,0.003 -0.031,0.007 -0.031,0.01c-4.688,2.275 -9.469,4.397 -14.375,6.359c-26.156,10.444 -53.125,15.394 -79.656,15.394Zm-152.844,-135.094c30.219,57.906 89.969,92.538 152.812,92.538c21.282,0 42.938,-3.969 63.907,-12.345c88.406,-35.312 131.437,-135.605 96.093,-224.002c-26.937,-67.431 -91.656,-108.463 -160.093,-108.463c-21.282,0 -42.938,3.969 -63.906,12.347c-67.501,26.969 -108.532,91.831 -108.438,160.353c0.031,21.203 4,42.759 12.344,63.65c0.062,0.169 0.125,0.34 0.187,0.509c0.031,0.05 0.063,0.107 0.063,0.16c0.062,0.141 0.125,0.281 0.187,0.421c0,0.048 0.031,0.088 0.063,0.135c0.031,0.144 0.093,0.297 0.156,0.444c0.031,0.059 0.062,0.122 0.094,0.181c0.031,0.125 0.093,0.247 0.156,0.369c0,0.065 0.031,0.134 0.062,0.2c0.063,0.134 0.125,0.265 0.188,0.4c0.031,0.075 0.062,0.153 0.093,0.228c0.032,0.09 0.063,0.178 0.094,0.269c0.063,0.124 0.125,0.246 0.157,0.368c0.062,0.097 0.093,0.178 0.124,0.275c0.032,0.088 0.063,0.176 0.126,0.263c0.031,0.078 0.062,0.166 0.093,0.244c0.063,0.128 0.126,0.259 0.156,0.387c0.063,0.084 0.094,0.175 0.126,0.26c0.031,0.097 0.093,0.187 0.125,0.28c0.031,0.066 0.062,0.135 0.094,0.201c0.062,0.172 0.156,0.35 0.218,0.522c0.031,0.043 0.063,0.093 0.063,0.137c0.062,0.1 0.094,0.2 0.125,0.303c0.031,0.063 0.062,0.113 0.093,0.179c0.063,0.171 0.157,0.343 0.219,0.515c0.032,0.053 0.063,0.103 0.094,0.156c0.031,0.1 0.094,0.197 0.125,0.294c0.031,0.062 0.062,0.119 0.094,0.181c0.031,0.113 0.094,0.219 0.156,0.332c0.031,0.109 0.094,0.231 0.156,0.34c0.031,0.091 0.063,0.184 0.125,0.275c0.031,0.069 0.063,0.134 0.094,0.203c0.031,0.091 0.062,0.185 0.125,0.276c0.062,0.124 0.125,0.259 0.187,0.383c0.032,0.088 0.063,0.179 0.125,0.267c0.031,0.074 0.063,0.146 0.094,0.218c0.031,0.084 0.063,0.165 0.125,0.253c0.063,0.134 0.125,0.266 0.187,0.4c0.032,0.078 0.063,0.159 0.126,0.238c0.031,0.081 0.062,0.165 0.093,0.249c0.063,0.079 0.094,0.157 0.126,0.238c0.062,0.132 0.124,0.272 0.187,0.406c0.062,0.072 0.094,0.148 0.125,0.222c0.031,0.091 0.093,0.172 0.125,0.266c0.031,0.068 0.062,0.147 0.094,0.216c0.093,0.143 0.156,0.284 0.219,0.428c0.031,0.052 0.062,0.109 0.093,0.165c0.063,0.116 0.094,0.225 0.156,0.341c0.032,0.053 0.063,0.103 0.094,0.156c0.063,0.156 0.156,0.316 0.25,0.472c0,0.025 0,0.05 0.031,0.072c0.063,0.143 0.157,0.3 0.219,0.44c0,0.035 0.031,0.066 0.063,0.101c0.062,0.168 0.156,0.34 0.25,0.506l0,0.009c0.093,0.172 0.187,0.338 0.25,0.51c0.031,0.019 0.031,0.04 0.031,0.059Z" style="fill:#f3d594;fill-rule:nonzero;"/><path d="M3155.64,1702.43c-62.843,0 -122.593,-34.632 -152.812,-92.538c21.75,41.669 58.781,71.268 101.25,84.6c-22.438,-9.865 -42.813,-24.494 -59.469,-43.185c-13.969,-15.087 -25.5,-32.915 -33.562,-53.159c-35.344,-88.396 7.687,-188.687 96.093,-224.003c20.969,-8.375 42.625,-12.344 63.875,-12.344c12.344,0 24.532,1.328 36.407,3.9c-16.688,-5.275 -34.25,-8.05 -52.032,-8.05c-21.218,0 -42.812,3.953 -63.749,12.316c-67.501,26.969 -108.532,91.831 -108.438,160.353c-0.094,-68.522 40.937,-133.384 108.438,-160.353c20.968,-8.378 42.624,-12.347 63.906,-12.347c68.437,0 133.156,41.032 160.093,108.463c35.344,88.397 -7.687,188.69 -96.093,224.002c-20.969,8.376 -42.625,12.345 -63.907,12.345Zm25.344,-80.651l9.156,22.972l18.594,-7.421l-9.312,-23.269c28.999,-14.103 33.062,-30.426 20.156,-66.323c-1.094,-3.077 -2.313,-6.296 -3.657,-9.671c-12.155,-30.365 -22.156,-29.775 -38.031,-30.966c-3.031,-0.178 -6.156,-0.234 -9.312,-0.234c-2.625,0 -5.313,0.04 -8.063,0.081c-2.75,0.038 -5.531,0.075 -8.374,0.075c-3.344,0 -6.782,-0.053 -10.282,-0.231c-11.781,-0.419 -13.25,-1.541 -19.375,-16.875c-5.906,-14.738 -4.375,-19.453 6.25,-23.697c3.063,-1.222 5.625,-1.809 7.844,-1.809c6.687,0 10,5.412 13.718,14.734c1.782,4.419 2.969,7.369 3.719,10.138l32.438,-12.96c-1.188,-4.656 -2.813,-10.491 -6,-18.45c-7.875,-19.713 -16.937,-28.45 -31.469,-28.45c-6.094,0 -13.187,1.55 -21.531,4.482l-7.281,-18.251l-18.594,7.419l7.312,18.254c-29.5,13.493 -34.687,27.877 -22.093,59.424c10.968,27.419 17.312,36.503 30.468,39.463c14.813,3.656 41.438,0.19 54.844,5.444c5.563,1.962 7.156,4.462 9.75,10.781c0.375,0.903 0.782,1.887 1.188,2.959c6.968,17.4 7.375,22.709 -5.594,27.894c-2.969,1.178 -5.438,1.734 -7.594,1.734c-7.5,0 -10.844,-6.768 -15.031,-17.315c-1.563,-3.835 -2.438,-6.897 -3.062,-9.378l-32.751,13.074c1.25,5.66 3.344,12.679 6.532,20.645c8.687,21.74 19.343,30.127 33.875,30.127c6.375,0 13.499,-1.603 21.562,-4.4Zm-178.187,-11.946c-0.063,-0.172 -0.157,-0.338 -0.25,-0.51c0.093,0.169 0.187,0.341 0.25,0.51Zm-0.25,-0.519c-0.094,-0.166 -0.188,-0.338 -0.25,-0.506c0.062,0.168 0.156,0.337 0.25,0.506Zm-0.313,-0.607c-0.062,-0.14 -0.156,-0.297 -0.219,-0.44c0.063,0.146 0.126,0.294 0.219,0.44Zm-0.25,-0.512c-0.094,-0.156 -0.187,-0.316 -0.25,-0.472c0.063,0.156 0.156,0.316 0.25,0.472Zm-0.344,-0.628c-0.062,-0.116 -0.093,-0.225 -0.156,-0.341c0.063,0.112 0.125,0.228 0.156,0.341Zm-0.249,-0.506c-0.063,-0.144 -0.126,-0.285 -0.219,-0.428c0.093,0.143 0.156,0.284 0.219,0.428Zm-0.313,-0.644c-0.032,-0.094 -0.094,-0.175 -0.125,-0.266c0.031,0.088 0.093,0.175 0.125,0.266Zm-0.25,-0.488c-0.063,-0.134 -0.125,-0.274 -0.187,-0.406c0.062,0.135 0.124,0.269 0.187,0.406Zm-0.313,-0.644c-0.031,-0.084 -0.062,-0.168 -0.093,-0.249c0.031,0.081 0.062,0.169 0.093,0.249Zm-0.219,-0.487c-0.062,-0.134 -0.124,-0.266 -0.187,-0.4c0.063,0.134 0.125,0.266 0.187,0.4Zm-0.312,-0.653c-0.031,-0.072 -0.063,-0.144 -0.094,-0.218c0.031,0.074 0.063,0.143 0.094,0.218Zm-0.219,-0.485c-0.062,-0.124 -0.125,-0.259 -0.187,-0.383c0.062,0.128 0.125,0.252 0.187,0.383Zm-0.312,-0.659c-0.031,-0.069 -0.063,-0.134 -0.094,-0.203c0.031,0.069 0.063,0.134 0.094,0.203Zm-0.219,-0.478c-0.062,-0.109 -0.125,-0.231 -0.156,-0.34c0.031,0.112 0.094,0.228 0.156,0.34Zm-0.312,-0.672c-0.032,-0.062 -0.063,-0.119 -0.094,-0.181c0.031,0.059 0.062,0.122 0.094,0.181Zm-0.219,-0.475c-0.031,-0.053 -0.062,-0.103 -0.094,-0.156c0.032,0.053 0.063,0.103 0.094,0.156Zm-0.313,-0.671c-0.031,-0.066 -0.062,-0.116 -0.093,-0.179c0.031,0.057 0.062,0.122 0.093,0.179Zm-0.218,-0.482c0,-0.044 -0.032,-0.094 -0.063,-0.137c0.031,0.05 0.031,0.087 0.063,0.137Zm-0.281,-0.659c-0.032,-0.066 -0.063,-0.135 -0.094,-0.201c0.031,0.066 0.062,0.135 0.094,0.201Zm-0.219,-0.481c-0.032,-0.085 -0.063,-0.176 -0.126,-0.26c0.063,0.087 0.094,0.172 0.126,0.26Zm-0.282,-0.647c-0.031,-0.078 -0.062,-0.166 -0.093,-0.244c0.031,0.084 0.062,0.159 0.093,0.244Zm-0.219,-0.507c-0.031,-0.097 -0.062,-0.178 -0.124,-0.275c0.062,0.091 0.093,0.185 0.124,0.275Zm-0.281,-0.643c-0.031,-0.091 -0.062,-0.179 -0.094,-0.269c0.032,0.09 0.063,0.178 0.094,0.269Zm-0.187,-0.497c-0.063,-0.135 -0.125,-0.266 -0.188,-0.4c0.063,0.134 0.125,0.268 0.188,0.4Zm-0.25,-0.6c-0.063,-0.122 -0.125,-0.244 -0.156,-0.369c0.031,0.122 0.093,0.247 0.156,0.369Zm-0.25,-0.55c-0.063,-0.147 -0.125,-0.3 -0.156,-0.444c0.031,0.15 0.093,0.293 0.156,0.444Zm-0.219,-0.579c-0.062,-0.14 -0.125,-0.28 -0.187,-0.421c0.062,0.141 0.125,0.281 0.187,0.421Zm-0.25,-0.581c-0.062,-0.169 -0.125,-0.34 -0.187,-0.509c0.062,0.172 0.125,0.337 0.187,0.509Z" style="fill:#f2d072;fill-rule:nonzero;"/><path d="M3104.08,1694.49c-42.469,-13.332 -79.5,-42.931 -101.25,-84.6c0,-0.019 0,-0.04 -0.031,-0.059c-0.063,-0.169 -0.157,-0.341 -0.25,-0.51l0,-0.009c-0.094,-0.169 -0.188,-0.338 -0.25,-0.506c-0.032,-0.035 -0.063,-0.066 -0.063,-0.101c-0.093,-0.146 -0.156,-0.294 -0.219,-0.44c-0.031,-0.022 -0.031,-0.047 -0.031,-0.072c-0.094,-0.156 -0.187,-0.316 -0.25,-0.472c-0.031,-0.053 -0.062,-0.103 -0.094,-0.156c-0.031,-0.113 -0.093,-0.229 -0.156,-0.341c-0.031,-0.056 -0.062,-0.113 -0.093,-0.165c-0.063,-0.144 -0.126,-0.285 -0.219,-0.428c-0.032,-0.069 -0.063,-0.148 -0.094,-0.216c-0.032,-0.091 -0.094,-0.178 -0.125,-0.266c-0.031,-0.074 -0.063,-0.15 -0.125,-0.222c-0.063,-0.137 -0.125,-0.271 -0.187,-0.406c-0.032,-0.081 -0.063,-0.159 -0.126,-0.238c-0.031,-0.08 -0.062,-0.168 -0.093,-0.249c-0.063,-0.079 -0.094,-0.16 -0.126,-0.238c-0.062,-0.134 -0.124,-0.266 -0.187,-0.4c-0.062,-0.088 -0.094,-0.169 -0.125,-0.253c-0.031,-0.075 -0.063,-0.144 -0.094,-0.218c-0.062,-0.088 -0.093,-0.179 -0.125,-0.267c-0.062,-0.131 -0.125,-0.255 -0.187,-0.383c-0.063,-0.091 -0.094,-0.185 -0.125,-0.276c-0.031,-0.069 -0.063,-0.134 -0.094,-0.203c-0.062,-0.091 -0.094,-0.184 -0.125,-0.275c-0.062,-0.112 -0.125,-0.228 -0.156,-0.34c-0.062,-0.113 -0.125,-0.219 -0.156,-0.332c-0.032,-0.059 -0.063,-0.122 -0.094,-0.181c-0.031,-0.097 -0.094,-0.194 -0.125,-0.294c-0.031,-0.053 -0.062,-0.103 -0.094,-0.156c-0.062,-0.172 -0.156,-0.344 -0.219,-0.515c-0.031,-0.057 -0.062,-0.122 -0.093,-0.179c-0.031,-0.103 -0.063,-0.203 -0.125,-0.303c-0.032,-0.05 -0.032,-0.087 -0.063,-0.137c-0.062,-0.172 -0.156,-0.35 -0.218,-0.522c-0.032,-0.066 -0.063,-0.135 -0.094,-0.201c-0.032,-0.093 -0.094,-0.183 -0.125,-0.28c-0.032,-0.088 -0.063,-0.173 -0.126,-0.26c-0.03,-0.128 -0.093,-0.259 -0.156,-0.387c-0.031,-0.085 -0.062,-0.16 -0.093,-0.244c-0.063,-0.087 -0.094,-0.175 -0.126,-0.263c-0.031,-0.09 -0.062,-0.184 -0.124,-0.275c-0.032,-0.122 -0.094,-0.244 -0.157,-0.368c-0.031,-0.091 -0.062,-0.179 -0.094,-0.269c-0.031,-0.075 -0.062,-0.153 -0.093,-0.228c-0.063,-0.132 -0.125,-0.266 -0.188,-0.4c-0.031,-0.066 -0.062,-0.135 -0.062,-0.2c-0.063,-0.122 -0.125,-0.247 -0.156,-0.369c-0.032,-0.059 -0.063,-0.122 -0.094,-0.181c-0.063,-0.151 -0.125,-0.294 -0.156,-0.444c-0.032,-0.047 -0.063,-0.087 -0.063,-0.135c-0.062,-0.14 -0.125,-0.28 -0.187,-0.421c0,-0.053 -0.032,-0.11 -0.063,-0.16c-0.062,-0.172 -0.125,-0.337 -0.187,-0.509c-8.344,-20.891 -12.313,-42.447 -12.344,-63.65c-0.094,-68.522 40.937,-133.384 108.438,-160.353c20.937,-8.363 42.531,-12.316 63.749,-12.316c17.782,0 35.344,2.775 52.032,8.05c-11.875,-2.572 -24.063,-3.9 -36.407,-3.9c-21.25,0 -42.906,3.969 -63.875,12.344c-88.406,35.316 -131.437,135.607 -96.093,224.003c8.062,20.244 19.593,38.072 33.562,53.159c16.656,18.691 37.031,33.32 59.469,43.185Z" style="fill:#f1af85;fill-rule:nonzero;"/><path d="M3190.14,1644.75l-9.156,-22.972c-8.063,2.797 -15.187,4.4 -21.562,4.4c-14.532,0 -25.188,-8.387 -33.875,-30.127c-3.188,-7.966 -5.282,-14.985 -6.532,-20.645l32.751,-13.074c0.624,2.481 1.499,5.543 3.062,9.378c4.187,10.547 7.531,17.315 15.031,17.315c2.156,0 4.625,-0.556 7.594,-1.734c12.969,-5.185 12.562,-10.494 5.594,-27.894c-0.406,-1.072 -0.813,-2.056 -1.188,-2.959c-2.594,-6.319 -4.187,-8.819 -9.75,-10.781c-13.406,-5.254 -40.031,-1.788 -54.844,-5.444c-13.156,-2.96 -19.5,-12.044 -30.468,-39.463c-12.594,-31.547 -7.407,-45.931 22.093,-59.424l-7.312,-18.254l18.594,-7.419l7.281,18.251c8.344,-2.932 15.437,-4.482 21.531,-4.482c14.532,0 23.594,8.737 31.469,28.45c3.187,7.959 4.812,13.794 6,18.45l-32.438,12.96c-0.75,-2.769 -1.937,-5.719 -3.719,-10.138c-3.718,-9.322 -7.031,-14.734 -13.718,-14.734c-2.219,0 -4.781,0.587 -7.844,1.809c-10.625,4.244 -12.156,8.959 -6.25,23.697c6.125,15.334 7.594,16.456 19.375,16.875c3.5,0.178 6.938,0.231 10.282,0.231c2.843,0 5.624,-0.037 8.374,-0.075c2.75,-0.041 5.438,-0.081 8.063,-0.081c3.156,0 6.281,0.056 9.312,0.234c15.875,1.191 25.876,0.601 38.031,30.966c1.344,3.375 2.563,6.594 3.657,9.671c12.906,35.897 8.843,52.22 -20.156,66.323l9.312,23.269l-18.594,7.421Z" style="fill:#f1f4fb;fill-rule:nonzero;"/><path d="M1676.3,5101.09c34,29.375 63.093,65.063 85.281,106.094c9.844,18.156 18.313,37.344 25.219,57.5c2.031,5.843 3.875,11.687 5.594,17.566c56.406,193.371 -48.594,398.902 -241.094,465.184c-8.813,3.031 -17.688,5.719 -26.594,8.094c-190.688,50.593 -390.906,-54.094 -456.125,-243.594c-19.031,-55.25 -24.563,-111.875 -18.375,-166.278c15.031,-132.285 99.375,-251.566 227.937,-306.472c8.438,-3.625 17.094,-6.969 25.938,-10c132.625,-45.657 273.219,-13.625 372.219,71.906Z" style="fill:#f47722;fill-rule:nonzero;"/><path d="M1734.27,5282.78c4.094,11.844 7.563,23.753 10.407,35.688c42.812,179.031 -49.844,364.406 -219.938,437.063c-8.468,3.593 -17.125,6.937 -25.969,9.968c-198.343,68.282 -414.469,-37.156 -482.718,-235.5c-15.782,-45.781 -22.282,-92.531 -20.531,-138.156l0.031,-0.153c1.093,-28.597 5.469,-56.753 12.812,-84.003c0.188,-0.656 0.281,-1 0.281,-1c31.969,-117.125 119.438,-216.907 242.907,-259.406c8.812,-3.063 17.687,-5.75 26.593,-8.094c190.688,-50.625 390.906,54.062 456.125,243.593Z" style="fill:#f8bc3e;fill-rule:nonzero;"/><path d="M1663.2,5307.25c54.75,159.059 -29.812,332.403 -188.906,387.184c-159.063,54.75 -332.407,-29.813 -387.188,-188.906c-54.75,-159.06 29.813,-332.407 188.907,-387.188c159.062,-54.75 332.406,29.813 387.187,188.91Z" style="fill:#f5b400;fill-rule:nonzero;"/><path d="M1114.11,5514.25c-54.75,-159.093 29.813,-332.437 188.875,-387.187c59.594,-20.5 121.156,-21.469 177.719,-6.313c-63.656,-23.562 -135.5,-26.218 -204.687,-2.406c-159.094,54.781 -243.657,228.128 -188.907,387.188c31.031,90.093 100.063,156.25 183.032,186.781c-38.813,-19.344 -73.532,-46.938 -101.282,-81.344c-23.406,-27.844 -42.219,-60.312 -54.75,-96.719Z" style="fill:#f47722;fill-rule:nonzero;"/><path d="M1333.73,5234.31l-11.312,-32.875l-33.438,11.5l11.312,32.875c-53.218,21.281 -63.624,46.218 -44.062,103.003c16.969,49.341 27.438,65.903 50.375,72.278c25.813,7.719 73.156,3.875 96.344,14.313c9.656,3.937 12.281,8.468 16.312,19.875c0.563,1.625 1.188,3.375 1.844,5.312c10.782,31.312 11.063,40.719 -12.281,48.75c-23.875,8.219 -30.219,-5.031 -38.625,-29.437c-2.375,-6.907 -3.688,-12.376 -4.625,-16.813l-58.875,20.281c1.688,10.094 4.813,22.656 9.75,37c19.375,56.219 48.188,64.125 95.625,50.157l14.219,41.343l33.437,-11.5l-14.406,-41.875c52.406,-22.406 60.937,-50.875 41.281,-115.343c-1.687,-5.532 -3.593,-11.313 -5.687,-17.407c-18.813,-54.625 -36.563,-54.468 -64.438,-57.906c-19.719,-2.125 -40.843,-1.375 -63.562,-3.656c-20.782,-1.75 -23.313,-3.844 -32.781,-31.438c-9.126,-26.531 -6.032,-34.715 13.062,-41.312c22.281,-7.656 29.312,2.406 36.969,24.687c2.749,7.938 4.593,13.25 5.687,18.219l58.375,-20.094c-1.687,-8.343 -4.094,-18.781 -9,-33.094c-17.375,-50.406 -40.906,-61.906 -91.5,-46.843Z" style="fill:#f3f6fc;fill-rule:nonzero;"/><path d="M8535.26,3574.56c-42.031,190.469 -163.875,342.75 -322.625,429.375c-132.531,72.344 -290.781,98.937 -449.812,63.843c-349.531,-77.093 -570.344,-422.937 -493.219,-772.468c36.688,-166.313 134.25,-303.5 264.094,-393.281c143,-98.907 325.187,-140.344 508.344,-99.907c349.499,77.094 570.344,422.938 493.218,772.438Z" style="fill:#c7defe;fill-rule:nonzero;"/><path d="M7903.05,4083.16c-39.813,0 -80.157,-3.687 -120.625,-11.343c-6.532,-1.25 -13.063,-2.594 -19.594,-4.032c-1.032,-0.218 -2,-0.437 -3,-0.656c-300.781,-67.843 -505.469,-334.937 -505.563,-631.344c-0.031,-46.312 4.938,-93.343 15.344,-140.468c36.688,-166.313 134.25,-303.5 264.094,-393.281c-12.812,71.999 -14.25,141.812 -6.5,209.093c-2.688,3.156 -5.375,6.375 -8.031,9.625c-118.251,143.938 -166.626,299.625 -108.001,347.782c11.782,9.687 26.97,14.281 44.719,14.281c20.282,0 43.875,-6 69.438,-17.313c40.468,2.625 89.937,9.282 145.5,23.625c98.375,151.844 231.812,280.656 356.438,380.5c-0.844,10.125 2.655,18.906 10.499,23.188c3.188,1.75 6.844,2.562 10.688,2.562c3.094,0 6.312,-0.531 9.562,-1.531c55.438,42.875 108.313,79.75 154.625,110.094c-93.343,50.937 -199.437,79.218 -309.593,79.218Z" style="fill:#d8e8fe;fill-rule:nonzero;"/><path d="M8149.23,3648.44c-0.344,0.5 -2.281,16.594 -4.062,31.781c-2.001,17.375 -9.813,35.75 -22.032,51.844l-85.531,112.281c-14.031,18.5 -13.969,40.781 0.156,48.469c12.282,6.687 31.063,-0.032 43.844,-15.688l152.5,-182.468l-84.875,-46.219Z" style="fill:#2946fb;fill-rule:nonzero;"/><path d="M8078.89,3880.25c0.937,-1 1.843,-2.031 2.718,-3.125l96.844,-115.875l-96.844,115.875c-0.875,1.094 -1.781,2.125 -2.718,3.125Z" style="fill:#c1b7db;fill-rule:nonzero;"/><path d="M8048.55,3895.28c-1.655,0 -3.249,-0.125 -4.78,-0.437c36.968,-40.469 70.437,-92.844 100.75,-134.406c6.218,1.469 12.562,2.187 18.874,2.187l0.219,0c5,0 9.969,-0.468 14.844,-1.375l-96.844,115.875c-0.875,1.094 -1.781,2.125 -2.718,3.125c-9.095,9.625 -20.438,15.031 -30.345,15.031Z" style="fill:#283ad9;fill-rule:nonzero;"/><path d="M7411.17,3468.53c0,0 300.876,-53.376 617.001,206.406l133.375,-162.344c-316.157,-259.75 -322.125,-565.25 -322.125,-565.25l-428.251,521.188Z" style="fill:#fff;fill-rule:nonzero;"/><path d="M8000.45,3652.91c-118.219,-90.719 -233.157,-138.876 -329.625,-163.782c96.468,24.906 211.375,73.032 329.625,163.782Z" style="fill:#abb3dd;fill-rule:nonzero;"/><path d="M7670.83,3489.12c-55.563,-14.343 -105.032,-21 -145.5,-23.625c40.468,2.625 89.937,9.282 145.5,23.625Z" style="fill:#b9bbdd;fill-rule:nonzero;"/><path d="M8000.45,3652.91c-118.25,-90.75 -233.157,-138.876 -329.625,-163.782c-55.563,-14.343 -105.032,-21 -145.5,-23.625c32.75,-14.469 68.687,-37.593 105.094,-67.875c123.093,81.5 264.312,121.063 416.437,174.75c10.844,3.594 21.531,7.563 32.032,11.875c-0.157,0.188 -0.313,0.375 -0.47,0.563c-0.062,-0.031 -0.125,-0.031 -0.187,-0.063c-16.156,19.188 -34.406,36.656 -54.594,51.906c-4.031,3.032 -8.124,5.969 -12.312,8.813l-3.313,2.281l-7.562,5.157Z" style="fill:#dbcdde;fill-rule:nonzero;"/><path d="M7839.42,2947.34c-58.594,-48.156 -202,29.469 -320.25,173.406c-118.251,143.938 -166.626,299.625 -108.001,347.782c58.594,48.187 202.001,-29.469 320.25,-173.376c118.251,-143.937 166.626,-299.656 108.001,-347.812Z" style="fill:#2946fb;fill-rule:nonzero;"/><path d="M7827.7,2961.62c-49.813,-40.937 -179.938,35.125 -290.656,169.875c-110.719,134.75 -160.094,277.125 -110.282,318.063c49.813,40.937 179.938,-35.125 290.656,-169.875c110.688,-134.75 160.094,-277.156 110.282,-318.063Z" style="fill:#1a2982;fill-rule:nonzero;"/><path d="M7625.77,3374.59c0.031,-0.031 0.062,-0.063 0.093,-0.094c-0.031,0.031 -0.062,0.063 -0.093,0.094Zm0.625,-0.563c0.062,-0.031 0.093,-0.093 0.125,-0.124c-0.032,0.031 -0.063,0.093 -0.125,0.124Zm0.624,-0.531c0.032,-0.062 0.094,-0.094 0.157,-0.156c-0.063,0.062 -0.125,0.094 -0.157,0.156Zm0.782,-0.687c0.031,-0.031 0.062,-0.063 0.125,-0.094c-0.063,0.031 -0.094,0.063 -0.125,0.094Zm0.593,-0.531c0.094,-0.063 0.157,-0.157 0.25,-0.219c-0.093,0.062 -0.156,0.156 -0.25,0.219Zm0.625,-0.532c0.063,-0.093 0.156,-0.156 0.25,-0.25c-0.094,0.094 -0.187,0.157 -0.25,0.25Zm0.563,-0.531c0.125,-0.094 0.218,-0.188 0.312,-0.281c-0.094,0.093 -0.187,0.187 -0.312,0.281Zm0.688,-0.594c0.093,-0.062 0.156,-0.125 0.218,-0.187c-0.062,0.062 -0.125,0.125 -0.218,0.187Zm0.781,-0.687c0.125,-0.125 0.281,-0.25 0.406,-0.344c-0.156,0.125 -0.281,0.219 -0.406,0.344Zm0.593,-0.532c0.157,-0.124 0.282,-0.249 0.407,-0.375c-0.125,0.126 -0.25,0.251 -0.407,0.375Zm0.563,-0.499c0.156,-0.125 0.312,-0.282 0.469,-0.407c-0.157,0.125 -0.313,0.282 -0.469,0.407Zm0.531,-0.469c0.719,-0.625 1.406,-1.25 2.094,-1.875c-0.688,0.625 -1.406,1.25 -2.094,1.875Zm2.156,-1.938c0.188,-0.156 0.344,-0.312 0.531,-0.468c-0.187,0.156 -0.343,0.312 -0.531,0.468Zm0.531,-0.5c25.876,-23.312 52.001,-50.406 77.188,-80.5c-25.187,30.125 -51.312,57.188 -77.188,80.5Zm77.219,-80.562c0.156,-0.156 0.282,-0.344 0.438,-0.531c-0.156,0.187 -0.282,0.343 -0.438,0.531Zm0.626,-0.75c0.124,-0.156 0.249,-0.313 0.406,-0.469c-0.126,0.156 -0.282,0.313 -0.406,0.469Zm0.531,-0.625c0.437,-0.532 0.875,-1.063 1.343,-1.594c-0.468,0.531 -0.906,1.062 -1.343,1.594Zm1.562,-1.875c0.094,-0.125 0.219,-0.25 0.313,-0.406c-0.094,0.156 -0.219,0.281 -0.313,0.406Zm0.562,-0.688c0.094,-0.125 0.219,-0.281 0.345,-0.406c-0.126,0.125 -0.219,0.25 -0.345,0.406Zm0.657,-0.781c0.062,-0.094 0.156,-0.219 0.25,-0.313c-0.094,0.094 -0.188,0.188 -0.25,0.313Zm0.843,-1.031c43.219,-52.625 77.126,-106.407 99.376,-154.875c-22.25,48.468 -56.157,102.25 -99.376,154.875Zm99.407,-154.938c0.094,-0.219 0.219,-0.437 0.313,-0.656c-0.094,0.219 -0.219,0.437 -0.313,0.656Zm0.344,-0.719c0.093,-0.218 0.187,-0.437 0.281,-0.656c-0.094,0.219 -0.188,0.438 -0.281,0.656Zm0.343,-0.75c0.094,-0.218 0.188,-0.437 0.282,-0.624c-0.094,0.187 -0.188,0.406 -0.282,0.624Zm0.313,-0.718c0.094,-0.219 0.188,-0.407 0.281,-0.625c-0.093,0.187 -0.187,0.406 -0.281,0.625Zm0.343,-0.75c0.094,-0.188 0.188,-0.407 0.282,-0.594c-0.094,0.187 -0.188,0.406 -0.282,0.594Zm0.313,-0.719c0.094,-0.188 0.188,-0.406 0.282,-0.594c-0.094,0.219 -0.188,0.406 -0.282,0.594Zm0.344,-0.75c0.093,-0.188 0.187,-0.375 0.25,-0.563c-0.063,0.188 -0.157,0.375 -0.25,0.563Zm0.312,-0.719c0.094,-0.187 0.188,-0.375 0.251,-0.531c-0.063,0.156 -0.157,0.344 -0.251,0.531Zm0.344,-0.75c0.094,-0.156 0.156,-0.343 0.219,-0.5c-0.063,0.157 -0.156,0.344 -0.219,0.5Zm0.312,-0.718c0.094,-0.157 0.157,-0.313 0.219,-0.5c-0.062,0.156 -0.125,0.343 -0.219,0.5Zm0.345,-0.751c0.062,-0.156 0.125,-0.312 0.187,-0.468c-0.062,0.156 -0.125,0.312 -0.187,0.468Zm0.312,-0.687c0.062,-0.156 0.125,-0.312 0.187,-0.469c-0.062,0.157 -0.125,0.313 -0.187,0.469Zm0.312,-0.75c0.063,-0.156 0.126,-0.281 0.188,-0.438c-0.062,0.157 -0.125,0.282 -0.188,0.438Zm0.313,-0.719c0.063,-0.125 0.125,-0.281 0.187,-0.437c-0.062,0.156 -0.124,0.312 -0.187,0.437Zm0.312,-0.718c0.063,-0.126 0.125,-0.282 0.188,-0.407c-0.063,0.125 -0.125,0.25 -0.188,0.407Zm0.313,-0.75c0.063,-0.126 0.125,-0.251 0.156,-0.375c-0.031,0.124 -0.093,0.249 -0.156,0.375Zm0.312,-0.719c0.063,-0.125 0.125,-0.25 0.156,-0.344c-0.031,0.094 -0.093,0.219 -0.156,0.344Zm0.313,-0.719c0.062,-0.094 0.094,-0.219 0.156,-0.344c-0.062,0.125 -0.094,0.219 -0.156,0.344Zm0.313,-0.688c0.031,-0.125 0.093,-0.249 0.155,-0.375c-0.062,0.126 -0.124,0.25 -0.155,0.375Zm0.28,-0.718c0.063,-0.125 0.094,-0.25 0.157,-0.375c-0.063,0.125 -0.094,0.25 -0.157,0.375Zm0.313,-0.719c0.032,-0.125 0.094,-0.25 0.157,-0.344c-0.063,0.125 -0.125,0.219 -0.157,0.344Zm0.281,-0.719c0.063,-0.093 0.125,-0.219 0.156,-0.343c-0.031,0.124 -0.093,0.25 -0.156,0.343Zm0.313,-0.687c0.031,-0.125 0.094,-0.25 0.156,-0.375c-0.062,0.125 -0.125,0.25 -0.156,0.375Zm0.281,-0.719c0.063,-0.094 0.094,-0.219 0.157,-0.344c-0.063,0.125 -0.094,0.219 -0.157,0.344Zm0.312,-0.75c0.032,-0.094 0.094,-0.187 0.126,-0.281c-0.032,0.094 -0.094,0.187 -0.126,0.281Zm0.282,-0.687c0.031,-0.094 0.094,-0.188 0.125,-0.282c-0.031,0.094 -0.063,0.188 -0.125,0.282Zm0.313,-0.719c0.031,-0.094 0.062,-0.188 0.093,-0.281c-0.031,0.093 -0.062,0.187 -0.093,0.281Zm0.28,-0.688c0.032,-0.093 0.063,-0.187 0.094,-0.281c-0.031,0.094 -0.062,0.188 -0.094,0.281Zm0.282,-0.75c0.031,-0.062 0.063,-0.156 0.094,-0.219c-0.031,0.094 -0.063,0.157 -0.094,0.219Zm0.281,-0.687c0.031,-0.094 0.062,-0.156 0.094,-0.219c-0.032,0.063 -0.063,0.125 -0.094,0.219Zm0.281,-0.688c0.032,-0.094 0.063,-0.187 0.094,-0.25c-0.031,0.094 -0.062,0.156 -0.094,0.25Zm0.282,-0.687c0.031,-0.094 0.062,-0.188 0.094,-0.25c-0.032,0.062 -0.063,0.156 -0.094,0.25Zm0.281,-0.719c0.031,-0.094 0.062,-0.156 0.093,-0.219c-0.031,0.063 -0.062,0.125 -0.093,0.219Zm0.281,-0.688c0.031,-0.093 0.063,-0.156 0.094,-0.249c-0.031,0.093 -0.063,0.156 -0.094,0.249Zm0.282,-0.718c0.031,-0.063 0.031,-0.125 0.062,-0.219c0,0.063 -0.031,0.156 -0.062,0.219Zm0.249,-0.656c0.031,-0.094 0.063,-0.188 0.094,-0.25c-0.031,0.062 -0.063,0.156 -0.094,0.25Zm0.282,-0.719c0.031,-0.094 0.062,-0.157 0.093,-0.25c-0.031,0.093 -0.062,0.156 -0.093,0.25Zm0.25,-0.688c0.031,-0.062 0.094,-0.156 0.125,-0.25c-0.063,0.094 -0.094,0.188 -0.125,0.25Zm0.281,-0.687c0.031,-0.094 0.062,-0.188 0.093,-0.281c-0.031,0.093 -0.062,0.187 -0.093,0.281Zm0.25,-0.688c0.031,-0.062 0.062,-0.156 0.094,-0.25c-0.032,0.094 -0.063,0.188 -0.094,0.25Zm0.281,-0.718c0.032,-0.063 0.063,-0.126 0.094,-0.188c-0.031,0.062 -0.062,0.125 -0.094,0.188Zm0.25,-0.688c0.031,-0.062 0.062,-0.156 0.094,-0.219c-0.032,0.094 -0.063,0.157 -0.094,0.219Zm0.281,-0.688c0.032,-0.062 0.032,-0.156 0.063,-0.218c-0.031,0.062 -0.031,0.156 -0.063,0.218Zm0.251,-0.656c0.031,-0.094 0.062,-0.187 0.094,-0.25c-0.032,0.063 -0.063,0.156 -0.094,0.25Zm0.249,-0.718c0.031,-0.063 0.063,-0.126 0.094,-0.219c-0.031,0.093 -0.063,0.156 -0.094,0.219Zm0.25,-0.688c0.032,-0.062 0.063,-0.125 0.094,-0.219c-0.031,0.094 -0.062,0.157 -0.094,0.219Zm0.251,-0.688c0.031,-0.062 0.062,-0.124 0.093,-0.218c-0.031,0.094 -0.062,0.156 -0.093,0.218Zm0.249,-0.656c0.031,-0.094 0.063,-0.156 0.094,-0.25c-0.031,0.094 -0.063,0.156 -0.094,0.25Zm0.25,-0.687c0.032,-0.094 0.063,-0.157 0.094,-0.219c-0.031,0.062 -0.062,0.125 -0.094,0.219Zm0.251,-0.688c0.031,-0.062 0.062,-0.156 0.093,-0.25c-0.031,0.094 -0.062,0.188 -0.093,0.25Zm0.249,-0.656c0.031,-0.094 0.063,-0.187 0.094,-0.281c-0.031,0.094 -0.063,0.187 -0.094,0.281Zm0.219,-0.656c0.031,-0.094 0.094,-0.219 0.125,-0.313c-0.062,0.125 -0.094,0.188 -0.125,0.313Zm0.25,-0.719c0.032,-0.094 0.063,-0.156 0.094,-0.25c-0.031,0.094 -0.062,0.156 -0.094,0.25Zm0.25,-0.656c0.031,-0.094 0.062,-0.188 0.094,-0.282c-0.032,0.094 -0.063,0.188 -0.094,0.282Zm0.219,-0.688c0.031,-0.094 0.094,-0.187 0.125,-0.281c-0.031,0.094 -0.094,0.187 -0.125,0.281Zm0.25,-0.656c0,-0.031 0.031,-0.094 0.031,-0.125c0,0.031 -0.031,0.094 -0.031,0.125Z" style="fill:#2338da;fill-rule:nonzero;"/><path d="M7549.58,3430.31c-3.407,-1.281 -6.532,-2.969 -9.281,-5.25c-35.469,-29.125 -0.313,-130.5 78.5,-226.407c64.343,-78.343 137.937,-128.812 182.062,-128.812c9.907,0 18.313,2.563 24.813,7.906c2.749,2.25 5.031,5 6.937,8.094c0,0.031 -0.031,0.094 -0.031,0.125c-0.063,0.125 -0.094,0.25 -0.125,0.375c-0.031,0.094 -0.094,0.187 -0.125,0.281c-0.032,0.157 -0.094,0.282 -0.125,0.406c-0.032,0.094 -0.063,0.188 -0.094,0.282c-0.062,0.125 -0.093,0.281 -0.156,0.406c-0.031,0.094 -0.062,0.156 -0.094,0.25c-0.031,0.156 -0.094,0.281 -0.125,0.406c-0.031,0.094 -0.094,0.219 -0.125,0.313c-0.031,0.125 -0.094,0.25 -0.125,0.375c-0.031,0.094 -0.063,0.187 -0.094,0.281c-0.062,0.125 -0.124,0.281 -0.156,0.406c-0.031,0.094 -0.062,0.188 -0.093,0.25c-0.063,0.156 -0.094,0.313 -0.157,0.469c-0.031,0.062 -0.062,0.125 -0.094,0.219c-0.062,0.125 -0.093,0.281 -0.156,0.437c-0.031,0.094 -0.063,0.156 -0.094,0.25c-0.062,0.157 -0.094,0.313 -0.156,0.438c-0.031,0.094 -0.062,0.156 -0.093,0.218c-0.063,0.157 -0.094,0.313 -0.157,0.469c-0.031,0.094 -0.062,0.157 -0.094,0.219c-0.062,0.156 -0.125,0.313 -0.156,0.469c-0.031,0.093 -0.063,0.156 -0.094,0.219c-0.062,0.156 -0.094,0.312 -0.155,0.468c-0.032,0.063 -0.063,0.156 -0.094,0.25c-0.063,0.125 -0.125,0.281 -0.188,0.438c-0.031,0.062 -0.031,0.156 -0.063,0.218c-0.062,0.157 -0.125,0.313 -0.187,0.469c-0.032,0.063 -0.063,0.157 -0.094,0.219c-0.063,0.156 -0.125,0.313 -0.156,0.5c-0.031,0.062 -0.062,0.125 -0.094,0.188c-0.062,0.156 -0.125,0.312 -0.187,0.468c-0.032,0.094 -0.063,0.188 -0.094,0.25c-0.031,0.157 -0.094,0.281 -0.157,0.407c-0.031,0.093 -0.062,0.187 -0.093,0.281c-0.063,0.156 -0.125,0.281 -0.156,0.437c-0.031,0.094 -0.094,0.188 -0.125,0.25c-0.063,0.156 -0.094,0.313 -0.157,0.438c-0.031,0.093 -0.062,0.156 -0.093,0.25c-0.063,0.156 -0.125,0.312 -0.188,0.469c-0.031,0.062 -0.063,0.156 -0.094,0.25c-0.062,0.125 -0.124,0.281 -0.187,0.437c-0.031,0.094 -0.031,0.156 -0.062,0.219c-0.063,0.156 -0.125,0.312 -0.188,0.469c-0.031,0.093 -0.063,0.156 -0.094,0.249c-0.062,0.157 -0.125,0.313 -0.188,0.469c-0.031,0.063 -0.062,0.125 -0.093,0.219c-0.063,0.156 -0.125,0.313 -0.187,0.469c-0.032,0.062 -0.063,0.156 -0.094,0.25c-0.063,0.156 -0.125,0.281 -0.188,0.437c-0.031,0.063 -0.062,0.156 -0.094,0.25c-0.062,0.157 -0.125,0.313 -0.187,0.469c-0.032,0.063 -0.063,0.125 -0.094,0.219c-0.062,0.156 -0.125,0.312 -0.187,0.468c-0.031,0.063 -0.063,0.157 -0.094,0.219c-0.063,0.156 -0.125,0.313 -0.188,0.469c-0.031,0.094 -0.062,0.188 -0.094,0.281c-0.062,0.125 -0.125,0.282 -0.187,0.407c-0.031,0.093 -0.062,0.187 -0.093,0.281c-0.063,0.156 -0.125,0.281 -0.188,0.437c-0.031,0.094 -0.094,0.188 -0.125,0.282c-0.063,0.156 -0.094,0.281 -0.156,0.406c-0.032,0.094 -0.094,0.187 -0.126,0.281c-0.062,0.156 -0.125,0.281 -0.155,0.406c-0.063,0.125 -0.094,0.25 -0.157,0.344c-0.031,0.125 -0.093,0.25 -0.125,0.344c-0.062,0.125 -0.125,0.25 -0.156,0.375c-0.063,0.093 -0.094,0.219 -0.157,0.344c-0.031,0.124 -0.093,0.25 -0.156,0.343c-0.03,0.125 -0.093,0.25 -0.124,0.375c-0.063,0.094 -0.125,0.219 -0.157,0.344c-0.062,0.125 -0.094,0.219 -0.156,0.344c-0.063,0.125 -0.094,0.25 -0.157,0.375c-0.031,0.125 -0.093,0.218 -0.125,0.343c-0.062,0.126 -0.124,0.25 -0.155,0.375c-0.063,0.094 -0.125,0.219 -0.157,0.344c-0.062,0.125 -0.094,0.25 -0.156,0.344c-0.063,0.125 -0.094,0.25 -0.157,0.375c-0.031,0.094 -0.093,0.219 -0.156,0.344c-0.031,0.125 -0.093,0.25 -0.156,0.344c-0.031,0.124 -0.093,0.249 -0.156,0.375c-0.031,0.124 -0.094,0.218 -0.125,0.343c-0.063,0.125 -0.125,0.281 -0.188,0.407c-0.031,0.093 -0.094,0.187 -0.125,0.281c-0.062,0.156 -0.124,0.312 -0.187,0.437c-0.031,0.094 -0.062,0.188 -0.125,0.281c-0.062,0.157 -0.125,0.282 -0.188,0.438c-0.031,0.094 -0.062,0.188 -0.125,0.281c-0.062,0.157 -0.125,0.313 -0.187,0.469c-0.032,0.062 -0.063,0.156 -0.125,0.219c-0.062,0.156 -0.125,0.312 -0.187,0.468c-0.032,0.094 -0.094,0.188 -0.126,0.251c-0.062,0.187 -0.125,0.343 -0.219,0.5c-0.031,0.062 -0.062,0.124 -0.093,0.218c-0.063,0.157 -0.125,0.344 -0.219,0.5c-0.031,0.063 -0.062,0.125 -0.093,0.219c-0.063,0.156 -0.157,0.344 -0.251,0.531c0,0.063 -0.031,0.125 -0.062,0.156c-0.063,0.188 -0.157,0.375 -0.25,0.563c-0.031,0.063 -0.031,0.094 -0.062,0.156c-0.094,0.188 -0.188,0.406 -0.282,0.594c0,0.031 -0.031,0.094 -0.031,0.125c-0.094,0.187 -0.188,0.406 -0.282,0.594c-0.031,0.031 -0.031,0.094 -0.062,0.125c-0.093,0.218 -0.187,0.406 -0.281,0.625c0,0.031 -0.031,0.062 -0.031,0.094c-0.094,0.187 -0.188,0.406 -0.282,0.624c-0.031,0.032 -0.031,0.063 -0.062,0.094c-0.094,0.219 -0.188,0.438 -0.281,0.656c-0.031,0.032 -0.031,0.032 -0.031,0.063c-0.094,0.219 -0.219,0.437 -0.313,0.656c0,0.032 0,0.032 -0.031,0.063c-22.25,48.468 -56.157,102.25 -99.376,154.875c-0.218,0.25 -0.405,0.469 -0.593,0.718c-0.094,0.094 -0.188,0.219 -0.25,0.313c-0.125,0.125 -0.219,0.25 -0.312,0.375c-0.126,0.125 -0.251,0.281 -0.345,0.406c-0.093,0.094 -0.156,0.188 -0.249,0.282c-0.094,0.156 -0.219,0.281 -0.313,0.406c-0.094,0.093 -0.156,0.187 -0.219,0.281c-0.468,0.531 -0.906,1.062 -1.343,1.594c-0.063,0.062 -0.094,0.094 -0.125,0.156c-0.157,0.156 -0.282,0.313 -0.406,0.469c-0.063,0.094 -0.125,0.156 -0.188,0.219c-0.156,0.187 -0.282,0.375 -0.438,0.531c0,0 -0.031,0.031 -0.031,0.062c-25.187,30.094 -51.312,57.188 -77.188,80.5l0,0.032c-0.187,0.156 -0.343,0.312 -0.531,0.468c0,0.032 -0.031,0.032 -0.062,0.063c-0.688,0.625 -1.375,1.25 -2.094,1.875c-0.031,0 -0.031,0.031 -0.062,0.062c-0.157,0.125 -0.313,0.282 -0.469,0.407c-0.032,0.031 -0.094,0.093 -0.156,0.124c-0.125,0.126 -0.25,0.251 -0.407,0.375c-0.062,0.063 -0.125,0.126 -0.187,0.188c-0.125,0.094 -0.281,0.219 -0.406,0.344c-0.188,0.156 -0.376,0.343 -0.563,0.5c-0.062,0.062 -0.125,0.125 -0.218,0.187c-0.126,0.094 -0.251,0.219 -0.376,0.313c-0.094,0.093 -0.187,0.187 -0.312,0.281c-0.094,0.094 -0.188,0.187 -0.313,0.281c-0.094,0.094 -0.187,0.157 -0.25,0.25c-0.124,0.094 -0.249,0.219 -0.375,0.313c-0.093,0.062 -0.156,0.156 -0.25,0.219c-0.156,0.125 -0.312,0.281 -0.468,0.437c-0.063,0.031 -0.094,0.063 -0.125,0.094c-0.219,0.187 -0.406,0.344 -0.625,0.531c-0.063,0.062 -0.125,0.094 -0.157,0.156c-0.187,0.125 -0.344,0.281 -0.499,0.407c-0.032,0.031 -0.063,0.093 -0.125,0.124c-0.157,0.157 -0.345,0.313 -0.532,0.469c-0.031,0.031 -0.062,0.063 -0.093,0.094c-26.188,22.719 -52.001,41.531 -76.188,55.719Z" style="fill:#162171;fill-rule:nonzero;"/><path d="M8244.73,3579.44l-109.844,-90.25l-2.843,6.969c-24.813,60.593 -66.657,112.374 -120.719,149.312l-11.094,7.594l109.844,90.25c35.219,28.906 86.312,24.875 114.188,-9l33.749,-41.125c27.876,-33.907 21.906,-84.813 -13.281,-113.75Z" style="fill:#003e61;fill-rule:nonzero;"/><path d="M8000.23,3653.03l36.532,30.032l27.875,22.937l45.468,37.344c35.157,28.875 86.281,24.875 114.157,-9.031l33.749,-41.156c27.876,-33.844 21.906,-84.813 -13.25,-113.688l-50.156,-41.25l-25.187,-20.656l-34.563,-28.344l-2.781,6.938c-24.844,60.562 -66.688,112.374 -120.75,149.312l-11.094,7.562Z" style="fill:#8fc0fa;fill-rule:nonzero;"/><path d="M8036.77,3683.06l27.875,22.937c55.531,-45.343 99.874,-102.562 129.968,-167.781l-25.187,-20.656c-31.094,64.625 -76.406,121.093 -132.656,165.5Z" style="fill:#2946fb;fill-rule:nonzero;"/><path d="M7603.55,3186.12c-16.438,20.031 -18.032,48.906 -4,73.063l52.812,91.031c21.937,-21.094 43.844,-44.719 65.062,-70.531c21.188,-25.813 40.126,-51.875 56.563,-77.469l-99.563,-34.187c-26.406,-9.063 -54.437,-1.907 -70.874,18.093Z" style="fill:#d30f00;fill-rule:nonzero;"/><path d="M7634.05,3211.19c-14.907,18.093 -33.782,27.187 -42.219,20.25c-8.406,-6.907 -3.156,-27.188 11.719,-45.313c14.875,-18.093 33.781,-27.187 42.187,-20.25c8.406,6.907 3.188,27.188 -11.687,45.313Z" style="fill:#fff;fill-rule:nonzero;"/><path d="M8144.52,3760.44c-11.125,-2.625 -21.907,-7.563 -31.626,-14.907c9.719,7.344 20.501,12.282 31.626,14.907Z" style="fill:#213bdc;fill-rule:nonzero;"/><path d="M8163.48,3762.62l0.125,0l-0.125,0Zm-0.094,0c-6.312,0 -12.656,-0.718 -18.874,-2.187c6.218,1.469 12.562,2.187 18.874,2.187Z" style="fill:#2031be;fill-rule:nonzero;"/><path d="M8023.64,3636.66c20.188,-15.25 38.438,-32.718 54.594,-51.906c0.062,0.032 0.125,0.032 0.187,0.063c-16.187,19.219 -34.531,36.593 -54.781,51.843Z" style="fill:#afaec2;fill-rule:nonzero;"/><path d="M8011.92,3645.09c3.969,-2.75 7.875,-5.562 11.719,-8.438c20.25,-15.25 38.594,-32.624 54.781,-51.843c-19.249,22.875 -41.562,43.156 -66.5,60.281Z" style="fill:#003555;fill-rule:nonzero;"/><path d="M8163.61,3762.62l-0.219,0c-6.312,0 -12.656,-0.718 -18.874,-2.187c-11.125,-2.625 -21.907,-7.563 -31.626,-14.907c-0.75,-0.562 -1.5,-1.156 -2.25,-1.749c-0.187,-0.157 -0.344,-0.282 -0.531,-0.438l-45.468,-37.344c30.905,-25.25 58.374,-54.187 81.812,-86.125c38.812,22.281 78.687,46.813 118.937,62.438c-2.124,3.75 -4.531,7.406 -7.375,10.844l-16.093,19.656l-17.656,21.5c-0.219,0.281 -0.469,0.562 -0.688,0.844c-0.032,0.031 -0.093,0.093 -0.125,0.156c-0.125,0.125 -0.219,0.218 -0.313,0.344c-15.312,17.781 -37.187,26.937 -59.531,26.968Zm-126.843,-79.562l-36.532,-30.032l11.094,-7.562c0.219,-0.125 0.406,-0.25 0.593,-0.375c24.938,-17.125 47.251,-37.406 66.5,-60.281c12.469,5.25 25.126,11.5 37.907,18.281c-23.157,29.656 -49.813,56.5 -79.562,79.969Z" style="fill:#72a3db;fill-rule:nonzero;"/><path d="M8064.64,3706l-27.875,-22.937c29.749,-23.469 56.405,-50.313 79.562,-79.969c9.969,5.312 20,10.969 30.125,16.781c-23.438,31.938 -50.907,60.875 -81.812,86.125Z" style="fill:#213bdc;fill-rule:nonzero;"/><path d="M7413.86,2595.56c6.813,5.937 13,12.218 19.031,18.594c6.032,6.374 11.75,12.906 17.375,19.5c11.157,13.218 21.688,26.781 31.626,40.687c19.905,27.75 37.687,56.656 53.937,86.406c16.219,29.781 30.843,60.407 43.375,92.188c6.312,15.875 11.969,32.093 17,48.625c2.468,8.312 4.875,16.656 6.906,25.187c2.094,8.532 4,17.157 5.282,26.094c-6.813,-5.937 -13.031,-12.219 -19.032,-18.594c-6.062,-6.343 -11.781,-12.875 -17.406,-19.469c-11.187,-13.218 -21.719,-26.781 -31.625,-40.687c-19.907,-27.75 -37.688,-56.656 -53.906,-86.437c-16.156,-29.813 -30.782,-60.438 -43.282,-92.219c-6.312,-15.875 -11.968,-32.094 -17.031,-48.657c-2.469,-8.281 -4.875,-16.624 -6.937,-25.156c-2.094,-8.531 -4,-17.125 -5.313,-26.062Z" style="fill:#20288a;fill-rule:nonzero;"/><path d="M7481.45,3072.5c-9.156,-3.531 -17.875,-7.562 -26.469,-11.781c-8.625,-4.188 -17,-8.656 -25.343,-13.188c-16.563,-9.187 -32.657,-18.937 -48.344,-29.187c-31.375,-20.5 -61.219,-42.844 -89.969,-66.531c-28.688,-23.719 -56.25,-48.813 -82.281,-75.782c-13.031,-13.437 -25.625,-27.437 -37.751,-41.999c-6.031,-7.313 -11.999,-14.719 -17.718,-22.407c-5.75,-7.656 -11.343,-15.468 -16.531,-23.812c9.187,3.5 17.906,7.531 26.531,11.75c8.625,4.156 17,8.625 25.344,13.187c16.562,9.157 32.687,18.875 48.343,29.157c31.376,20.499 61.22,42.843 89.907,66.562c28.656,23.781 56.219,48.875 82.25,75.844c13.031,13.469 25.625,27.469 37.749,42c6.032,7.312 12.001,14.719 17.75,22.375c5.751,7.656 11.344,15.469 16.532,23.812Z" style="fill:#20288a;fill-rule:nonzero;"/><path d="M7383.92,3224.38c-9.344,-0.5 -18.406,-1.656 -27.407,-2.969c-8.999,-1.312 -17.875,-2.968 -26.687,-4.687c-17.625,-3.594 -34.938,-7.813 -52,-12.687c-34.156,-9.719 -67.407,-21.626 -99.938,-35.157c-32.562,-13.562 -64.406,-28.812 -95.312,-46.25c-15.469,-8.687 -30.688,-18.031 -45.594,-28.031c-7.437,-5.062 -14.844,-10.219 -22.125,-15.719c-7.25,-5.437 -14.437,-11.125 -21.375,-17.406c9.344,0.5 18.437,1.625 27.438,2.937c8.999,1.313 17.875,2.938 26.687,4.657c17.625,3.594 34.938,7.812 52,12.687c34.156,9.719 67.407,21.625 99.938,35.219c32.5,13.625 64.344,28.875 95.249,46.313c15.5,8.718 30.688,18.062 45.626,28.062c7.437,5.031 14.844,10.187 22.094,15.656c7.28,5.469 14.468,11.094 21.406,17.375Z" style="fill:#20288a;fill-rule:nonzero;"/></svg>