<?xml version="1.0" encoding="UTF-8" standalone="no"?><!DOCTYPE svg PUBLIC "-//W3C//DTD SVG 1.1//EN" "http://www.w3.org/Graphics/SVG/1.1/DTD/svg11.dtd"><svg width="100%" height="100%" viewBox="0 0 9828 7500" version="1.1" xmlns="http://www.w3.org/2000/svg" xmlns:xlink="http://www.w3.org/1999/xlink" xml:space="preserve" xmlns:serif="http://www.serif.com/" style="fill-rule:evenodd;clip-rule:evenodd;stroke-miterlimit:2;"><path d="M2279.69,1743.61c0,0 1354.97,-85.578 1719.03,-858.088c364.063,-772.506 -2244.41,-1424.48 -2595.53,-220.644c-351.157,1203.84 876.5,1078.73 876.5,1078.73Z" style="fill:#eef2f9;fill-rule:nonzero;"/><path d="M6202.85,7426.84c0,0 3569.53,-185.156 3286.19,-3936c-283.343,-3750.88 -3970.47,-3715.4 -5172.69,-2278.06c-1202.19,1437.34 -3970.63,692.825 -3843.74,3349.87c126.891,2657.06 3816.68,3154.25 5730.24,2864.19Z" style="fill:#eef2f9;fill-rule:nonzero;"/><path d="M6586.53,2476.84l-1144.81,0c-15.469,0 -28.125,-12.656 -28.125,-28.125l0,-396.219c0,-15.468 12.656,-28.125 28.125,-28.125l1144.81,0c15.469,0 28.125,12.657 28.125,28.125l0,396.219c0,15.469 -12.656,28.125 -28.125,28.125Z" style="fill:#357efc;fill-rule:nonzero;"/><path d="M7094.22,1362.93l0,3122.1c0,152.75 -124.969,277.782 -277.781,277.782l-1239.41,0c-61.375,86.062 -38.75,304.719 -38.75,304.719c-93.687,-132.438 -151.812,-304.719 -151.812,-304.719l-3452.66,0c-152.781,0 -277.781,-125.032 -277.781,-277.782l0,-3122.1c0,-152.758 125,-277.746 277.781,-277.746l4882.63,0c152.812,0 277.781,124.988 277.781,277.746Z" style="fill:#fff;fill-rule:nonzero;"/><path d="M7109.85,1362.93l-31.25,0l0,3122.1c0,72.063 -29.438,137.532 -77.031,185.125c-47.563,47.563 -113.031,77.032 -185.125,77.032l-1247.47,0l-4.656,6.562c-10.032,14.063 -17.657,30.563 -23.688,48.438c-9.032,26.812 -14.438,56.875 -17.718,87c-3.251,30.125 -4.345,60.281 -4.345,87.094c0.032,52.687 4.126,92.5 4.157,92.843l15.562,-1.593l12.751,-9.032c-45.907,-64.844 -83.532,-140.25 -109.501,-199.281c-12.969,-29.531 -23.094,-54.937 -29.906,-72.969c-3.438,-9 -6.031,-16.156 -7.781,-21.031c-0.844,-2.438 -1.5,-4.312 -1.938,-5.563c-0.218,-0.624 -0.375,-1.093 -0.5,-1.406l-0.125,-0.343l-0.031,-0.094l-3.562,-10.625l-3463.88,0c-72.093,0 -137.562,-29.469 -185.125,-77.032c-47.593,-47.593 -77.031,-113.062 -77.031,-185.125l0,-3122.1c0,-72.068 29.438,-137.528 77.031,-185.108c47.563,-47.557 113.032,-77.007 185.125,-77.01l4882.63,0c72.094,0.003 137.562,29.453 185.125,77.01c47.593,47.58 77.031,113.034 77.031,185.108l31.25,0c0,-80.687 -33.031,-154.103 -86.156,-207.206c-53.125,-53.125 -126.531,-86.165 -207.25,-86.162l-4882.63,0c-80.687,-0.003 -154.124,33.037 -207.218,86.159c-53.156,53.103 -86.219,126.522 -86.188,207.209l0,3122.1c-0.031,80.688 33.032,154.126 86.157,207.219c53.125,53.125 126.562,86.188 207.249,86.188l3452.66,0l0,-15.625l-14.813,5c0.094,0.312 14.781,43.781 41.281,104c26.531,60.219 64.813,137.156 112.563,204.719l34.437,48.687l-6.124,-59.313l0,-0.062c-0.219,-2 -4.001,-40.062 -4.001,-89.562c0,-34.626 1.876,-74.907 7.969,-112.031c3.031,-18.532 7.125,-36.313 12.469,-52.094c5.281,-15.782 11.844,-29.563 19.5,-40.282l-12.719,-9.062l0,15.625l1239.41,0c80.719,0 154.125,-33.063 207.25,-86.188c53.125,-53.093 86.156,-126.531 86.156,-207.219l0,-3122.1Z" style="fill:#193edd;fill-rule:nonzero;"/><rect x="3097.16" y="849.639" width="1964.84" height="1289.23" style="fill:#fff;fill-rule:nonzero;"/><path d="M5062,2138.87l0,-1.562l-1963.28,0l0,-1286.11l1961.72,0l0,1287.67l1.562,0l0,-1.562l0,1.562l1.563,0l0,-1290.8l-1967.97,0l0,1292.36l1967.97,0l0,-1.563l-1.563,0Z" style="fill:#586aba;fill-rule:nonzero;"/><path d="M4902.5,1059.81l-695.218,0c-10.157,0 -18.47,-8.307 -18.47,-18.463l0,-3.362c0,-10.153 8.313,-18.462 18.47,-18.462l695.218,0c10.157,0 18.469,8.309 18.469,18.462l0,3.362c0,10.156 -8.312,18.463 -18.469,18.463Z" style="fill:#a4c5fe;fill-rule:nonzero;"/><path d="M4902.5,1135.75l-695.218,0c-10.157,0 -18.47,-8.312 -18.47,-18.468l0,-3.357c0,-10.156 8.313,-18.469 18.47,-18.469l695.218,0c10.157,0 18.469,8.313 18.469,18.469l0,3.357c0,10.156 -8.312,18.468 -18.469,18.468Z" style="fill:#cbdefe;fill-rule:nonzero;"/><path d="M4685.03,1211.67l-477.749,0c-10.157,0 -18.47,-8.31 -18.47,-18.467l0,-3.356c0,-10.156 8.313,-18.465 18.47,-18.465l477.749,0c10.156,0 18.469,8.309 18.469,18.465l0,3.356c0,10.157 -8.313,18.467 -18.469,18.467Z" style="fill:#ccdffe;fill-rule:nonzero;"/><path d="M3475.25,1658.32l-251.031,0l0,-645.978l868.781,0l0,481.994l-108.562,0c-223.751,0 -402.407,-0.019 -434.907,-0.081l-0.187,0c-83.375,0 -74.094,117.765 -74.094,117.765l0,46.3Z" style="fill:#ccdffe;fill-rule:nonzero;"/><rect x="3475.25" y="1658.32" width="48.031" height="478.99" style="fill:#ededed;fill-rule:nonzero;"/><rect x="3475.25" y="2137.31" width="48.031" height="1.563" style="fill:#5263ad;fill-rule:nonzero;"/><path d="M5059.94,1548.48l-966.937,0l0,-54.14c433.875,-0.012 966.937,-0.081 966.937,-0.081l0,54.221Z" style="fill:#ededed;fill-rule:nonzero;"/><path d="M3523.28,1658.32l-48.031,0l0,-46.3c0,0 -9.281,-117.765 74.094,-117.765l0.187,0c32.5,0.062 211.156,0.081 434.907,0.081l108.562,0l0,54.14l-569.719,0l0,109.844Z" style="fill:#becfec;fill-rule:nonzero;"/><rect x="3524.85" y="1550.04" width="2349.12" height="2548.84" style="fill:#fff;fill-rule:nonzero;"/><path d="M5873.97,4098.87l0,-1.562l-2347.59,0l0,-2545.71l2346,0l0.031,2547.28l1.563,0l0,-1.562l0,1.562l1.562,0l0,-2550.4l-2352.25,0l0,2551.96l2352.25,0l0,-1.563l-1.562,0Z" style="fill:#586aba;fill-rule:nonzero;"/><path d="M3524.85,2950.84c0,0 550.062,478.813 801.094,613.625c251.03,134.813 720.562,41.844 934.406,-127.844c213.812,-169.687 613.625,-538.093 613.625,-538.093l0,828.624c0,0 -1280.47,522.251 -1525.81,435.469c-245.347,-86.812 -823.312,-654.718 -823.312,-654.718l0,-557.063Z" style="fill:#cecece;fill-rule:nonzero;"/><path d="M4886.03,2915.97l-1120.16,0c-6.437,0 -11.719,-5.25 -11.719,-11.687l0,-11.469c0,-6.438 5.282,-11.688 11.719,-11.688l1120.16,0c6.438,0 11.688,5.25 11.688,11.688l0,11.469c0,6.437 -5.25,11.687 -11.688,11.687Z" style="fill:#82affd;fill-rule:nonzero;"/><path d="M4886.03,3002.75l-1120.16,0c-6.437,0 -11.719,-5.25 -11.719,-11.718l0,-11.438c0,-6.437 5.282,-11.719 11.719,-11.719l1120.16,0c6.438,0 11.688,5.282 11.688,11.719l0,11.438c0,6.468 -5.25,11.718 -11.688,11.718Z" style="fill:#82affd;fill-rule:nonzero;"/><path d="M4886.03,3089.53l-1120.16,0c-6.437,0 -11.719,-5.282 -11.719,-11.719l0,-11.438c0,-6.437 5.282,-11.718 11.719,-11.718l1120.16,0c6.438,0 11.688,5.281 11.688,11.718l0,11.438c0,6.437 -5.25,11.719 -11.688,11.719Z" style="fill:#82affd;fill-rule:nonzero;"/><path d="M4886.03,3176.31l-1092.69,0c-12.531,-10.219 -24.844,-20.313 -36.844,-30.188c2.156,-2.843 5.563,-4.687 9.375,-4.687l1120.16,0c6.438,0 11.688,5.25 11.688,11.719l0,11.437c0,6.438 -5.25,11.719 -11.688,11.719Z" style="fill:#82affd;fill-rule:nonzero;"/><path d="M3793.35,3176.31l-27.469,0c-6.437,0 -11.719,-5.281 -11.719,-11.719l0,-11.437c0,-2.625 0.875,-5.063 2.344,-7.032c12,9.875 24.313,19.969 36.844,30.188Z" style="fill:#6f9ceb;fill-rule:nonzero;"/><path d="M4886.03,3263.06l-984.906,0c-14.687,-11.657 -29.281,-23.281 -43.687,-34.844l1028.59,0c6.438,0 11.688,5.25 11.688,11.688l0,11.468c0,6.438 -5.25,11.688 -11.688,11.688Z" style="fill:#82affd;fill-rule:nonzero;"/><path d="M3901.13,3263.06l-135.25,0c-6.437,0 -11.719,-5.25 -11.719,-11.688l0,-11.468c0,-6.438 5.282,-11.688 11.719,-11.688l91.563,0c14.406,11.563 29,23.187 43.687,34.844Z" style="fill:#6f9ceb;fill-rule:nonzero;"/><path d="M4886.03,3349.84l-873.625,0c-15.062,-11.5 -30.125,-23.125 -45.218,-34.844l918.843,0c6.438,0 11.688,5.25 11.688,11.688l0,11.468c0,6.438 -5.25,11.688 -11.688,11.688Z" style="fill:#82affd;fill-rule:nonzero;"/><path d="M4012.41,3349.84l-246.531,0c-6.437,0 -11.719,-5.25 -11.719,-11.688l0,-11.468c0,-6.438 5.282,-11.688 11.719,-11.688l201.313,0c15.093,11.719 30.156,23.344 45.218,34.844Z" style="fill:#6f9ceb;fill-rule:nonzero;"/><path d="M4886.03,3436.62l-756.937,0c-15.656,-11.281 -31.625,-22.937 -47.719,-34.874l804.656,0c6.438,0 11.688,5.281 11.688,11.718l0,11.469c0,6.437 -5.25,11.687 -11.688,11.687Z" style="fill:#82affd;fill-rule:nonzero;"/><path d="M4129.1,3436.62l-363.219,0c-6.437,0 -11.719,-5.25 -11.719,-11.687l0,-11.469c0,-6.437 5.282,-11.718 11.719,-11.718l315.5,0c16.094,11.937 32.063,23.593 47.719,34.874Z" style="fill:#6f9ceb;fill-rule:nonzero;"/><path d="M7420.16,4436.12c-4.374,63.062 -23.531,119.624 -57.406,161.062c0,0 -457.719,-362.157 -583.25,-374.031c-0.469,-0.032 -1,-0.094 -1.563,-0.125c-36.656,-3.375 -89.562,-5.844 -146.281,-7.625c-139.312,-4.344 -301.5,-4.594 -301.5,-4.594c0,0 1.219,-4.844 4.376,-13.25l0.156,-0.344c21.374,-56.469 129.562,-270.25 544.781,-290.406c356.656,-17.313 537.719,267.188 541.594,493.219c0.219,12.218 -0.063,24.281 -0.907,36.094Z" style="fill:#e32b2c;fill-rule:nonzero;"/><path d="M7420.16,4436.12c-4.374,63.062 -23.531,119.624 -57.406,161.062c0,0 -457.719,-362.157 -583.25,-374.031c-0.469,-0.032 -1,-0.094 -1.563,-0.125c-44.5,-2.938 -401.843,11.75 -458.625,9.969l15.22,-35.438l0.156,-0.344l8.5,-19.781c0,0 118.155,-167.594 422.406,-119.531c217.687,34.375 523.218,269.687 654.562,378.219Z" style="fill:#ae2020;fill-rule:nonzero;"/><path d="M7432.66,5643.09c-76.719,132.469 -562.5,134.813 -515.999,20.938c21.562,-52.813 10.125,-169.657 -8.345,-279.751l-0.031,-0.124c-5.687,-33.719 -11.968,-66.813 -18.218,-97.25c-17.25,-84.344 -33.844,-148.188 -33.844,-148.188c0,0 346.344,-383.5 346.344,-244.062c0,53.218 29.437,143.031 65.874,233.718c27.907,69.469 59.876,139.469 85.844,193.938c29,60.784 50.5,102.284 50.5,102.284c0,0 104.563,85.997 27.875,218.497Z" style="fill:#f6ba87;fill-rule:nonzero;"/><path d="M7268.44,5128.37c-57.718,145.75 -378.374,158.532 -378.374,158.532c-17.25,-84.344 -33.844,-148.188 -33.844,-148.188c0,0 346.344,-383.5 346.344,-244.062c0,53.218 29.437,143.031 65.874,233.718Z" style="fill:#f19655;fill-rule:nonzero;"/><path d="M7432.66,5643.09c-76.719,132.469 -562.5,134.813 -515.999,20.938c21.562,-52.813 10.125,-169.657 -8.345,-279.751c2.063,5.969 69.001,196.063 229.157,196.063c162.688,0 216.812,-258.031 216.812,-258.031c29,60.784 50.5,102.284 50.5,102.284c0,0 104.563,85.997 27.875,218.497Z" style="fill:#f19655;fill-rule:nonzero;"/><path d="M6914.03,5420.34c0,0 11.938,166.969 158.344,187.875c146.438,20.938 267.187,-46.406 304.438,-239.375c0,0 -4.595,-44.187 58.156,-13.968c24.406,11.753 88.187,-1.095 170.688,-13.966c129.656,-20.191 305.562,-40.41 447.593,34.872c232.437,123.218 160.375,1406.25 116.219,1459.69c-44.156,53.469 -681.031,0 -681.031,0c0,0 7.156,-48.75 -4.47,-81.281c-11.593,-32.531 -888.062,20.875 -888.062,20.875l-423.031,-139.469c0,0 325.406,-1012.66 414.5,-1121.12c89.094,-108.469 185.937,-72.812 301.375,-113.094c0,0 19.906,-13 25.281,18.969Z" style="fill:#f8bc3e;fill-rule:nonzero;"/><path d="M6298.22,4307.37c-119.937,362.594 41.218,418.375 75.312,632.219c34.094,213.844 235.531,390.5 567.157,288.219c331.593,-102.281 325.406,-390.5 325.406,-390.5c0,0 167.343,-3.094 151.844,-154.938c-15.5,-151.875 -142.563,-120.874 -204.532,-71.281c0,0 -136.375,-275.812 -257.25,-275.812c-120.843,0 -657.937,-27.907 -657.937,-27.907Z" style="fill:#f9c89a;fill-rule:nonzero;"/><path d="M7186.41,4561.34c-3.875,-6.719 -8.093,-13.906 -12.656,-21.469c1.75,1.157 3.094,2.188 4,3.032c3.312,3.093 6.157,9.562 8.656,18.437Z" style="fill:#f1a46d;fill-rule:nonzero;"/><path d="M6254.63,4527.65l-0.125,-3.344c0,0 0.062,-0.125 0.219,-0.375c-0.031,1.25 -0.063,2.468 -0.094,3.719Z" style="fill:#f3a66e;fill-rule:nonzero;"/><path d="M7192,4765.75c-7.468,0 -18.781,-11.406 -33.5,-58.593c-26.25,-83.938 -194.469,-154.813 -281.219,-154.813c-7.718,0 -14.812,0.563 -21.062,1.719c-16.344,3.031 -41.032,4.343 -70.75,4.343c-109.907,0 -288.281,-17.906 -363.907,-32.531c-10.25,-2 -20.156,-2.875 -29.75,-2.875c-80.156,0 -134.906,62.125 -134.906,62.125l-2.281,-57.468c0.031,-1.251 0.063,-2.469 0.094,-3.719c4.125,-6.469 61.781,-96.313 111.063,-112.75c22.093,-7.344 79.093,-9.219 144.937,-9.219c34.063,0 70.5,0.5 105.625,1c35.187,0.5 69.063,1 98.062,1c15.719,0 30,-0.156 42.25,-0.531c1.282,-0.032 2.594,-0.063 3.938,-0.063c100.469,0 371.375,108.875 413.156,136.5c4.563,7.563 8.781,14.75 12.656,21.469c15.031,53.656 16.251,194.375 16.251,194.375c0,0 -3.657,10.031 -10.657,10.031Z" style="fill:#f29d5f;fill-rule:nonzero;"/><path d="M6265.56,4430.15c0,0 -76.438,71.687 -92.688,183.25c0,0 99.813,-25.125 169.656,-162.688c0,0 44.188,51.5 239.438,71.062c0,0 -34.875,-29.218 -51.157,-68.75c0,0 163.22,107.313 305.907,68.75c0,0 -43.25,-22.249 -64.156,-68.75c0,0 238.749,98 323.062,97.625c84.313,-0.375 88.343,162.688 88.343,162.688c0,0 15.751,143.344 30.469,-49.562c8.251,-108.375 126.032,-88.844 126.032,-88.844c-21.344,-51.844 -278.157,-251.719 -278.157,-251.719c0,0 -596.562,-165.375 -643.062,-130.5c-46.5,34.844 -121.031,114.656 -121.031,114.656l-32.656,122.782Z" style="fill:#553130;fill-rule:nonzero;"/><path d="M6265.56,4430.15c0,0 214.25,-142.688 602.281,-58.469c346.344,75.156 389.375,216.75 389.375,216.75c38,-12.438 79.218,-10.906 116.093,4.5c4.532,1.906 9.157,3.969 13.844,6.125c0,0 -123.25,-359.625 -554.937,-444.781c-401.469,-79.157 -509.469,43.062 -534.438,105.843c-24.968,62.75 -88.281,226.219 -32.218,170.032Z" style="fill:#e32b2c;fill-rule:nonzero;"/><path d="M6578.1,5949.9c0,0 68.938,34.876 55,169.688c-13.938,134.813 -37.188,655.438 -37.188,655.438l-241.531,-79.594c0,0 164.812,-389.906 183.407,-568.875c18.593,-178.969 1.562,-176.657 40.312,-176.657Z" style="fill:none;stroke:#fff;stroke-width:3.13px;"/><path d="M7814.63,5934.4c0,0 -15.5,409.093 0,616.718c0,0 -495.844,-52.687 -455.563,0l-522.343,170.469l-60.282,12.375c0,0 15.469,-244.812 198.344,-322.281c182.844,-77.5 684.907,170.437 737.563,-15.5c52.688,-185.969 37.218,-564.031 102.281,-461.781Z" style="fill:#f7a82d;fill-rule:nonzero;"/><path d="M7488.44,6828.5l-98.406,0l49.624,-60.125c0,-31.468 -25.562,-57.031 -57.031,-57.031l-514.562,0c-29.5,-39.062 107.094,-201.062 168.812,-238.375l0.032,-0.031c5.843,-3.531 11.062,-5.938 15.343,-7.031c49.563,-12.407 306.812,85.218 306.812,85.218c210.751,34.094 129.376,277.375 129.376,277.375Z" style="fill:#f9c89a;fill-rule:nonzero;"/><path d="M7488.44,6828.5l-98.406,0l49.624,-60.125c0,-31.468 -25.562,-57.031 -57.031,-57.031l-514.562,0c-29.5,-39.062 107.094,-201.062 168.812,-238.375c-1.125,1.937 -33.812,55.781 105.25,158.75c59.937,44.375 122.406,48.031 202.969,60.438c80.594,12.375 134.813,20.156 134.813,-12.407c0,-32.531 -120.845,-128.625 -120.845,-128.625c210.751,34.094 129.376,277.375 129.376,277.375Z" style="fill:#f19655;fill-rule:nonzero;"/><path d="M7164,6680.19c-5.312,5.937 -11.343,10.406 -17.625,14.25c-6.25,3.969 -12.844,7.156 -19.625,9.812c-6.781,2.688 -13.844,4.719 -21.093,6.157c-7.251,1.406 -14.75,2.187 -22.657,1.375l-0.313,-0.875l20.407,-7.5c6.75,-2.563 13.5,-5.157 20.218,-7.875c6.75,-2.594 13.501,-5.25 20.219,-7.969l20.094,-8.25l0.375,0.875Z" style="fill:#c1560c;fill-rule:nonzero;"/><path d="M7083.22,6627.34c-4.218,10.813 -10.374,20.406 -17.25,29.375c-3.374,4.563 -7.218,8.688 -10.999,12.906c-1.906,2.125 -3.969,4.032 -6,6c-2.063,1.938 -4.063,3.969 -6.188,5.813c-4.375,3.625 -8.75,7.25 -13.406,10.531c-2.281,1.656 -4.688,3.188 -7.125,4.719c-2.375,1.531 -4.781,3.062 -7.344,4.344c-9.968,5.531 -20.813,9.75 -32.187,11.687l-0.406,-0.844c4.843,-2.656 9.843,-5.031 14.468,-8.031c4.782,-2.719 9.344,-5.844 13.906,-8.937c8.969,-6.375 17.688,-13.157 25.907,-20.532c8.312,-7.25 16.312,-14.843 23.937,-22.812c3.813,-4 7.563,-8.031 11.219,-12.188c3.687,-4.093 7.281,-8.281 10.719,-12.593l0.749,0.562Z" style="fill:#c1560c;fill-rule:nonzero;"/><path d="M7012.31,6579.31c-5.749,12.969 -12.75,24.969 -20.218,36.656c-3.625,5.906 -7.688,11.469 -11.563,17.219c-4,5.625 -8.156,11.125 -12.249,16.687c-4.313,5.375 -8.532,10.844 -12.938,16.157c-4.531,5.218 -8.876,10.593 -13.625,15.625c-9.344,10.25 -19.094,20.156 -30.125,29.093l-0.719,-0.562l49.969,-66l50.75,-65.438l0.718,0.563Z" style="fill:#c1560c;fill-rule:nonzero;"/><path d="M7814.63,6551.12c5.875,-1.906 11.938,-3.093 18,-4.125c6.094,-1.062 12.25,-1.656 18.438,-2.062c12.343,-0.781 24.812,-0.469 37.218,0.875c24.781,2.75 49.407,9.656 72.063,21.125c11.25,5.812 22.062,12.594 32.031,20.406c9.875,8 19.062,16.781 27.094,26.5c16,19.5 27.719,42.125 33.781,65.906c-14.375,-19.937 -29.25,-38.343 -46.312,-54.093c-8.563,-7.875 -17.563,-15.032 -26.907,-21.657c-4.843,-3.125 -9.499,-6.468 -14.531,-9.25c-2.438,-1.5 -4.875,-2.968 -7.437,-4.281c-2.532,-1.344 -5,-2.812 -7.594,-4.031c-20.5,-10.375 -42.406,-18.063 -65.156,-23.75c-22.813,-5.625 -46.282,-9.438 -70.688,-11.563Z" style="fill:#f7a82d;fill-rule:nonzero;"/><rect x="3478.97" y="6836.25" width="5702.38" height="113.906" style="fill:#2946fb;fill-rule:nonzero;"/><path d="M5147.16,6835.87l1974.09,0c34.469,0 62.687,-28.218 62.687,-62.718c0,-34.469 -28.218,-62.688 -62.687,-62.688l-1974.09,0c-34.469,0 -62.688,28.219 -62.688,62.688c0,34.5 28.219,62.718 62.688,62.718Z" style="fill:#000d21;"/><path d="M5098.41,6710.47l1578.97,0c45.094,0 77.469,-36.906 71.906,-82.031l-125.843,-1022.69c-5.563,-45.093 -47.001,-82 -92.157,-82l-1578.94,0c-45.094,0 -77.469,36.907 -71.906,82l125.843,1022.69c5.563,45.125 47.032,82.031 92.125,82.031Z" style="fill:#000d21;"/><path d="M5098.41,6710.47l1532.38,0c45.093,0 77.468,-36.906 71.905,-82.031l-125.843,-1022.69c-5.531,-45.093 -47,-82 -92.126,-82l-1532.37,0c-45.094,0 -77.469,36.907 -71.906,82l125.843,1022.69c5.563,45.125 47.032,82.031 92.125,82.031Z" style="fill:#001d43;"/><path d="M5010.28,6645.81c-0.031,-0.094 -0.062,-0.219 -0.093,-0.313c0.031,0.094 0.062,0.219 0.093,0.313Zm-0.156,-0.469c-0.031,-0.125 -0.094,-0.281 -0.125,-0.406c0.031,0.125 0.094,0.281 0.125,0.406Zm-0.125,-0.406c-1.75,-5.344 -3,-10.844 -3.719,-16.5l-19.562,-159.031l19.562,159.031c0.719,5.656 1.969,11.156 3.719,16.5Z" style="fill:#c9ceda;fill-rule:nonzero;"/><path d="M6584.22,5665.75l-7.375,-60l7.375,60Zm-7.375,-60c-0.031,-0.125 -0.031,-0.281 -0.062,-0.406c0.031,0.125 0.031,0.281 0.062,0.406Zm-0.125,-0.812l0,-0.031l0,0.031Zm-7.156,-24.781c0,-0.032 0,-0.063 -0.032,-0.094c0.032,0.031 0.032,0.062 0.032,0.094Zm-0.125,-0.313c-0.032,-0.062 -0.063,-0.156 -0.094,-0.219c0.031,0.063 0.062,0.157 0.094,0.219Zm-0.188,-0.406c-0.063,-0.094 -0.094,-0.188 -0.125,-0.281c0.031,0.093 0.062,0.187 0.125,0.281Zm-0.218,-0.438c-0.125,-0.281 -0.282,-0.593 -0.407,-0.875c0.125,0.282 0.282,0.594 0.407,0.875Zm-0.438,-0.906c-0.063,-0.156 -0.125,-0.281 -0.188,-0.437c0.063,0.156 0.125,0.281 0.188,0.437Zm-0.219,-0.469c-1.156,-2.343 -2.407,-4.656 -3.75,-6.875c1.343,2.219 2.594,4.532 3.75,6.875Zm-3.75,-6.875c-0.094,-0.156 -0.157,-0.281 -0.25,-0.437c0.093,0.156 0.156,0.281 0.25,0.437Zm-0.281,-0.468c-0.094,-0.157 -0.156,-0.282 -0.25,-0.438c0.094,0.156 0.156,0.281 0.25,0.438Zm-0.25,-0.438c-0.094,-0.156 -0.188,-0.281 -0.282,-0.406c0.094,0.125 0.188,0.25 0.282,0.406Zm-0.375,-0.562c-0.032,-0.094 -0.094,-0.157 -0.125,-0.25c0.031,0.093 0.093,0.156 0.125,0.25Zm-0.281,-0.469c-0.032,-0.031 -0.063,-0.094 -0.094,-0.125c0.031,0.031 0.062,0.094 0.094,0.125Z" style="fill:#212c41;fill-rule:nonzero;"/><path d="M5339.6,6710.47l-157.688,0l1373.34,-1152.75c2.968,3.438 5.656,7.125 8.094,10.969c0.031,0.031 0.062,0.094 0.094,0.125c0.062,0.062 0.094,0.156 0.156,0.219c0.031,0.093 0.093,0.156 0.125,0.25c0.031,0.031 0.062,0.093 0.093,0.156c0.094,0.125 0.188,0.25 0.282,0.406c0.094,0.156 0.156,0.281 0.25,0.438l0.031,0.031c0.093,0.156 0.156,0.281 0.25,0.437c1.343,2.219 2.594,4.532 3.75,6.875c0,0 0,0.032 0.031,0.032c0.063,0.156 0.125,0.281 0.188,0.437c0,0 0.031,0 0.031,0.031c0.125,0.282 0.282,0.594 0.407,0.875c0.031,0.063 0.061,0.094 0.093,0.157c0.031,0.093 0.062,0.187 0.125,0.281c0.031,0.062 0.062,0.125 0.094,0.187c0.031,0.063 0.062,0.157 0.094,0.219c0.031,0.063 0.062,0.156 0.093,0.219c0.032,0.031 0.032,0.062 0.032,0.094c3.562,7.812 5.999,16.125 7.156,24.75l0,0.031c0.031,0.125 0.031,0.25 0.063,0.406c0.031,0.125 0.031,0.281 0.062,0.406l7.375,60l-1244.62,1044.72Zm-321.125,-47.062c-3.312,-5.563 -6.094,-11.438 -8.188,-17.594c-0.031,-0.094 -0.062,-0.219 -0.093,-0.313c-0.032,-0.062 -0.032,-0.093 -0.063,-0.156c-0.031,-0.125 -0.094,-0.281 -0.125,-0.406c-1.75,-5.344 -3,-10.844 -3.719,-16.5l-19.562,-159.031l1126.62,-945.657l262.812,0l-1357.69,1139.66Z" style="fill:#213759;fill-rule:nonzero;"/><path d="M7395.53,6835.87l-625.376,0c-30.218,0 -54.938,-24.718 -54.938,-54.937l0,-15.531c0,-30.219 24.72,-54.938 54.938,-54.938l625.376,0c30.218,0 54.937,24.719 54.937,54.938l0,15.531c0,30.219 -24.719,54.937 -54.937,54.937Z" style="fill:#001d43;"/><path d="M7306.28,4778.44c-30.999,0 -64.25,-61.219 -44.906,-100.719c0,0 30.437,-54.937 72.938,-54.937c10.406,0 21.562,3.312 33.156,11.562c58.906,41.813 -30.188,144.094 -61.188,144.094Z" style="fill:#f29d5f;fill-rule:nonzero;"/><path d="M5971.6,2893.37l0,1435.78c0,5.657 -2.313,10.813 -5.969,14.563c-3.812,3.938 -9.125,6.375 -14.969,6.375l-2556.78,0c-11.469,0 -20.906,-9.406 -20.906,-20.938l0,-1464.31l980.875,834.438l674.031,0l943.719,-805.907Z" style="fill:#f8bc3e;fill-rule:nonzero;"/><path d="M5965.63,4343.72c-3.812,3.938 -9.125,6.375 -14.969,6.375l-2556.78,0c-11.469,0 -20.906,-9.406 -20.906,-20.938l0,-10.437l980.875,-619.437l674.031,0l937.75,644.437Z" style="fill:#f7a82d;fill-rule:nonzero;"/><rect x="3754.16" y="1987.01" width="1143.59" height="731.391" style="fill:#357efc;fill-rule:nonzero;"/><path d="M4245.91,2226.19l0,285.125l204.531,-149.344l-204.531,-135.781Z" style="fill:#fff;fill-rule:nonzero;"/><path d="M6491.85,2380.75l-1144.81,0c-15.469,0 -28.125,-12.656 -28.125,-28.125l0,-396.212c0,-15.469 12.656,-28.128 28.125,-28.128l1144.81,0c15.469,0 28.125,12.659 28.125,28.128l0,396.212c0,15.469 -12.656,28.125 -28.125,28.125Z" style="fill:#fff;fill-rule:nonzero;"/><path d="M6491.85,2390.12l0,-18.75l-1144.81,0c-5.126,0 -9.782,-2.093 -13.219,-5.5c-3.438,-3.437 -5.531,-8.093 -5.531,-13.25l0,-396.212c0,-5.15 2.093,-9.794 5.531,-13.235c3.437,-3.428 8.093,-5.512 13.219,-5.515l1144.81,0c5.156,0.003 9.812,2.087 13.249,5.515c3.438,3.441 5.501,8.085 5.501,13.235l0,396.212c0,5.157 -2.063,9.813 -5.501,13.25c-3.437,3.407 -8.093,5.5 -13.249,5.5l0,18.75c10.343,0 19.75,-4.218 26.499,-11c6.782,-6.75 11.001,-16.187 11.001,-26.5l0,-396.212c0,-10.319 -4.219,-19.74 -11.001,-26.494c-6.749,-6.766 -16.156,-11.009 -26.499,-11.006l-1144.81,0c-10.313,-0.003 -19.719,4.24 -26.469,11.006c-6.782,6.754 -11.031,16.175 -11.031,26.494l0,396.212c0,10.313 4.249,19.75 11.031,26.5c6.75,6.782 16.156,11 26.469,11l1144.81,0Z" style="fill:#193edd;fill-rule:nonzero;"/><path d="M4271.38,5406l-1050.22,0c-16.719,0 -30.406,13.688 -30.406,30.438l0,589.969c0,16.75 13.687,30.406 30.406,30.406l609.125,0c22.656,58.094 73.719,148.281 183.281,204.562c0,0 -43.593,-112.125 -61.406,-204.562l319.219,0c16.719,0 30.407,-13.656 30.407,-30.406l0,-589.969c0,-16.75 -13.688,-30.438 -30.407,-30.438Z" style="fill:#eef2f9;fill-rule:nonzero;"/><path d="M4271.38,5406l-1050.22,0c-16.719,0 -30.406,13.688 -30.406,30.438l0,589.969c0,16.75 13.687,30.406 30.406,30.406l609.125,0c22.656,58.094 73.719,148.281 183.281,204.562c0,0 -43.593,-112.125 -61.406,-204.562l319.219,0c16.719,0 30.407,-13.656 30.407,-30.406l0,-589.969c0,-16.75 -13.688,-30.438 -30.407,-30.438Z" style="fill:none;stroke:#193edd;stroke-width:31.25px;"/><path d="M4033.88,5612.22l0,304.906c0,1.188 -0.5,2.25 -1.25,3.032c-0.781,0.812 -1.906,1.343 -3.125,1.343l-532.375,0c-2.406,0 -4.344,-1.968 -4.344,-4.375l0,-304.906l204.219,173.75l140.375,0l196.5,-173.75Z" style="fill:#f8bc3e;fill-rule:nonzero;"/><path d="M3848.63,5793.72l185.25,-181.5l-541.094,0l185.407,185.656l-185.407,117.094l0,2.156c0,2.407 1.938,4.375 4.344,4.375l532.375,0c1.219,0 2.344,-0.531 3.125,-1.343l-184,-126.438Z" style="fill:#f29214;fill-rule:nonzero;"/><path d="M3492.78,5612.22l541.094,0l-270.562,241.5l-270.532,-241.5Z" style="fill:#ffc45c;fill-rule:nonzero;"/><path d="M3976.38,5619.84c0,-29.094 23.594,-52.687 52.688,-52.687c29.09,0 52.684,23.593 52.684,52.687c0,29.094 -23.594,52.688 -52.684,52.688c-29.094,0 -52.688,-23.594 -52.688,-52.688Z" style="fill:#e32b2c;fill-rule:nonzero;"/><path d="M6399.25,2933.84c0,-87.281 70.781,-158.062 158.063,-158.062c87.281,0 158.062,70.781 158.062,158.062c0,87.313 -70.781,158.063 -158.062,158.063c-87.282,0 -158.063,-70.75 -158.063,-158.063Z" style="fill:#e32b2c;fill-rule:nonzero;"/><path d="M3273.81,2511.31c0,-43.656 35.374,-79.032 79,-79.032c43.656,0 79.031,35.376 79.031,79.032c0,43.656 -35.375,79.031 -79.031,79.031c-43.626,0 -79,-35.375 -79,-79.031Z" style="fill:#f8bc3e;fill-rule:nonzero;"/><path d="M2554.81,3349.84c0,-87.281 70.749,-158.031 158.031,-158.031c87.312,0 158.062,70.75 158.062,158.031c0,87.313 -70.75,158.063 -158.062,158.063c-87.282,0 -158.031,-70.75 -158.031,-158.063Z" style="fill:#357efc;fill-rule:nonzero;"/><path d="M7282.63,1556.01c0,-136.007 110.25,-246.263 246.25,-246.263c136.031,0 246.282,110.256 246.282,246.263c0,136.006 -110.251,246.262 -246.282,246.262c-136,0 -246.25,-110.256 -246.25,-246.262Z" style="fill:#357efc;fill-rule:nonzero;"/><path d="M34.939,3818.19c0,-317.5 257.384,-574.906 574.887,-574.906c317.488,0 574.894,257.406 574.894,574.906c0,317.5 -257.406,574.875 -574.894,574.875c-317.503,0 -574.887,-257.375 -574.887,-574.875Z" style="fill:#fff;fill-rule:nonzero;"/><path d="M34.939,3818.19c0,-317.5 257.384,-574.906 574.887,-574.906c317.488,0 574.894,257.406 574.894,574.906c0,317.5 -257.406,574.875 -574.894,574.875c-317.503,0 -574.887,-257.375 -574.887,-574.875Z" style="fill:none;stroke:#193edd;stroke-width:31.25px;"/><path d="M297.72,3908.72c0.059,0.531 -5.206,13.969 -10.228,26.594c-5.757,14.5 -7.385,32.156 -4.61,49.937l19.644,124.063c3.191,20.437 -6.263,37.875 -20.569,37.937c-12.431,0.063 -24.328,-13.156 -27.75,-30.812l-42.481,-207.313l85.994,-0.406Z" style="fill:#2946fb;fill-rule:nonzero;"/><path d="M255.185,4120.59c-0.003,-0.031 -0.003,-0.031 -0.006,-0.031c0,0 0.003,0 0.006,0.031Zm-0.09,-0.344c-0.006,0 -0.013,-0.031 -0.019,-0.062c0.006,0.031 0.013,0.062 0.019,0.062Zm-0.078,-0.281c-0.016,-0.062 -0.028,-0.125 -0.044,-0.156c0.016,0.031 0.028,0.094 0.044,0.156Zm-0.085,-0.312c-0.022,-0.094 -0.047,-0.188 -0.068,-0.282c0.021,0.094 0.046,0.188 0.068,0.282Zm-0.09,-0.375c-0.016,-0.032 -0.028,-0.094 -0.044,-0.157c0.016,0.063 0.028,0.125 0.044,0.157Zm-0.063,-0.251c-0.025,-0.093 -0.053,-0.187 -0.078,-0.312c0.025,0.125 0.053,0.219 0.078,0.312Zm-0.09,-0.375c-0.032,-0.124 -0.06,-0.249 -0.088,-0.374c0.028,0.125 0.056,0.25 0.088,0.374Zm-0.091,-0.374c-0.044,-0.188 -0.084,-0.375 -0.128,-0.563c0.044,0.188 0.084,0.375 0.128,0.563Zm-0.15,-0.657c-0.016,-0.093 -0.034,-0.156 -0.05,-0.249c0.016,0.093 0.034,0.156 0.05,0.249Zm-0.084,-0.406c-0.01,-0.031 -0.019,-0.094 -0.025,-0.125c0.006,0.031 0.015,0.094 0.025,0.125Zm-0.082,-0.375c-0.003,-0.031 -0.009,-0.062 -0.015,-0.094c0.006,0.032 0.012,0.063 0.015,0.094Z" style="fill:#f7d3dc;"/><path d="M276.404,4146.31c-9.297,-2.875 -17.584,-12.75 -21.219,-25.719c-0.003,-0.031 -0.006,-0.031 -0.006,-0.031c-0.028,-0.094 -0.056,-0.188 -0.084,-0.313c-0.006,0 -0.013,-0.031 -0.019,-0.062c-0.022,-0.063 -0.041,-0.156 -0.059,-0.219c-0.016,-0.062 -0.028,-0.125 -0.044,-0.156c-0.013,-0.063 -0.025,-0.094 -0.041,-0.156c-0.022,-0.094 -0.047,-0.188 -0.068,-0.282c-0.007,-0.031 -0.016,-0.062 -0.022,-0.093c-0.016,-0.032 -0.028,-0.094 -0.044,-0.157c-0.006,-0.031 -0.013,-0.062 -0.019,-0.094c-0.025,-0.093 -0.053,-0.187 -0.078,-0.312c-0.003,0 -0.009,-0.031 -0.012,-0.063c-0.032,-0.124 -0.06,-0.249 -0.088,-0.374l-0.003,0c-0.044,-0.188 -0.084,-0.375 -0.128,-0.563c-0.006,-0.031 -0.013,-0.062 -0.022,-0.094c-0.016,-0.093 -0.034,-0.156 -0.05,-0.249c-0.013,-0.032 -0.022,-0.094 -0.034,-0.157c-0.01,-0.031 -0.019,-0.094 -0.025,-0.125c-0.019,-0.094 -0.038,-0.187 -0.057,-0.25c-0.003,-0.031 -0.009,-0.062 -0.015,-0.094c-0.019,-0.094 -0.041,-0.187 -0.06,-0.312l-26.978,-131.656c7.825,6.312 17.003,11 26.941,13.687c6.206,45.344 10.337,100.532 22.234,147.844Z" style="fill:#283ad9;fill-rule:nonzero;"/><path d="M951.97,4079.19c0,0 -213.219,-168.782 -570.553,-98.625l-36.019,-183.469c357.337,-70.156 490.916,-307.031 490.916,-307.031l115.656,589.125Z" style="fill:#eef2f9;fill-rule:nonzero;"/><path d="M412.435,3975c49.8,-8.062 96.585,-11.5 140.229,-11.5c-43.629,0 -90.451,3.438 -140.229,11.5Zm140.378,-11.5l-0.099,0l0.099,0Z" style="fill:#dbcdde;fill-rule:nonzero;"/><path d="M863.782,4028.62c-68.062,-31.125 -173.828,-65.125 -310.969,-65.125l-0.149,0c-43.644,0 -90.429,3.438 -140.229,11.5l-4.609,-8.875l-0.797,-1.531c-1.615,-3.125 -3.172,-6.281 -4.675,-9.469c-10.028,-21.25 -17.362,-43.531 -22.128,-66.343c-0.05,0 -0.103,-0.032 -0.153,-0.032c-0.047,-0.219 -0.094,-0.437 -0.141,-0.656c10.056,1.063 20.1,2.469 30.116,4.219c118.806,18.531 227.437,41.594 336.484,41.594c21.157,0 42.313,-0.876 63.563,-2.813c15.75,39.094 34.156,72.375 53.687,97.531Z" style="fill:#ccc3d9;fill-rule:nonzero;"/><path d="M836.314,3490.06c66.249,-13 145.843,108.344 177.781,271.031c31.937,162.656 4.125,305.094 -62.125,318.094c-66.253,13 -145.844,-108.312 -177.781,-271c-31.922,-162.687 -4.094,-305.125 62.125,-318.125Z" style="fill:#2946fb;fill-rule:nonzero;"/><path d="M839.501,3506.22c56.281,-11.063 126.156,103.437 156.062,255.75c29.907,152.282 8.5,284.719 -47.781,295.781c-56.312,11.032 -126.187,-103.468 -156.094,-255.75c-29.875,-152.312 -8.499,-284.75 47.813,-295.781Z" style="fill:#1a2982;fill-rule:nonzero;"/><path d="M791.688,3802c-7.749,-39.562 -12.062,-77.781 -13.187,-112.906c1.125,35.125 5.438,73.344 13.187,112.906Zm-13.187,-112.906c0,-0.25 -0.031,-0.5 -0.031,-0.75c0,0.25 0.031,0.5 0.031,0.75Zm-0.031,-0.844c0,-0.218 0,-0.469 -0.031,-0.687c0.031,0.25 0.031,0.469 0.031,0.687Zm-0.031,-0.875l0,-0.593l0,0.593Zm-0.032,-0.781l0,-0.594l0,0.594Zm0,-0.813c0,-0.187 -0.031,-0.375 -0.031,-0.562c0,0.187 0.031,0.375 0.031,0.562Zm-0.031,-0.812l0,-0.5l0,0.5Zm-0.031,-0.875l0,-0.375l0,0.375Zm0,-0.812l0,-0.344l0,0.344Zm-0.031,-0.844l0,-0.281l0,0.281Zm0,-0.813l0,-0.218l0,0.218Zm-0.032,-0.875l0,-0.093l0,0.093Zm0,-0.75l0,-0.124l0,0.124Zm-0.031,-0.844l0,-0.031l0,0.031Z" style="fill:#2338da;fill-rule:nonzero;"/><path d="M864.001,3991.12c-1.437,0 -2.878,-0.093 -4.344,-0.312c-28.156,-46.25 -53.031,-112.844 -67.969,-188.813c-7.749,-39.562 -12.062,-77.781 -13.187,-112.906c0,-0.25 -0.031,-0.5 -0.031,-0.75l0,-0.094c0,-0.218 0,-0.437 -0.031,-0.687l0,-0.781c0,-0.063 0,-0.125 -0.032,-0.188l0,-0.813c0,-0.187 -0.031,-0.375 -0.031,-0.562l0,-0.75c0,-0.125 -0.031,-0.25 -0.031,-0.375l0,-1.156c-0.031,-0.156 -0.031,-0.313 -0.031,-0.5l0,-1.031c-0.032,-0.219 -0.032,-0.438 -0.032,-0.657l0,-0.874c0,-0.251 -0.031,-0.501 -0.031,-0.72l0,-0.031c-0.438,-28.469 1.281,-54.687 4.969,-77.656c2.812,-1.625 5.75,-2.813 8.843,-3.406c1.813,-0.375 3.626,-0.532 5.438,-0.532c39.028,0 85.344,79.001 105.656,182.563c21.313,108.406 6.063,202.688 -34,210.563c-1.719,0.312 -3.437,0.468 -5.156,0.468Z" style="fill:#162171;fill-rule:nonzero;"/><path d="M252.007,3814.37l124.153,-24.375l-0.703,6.657c-6.118,57.937 4.825,116.156 31.572,167.937l5.494,10.625l-124.156,24.344c-39.788,7.812 -78.135,-16.907 -85.653,-55.219l-9.122,-46.469c-7.522,-38.312 18.628,-75.719 58.415,-83.5Z" style="fill:#003e61;fill-rule:nonzero;"/><path d="M412.532,3975.19l-41.3,8.125l-31.503,6.187l-51.4,10.094c-39.737,7.781 -78.1,-16.906 -85.634,-55.25l-9.088,-46.5c-7.559,-38.25 18.647,-75.688 58.382,-83.469l56.696,-11.156l28.46,-5.562l39.025,-7.657l-0.735,6.625c-6.087,57.938 4.816,116.219 31.594,167.969l5.503,10.594Z" style="fill:#8fc0fa;fill-rule:nonzero;"/><path d="M371.232,3983.31l-31.503,6.187c-24.372,-58.937 -34.981,-122.5 -31.044,-186.281l28.46,-5.562c-2.922,63.75 8.756,127.125 34.087,185.656Z" style="fill:#2946fb;fill-rule:nonzero;"/><path d="M920.407,3776.72c4.438,22.625 -6.5,45.906 -27.69,58.938l-79.81,49.031c-8.281,-25.781 -15.468,-53.532 -21.219,-82.688c-5.718,-29.187 -9.531,-57.594 -11.624,-84.594l92.437,15.219c24.531,4.032 43.469,21.469 47.906,44.094Z" style="fill:#d30f00;fill-rule:nonzero;"/><path d="M885.939,3783.47c4.031,20.5 14.999,35.562 24.499,33.719c9.532,-1.875 13.969,-20 9.969,-40.469c-4.031,-20.469 -15,-35.562 -24.5,-33.687c-9.531,1.875 -14,19.968 -9.968,40.437Z" style="fill:#fff;fill-rule:nonzero;"/><path d="M285.239,4000.12c0.718,-0.093 1.443,-0.219 2.165,-0.343c-0.725,0.124 -1.444,0.25 -2.165,0.343Z" style="fill:#ccd8df;fill-rule:nonzero;"/><path d="M273.654,4001.03c3.822,0 7.691,-0.281 11.585,-0.906c-3.894,0.594 -7.763,0.906 -11.585,0.906Z" style="fill:#213bdc;fill-rule:nonzero;"/><path d="M402.354,3955.12c-10.062,-21.281 -17.519,-43.562 -22.281,-66.375c0.05,0 0.103,0.032 0.153,0.032c4.766,22.812 12.1,45.093 22.128,66.343Z" style="fill:#a3a5be;fill-rule:nonzero;"/><path d="M407.029,3964.59c-12.469,-24.094 -21.494,-49.594 -26.965,-75.844l0.009,0c4.762,22.813 12.219,45.094 22.281,66.375c1.5,3.188 3.056,6.344 4.675,9.469Z" style="fill:#003555;fill-rule:nonzero;"/><path d="M198.057,3920.62l-4.45,-22.781c-0.025,-0.094 -0.047,-0.219 -0.072,-0.344c0.025,0.125 0.047,0.25 0.072,0.344l4.45,22.781Z" style="fill:#003555;fill-rule:nonzero;"/><path d="M273.654,4001.03l-0.234,0c-33.697,-0.093 -63.585,-22.749 -70.538,-55.749c-0.062,-0.313 -0.128,-0.625 -0.187,-0.938l-4.638,-23.719l-4.45,-22.781c-0.025,-0.094 -0.047,-0.219 -0.072,-0.344c-0.718,-3.781 -1.034,-7.531 -1.122,-11.25c17.338,2.157 35.391,2.844 53.673,2.844c15.684,0 31.534,-0.5 47.234,-1c6.241,-0.219 12.459,-0.406 18.634,-0.562c4.903,34.906 14.206,69.156 27.775,101.968l-51.4,10.094c-0.284,0.063 -0.565,0.094 -0.85,0.156c-0.025,0 -0.053,0 -0.075,0.032c-0.722,0.124 -1.447,0.25 -2.165,0.343c-3.894,0.625 -7.763,0.906 -11.585,0.906Zm97.578,-17.718c-13.39,-30.938 -22.965,-63.25 -28.584,-96.219c12.887,0.063 25.428,0.5 37.416,1.656c5.471,26.25 14.496,51.75 26.965,75.844l5.503,10.594l-41.3,8.125Z" style="fill:#72a3db;fill-rule:nonzero;"/><path d="M339.729,3989.5c-13.569,-32.812 -22.872,-67.062 -27.775,-101.968c9.366,-0.282 18.631,-0.438 27.728,-0.438l2.966,0c5.619,32.969 15.194,65.281 28.584,96.219l-4.697,0.937l-26.806,5.25Z" style="fill:#213bdc;fill-rule:nonzero;"/><path d="M9822.78,3141.65c-27.968,257.594 -177.562,472.501 -385.406,593.719c-30.437,17.75 -62.125,33.5 -94.844,47.063c-98.062,40.687 -205.562,61.906 -317.125,59.375c-22.469,-0.5 -45.094,-1.969 -67.844,-4.438c-16.124,-1.75 -32.093,-3.969 -47.844,-6.687c-106.436,-18.125 -204.687,-57.219 -290.905,-112.531c-28.438,-18.251 -55.594,-38.251 -81.282,-59.875c-193.499,-162.751 -305.031,-415.876 -275.687,-686.157c46.812,-431.031 434.187,-742.531 865.25,-695.719c431.031,46.813 742.5,434.219 695.687,865.25Z" style="fill:#357efc;fill-rule:nonzero;"/><path d="M9342.53,3782.44c3.344,-26.25 5.813,-52.656 5.75,-79.344c-0.031,-31.844 -2.563,-63.156 -9.812,-94.156c-11.532,-49.219 -35.406,-90.438 -76.562,-121c-5.563,-4.125 -12.719,-6.375 -16.563,-12.781c17.031,4.406 33,11.374 48.563,19.468c17.031,8.844 32.156,20.5 47.593,31.657c7.625,7.937 15.531,15.625 22.844,23.812c27.219,30.594 45.344,66.125 57.437,104.969c0.625,1.969 1.5,3.844 2.281,5.781c5.876,24.594 10.969,49.281 13.313,74.531c-30.437,17.75 -62.125,33.5 -94.844,47.063Z" style="fill:#b0c8ea;fill-rule:nonzero;"/><path d="M8759.41,3428.72c-0.843,3.094 -3.656,3.5 -6.031,4.5c-11.906,5.094 -22.875,11.875 -32.969,19.812c-32,25.188 -52.968,58.5 -67.874,95.782c-15.876,39.625 -24.688,81.031 -29.501,123.406c-1.687,15.281 -3.156,30.625 -4.218,45.938c-28.438,-18.251 -55.594,-38.251 -81.282,-59.875c8.281,-30.219 19.344,-59.563 34.313,-87.688c0.374,-0.656 0.374,-1.5 0.531,-2.281c11.532,-18.438 22.938,-36.938 37.125,-53.594c19.094,-22.406 41.594,-40.718 66.438,-56.313c1.375,-0.624 2.843,-1.156 4.187,-1.875c24.937,-13.499 51.125,-23.437 79.281,-27.812Z" style="fill:#b0c8ea;fill-rule:nonzero;"/><path d="M9342.53,3782.44c-98.062,40.687 -205.562,61.906 -317.125,59.375c10.782,-99.719 21.626,-199.437 32.407,-299.156c0.875,-8.063 1.562,-16.188 2.312,-24.313c2.219,-0.719 4.5,-1.437 6.719,-2.156c35.719,-11.813 60.719,-34.969 74.312,-70.188c17.344,2.969 34.782,5.063 51.875,9.657c18.126,4.843 34.687,13.562 52.313,19.5c3.844,6.406 11,8.656 16.563,12.781c41.156,30.562 65.03,71.781 76.562,121c7.249,31 9.781,62.312 9.812,94.156c0.063,26.688 -2.406,53.094 -5.75,79.344Z" style="fill:#eef2f9;fill-rule:nonzero;"/><path d="M8944.81,3507.22c-11.719,107.813 -23.406,215.656 -35.095,323.469c-106.436,-18.125 -204.687,-57.219 -290.905,-112.531c1.062,-15.313 2.531,-30.657 4.218,-45.938c4.813,-42.375 13.625,-83.781 29.501,-123.406c14.906,-37.282 35.874,-70.594 67.874,-95.782c10.094,-7.937 21.063,-14.718 32.969,-19.812c2.375,-1 5.188,-1.406 6.031,-4.5c8.876,-2.437 17.688,-5.093 26.563,-7.312c34.531,-8.594 69.281,-7.375 104.125,-2.625c0.656,3.593 1.125,7.249 2,10.812c7.781,31.719 26.031,55.781 53.562,73c-0.281,1.562 -0.656,3.094 -0.843,4.625Z" style="fill:#eef2f9;fill-rule:nonzero;"/><path d="M9025.41,3841.81c-22.469,-0.5 -45.094,-1.969 -67.844,-4.438c-16.124,-1.75 -32.093,-3.969 -47.844,-6.687c11.689,-107.813 23.376,-215.656 35.095,-323.469c0.187,-1.531 0.562,-3.063 0.843,-4.625c36.156,19.719 74.469,24 114.469,15.75c-0.75,8.125 -1.437,16.25 -2.312,24.313c-10.781,99.719 -21.625,199.437 -32.407,299.156Z" style="fill:#fefefe;fill-rule:nonzero;"/><path d="M8890.13,3418.78c-34.875,-4.75 -69.625,-5.938 -104.125,2.656c-8.938,2.218 -17.718,4.844 -26.594,7.281c-28.156,4.375 -54.344,14.281 -79.281,27.812c-1.344,0.719 -2.812,1.282 -4.187,1.907c4.437,-49.313 8.687,-98.625 13.375,-147.906c10.844,-114.032 21.656,-228.063 32.905,-342.063c6.782,-69.062 21.751,-136.188 51.688,-199.25c31.344,-66.031 75.781,-120.563 140.438,-156.813c47.656,-26.718 99.219,-38.843 153.656,-38.656c66.563,0.251 129.406,15.25 186.938,49.594c39.312,23.469 68.312,56.219 91.562,95.875c48.562,82.875 63.125,172.594 58.687,266.594c-3.187,67.937 -13.53,135.187 -21.718,202.594c-13.5,110.843 -27.407,221.624 -41.125,332.437c-0.25,1.813 -0.563,3.625 -0.844,5.469c-15.468,-11.188 -30.562,-22.844 -47.593,-31.688c-15.532,-8.094 -31.532,-15.062 -48.563,-19.437c-17.626,-5.969 -34.187,-14.688 -52.313,-19.531c-17.093,-4.563 -34.531,-6.688 -51.875,-9.657c-5.749,-41.5 -3.531,-82.375 9.313,-122.468c1.375,-4.219 3.562,-7.282 7.25,-9.813c25.499,-17.594 47.687,-38.844 67.781,-62.344c30.437,-35.656 54.75,-75.187 74.406,-117.625c1.063,-2.281 0.782,-6.656 5.125,-5.625c16.688,3.938 27.594,-5.5 37.656,-16.343c13.469,-14.563 21.907,-32.063 27.907,-50.75c7.906,-24.625 11.843,-49.688 5.781,-75.375c-2.187,-9.219 -5.688,-17.906 -14.562,-24.156c-1.251,6.312 -2.344,11.968 -3.532,17.562c-5.437,25.344 -12.749,50.062 -27.531,71.719c-9.094,13.281 -19.656,25.312 -36.125,30l0.063,0.062c-1.251,-3.281 0.625,-6.125 1.468,-9.031c12.875,-44.75 21.219,-90.156 20.688,-136.906c-0.344,-29.469 -4.375,-58.219 -17.188,-85.188c-7.031,-14.844 -16.469,-27.875 -30.812,-39.594c4.687,69.469 7.562,137.282 18.375,204.844c-1.906,-0.062 -3.219,-0.094 -4.5,-0.187c-44.75,-3.281 -88.781,-11.188 -132.031,-23c-51.532,-14.063 -100.907,-33.313 -144.876,-64.438c-49.219,-34.812 -83.406,-79.75 -93.218,-140.719c-3.094,-19.187 -3.375,-38.468 -2,-58c-1.875,1.656 -3.188,3.469 -4.313,5.375c-19.406,32.281 -36.812,65.594 -51.906,100.094c-12.656,28.938 -23.656,58.5 -31.031,89.344c-8.375,35.125 -12.657,70.281 -2.188,105.937c-40.313,-34.25 -48.562,-80.374 -47.656,-130.468c-10.531,6.125 -15.719,15.187 -19.531,25.031c-11.594,30.031 -11.125,60.75 -4.219,91.656c3.469,15.562 8.969,30.344 19.094,42.906c6.593,8.188 14.374,15.126 25.875,14.094c4.843,-0.469 6.313,1.062 7.156,5.5c3.125,16.563 7.531,32.813 12.656,48.844c18.469,57.75 44.813,111.281 85.657,156.719c4.593,5.093 6.718,10.093 6.875,16.75c0.969,40.437 -6.75,79.562 -16.938,118.375Z" style="fill:#001d43;fill-rule:nonzero;"/><path d="M9294.63,3080.78c16.469,-4.688 27.031,-16.719 36.125,-30c14.782,-21.657 22.094,-46.375 27.531,-71.719c1.188,-5.594 2.281,-11.25 3.532,-17.562c8.874,6.25 12.375,14.937 14.562,24.156c6.062,25.687 2.125,50.75 -5.781,75.375c-6,18.687 -14.438,36.187 -27.907,50.75c-10.062,10.843 -20.968,20.281 -37.656,16.343c-4.343,-1.031 -4.062,3.344 -5.125,5.625c-19.656,42.438 -43.969,81.969 -74.406,117.625c-20.094,23.5 -42.282,44.75 -67.781,62.344c-3.688,2.531 -5.875,5.594 -7.25,9.813c-12.844,40.093 -15.062,80.968 -9.313,122.468c-13.593,35.219 -38.593,58.375 -74.312,70.188c-2.25,0.719 -4.469,1.437 -6.719,2.156c-40.031,8.25 -78.313,3.969 -114.469,-15.75c-27.531,-17.25 -45.812,-41.281 -53.594,-73c-0.875,-3.563 -1.312,-7.219 -1.937,-10.812c10.188,-38.813 17.907,-77.938 16.938,-118.375c-0.157,-6.657 -2.282,-11.657 -6.875,-16.75c-40.844,-45.438 -67.188,-98.969 -85.657,-156.719c-5.125,-16.031 -9.531,-32.281 -12.656,-48.844c-0.843,-4.438 -2.313,-5.969 -7.156,-5.5c-11.501,1.032 -19.282,-5.906 -25.875,-14.094c-10.125,-12.562 -15.625,-27.344 -19.094,-42.906c-6.906,-30.906 -7.375,-61.625 4.219,-91.656c3.812,-9.844 9,-18.906 19.531,-25.031c-0.906,50.094 7.343,96.218 47.656,130.468c-10.469,-35.656 -6.187,-70.812 2.188,-105.937c7.375,-30.844 18.375,-60.406 31.031,-89.344c15.094,-34.5 32.5,-67.813 51.906,-100.094c1.125,-1.906 2.438,-3.719 4.313,-5.375c-1.375,19.532 -1.094,38.813 2,58c9.812,60.969 43.999,105.907 93.218,140.719c43.969,31.125 93.344,50.375 144.876,64.438c43.25,11.812 87.281,19.719 132.031,23c1.281,0.093 2.594,0.125 4.5,0.187c-10.813,-67.562 -13.688,-135.375 -18.375,-204.844c14.343,11.719 23.781,24.75 30.812,39.594c12.813,26.969 16.844,55.719 17.188,85.188c0.531,46.75 -7.813,92.156 -20.688,136.906c-0.843,2.906 -2.719,5.75 -1.468,9.031c-0.313,0.094 -0.625,0.156 -0.907,0.25l0.406,0.219l0.438,-0.531Z" style="fill:#f9c89a;fill-rule:nonzero;"/><path d="M9294.63,3080.78l-0.438,0.531l-0.406,-0.219c0.282,-0.094 0.594,-0.156 0.907,-0.25l-0.063,-0.062Z" style="fill:#0f111e;fill-rule:nonzero;"/><path d="M6384.44,2098.75l-929.969,0c-10.157,0 -18.469,-8.313 -18.469,-18.47l0,-3.374c0,-10.156 8.312,-18.469 18.469,-18.469l929.969,0c10.156,0 18.468,8.313 18.468,18.469l0,3.374c0,10.157 -8.312,18.47 -18.468,18.47Z" style="fill:#a4c5fe;fill-rule:nonzero;"/><path d="M6384.44,2174.65l-929.969,0c-10.157,0 -18.469,-8.312 -18.469,-18.468l0,-3.344c0,-10.156 8.312,-18.469 18.469,-18.469l929.969,0c10.156,0 18.468,8.313 18.468,18.469l0,3.344c0,10.156 -8.312,18.468 -18.468,18.468Z" style="fill:#cbdefe;fill-rule:nonzero;"/><path d="M6097.22,2250.59l-642.749,0c-10.157,0 -18.469,-8.312 -18.469,-18.469l0,-3.344c0,-10.156 8.312,-18.468 18.469,-18.468l642.749,0c10.157,0 18.47,8.312 18.47,18.468l0,3.344c0,10.157 -8.313,18.469 -18.47,18.469Z" style="fill:#ccdffe;fill-rule:nonzero;"/><path d="M5484.35,1260.87l-0.031,0.028c9.843,18.032 19.718,36.044 29.499,54.103c2.876,5.294 6.594,7.891 12.469,4.697c11.844,-6.396 23.657,-12.775 35.375,-19.334c6.875,-3.835 7.938,-7.563 4.157,-14.482c-19.531,-35.875 -39.094,-71.721 -58.688,-107.54c-3.937,-7.166 -6.782,-7.885 -14.219,-3.875c-11.219,6.018 -22.374,12.1 -33.5,18.256c-7.718,4.275 -8.468,6.837 -4.219,14.691c9.688,17.844 19.438,35.641 29.157,53.456Zm163.406,-20.612c18.656,-10.191 37.375,-20.307 56,-30.603c13.5,-7.475 14.438,-23.285 1.719,-31.985c-3.407,-2.328 -3.844,-3.669 -1.844,-7.341c5.75,-10.437 1.156,-22.006 -10.125,-26.062c-3.343,-1.206 -4.968,-1.778 -2.718,-5.904c6.124,-11.215 1.843,-22.943 -9.907,-28.443c-3.469,-1.613 -5.219,-3.222 -4.187,-7.753c2.312,-10.247 -1.188,-18.912 -9.844,-24.856c-8.25,-5.638 -16.844,-5.229 -25.563,-0.397c-18.156,10.078 -36.531,19.834 -54.656,29.984c-4.531,2.541 -5.563,1.788 -5.75,-3.284c-0.5,-12.45 -1.781,-24.85 -4.406,-37.063c-3.813,-17.699 -12.875,-32.109 -27.75,-42.481c-6.657,-4.65 -13.875,-5.065 -21.406,-0.913c-6.501,3.601 -9.438,8.735 -9.563,16.013c-0.094,4.487 1.938,8.194 4.282,11.462c7.312,10.247 7.499,21.06 4.75,32.854c-3.72,15.99 -7.344,31.969 -9.563,48.362c-2.625,19.647 2.281,37.328 10.656,54.019c13.219,26.437 28,52.106 42.219,78.056c5.687,10.419 11.906,12.2 22.281,6.559c18.5,-10.031 36.937,-20.137 55.375,-30.224Zm-193.125,-302.503c120.563,-65.616 272.125,-22.972 339.906,100.015c67.188,121.894 22.469,275.603 -100.125,342.244c-121.656,66.138 -273.25,21.047 -339.781,-100.137c-67.5,-123.01 -21.25,-276.673 100,-342.122Z" style="fill:#5e9dfd;fill-rule:nonzero;"/><path d="M5647.75,1240.26c-18.438,10.081 -36.875,20.187 -55.375,30.218c-10.375,5.641 -16.594,3.86 -22.281,-6.559c-14.219,-25.95 -29,-51.619 -42.219,-78.056c-8.375,-16.691 -13.281,-34.372 -10.656,-54.019c2.219,-16.393 5.843,-32.372 9.563,-48.362c2.749,-11.794 2.562,-22.607 -4.75,-32.854c-2.344,-3.268 -4.376,-6.975 -4.282,-11.462c0.125,-7.278 3.062,-12.412 9.563,-16.013c7.531,-4.152 14.749,-3.737 21.406,0.913c14.875,10.372 23.937,24.782 27.75,42.481c2.625,12.213 3.906,24.613 4.406,37.063c0.187,5.072 1.219,5.825 5.75,3.284c18.125,-10.15 36.5,-19.906 54.656,-29.984c8.719,-4.832 17.313,-5.241 25.563,0.397c8.656,5.944 12.156,14.609 9.844,24.856c-1.032,4.531 0.718,6.14 4.187,7.753c11.75,5.5 16.031,17.228 9.907,28.443c-2.25,4.126 -0.625,4.698 2.718,5.904c11.281,4.056 15.875,15.625 10.125,26.062c-2,3.672 -1.563,5.013 1.844,7.341c12.719,8.7 11.781,24.51 -1.719,31.985c-18.625,10.296 -37.344,20.412 -56,30.609Z" style="fill:#fefefe;fill-rule:nonzero;"/><path d="M5484.35,1260.87c-9.719,-17.815 -19.469,-35.612 -29.157,-53.456c-4.249,-7.854 -3.499,-10.416 4.219,-14.691c11.126,-6.156 22.281,-12.238 33.5,-18.256c7.437,-4.01 10.282,-3.291 14.219,3.875c19.594,35.819 39.157,71.665 58.688,107.54c3.781,6.919 2.718,10.647 -4.157,14.482c-11.718,6.559 -23.531,12.938 -35.375,19.334c-5.875,3.194 -9.593,0.597 -12.469,-4.697c-9.781,-18.059 -19.656,-36.071 -29.499,-54.103l0.031,-0.028Z" style="fill:#fefefe;fill-rule:nonzero;"/><path d="M2740.53,3998.25l-0.062,0c-7.938,22.875 -15.844,45.75 -23.844,68.594c-2.344,6.688 -1.687,12 5.781,14.625c14.938,5.25 29.875,10.531 44.907,15.563c8.781,2.968 12.875,0.906 15.906,-7.844c15.875,-45.469 31.656,-90.938 47.406,-136.438c3.125,-9.094 1.531,-12.125 -7.875,-15.468c-14.125,-5.001 -28.281,-9.938 -42.469,-14.782c-9.843,-3.343 -12.687,-1.969 -16.156,7.969c-7.937,22.562 -15.719,45.187 -23.594,67.781Zm147.438,126.313c23.687,8.25 47.343,16.562 71.062,24.656c17.219,5.875 31.781,-5.844 29.313,-23.812c-0.688,-4.844 0.125,-6.282 4.937,-7.438c13.657,-3.25 20.094,-16.437 14.719,-29.469c-1.594,-3.906 -2.375,-5.781 3,-7.062c14.625,-3.563 21.5,-16.563 17,-31.188c-1.344,-4.281 -1.344,-7.125 3.437,-9.812c10.782,-6.094 15.563,-16 13.907,-28.281c-1.594,-11.625 -8.782,-18.844 -19.906,-22.625c-23.188,-7.875 -46.251,-16.157 -69.469,-23.969c-5.813,-1.938 -5.969,-3.406 -1.688,-7.625c10.469,-10.281 20.282,-21.219 28.875,-33.188c12.406,-17.343 17.813,-36.656 15.094,-57.875c-1.219,-9.5 -6.563,-16.125 -16.156,-19.406c-8.313,-2.844 -15.125,-1.344 -21.563,4.312c-4,3.5 -5.594,8.219 -6.625,12.845c-3.125,14.499 -12.437,23.218 -24.906,30.155c-16.906,9.407 -33.719,18.907 -49.781,29.969c-19.25,13.25 -30.781,31.563 -38.75,52.094c-12.594,32.5 -23.281,65.719 -34.688,98.688c-4.562,13.218 -1.219,20.062 11.938,24.656c23.406,8.188 46.812,16.281 70.25,24.375Zm111.093,-408.219c152.782,53.281 235.626,219.406 181.938,375.969c-53.187,155.218 -222.812,237.906 -378.094,183.687c-154.093,-53.812 -234.812,-221.875 -181.718,-375.937c53.906,-156.375 224.687,-237.719 377.874,-183.719Z" style="fill:#5e9dfd;fill-rule:nonzero;"/><path d="M2887.97,4124.59c-23.438,-8.125 -46.844,-16.218 -70.25,-24.406c-13.157,-4.594 -16.5,-11.438 -11.938,-24.656c11.407,-32.969 22.094,-66.188 34.688,-98.688c7.969,-20.531 19.5,-38.844 38.75,-52.094c16.062,-11.062 32.875,-20.562 49.781,-29.969c12.469,-6.937 21.781,-15.656 24.906,-30.155c1.031,-4.626 2.625,-9.345 6.625,-12.845c6.438,-5.656 13.25,-7.156 21.563,-4.312c9.593,3.281 14.937,9.906 16.156,19.406c2.719,21.219 -2.688,40.532 -15.094,57.875c-8.593,11.969 -18.406,22.907 -28.875,33.188c-4.281,4.219 -4.125,5.687 1.688,7.625c23.218,7.812 46.281,16.094 69.469,23.969c11.124,3.781 18.312,11 19.906,22.625c1.656,12.281 -3.125,22.187 -13.907,28.281c-4.781,2.687 -4.781,5.531 -3.437,9.812c4.5,14.625 -2.375,27.625 -17,31.188c-5.375,1.281 -4.594,3.156 -3,7.062c5.375,13.032 -1.062,26.219 -14.719,29.469c-4.812,1.156 -5.625,2.594 -4.937,7.438c2.468,17.968 -12.094,29.687 -29.313,23.812c-23.719,-8.094 -47.375,-16.406 -71.062,-24.625Z" style="fill:#fefefe;fill-rule:nonzero;"/><path d="M2740.53,3998.25c7.875,-22.594 15.657,-45.219 23.594,-67.781c3.469,-9.938 6.313,-11.312 16.156,-7.969c14.188,4.844 28.344,9.781 42.469,14.782c9.406,3.343 11,6.374 7.875,15.468c-15.75,45.5 -31.531,90.969 -47.406,136.438c-3.031,8.75 -7.125,10.812 -15.906,7.844c-15.032,-5.032 -29.969,-10.313 -44.907,-15.563c-7.468,-2.625 -8.125,-7.937 -5.781,-14.625c8,-22.844 15.906,-45.719 23.844,-68.594l0.062,0Z" style="fill:#fefefe;fill-rule:nonzero;"/></svg>