<?xml version="1.0" encoding="UTF-8" standalone="no"?><!DOCTYPE svg PUBLIC "-//W3C//DTD SVG 1.1//EN" "http://www.w3.org/Graphics/SVG/1.1/DTD/svg11.dtd"><svg width="100%" height="100%" viewBox="0 0 9430 7501" version="1.1" xmlns="http://www.w3.org/2000/svg" xmlns:xlink="http://www.w3.org/1999/xlink" xml:space="preserve" xmlns:serif="http://www.serif.com/" style="fill-rule:evenodd;clip-rule:evenodd;stroke-linejoin:round;stroke-miterlimit:2;"><path d="M3445.61,7423.69c0,0 -3724.53,-193.219 -3428.9,-4106.94c295.641,-3913.72 4142.87,-3876.71 5397.27,-2376.95c1254.41,1499.76 4143.03,722.902 4010.62,3495.32c-132.374,2772.44 -3982.37,3291.19 -5979,2988.56Z" style="fill:#eef2f9;fill-rule:nonzero;"/><rect x="4338.45" y="472.834" width="4295.06" height="2362.98" style="fill:#e3e9f6;fill-rule:nonzero;"/><rect x="4423.14" y="561.319" width="4117.09" height="2202.18" style="fill:#fff;fill-rule:nonzero;"/><path d="M8540.23,2763.5l-1779.69,0c-89.875,-94.781 -187.626,-149.844 -187.626,-149.844l-166.999,-46.062c0,0 -48.438,6.062 -82.5,85.906c-6.406,13.219 -11.75,28.125 -15.188,44.844c-0.969,3.656 -1.906,7.406 -2.812,11.25c-1.219,5.094 -2.281,10.344 -3.375,15.813c-2.313,11.781 -4.344,24.468 -6.031,38.093l-1872.88,0l4117.09,-2202.18l0,2202.18Z" style="fill:#f2f5fb;fill-rule:nonzero;"/><path d="M6081.52,905.035l-1408.78,0c-1.031,0 -1.843,-0.819 -1.843,-1.841c0,-1.016 0.812,-1.834 1.843,-1.834l1408.78,0c1.032,0 1.844,0.818 1.844,1.834c0,1.022 -0.812,1.841 -1.844,1.841Z" style="fill:#9bcafe;fill-rule:nonzero;"/><path d="M6081.52,1048.69l-1408.78,0c-1.031,0 -1.843,-0.822 -1.843,-1.841c0,-1.015 0.812,-1.837 1.843,-1.837l1408.78,0c1.032,0 1.844,0.822 1.844,1.837c0,1.019 -0.812,1.841 -1.844,1.841Z" style="fill:#9bcafe;fill-rule:nonzero;"/><path d="M6081.52,1192.34l-1408.78,0c-1.031,0 -1.843,-0.819 -1.843,-1.838c0,-1.018 0.812,-1.837 1.843,-1.837l1408.78,0c1.032,0 1.844,0.819 1.844,1.837c0,1.019 -0.812,1.838 -1.844,1.838Z" style="fill:#9bcafe;fill-rule:nonzero;"/><path d="M6081.52,1335.99l-1408.78,0c-1.031,0 -1.843,-0.822 -1.843,-1.841c0,-1.015 0.812,-1.837 1.843,-1.837l1408.78,0c1.032,0 1.844,0.822 1.844,1.837c0,1.019 -0.812,1.841 -1.844,1.841Z" style="fill:#9bcafe;fill-rule:nonzero;"/><path d="M6081.52,1479.64l-1408.78,0c-1.031,0 -1.843,-0.819 -1.843,-1.838c0,-1.018 0.812,-1.837 1.843,-1.837l1408.78,0c1.032,0 1.844,0.819 1.844,1.837c0,1.019 -0.812,1.838 -1.844,1.838Z" style="fill:#9bcafe;fill-rule:nonzero;"/><path d="M6081.52,1623.29l-1408.78,0c-1.031,0 -1.843,-0.822 -1.843,-1.841c0,-1.015 0.812,-1.837 1.843,-1.837l1408.78,0c1.032,0 1.844,0.822 1.844,1.837c0,1.019 -0.812,1.841 -1.844,1.841Z" style="fill:#9bcafe;fill-rule:nonzero;"/><path d="M6081.52,1766.94l-1408.78,0c-1.031,0 -1.843,-0.819 -1.843,-1.838c0,-1.018 0.812,-1.837 1.843,-1.837l1408.78,0c1.032,0 1.844,0.819 1.844,1.837c0,1.019 -0.812,1.838 -1.844,1.838Z" style="fill:#9bcafe;fill-rule:nonzero;"/><path d="M6081.52,1910.6l-1408.78,0c-1.031,0 -1.843,-0.822 -1.843,-1.837c0,-1.019 0.812,-1.841 1.843,-1.841l1408.78,0c1.032,0 1.844,0.822 1.844,1.841c0,1.015 -0.812,1.837 -1.844,1.837Z" style="fill:#9bcafe;fill-rule:nonzero;"/><path d="M4800.2,2078.38c-1,0 -1.844,-0.844 -1.844,-1.845l0,-1205.1c0,-1.015 0.844,-1.837 1.844,-1.837c1.031,0 1.844,0.822 1.844,1.837l0,1205.1c0,1.001 -0.813,1.845 -1.844,1.845Z" style="fill:#9bcafe;fill-rule:nonzero;"/><path d="M4967.77,2078.38c-1.032,0 -1.845,-0.844 -1.845,-1.845l0,-1205.1c0,-1.015 0.813,-1.837 1.845,-1.837c1,0 1.843,0.822 1.843,1.837l0,1205.1c0,1.001 -0.843,1.845 -1.843,1.845Z" style="fill:#9bcafe;fill-rule:nonzero;"/><path d="M5135.3,2078.38c-1.03,0 -1.843,-0.844 -1.843,-1.845l0,-1205.1c0,-1.015 0.813,-1.837 1.843,-1.837c1.001,0 1.844,0.822 1.844,1.837l0,1205.1c0,1.001 -0.843,1.845 -1.844,1.845Z" style="fill:#9bcafe;fill-rule:nonzero;"/><path d="M5302.8,2078.38c-1.001,0 -1.844,-0.844 -1.844,-1.845l0,-1205.1c0,-1.015 0.843,-1.837 1.844,-1.837c1.031,0 1.844,0.822 1.844,1.837l0,1205.1c0,1.001 -0.813,1.845 -1.844,1.845Z" style="fill:#9bcafe;fill-rule:nonzero;"/><path d="M5470.33,2078.38c-1,0 -1.844,-0.844 -1.844,-1.845l0,-1205.1c0,-1.015 0.844,-1.837 1.844,-1.837c1.031,0 1.843,0.822 1.843,1.837l0,1205.1c0,1.001 -0.812,1.845 -1.843,1.845Z" style="fill:#9bcafe;fill-rule:nonzero;"/><path d="M5637.86,2078.38c-1,0 -1.844,-0.844 -1.844,-1.845l0,-1205.1c0,-1.015 0.844,-1.837 1.844,-1.837c1.032,0 1.844,0.822 1.844,1.837l0,1205.1c0,1.001 -0.812,1.845 -1.844,1.845Z" style="fill:#9bcafe;fill-rule:nonzero;"/><path d="M5805.39,2078.38c-1.032,0 -1.844,-0.844 -1.844,-1.845l0,-1205.1c0,-1.015 0.812,-1.837 1.844,-1.837c1.03,0 1.843,0.822 1.843,1.837l0,1205.1c0,1.001 -0.813,1.845 -1.843,1.845Z" style="fill:#9bcafe;fill-rule:nonzero;"/><path d="M5972.92,2078.38c-1.03,0 -1.843,-0.844 -1.843,-1.845l0,-1205.1c0,-1.015 0.813,-1.837 1.843,-1.837c1.032,0 1.844,0.822 1.844,1.837l0,1205.1c0,1.001 -0.812,1.845 -1.844,1.845Z" style="fill:#9bcafe;fill-rule:nonzero;"/><path d="M6081.52,2088.72l-1421.03,0l0,-1242.5l24.5,0l0,1218l1396.53,0l0,24.5Z" style="fill:#9bcafe;fill-rule:nonzero;"/><path d="M4750.3,2047.62c-4,0 -8.031,-1.312 -11.437,-4c-7.937,-6.312 -9.25,-17.906 -2.937,-25.844l248.531,-312.759l234.468,152.466l276.719,-313.981l158.876,180.099l334.812,-374.112c6.781,-7.556 18.375,-8.228 25.969,-1.435c7.562,6.769 8.188,18.398 1.437,25.969l-362.406,404.953l-158.656,-179.856l-270.157,306.519l-233.062,-151.553l-227.75,286.566c-3.625,4.562 -9,6.968 -14.407,6.968Z" style="fill:#81bcfd;fill-rule:nonzero;"/><path d="M6032.58,1390.97c15.25,-17.072 13.812,-43.306 -3.25,-58.584c-17.094,-15.275 -43.313,-13.822 -58.594,3.25c-15.281,17.071 -13.812,43.306 3.25,58.584c17.063,15.278 43.312,13.822 58.594,-3.25Z" style="fill:#81bcfd;fill-rule:nonzero;"/><path d="M4750.3,1897.38c-3.937,0 -7.875,-1.26 -11.249,-3.851c-8.032,-6.215 -9.5,-17.768 -3.281,-25.796l120.343,-155.466c4.906,-6.4 13.469,-8.813 21.063,-5.944l276.5,104.732c27.125,-35.453 121.281,-153.9 454.906,-567.313c4.25,-5.269 11.031,-7.809 17.719,-6.528l224.937,42.441l140.094,-123.375c7.625,-6.722 19.25,-5.969 25.968,1.647c6.688,7.622 5.97,19.24 -1.655,25.953l-146.844,129.312c-4.25,3.76 -9.969,5.322 -15.563,4.275l-222.937,-42.062c-178.501,221.209 -440.813,547.243 -454.625,566.937c-1.844,3.156 -4.625,5.715 -7.969,7.316c-4.531,2.137 -9.719,2.359 -14.407,0.588l-276.437,-104.704l-112,144.7c-3.625,4.681 -9.062,7.138 -14.563,7.138Z" style="fill:#ed442e;fill-rule:nonzero;"/><path d="M6029.33,1202.59c17.219,-15.144 18.875,-41.363 3.718,-58.556c-15.124,-17.194 -41.343,-18.857 -58.531,-3.716c-17.219,15.141 -18.875,41.362 -3.718,58.556c15.125,17.194 41.343,18.857 58.531,3.716Z" style="fill:#81bcfd;fill-rule:nonzero;"/><path d="M4750.33,1837.85c-2.094,0 -4.219,-0.35 -6.282,-1.106c-9.562,-3.456 -14.499,-14.003 -11.031,-23.553l190.438,-525.934c3.437,-9.513 13.938,-14.481 23.469,-11.057l253.656,90.519c26.437,-30.85 110.344,-122.381 381.656,-414.475c6.187,-6.669 16.312,-7.819 23.844,-2.669l228.406,155.938l157.406,-129.86c7.813,-6.459 19.407,-5.34 25.876,2.484c6.468,7.838 5.374,19.429 -2.469,25.895l-168.063,138.652c-6.344,5.204 -15.312,5.616 -22.063,1.001l-226.749,-154.807c-148.594,160.007 -362.938,391.676 -377.063,409.297c-1.625,2.5 -3.844,4.603 -6.5,6.082c-4.625,2.543 -10.124,2.993 -15.094,1.221l-247.969,-88.484l-184.187,508.722c-2.718,7.484 -9.781,12.134 -17.281,12.134Z" style="fill:#397cf2;fill-rule:nonzero;"/><path d="M6028.39,1023.17c17.657,-14.581 20.188,-40.735 5.594,-58.406c-14.562,-17.672 -40.719,-20.181 -58.406,-5.601c-17.657,14.579 -20.187,40.732 -5.594,58.407c14.594,17.668 40.75,20.178 58.406,5.6Z" style="fill:#81bcfd;fill-rule:nonzero;"/><rect x="6457.7" y="895.041" width="698.093" height="68.246" style="fill:#e3e9f6;fill-rule:nonzero;"/><rect x="6457.7" y="895.041" width="423.531" height="68.246" style="fill:#3694fc;fill-rule:nonzero;"/><rect x="6457.7" y="1065.67" width="698.093" height="68.25" style="fill:#e3e9f6;fill-rule:nonzero;"/><rect x="6457.7" y="1065.67" width="497.187" height="68.25" style="fill:#3694fc;fill-rule:nonzero;"/><rect x="6457.7" y="1236.29" width="698.093" height="68.25" style="fill:#e3e9f6;fill-rule:nonzero;"/><rect x="6457.7" y="1236.29" width="332.249" height="68.25" style="fill:#3694fc;fill-rule:nonzero;"/><rect x="6457.7" y="1406.92" width="698.093" height="68.25" style="fill:#e3e9f6;fill-rule:nonzero;"/><rect x="6457.7" y="1406.92" width="525.656" height="68.25" style="fill:#3694fc;fill-rule:nonzero;"/><rect x="6457.7" y="1577.54" width="698.093" height="68.25" style="fill:#e3e9f6;fill-rule:nonzero;"/><rect x="6457.7" y="1577.54" width="462.5" height="68.25" style="fill:#3694fc;fill-rule:nonzero;"/><path d="M6390.27,1611.92l47.876,0l0,-4.047l-47.876,0" style="fill:#a1c6e5;fill-rule:nonzero;"/><path d="M6390.27,1442.24l47.876,0l0,-4.047l-47.876,0" style="fill:#a1c6e5;fill-rule:nonzero;"/><path d="M6390.27,1272.56l47.876,0l0,-4.047l-47.876,0" style="fill:#a1c6e5;fill-rule:nonzero;"/><path d="M6390.27,1102.89l47.876,0l0,-4.05l-47.876,0" style="fill:#a1c6e5;fill-rule:nonzero;"/><path d="M6390.27,933.213l47.876,0l0,-4.047l-47.876,0" style="fill:#a1c6e5;fill-rule:nonzero;"/><rect x="6382.11" y="875.929" width="16.313" height="788.972" style="fill:#c3dffe;fill-rule:nonzero;"/><path d="M5234.7,2299l-568.063,0c-2.031,0 -3.718,-1.687 -3.718,-3.75l0,-19.125c0,-2.031 1.687,-3.718 3.718,-3.718l568.063,0c2.031,0 3.718,1.687 3.718,3.718l0,19.125c0,2.063 -1.687,3.75 -3.718,3.75Z" style="fill:#52a3fc;fill-rule:nonzero;"/><path d="M5234.7,2357.69l-568.063,0c-2.031,0 -3.718,-1.688 -3.718,-3.719l0,-19.156c0,-2.032 1.687,-3.719 3.718,-3.719l568.063,0c2.031,0 3.718,1.687 3.718,3.719l0,19.156c0,2.031 -1.687,3.719 -3.718,3.719Z" style="fill:#52a3fc;fill-rule:nonzero;"/><path d="M5234.7,2416.38l-568.063,0c-2.031,0 -3.718,-1.656 -3.718,-3.718l0,-19.125c0,-2.063 1.687,-3.751 3.718,-3.751l568.063,0c2.031,0 3.718,1.688 3.718,3.751l0,19.125c0,2.062 -1.687,3.718 -3.718,3.718Z" style="fill:#52a3fc;fill-rule:nonzero;"/><path d="M4946.95,2475.06l-280.313,0c-2.031,0 -3.718,-1.657 -3.718,-3.719l0,-19.125c0,-2.062 1.687,-3.719 3.718,-3.719l280.313,0c2.031,0 3.719,1.657 3.719,3.719l0,19.125c0,2.062 -1.688,3.719 -3.719,3.719Z" style="fill:#52a3fc;fill-rule:nonzero;"/><path d="M7743.08,1315.58l-271.719,20.231l-28.562,-383.56l271.718,-20.228l28.563,383.557Z" style="fill:#f8bc3f;fill-rule:nonzero;"/><path d="M8071.17,1494.66l-260,-81.472l115.001,-367.025l259.999,81.472l-115,367.025Z" style="fill:#81bcfd;fill-rule:nonzero;"/><path d="M7786.52,2260.03l-271.719,20.219l-28.563,-383.553l271.719,-20.228l28.563,383.562Z" style="fill:#f8bc3f;fill-rule:nonzero;"/><path d="M7524.67,1744.26l-193.282,-60.572l85.5,-272.862l193.282,60.568l-85.5,272.866Z" style="fill:#52a3fc;fill-rule:nonzero;"/><path d="M7981.02,1772.63l-194,58.354l-82.374,-273.825l193.999,-58.354l82.375,273.825Z" style="fill:#81bcfd;fill-rule:nonzero;"/><path d="M8020.08,1116.56c0,12.178 -9.875,22.047 -22.063,22.047c-12.187,0 -22.031,-9.869 -22.031,-22.047c0,-12.175 9.844,-22.047 22.031,-22.047c12.188,0 22.063,9.872 22.063,22.047Z" style="fill:#d43d31;fill-rule:nonzero;"/><path d="M7840.33,1583.27c0,12.175 -9.875,22.047 -22.063,22.047c-12.156,0 -22.031,-9.872 -22.031,-22.047c0,-12.175 9.875,-22.047 22.031,-22.047c12.188,0 22.063,9.872 22.063,22.047Z" style="fill:#d43d31;fill-rule:nonzero;"/><path d="M7751.55,1934.34c0,16.016 -12.969,29.003 -29,29.003c-16.001,0 -29,-12.987 -29,-29.003c0,-16.016 12.999,-29 29,-29c16.031,0 29,12.984 29,29Z" style="fill:#d43d31;fill-rule:nonzero;"/><path d="M7700.8,978.701c0,12.178 -9.876,22.046 -22.063,22.046c-12.156,0 -22.031,-9.868 -22.031,-22.046c0,-12.175 9.875,-22.048 22.031,-22.048c12.187,0 22.063,9.873 22.063,22.048Z" style="fill:#d43d31;fill-rule:nonzero;"/><path d="M4173.92,6795.22c0,49.375 -305.938,89.375 -683.313,89.375c-377.375,0 -683.313,-40 -683.313,-89.375c0,-49.375 305.938,-89.406 683.313,-89.406c377.375,0 683.313,40.031 683.313,89.406Z" style="fill:#85b4fd;fill-rule:nonzero;"/><path d="M7822.58,6622.03c0,49.375 -797.781,89.407 -1781.88,89.407c-984.094,0 -1781.88,-40.032 -1781.88,-89.407c0,-49.374 797.781,-89.374 1781.88,-89.374c984.094,0 1781.88,40 1781.88,89.374Z" style="fill:#85b4fd;fill-rule:nonzero;"/><path d="M3852.3,6763.34c0,0 -70.875,19.031 -151.032,-6.25c-80.125,-25.344 -119.812,-320.719 -119.812,-320.719c0,0 18.594,-293.062 -13,-442.812c-31.563,-149.75 -10.594,-466.156 4.156,-520.969c4.344,-16.188 5.031,-46.466 3.844,-81.187c-2.844,-82.907 -16.5,-190.907 -16.5,-190.907c0,0 278.403,-128.687 316.375,16.875c7.969,30.563 9.809,73.125 7.403,122.469c-8.903,185.469 -77.313,466.375 -102.309,563.031c-31.625,122.281 -61.063,482.688 -23.094,632.469c37.969,149.75 93.969,228 93.969,228Z" style="fill:#dba78b;fill-rule:nonzero;"/><path d="M3876.33,5217.38c7.969,30.563 9.809,73.125 7.403,122.469c-59.622,20.281 -215.466,68.375 -307.278,51.563c-2.844,-82.907 -16.5,-190.907 -16.5,-190.907c0,0 278.403,-128.687 316.375,16.875Z" style="fill:#b78b73;fill-rule:nonzero;"/><path d="M4601.73,4121.31l-215.375,-807.094l896.562,0l195.032,807.094l-876.219,0Z" style="fill:#011158;fill-rule:nonzero;"/><path d="M5424.27,4060.25l-801,0l-13.72,-51.937l-12.03,-45.75l-160.626,-611.032l805,0l182.376,708.719Z" style="fill:#52a3fc;fill-rule:nonzero;"/><path d="M4609.55,4008.31l-12.03,-45.75l319.5,-611.032l47.437,0l-354.907,656.782Z" style="fill:#9bcafd;fill-rule:nonzero;"/><path d="M4836.73,4056.94l-124,0l355.813,-705.407l112.093,0l-343.906,705.407Z" style="fill:#9bcafd;fill-rule:nonzero;"/><path d="M4616.42,4034.31l21.906,87l1137.09,0l0,-87l-1159,0Z" style="fill:#011158;fill-rule:nonzero;"/><path d="M2021.61,3091.72l-495.563,0c-3.53,0 -6.437,-2.906 -6.437,-6.437l0,-76.25c0,-3.563 2.907,-6.469 6.437,-6.469l495.563,0l0,89.156Z" style="fill:#d8e2f3;fill-rule:nonzero;"/><path d="M2019.83,3081.38l-495.156,0c-2.782,0 -5.063,-2.281 -5.063,-5.062l0,-58.344c0,-2.781 2.281,-5.031 5.063,-5.031l495.156,0c2.781,0 5.031,2.25 5.031,5.031l0,58.344c0,2.781 -2.25,5.062 -5.031,5.062Z" style="fill:#d8e2f3;fill-rule:nonzero;"/><path d="M1863.8,3091.72l-339.407,0c-2.625,0 -4.781,-2.156 -4.781,-4.781l0,-79.563c0,-2.656 2.156,-4.812 4.781,-4.812l339.407,0c2.625,0 4.781,2.156 4.781,4.812l0,79.563c0,2.625 -2.156,4.781 -4.781,4.781Z" style="fill:#d8e2f3;fill-rule:nonzero;"/><path d="M2049.05,3002.56l-495.563,0c-3.531,0 -6.437,-2.875 -6.437,-6.438l0,-76.25c0,-3.531 2.906,-6.437 6.437,-6.437l495.563,0l0,89.125Z" style="fill:#d8e2f3;fill-rule:nonzero;"/><path d="M2047.27,2992.22l-495.156,0c-2.812,0 -5.062,-2.25 -5.062,-5.031l0,-58.344c0,-2.781 2.25,-5.063 5.062,-5.063l495.156,0c2.782,0 5.032,2.282 5.032,5.063l0,58.344c0,2.781 -2.25,5.031 -5.032,5.031Z" style="fill:#d8e2f3;fill-rule:nonzero;"/><path d="M1891.2,3002.56l-339.375,0c-2.625,0 -4.781,-2.125 -4.781,-4.781l0,-79.563c0,-2.625 2.156,-4.781 4.781,-4.781l339.375,0c2.656,0 4.812,2.156 4.812,4.781l0,79.563c0,2.656 -2.156,4.781 -4.812,4.781Z" style="fill:#d8e2f3;fill-rule:nonzero;"/><path d="M2028.3,2913.44l-495.563,0c-3.563,0 -6.437,-2.875 -6.437,-6.438l0,-76.25c0,-3.562 2.874,-6.437 6.437,-6.437l495.563,0l0,89.125Z" style="fill:#d8e2f3;fill-rule:nonzero;"/><path d="M2026.48,2903.09l-495.156,0c-2.781,0 -5.031,-2.25 -5.031,-5.031l0,-58.344c0,-2.812 2.25,-5.063 5.031,-5.063l495.156,0c2.781,0 5.031,2.251 5.031,5.063l0,58.344c0,2.781 -2.25,5.031 -5.031,5.031Z" style="fill:#d8e2f3;fill-rule:nonzero;"/><path d="M1870.45,2913.44l-339.375,0c-2.657,0 -4.781,-2.125 -4.781,-4.781l0,-79.563c0,-2.656 2.124,-4.781 4.781,-4.781l339.375,0c2.656,0 4.781,2.125 4.781,4.781l0,79.563c0,2.656 -2.125,4.781 -4.781,4.781Z" style="fill:#d8e2f3;fill-rule:nonzero;"/><path d="M2117.95,2824.31l-157.844,0c2.656,0 4.781,-2.157 4.781,-4.781l0,-5.563l151.25,0c0.625,0 1.251,-0.125 1.813,-0.344l0,10.688Z" style="fill:#e3eaf6;fill-rule:nonzero;"/><path d="M2117.95,2745.84c-0.562,-0.188 -1.188,-0.313 -1.813,-0.313l-151.25,0l0,-5.562c0,-2.656 -2.125,-4.781 -4.781,-4.781l-337.719,0l495.563,0l0,10.656Z" style="fill:#e3eaf6;fill-rule:nonzero;"/><path d="M2116.14,2813.97l-151.25,0l0,-68.438l151.25,0c0.625,0 1.251,0.125 1.813,0.313c1.875,0.75 3.25,2.562 3.25,4.719l0,58.343c0,2.157 -1.375,4.001 -3.25,4.719c-0.562,0.219 -1.188,0.344 -1.813,0.344Z" style="fill:#e3eaf6;fill-rule:nonzero;"/><path d="M1960.11,2824.31l-339.375,0c-2.656,0 -4.781,-2.157 -4.781,-4.781l0,-79.563c0,-2.656 2.125,-4.781 4.781,-4.781l339.375,0c2.656,0 4.781,2.125 4.781,4.781l0,79.563c0,2.624 -2.125,4.781 -4.781,4.781Z" style="fill:#e3eaf6;fill-rule:nonzero;"/><path d="M2910.33,3600.25l-11.188,0l0,-10.343l11.188,0l0,10.343Zm-100.312,0l-18.188,0c2.625,0 4.781,-2.156 4.781,-4.781l0,-5.562l13.407,0l0,10.343Zm100.312,-78.781l-11.188,0l0,-10.375l11.188,0l0,10.375Zm-100.312,0l-13.407,0l0,-5.563c0,-2.656 -2.156,-4.812 -4.781,-4.812l-91.563,0l109.751,0l0,10.375Z" style="fill:#e2e9f6;fill-rule:nonzero;"/><path d="M2910.33,3589.91l-11.188,0l0,-68.438l11.188,0l0,68.438Zm-100.312,0l-13.407,0l0,-68.438l13.407,0l0,68.438Z" style="fill:#e2e9f6;fill-rule:nonzero;"/><path d="M2791.83,3600.25l-91.563,0l0,-89.156l91.563,0c2.625,0 4.781,2.156 4.781,4.812l0,79.563c0,2.625 -2.156,4.781 -4.781,4.781Zm-180.687,0l-11.188,0l0,-89.156l11.188,0l0,89.156Zm-100.313,0l-58.375,0c-2.656,0 -4.781,-2.156 -4.781,-4.781l0,-79.563c0,-2.656 2.125,-4.812 4.781,-4.812l58.375,0l0,89.156Z" style="fill:#e2e9f6;fill-rule:nonzero;"/><path d="M2239.8,4485.12l-495.532,0c-3.562,0 -6.437,-2.875 -6.437,-6.437l0,-76.25c0,-3.563 2.875,-6.438 6.437,-6.438l495.532,0l0,89.125Z" style="fill:#d8e2f3;fill-rule:nonzero;"/><path d="M2238.01,4474.78l-495.156,0c-2.781,0 -5.031,-2.282 -5.031,-5.063l0,-58.344c0,-2.781 2.25,-5.031 5.031,-5.031l495.156,0c2.782,0 5.032,2.25 5.032,5.031l0,58.344c0,2.781 -2.25,5.063 -5.032,5.063Z" style="fill:#d8e2f3;fill-rule:nonzero;"/><path d="M2081.98,4485.12l-339.375,0c-2.656,0 -4.781,-2.156 -4.781,-4.781l0,-79.562c0,-2.657 2.125,-4.782 4.781,-4.782l339.375,0c2.625,0 4.781,2.125 4.781,4.782l0,79.562c0,2.625 -2.156,4.781 -4.781,4.781Z" style="fill:#d8e2f3;fill-rule:nonzero;"/><path d="M2267.23,4396l-495.531,0c-3.563,0 -6.469,-2.906 -6.469,-6.468l0,-76.219c0,-3.563 2.906,-6.469 6.469,-6.469l495.531,0l0,89.156Z" style="fill:#d8e2f3;fill-rule:nonzero;"/><path d="M2265.45,4385.62l-495.156,0c-2.782,0 -5.063,-2.25 -5.063,-5.031l0,-58.344c0,-2.781 2.281,-5.062 5.063,-5.062l495.156,0c2.781,0 5.031,2.281 5.031,5.062l0,58.344c0,2.781 -2.25,5.031 -5.031,5.031Z" style="fill:#d8e2f3;fill-rule:nonzero;"/><path d="M2109.42,4396l-339.375,0c-2.656,0 -4.813,-2.156 -4.813,-4.812l0,-79.563c0,-2.625 2.157,-4.781 4.813,-4.781l339.375,0c2.625,0 4.781,2.156 4.781,4.781l0,79.563c0,2.656 -2.156,4.812 -4.781,4.812Z" style="fill:#d8e2f3;fill-rule:nonzero;"/><path d="M2161.67,4306.84l-157.844,0c2.656,0 4.781,-2.125 4.781,-4.781l0,-5.563l151.25,0c0.625,0 1.25,-0.125 1.813,-0.343l0,10.687Z" style="fill:#e3eaf6;fill-rule:nonzero;"/><path d="M2161.67,4306.84l-157.844,0l157.844,0Z" style="fill:#d8e2f3;fill-rule:nonzero;"/><path d="M2161.67,4228.41c-0.563,-0.218 -1.188,-0.343 -1.813,-0.343l-151.25,0l0,-5.563c0,-2.656 -2.125,-4.781 -4.781,-4.781l-337.719,0l495.563,0l0,10.687Z" style="fill:#e3eaf6;fill-rule:nonzero;"/><path d="M2159.86,4296.5l-151.25,0l0,-68.437l151.25,0c0.625,0 1.25,0.125 1.813,0.343c1.874,0.719 3.25,2.563 3.25,4.719l0,58.344c0,2.125 -1.376,3.969 -3.25,4.688c-0.563,0.218 -1.188,0.343 -1.813,0.343Z" style="fill:#e3eaf6;fill-rule:nonzero;"/><path d="M2003.83,4306.84l-339.375,0c-2.656,0 -4.782,-2.125 -4.782,-4.781l0,-79.563c0,-2.656 2.126,-4.781 4.782,-4.781l339.375,0c2.656,0 4.781,2.125 4.781,4.781l0,79.563c0,2.656 -2.125,4.781 -4.781,4.781Z" style="fill:#e3eaf6;fill-rule:nonzero;"/><path d="M2972.48,3084.44l0,-540.969c0,-0.969 0.813,-1.781 1.813,-1.781l85.531,0c1,0 1.781,0.812 1.781,1.781l0,540.969c0,1 -0.781,1.812 -1.781,1.812l-85.531,0c-1,0 -1.813,-0.812 -1.813,-1.812Z" style="fill:#d8e2f3;fill-rule:nonzero;"/><path d="M2995.23,2843.25l0,-263.031c0,-1 0.813,-1.813 1.813,-1.813l40.031,0c1,0 1.813,0.813 1.813,1.813l0,263.031c0,1 -0.813,1.782 -1.813,1.782l-40.031,0c-1,0 -1.813,-0.782 -1.813,-1.782Z" style="fill:#d8e2f3;fill-rule:nonzero;"/><path d="M2873.45,3084.44l0,-540.969c0,-0.969 0.812,-1.781 1.812,-1.781l85.532,0c1,0 1.781,0.812 1.781,1.781l0,540.969c0,1 -0.781,1.812 -1.781,1.812l-85.532,0c-1,0 -1.812,-0.812 -1.812,-1.812Z" style="fill:#d8e2f3;fill-rule:nonzero;"/><path d="M2896.2,2843.25l0,-263.031c0,-1 0.812,-1.813 1.781,-1.813l40.063,0c1,0 1.781,0.813 1.781,1.813l0,263.031c0,1 -0.781,1.782 -1.781,1.782l-40.063,0c-0.969,0 -1.781,-0.782 -1.781,-1.782Z" style="fill:#d8e2f3;fill-rule:nonzero;"/><path d="M2863.55,3080.72l-89.124,0l0,-537.25c0,-1 0.812,-1.781 1.781,-1.781l85.562,0c0.969,0 1.781,0.781 1.781,1.781l0,537.25Zm-64.593,-502.313c-0.969,0 -1.782,0.813 -1.782,1.813l0,263.031c0,1 0.813,1.782 1.782,1.782l40.062,0c1,0 1.782,-0.782 1.782,-1.782l0,-263.031c0,-1 -0.782,-1.813 -1.782,-1.813l-40.062,0Z" style="fill:#e3eaf6;fill-rule:nonzero;"/><path d="M2839.01,2845.03l-40.062,0c-0.969,0 -1.782,-0.782 -1.782,-1.782l0,-263.031c0,-1 0.813,-1.813 1.782,-1.813l40.062,0c1,0 1.782,0.813 1.782,1.813l0,263.031c0,1 -0.782,1.782 -1.782,1.782Z" style="fill:#e3eaf6;fill-rule:nonzero;"/><path d="M2699.3,3084.44l0,-394.906c0,-1.001 0.812,-1.782 1.781,-1.782l61.656,0c0.969,0 1.781,0.781 1.781,1.782l0,394.906c0,1 -0.812,1.812 -1.781,1.812l-61.656,0c-0.969,0 -1.781,-0.812 -1.781,-1.812Z" style="fill:#d8e2f3;fill-rule:nonzero;"/><path d="M2715.92,2907.94l0,-191.531c0,-0.969 0.813,-1.782 1.813,-1.782l28.344,0c1,0 1.781,0.813 1.781,1.782l0,191.531c0,1 -0.781,1.812 -1.781,1.812l-28.344,0c-1,0 -1.813,-0.812 -1.813,-1.812Z" style="fill:#d8e2f3;fill-rule:nonzero;"/><path d="M2626.83,3084.44l0,-394.906c0,-1.001 0.781,-1.782 1.781,-1.782l61.625,0c1,0 1.813,0.781 1.813,1.782l0,394.906c0,1 -0.813,1.812 -1.813,1.812l-61.625,0c-1,0 -1.781,-0.812 -1.781,-1.812Z" style="fill:#d8e2f3;fill-rule:nonzero;"/><path d="M2643.45,2907.94l0,-191.531c0,-0.969 0.812,-1.782 1.812,-1.782l28.344,0c1,0 1.781,0.813 1.781,1.782l0,191.531c0,1 -0.781,1.812 -1.781,1.812l-28.344,0c-1,0 -1.812,-0.812 -1.812,-1.812Z" style="fill:#d8e2f3;fill-rule:nonzero;"/><path d="M1737.05,2126.19l0,-540.965c0,-0.99 -0.813,-1.797 -1.782,-1.797l-85.562,0c-0.969,0 -1.782,0.807 -1.782,1.797l0,540.965c0,1.001 0.813,1.813 1.782,1.813l85.562,0c0.969,0 1.782,-0.812 1.782,-1.813Z" style="fill:#d8e2f3;fill-rule:nonzero;"/><path d="M1714.3,1884.99l0,-263.031c0,-0.994 -0.781,-1.797 -1.782,-1.797l-40.062,0c-1,0 -1.781,0.803 -1.781,1.797l0,263.031c0,0.994 0.781,1.797 1.781,1.797l40.062,0c1.001,0 1.782,-0.803 1.782,-1.797Z" style="fill:#d8e2f3;fill-rule:nonzero;"/><path d="M1836.08,2126.19l0,-540.965c0,-0.99 -0.781,-1.797 -1.782,-1.797l-85.531,0c-1,0 -1.812,0.807 -1.812,1.797l0,540.965c0,1.001 0.812,1.813 1.812,1.813l85.531,0c1.001,0 1.782,-0.812 1.782,-1.813Z" style="fill:#d8e2f3;fill-rule:nonzero;"/><path d="M1813.33,1884.99l0,-263.031c0,-0.994 -0.781,-1.797 -1.781,-1.797l-40.063,0c-0.968,0 -1.781,0.803 -1.781,1.797l0,263.031c0,0.994 0.813,1.797 1.781,1.797l40.063,0c1,0 1.781,-0.803 1.781,-1.797Z" style="fill:#d8e2f3;fill-rule:nonzero;"/><path d="M1933.33,2128l-85.531,0c-1.001,0 -1.813,-0.812 -1.813,-1.813l0,-540.965c0,-0.99 0.812,-1.797 1.813,-1.797l85.531,0c1,0 1.781,0.807 1.781,1.797l0,540.965c0,1.001 -0.781,1.813 -1.781,1.813Zm-62.781,-507.834c-1,0 -1.813,0.8 -1.813,1.797l0,263.034c0,0.991 0.813,1.797 1.813,1.797l40.031,0c1,0 1.781,-0.806 1.781,-1.797l0,-263.034c0,-0.997 -0.781,-1.797 -1.781,-1.797l-40.031,0Z" style="fill:#e3eaf6;fill-rule:nonzero;"/><path d="M1910.58,1886.79l-40.031,0c-1,0 -1.813,-0.806 -1.813,-1.797l0,-263.034c0,-0.997 0.813,-1.797 1.813,-1.797l40.031,0c1,0 1.781,0.8 1.781,1.797l0,263.034c0,0.991 -0.781,1.797 -1.781,1.797Z" style="fill:#e3eaf6;fill-rule:nonzero;"/><path d="M2010.27,2126.19l0,-394.905c0,-0.995 -0.812,-1.797 -1.812,-1.797l-61.625,0c-1,0 -1.813,0.802 -1.813,1.793l0,394.909c0,1.001 0.813,1.813 1.813,1.813l61.625,0c1,0 1.812,-0.812 1.812,-1.813Z" style="fill:#d8e2f3;fill-rule:nonzero;"/><path d="M1993.61,1949.69l0,-191.521c0,-0.994 -0.812,-1.797 -1.812,-1.797l-28.344,0c-0.969,0 -1.781,0.803 -1.781,1.797l0,191.521c0,0.992 0.812,1.798 1.781,1.798l28.344,0c1,0 1.812,-0.806 1.812,-1.798Z" style="fill:#d8e2f3;fill-rule:nonzero;"/><path d="M2220.73,2100.47l-144.906,-367.388c-0.344,-0.921 -1.406,-1.374 -2.313,-1.009l-57.343,22.61c-0.907,0.365 -1.375,1.409 -1,2.33l144.874,367.395c0.375,0.906 1.407,1.375 2.313,0.999l57.344,-22.625c0.937,-0.343 1.375,-1.406 1.031,-2.312Z" style="fill:#d8e2f3;fill-rule:nonzero;"/><path d="M2140.48,1942.37l-70.25,-178.169c-0.375,-0.922 -1.406,-1.375 -2.344,-1.012l-26.375,10.397c-0.906,0.365 -1.375,1.409 -1,2.331l70.251,178.168c0.375,0.926 1.406,1.379 2.343,1.013l26.375,-10.397c0.906,-0.365 1.375,-1.409 1,-2.331Z" style="fill:#d8e2f3;fill-rule:nonzero;"/><path d="M2870.64,4472.97l0,-540.969c0,-1 0.813,-1.781 1.813,-1.781l85.531,0c1,0 1.813,0.781 1.813,1.781l0,540.969c0,1 -0.813,1.813 -1.813,1.813l-85.531,0c-1,0 -1.813,-0.813 -1.813,-1.813Z" style="fill:#d8e2f3;fill-rule:nonzero;"/><path d="M2893.39,4231.78l0,-263.032c0,-1 0.813,-1.812 1.813,-1.812l40.031,0c1,0 1.813,0.812 1.813,1.812l0,263.032c0,0.999 -0.813,1.781 -1.813,1.781l-40.031,0c-1,0 -1.813,-0.782 -1.813,-1.781Z" style="fill:#d8e2f3;fill-rule:nonzero;"/><path d="M2789.92,4472.97l0,-411.937c0,-1.001 0.812,-1.782 1.812,-1.782l64.406,0c1,0 1.813,0.781 1.813,1.782l0,411.937c0,1 -0.813,1.813 -1.813,1.813l-64.406,0c-1,0 -1.812,-0.813 -1.812,-1.813Z" style="fill:#d8e2f3;fill-rule:nonzero;"/><path d="M2807.3,4288.94l0,-199.875c0,-0.969 0.813,-1.781 1.782,-1.781l29.719,0c1,0 1.781,0.812 1.781,1.781l0,199.875c0,0.969 -0.781,1.781 -1.781,1.781l-29.719,0c-0.969,0 -1.782,-0.812 -1.782,-1.781Z" style="fill:#d8e2f3;fill-rule:nonzero;"/><path d="M1705.98,3783.41l-85.531,0c-1,0 -1.813,-0.812 -1.813,-1.812l0,-540.969c0,-1 0.813,-1.812 1.813,-1.812l85.531,0c1,0 1.813,0.812 1.813,1.812l0,540.969c0,1 -0.813,1.812 -1.813,1.812Zm-62.781,-507.843c-1,0 -1.813,0.812 -1.813,1.812l0,263.032c0,0.968 0.813,1.781 1.813,1.781l40.031,0c1,0 1.812,-0.813 1.812,-1.781l0,-263.032c0,-1 -0.812,-1.812 -1.812,-1.812l-40.031,0Z" style="fill:#e2e9f6;fill-rule:nonzero;"/><path d="M1683.23,3542.19l-40.031,0c-1,0 -1.813,-0.813 -1.813,-1.781l0,-263.032c0,-1 0.813,-1.812 1.813,-1.812l40.031,0c1,0 1.812,0.812 1.812,1.812l0,263.032c0,0.968 -0.812,1.781 -1.812,1.781Z" style="fill:#e2e9f6;fill-rule:nonzero;"/><path d="M1519.61,3781.59l0,-540.969c0,-1 0.813,-1.812 1.813,-1.812l85.531,0c1,0 1.812,0.812 1.812,1.812l0,540.969c0,1 -0.812,1.781 -1.812,1.781l-85.531,0c-1,0 -1.813,-0.781 -1.813,-1.781Z" style="fill:#d8e2f3;fill-rule:nonzero;"/><path d="M1542.36,3540.41l0,-263.032c0,-1 0.813,-1.812 1.813,-1.812l40.031,0c1,0 1.812,0.812 1.812,1.812l0,263.032c0,0.968 -0.812,1.781 -1.812,1.781l-40.031,0c-1,0 -1.813,-0.813 -1.813,-1.781Z" style="fill:#d8e2f3;fill-rule:nonzero;"/><path d="M1902.86,3783.41l-85.562,0c-0.969,0 -1.782,-0.812 -1.782,-1.812l0,-370.906c0,-1 0.813,-1.813 1.782,-1.813l85.562,0c0.969,0 1.781,0.813 1.781,1.813l0,370.906c0,1 -0.812,1.812 -1.781,1.812Zm-62.812,-349.249c-0.969,0 -1.782,0.781 -1.782,1.781l0,179.781c0,1 0.813,1.781 1.782,1.781l40.062,0c1,0 1.782,-0.781 1.782,-1.781l0,-179.781c0,-1 -0.782,-1.781 -1.782,-1.781l-40.062,0Z" style="fill:#e2e9f6;fill-rule:nonzero;"/><path d="M1880.11,3617.5l-40.062,0c-0.969,0 -1.782,-0.781 -1.782,-1.781l0,-179.781c0,-1 0.813,-1.781 1.782,-1.781l40.062,0c1,0 1.782,0.781 1.782,1.781l0,179.781c0,1 -0.782,1.781 -1.782,1.781Z" style="fill:#e2e9f6;fill-rule:nonzero;"/><path d="M1716.48,3781.59l0,-370.906c0,-1 0.813,-1.813 1.781,-1.813l85.563,0c0.969,0 1.781,0.813 1.781,1.813l0,370.906c0,1 -0.812,1.781 -1.781,1.781l-85.563,0c-0.968,0 -1.781,-0.781 -1.781,-1.781Z" style="fill:#d8e2f3;fill-rule:nonzero;"/><path d="M1739.23,3615.72l0,-179.781c0,-1 0.781,-1.781 1.781,-1.781l40.063,0c0.969,0 1.781,0.781 1.781,1.781l0,179.781c0,1 -0.812,1.781 -1.781,1.781l-40.063,0c-1,0 -1.781,-0.781 -1.781,-1.781Z" style="fill:#d8e2f3;fill-rule:nonzero;"/><path d="M2100.89,3783.41l-85.531,0c-1,0 -1.781,-0.812 -1.781,-1.812l0,-370.906c0,-1 0.781,-1.813 1.781,-1.813l85.531,0c1,0 1.813,0.813 1.813,1.813l0,370.906c0,1 -0.813,1.812 -1.813,1.812Zm-62.781,-349.249c-1,0 -1.781,0.781 -1.781,1.781l0,179.781c0,1 0.781,1.781 1.781,1.781l40.063,0c0.969,0 1.781,-0.781 1.781,-1.781l0,-179.781c0,-1 -0.812,-1.781 -1.781,-1.781l-40.063,0Z" style="fill:#e2e9f6;fill-rule:nonzero;"/><path d="M2078.17,3617.5l-40.063,0c-1,0 -1.781,-0.781 -1.781,-1.781l0,-179.781c0,-1 0.781,-1.781 1.781,-1.781l40.063,0c0.969,0 1.781,0.781 1.781,1.781l0,179.781c0,1 -0.812,1.781 -1.781,1.781Z" style="fill:#e2e9f6;fill-rule:nonzero;"/><path d="M1914.52,3781.59l0,-370.906c0,-1 0.813,-1.813 1.813,-1.813l85.531,0c1,0 1.813,0.813 1.813,1.813l0,370.906c0,1 -0.813,1.781 -1.813,1.781l-85.531,0c-1,0 -1.813,-0.781 -1.813,-1.781Z" style="fill:#d8e2f3;fill-rule:nonzero;"/><path d="M1937.27,3615.72l0,-179.781c0,-1 0.813,-1.781 1.813,-1.781l40.031,0c1,0 1.813,0.781 1.813,1.781l0,179.781c0,1 -0.813,1.781 -1.813,1.781l-40.031,0c-1,0 -1.813,-0.781 -1.813,-1.781Z" style="fill:#d8e2f3;fill-rule:nonzero;"/><path d="M2298.95,3783.41l-85.531,0c-1.001,0 -1.813,-0.812 -1.813,-1.812l0,-470.25c0,-1 0.812,-1.812 1.813,-1.812l85.531,0c1,0 1.812,0.812 1.812,1.812l0,470.25c0,1 -0.812,1.812 -1.812,1.812Zm-62.781,-441.906c-1,0 -1.813,0.813 -1.813,1.813l0,228.406c0,1 0.813,1.781 1.813,1.781l40.031,0c1,0 1.812,-0.781 1.812,-1.781l0,-228.406c0,-1 -0.812,-1.813 -1.812,-1.813l-40.031,0Z" style="fill:#e2e9f6;fill-rule:nonzero;"/><path d="M2276.2,3573.5l-40.031,0c-1,0 -1.813,-0.781 -1.813,-1.781l0,-228.406c0,-1 0.813,-1.813 1.813,-1.813l40.031,0c1,0 1.812,0.813 1.812,1.813l0,228.406c0,1 -0.812,1.781 -1.812,1.781Z" style="fill:#e2e9f6;fill-rule:nonzero;"/><path d="M2399.3,3783.41l-85.563,0c-1,0 -1.781,-0.812 -1.781,-1.812l0,-470.25c0,-1 0.781,-1.812 1.781,-1.812l85.563,0c0.968,0 1.781,0.812 1.781,1.812l0,470.25c0,1 -0.813,1.812 -1.781,1.812Zm-62.813,-441.906c-1,0 -1.781,0.813 -1.781,1.813l0,228.406c0,1 0.781,1.781 1.781,1.781l40.063,0c0.968,0 1.781,-0.781 1.781,-1.781l0,-228.406c0,-1 -0.813,-1.813 -1.781,-1.813l-40.063,0Z" style="fill:#e2e9f6;fill-rule:nonzero;"/><path d="M2376.55,3573.5l-40.063,0c-1,0 -1.781,-0.781 -1.781,-1.781l0,-228.406c0,-1 0.781,-1.813 1.781,-1.813l40.063,0c0.968,0 1.781,0.813 1.781,1.813l0,228.406c0,1 -0.813,1.781 -1.781,1.781Z" style="fill:#e2e9f6;fill-rule:nonzero;"/><path d="M2112.58,3781.59l0,-470.25c0,-1 0.812,-1.812 1.812,-1.812l85.531,0c1.001,0 1.782,0.812 1.782,1.812l0,470.25c0,1 -0.781,1.781 -1.782,1.781l-85.531,0c-1,0 -1.812,-0.781 -1.812,-1.781Z" style="fill:#d8e2f3;fill-rule:nonzero;"/><path d="M2135.33,3571.72l0,-228.406c0,-1 0.813,-1.813 1.812,-1.813l40.032,0c1,0 1.812,0.813 1.812,1.813l0,228.406c0,1 -0.812,1.781 -1.812,1.781l-40.032,0c-0.999,0 -1.812,-0.781 -1.812,-1.781Z" style="fill:#d8e2f3;fill-rule:nonzero;"/><path d="M2598.14,3783.41l-85.531,0c-1,0 -1.781,-0.812 -1.781,-1.812l0,-181.344l89.125,0l0,181.344c0,1 -0.813,1.812 -1.813,1.812Zm1.813,-272.312l-22.75,0l0,-167.781c0,-1 -0.812,-1.813 -1.781,-1.813l-40.063,0c-1,0 -1.781,0.813 -1.781,1.813l0,167.781l-22.75,0l0,-199.75c0,-1 0.781,-1.812 1.781,-1.812l85.531,0c1,0 1.813,0.812 1.813,1.812l0,199.75Z" style="fill:#e2e9f6;fill-rule:nonzero;"/><path d="M2599.95,3600.25l-89.125,0l0,-89.156l22.75,0l0,60.625c0,1 0.781,1.781 1.781,1.781l40.063,0c0.969,0 1.781,-0.781 1.781,-1.781l0,-60.625l22.75,0l0,89.156Z" style="fill:#dde5f4;fill-rule:nonzero;"/><path d="M2577.2,3511.09l-43.625,0l0,-167.781c0,-1 0.781,-1.813 1.781,-1.813l40.063,0c0.969,0 1.781,0.813 1.781,1.813l0,167.781Z" style="fill:#e2e9f6;fill-rule:nonzero;"/><path d="M2575.42,3573.5l-40.063,0c-1,0 -1.781,-0.781 -1.781,-1.781l0,-60.625l43.625,0l0,60.625c0,1 -0.812,1.781 -1.781,1.781Z" style="fill:#dde5f4;fill-rule:nonzero;"/><path d="M2698.48,3783.41l-85.531,0c-1,0 -1.812,-0.812 -1.812,-1.812l0,-181.344l89.124,0l0,181.344c0,1 -0.781,1.812 -1.781,1.812Zm1.781,-272.312l-22.75,0l0,-167.781c0,-1 -0.781,-1.813 -1.781,-1.813l-40.062,0c-0.969,0 -1.782,0.813 -1.782,1.813l0,167.781l-22.749,0l0,-199.75c0,-1 0.812,-1.812 1.812,-1.812l85.531,0c1,0 1.781,0.812 1.781,1.812l0,199.75Z" style="fill:#e2e9f6;fill-rule:nonzero;"/><path d="M2700.26,3600.25l-89.124,0l0,-89.156l22.749,0l0,60.625c0,1 0.813,1.781 1.782,1.781l40.062,0c1,0 1.781,-0.781 1.781,-1.781l0,-60.625l22.75,0l0,89.156Z" style="fill:#dde5f4;fill-rule:nonzero;"/><path d="M2677.51,3511.09l-43.625,0l0,-167.781c0,-1 0.813,-1.813 1.782,-1.813l40.062,0c1,0 1.781,0.813 1.781,1.813l0,167.781Z" style="fill:#e2e9f6;fill-rule:nonzero;"/><path d="M2675.73,3573.5l-40.062,0c-0.969,0 -1.782,-0.781 -1.782,-1.781l0,-60.625l43.625,0l0,60.625c0,1 -0.781,1.781 -1.781,1.781Z" style="fill:#dde5f4;fill-rule:nonzero;"/><path d="M2411.8,3781.59l0,-470.25c0,-1 0.781,-1.812 1.781,-1.812l85.531,0c1,0 1.813,0.812 1.813,1.812l0,470.25c0,1 -0.813,1.781 -1.813,1.781l-85.531,0c-1,0 -1.781,-0.781 -1.781,-1.781Z" style="fill:#d8e2f3;fill-rule:nonzero;"/><path d="M2434.51,3571.72l0,-228.406c0,-1 0.813,-1.813 1.813,-1.813l40.031,0c1,0 1.813,0.813 1.813,1.813l0,228.406c0,1 -0.813,1.781 -1.813,1.781l-40.031,0c-1,0 -1.813,-0.781 -1.813,-1.781Z" style="fill:#d8e2f3;fill-rule:nonzero;"/><path d="M2897.36,3783.41l-85.562,0c-0.969,0 -1.781,-0.812 -1.781,-1.812l0,-181.344l89.124,0l0,181.344c0,1 -0.812,1.812 -1.781,1.812Zm1.781,-272.312l-22.749,0l0,-167.781c0,-1 -0.782,-1.813 -1.782,-1.813l-40.062,0c-0.969,0 -1.782,0.813 -1.782,1.813l0,167.781l-22.749,0l0,-199.75c0,-1 0.812,-1.812 1.781,-1.812l85.562,0c0.969,0 1.781,0.812 1.781,1.812l0,199.75Z" style="fill:#e2e9f6;fill-rule:nonzero;"/><path d="M2899.14,3600.25l-89.124,0l0,-10.343l89.124,0l0,10.343Zm0,-78.781l-22.749,0l0,-10.375l22.749,0l0,10.375Zm-66.375,0l-22.749,0l0,-10.375l22.749,0l0,10.375Z" style="fill:#dde5f4;fill-rule:nonzero;"/><path d="M2899.14,3589.91l-89.124,0l0,-68.438l22.749,0l0,50.25c0,1 0.813,1.781 1.782,1.781l40.062,0c1,0 1.782,-0.781 1.782,-1.781l0,-50.25l22.749,0l0,68.438Z" style="fill:#dde5f4;fill-rule:nonzero;"/><path d="M2876.39,3511.09l-43.626,0l0,-167.781c0,-1 0.813,-1.813 1.782,-1.813l40.062,0c1,0 1.782,0.813 1.782,1.813l0,167.781Z" style="fill:#e2e9f6;fill-rule:nonzero;"/><rect x="2832.76" y="3511.09" width="43.625" height="10.375" style="fill:#dde5f4;fill-rule:nonzero;"/><path d="M2874.61,3573.5l-40.062,0c-0.969,0 -1.782,-0.781 -1.782,-1.781l0,-50.25l43.626,0l0,50.25c0,1 -0.782,1.781 -1.782,1.781Z" style="fill:#dde5f4;fill-rule:nonzero;"/><path d="M2997.67,3783.41l-85.532,0c-0.999,0 -1.812,-0.812 -1.812,-1.812l0,-181.344l39.312,0l0,-10.687c1.907,-0.719 3.25,-2.563 3.25,-4.719l0,-11.344l22.031,0c1.001,0 1.813,-0.781 1.813,-1.781l0,-228.406c0,-1 -0.812,-1.813 -1.813,-1.813l-40.031,0c-1,0 -1.812,0.813 -1.812,1.813l0,167.781l-22.75,0l0,-199.75c0,-1 0.813,-1.812 1.812,-1.812l85.532,0c1,0 1.812,0.812 1.812,1.812l0,470.25c0,1 -0.812,1.812 -1.812,1.812Z" style="fill:#e2e9f6;fill-rule:nonzero;"/><path d="M2949.64,3600.25l-39.312,0l0,-10.343l37.531,0c0.625,0 1.25,-0.126 1.781,-0.344l0,10.687Zm-16.562,-78.781l-22.75,0l0,-10.375l22.75,0l0,10.375Z" style="fill:#dde5f4;fill-rule:nonzero;"/><path d="M2947.86,3589.91l-37.531,0l0,-68.438l22.75,0l0,50.25c0,1 0.812,1.781 1.812,1.781l18,0l0,11.344c0,2.156 -1.343,4 -3.25,4.719c-0.531,0.218 -1.156,0.344 -1.781,0.344Z" style="fill:#dde5f4;fill-rule:nonzero;"/><path d="M2974.92,3573.5l-22.031,0l0,-47c0,-2.156 -1.343,-4 -3.25,-4.719l0,-10.687l-16.562,0l0,-167.781c0,-1 0.812,-1.813 1.812,-1.813l40.031,0c1.001,0 1.813,0.813 1.813,1.813l0,228.406c0,1 -0.812,1.781 -1.813,1.781Z" style="fill:#e2e9f6;fill-rule:nonzero;"/><path d="M2949.64,3521.78c-0.531,-0.218 -1.156,-0.312 -1.781,-0.312l-14.781,0l0,-10.375l16.562,0l0,10.687Z" style="fill:#dde5f4;fill-rule:nonzero;"/><path d="M2952.89,3573.5l-18,0c-1,0 -1.812,-0.781 -1.812,-1.781l0,-50.25l14.781,0c0.625,0 1.25,0.094 1.781,0.312c1.907,0.719 3.25,2.563 3.25,4.719l0,47Z" style="fill:#dde5f4;fill-rule:nonzero;"/><path d="M2710.98,3781.59l0,-470.25c0,-1 0.813,-1.812 1.781,-1.812l85.563,0c0.969,0 1.781,0.812 1.781,1.812l0,470.25c0,1 -0.812,1.781 -1.781,1.781l-85.563,0c-0.968,0 -1.781,-0.781 -1.781,-1.781Z" style="fill:#d8e2f3;fill-rule:nonzero;"/><path d="M2733.73,3571.72l0,-228.406c0,-1 0.781,-1.813 1.781,-1.813l40.063,0c0.969,0 1.781,0.813 1.781,1.813l0,228.406c0,1 -0.812,1.781 -1.781,1.781l-40.063,0c-1,0 -1.781,-0.781 -1.781,-1.781Z" style="fill:#d8e2f3;fill-rule:nonzero;"/><path d="M2446.3,3086l-365.875,-398.468c-0.657,-0.75 -0.625,-1.875 0.125,-2.532l63,-57.875c0.718,-0.656 1.875,-0.625 2.531,0.125l365.875,398.469c0.687,0.719 0.625,1.875 -0.094,2.531l-63.031,57.844c-0.719,0.688 -1.844,0.625 -2.531,-0.094Z" style="fill:#d8e2f3;fill-rule:nonzero;"/><path d="M2299.92,2892.94l-177.906,-193.719c-0.656,-0.75 -0.625,-1.875 0.125,-2.562l29.5,-27.063c0.719,-0.687 1.875,-0.625 2.531,0.094l177.907,193.75c0.656,0.719 0.625,1.875 -0.125,2.531l-29.5,27.094c-0.719,0.656 -1.844,0.625 -2.532,-0.125Z" style="fill:#d8e2f3;fill-rule:nonzero;"/><path d="M1507.33,3784.91l0,-638.157l1562.41,0l0,638.157l-1562.41,0Zm1562.41,759.187l0,616.156l-1562.41,0l0,-616.156l1562.41,0Zm-1562.41,-77l0,-627.156l1562.41,0l0,627.156l-1562.41,0Zm1562.41,-2255.56l0,869.188l-1562.41,0l0,-869.188l1562.41,0Zm-1628.44,-77.031l0,3641.91l1705.44,0l0,-3641.91l-1705.44,0Z" style="fill:#d8e2f3;fill-rule:nonzero;"/><rect x="1529.8" y="4567.94" width="1539.94" height="569.281" style="fill:#e0e7f5;fill-rule:nonzero;"/><rect x="3069.73" y="4567.94" width="39.5" height="569.281" style="fill:#d8e2f3;fill-rule:nonzero;"/><path d="M4916.92,6079.53c0,0 -57.782,208.781 -66.281,235.125l-478.47,-154.563c0,0 -25.343,-93.844 108.282,-76.375c137.187,17.906 229.625,11.187 306,-51.844c76.375,-63 130.469,47.657 130.469,47.657Z" style="fill:#ed442e;fill-rule:nonzero;"/><path d="M6476.23,4443.31c0,0 -1041.25,191.875 -1102.72,253.843c-61.5,61.969 -640.124,1339.28 -640.124,1339.28c0,0 62.218,91.5 174.218,131.937c0,0 124.781,-224 256.813,-391.968c132.062,-168 285.218,-336.001 440.406,-650.219c155.188,-314.188 707.563,-354.625 714.469,-354.625c6.906,0 202.906,-255.094 212.218,-261.344c9.344,-6.219 -55.281,-66.906 -55.281,-66.906Z" style="fill:#071a6b;fill-rule:nonzero;"/><path d="M5535.14,6346.16c0,0 9.25,217.656 9.25,245.5l-505.626,0c0,0 -53.281,-81.969 80.001,-106.563c136.812,-25.281 223.187,-60.281 276.812,-144.219c53.594,-83.906 139.563,5.282 139.563,5.282Z" style="fill:#ed442e;fill-rule:nonzero;"/><path d="M7190.83,4821.47c0,0 -10.031,241.125 -119.313,239.875c-109.25,-1.281 -1120.22,-10.062 -1233.25,-35.188c0,0 -181.375,831.032 -281.25,1269.72c0,0 -17.125,57.469 -84.938,57.781c-34.969,0.188 -72.5,-3.875 -105.844,-16.718c0,0 -148.343,-1486.62 19.313,-1610.94c127.75,-94.75 824.124,-196.094 1148.12,-238.937c101.094,-13.375 165.907,-21.031 165.907,-21.031l491.25,355.437Z" style="fill:#1a2982;fill-rule:nonzero;"/><path d="M7190.83,4821.47c0,0 -10.031,241.125 -119.313,239.875c-109.25,-1.281 -1120.22,-10.062 -1233.25,-35.188c0,0 19.281,313.254 -96.938,619.563c-102.656,270.656 -99.813,501.156 -143.094,691.219c0,0 -58.343,16.406 -126.156,16.718c73.282,-373.749 261.781,-1320.66 306.625,-1407.62c55.968,-108.625 995.469,-134.031 991.812,-211.812c-3.625,-77.781 -315.218,-236.625 -315.218,-236.625l78.374,-10.531c101.094,-13.375 165.907,-21.031 165.907,-21.031l491.25,355.437Z" style="fill:#071a6b;fill-rule:nonzero;"/><path d="M6531.48,3909.69c0,0 -388.187,2.531 -559.531,-22.594c-171.375,-25.125 -231.656,-84.156 -286.906,-82.875c-55.251,1.25 -91.688,36.406 -91.688,36.406c0,0 782.407,302.5 965.781,161.938l-27.656,-92.875Z" style="fill:#77524e;fill-rule:nonzero;"/><path d="M5908.3,3930.62c0,0 -0.594,-24.687 29.781,-49.187c0,0 560.781,49.406 632.343,0c71.532,-49.406 -3.125,124.812 -54.468,208.812c-51.312,84 -458.844,-18.437 -517.969,-50.437c-59.093,-32 -89.687,-109.188 -89.687,-109.188Z" style="fill:#f6a438;fill-rule:nonzero;"/><path d="M6897.08,3355.34c-25.406,27.219 -85,55.187 -139.437,76.719c-57.282,22.687 -101.469,22 -101.469,22c0,0 -44.656,-192.125 -82.75,-276.688c-18.875,-41.906 -75.125,-36.812 -130.969,-31.719c-29.156,2.657 -58.219,5.344 -81.781,1.313c-68.594,-11.719 -57.313,-141.312 -58.969,-158.063c-1.719,-16.75 -131.875,-24.437 -74.969,-64.624c18.125,-12.751 31.438,-31.469 41.219,-51.001c2.125,-4.218 4.062,-8.437 5.844,-12.687l0.281,-0.719c1.937,-4.437 3.562,-8.812 5.125,-13.094c11.625,-32.812 14.5,-61.531 14.5,-61.531c2,-22.094 4.843,-41.969 8.344,-59.843c1.094,-5.469 2.156,-10.719 3.375,-15.813c1.874,-8 3.906,-15.594 6.062,-22.719c1.5,-5.25 3.157,-10.218 4.813,-14.968c1.749,-5.094 3.625,-9.938 5.531,-14.563c34.094,-83.5 84.094,-89.75 84.094,-89.75l166.999,46.062c0,0 149.469,84.157 248.657,223.532c99.219,139.406 -41.406,221.031 -41.406,221.031c-11.469,152.406 150.344,261.281 116.906,297.125Z" style="fill:#91645e;fill-rule:nonzero;"/><path d="M6936.98,3333.25c-25.406,27.219 -124.906,77.281 -179.343,98.813c-2.095,-0.875 -3.157,-1.344 -3.157,-1.344c0,0 -46.093,-477.469 -103.969,-549.188c-57.749,-71.562 -239.812,-87.5 -239.812,-87.5c0,0 2.125,-92.343 -103.25,-91.781c17.969,-96.687 98.469,-134.656 98.469,-134.656l166.999,46.062c0,0 149.469,84.157 248.657,223.532c99.219,139.406 -1.782,196.375 -1.782,196.375c-11.468,152.406 150.625,263.844 117.188,299.687Z" style="fill:#77524e;fill-rule:nonzero;"/><path d="M6334.2,2908.38c-25.562,0 -49.094,-11.687 -66.25,-30.656c1.875,-3.656 3.562,-7.344 5.094,-11.063c15.312,18.844 37.218,30.594 61.156,30.594c1.187,0 2.406,-0.031 3.593,-0.094c32,-1.562 58.751,-23.75 70.875,-54.781c3.501,-8.906 5.782,-18.562 6.594,-28.687c0.407,-4.563 0.5,-9.219 0.282,-14.031c-0.094,-1.751 -0.219,-3.469 -0.375,-5.188c2.656,0.281 6.5,0.719 11.25,1.313c0.094,1.125 0.156,2.218 0.218,3.343c0.063,1.469 0.125,2.907 0.125,4.344l-1.031,0.031c0.594,9.969 0.032,16.157 -2.156,25.344l0.688,0.063c-1.188,5.531 -2.751,10.874 -4.657,16.062c-13.437,35.719 -44.219,61.469 -81.25,63.281c-1.375,0.094 -2.781,0.125 -4.156,0.125Zm63.562,-161.906c-15.375,-22.187 -39.218,-36.344 -65.531,-36.344c-1.187,0 -2.375,0.032 -3.594,0.094c-7.968,0.406 -17.156,1.938 -24.312,4.688c1.343,-4.563 1.687,-8.5 3.125,-12.657l1,0c50.906,0 76.5,21.844 89.312,44.219Z" style="fill:#79534f;fill-rule:nonzero;"/><path d="M6426.42,2795.78c-4.75,-0.594 -8.594,-1.032 -11.25,-1.313c-1.782,-18.031 -8.032,-34.5 -17.407,-48c-12.812,-22.375 -38.406,-44.219 -89.312,-44.219l-1,0c5.781,-1.594 14.5,-2.843 20.656,-3.125c1.375,-0.062 2.75,-0.094 4.125,-0.094c48.75,0 90,42.25 94.188,96.751Z" style="fill:#77524e;fill-rule:nonzero;"/><path d="M6608.39,2847.69l-157.594,-15.969l-26.531,-2.812c0.874,-4.032 1.531,-8.188 1.968,-12.407c0.406,-4.25 0.594,-8.625 0.531,-13.031l26.531,-0.406l40.813,4.406c37.25,8.25 80.344,21 114.282,40.219Z" style="fill:#79534f;fill-rule:nonzero;"/><path d="M6723.27,2859.34l-114.875,-11.656c-33.938,-19.219 -77.032,-31.969 -114.282,-40.219l229.157,24.875l0,27Z" style="fill:#77524e;fill-rule:nonzero;"/><path d="M6424.27,2828.91l-0.688,-0.063c2.188,-9.187 2.75,-15.375 2.156,-25.344l1.031,-0.031c0.063,4.406 -0.125,8.781 -0.531,13.031c-0.437,4.219 -1.094,8.375 -1.968,12.407Z" style="fill:#77524e;fill-rule:nonzero;"/><path d="M6485.05,3983.78c0,0 136.875,179.593 151.937,243.218c15.063,63.625 -425.312,-21.75 -599.468,-112.187c-174.126,-90.406 -229.376,-97.125 -229.376,-97.125c0,0 -10.062,-6.688 -25.969,-4.157c-15.905,2.501 -100.468,17.563 -220.187,-47.749c0,0 -46.063,10.062 -79.531,9.218c0,0 -25.125,69.5 -99.656,56.094c0,0 -20.907,-5.844 0,-20.094c20.937,-14.219 46.062,-50.219 56.937,-70.312c0,0 5.031,-10.063 8.375,-10.063c0,0 -49.406,-66.125 3.344,-84.562c52.75,-18.407 149.875,-41.844 169.969,-30.125c20.093,11.718 210.156,97.937 247,104.656c36.812,6.687 327.343,101.281 616.625,63.188Z" style="fill:#91645e;fill-rule:nonzero;"/><path d="M7205.89,3880.81c-55.656,-410.532 -244.656,-585.532 -264.344,-612.875c-21,-29.156 -33.593,-9.875 -33.593,-9.875c-58.094,107.781 -270.594,160.218 -270.594,160.218c-0.656,59.126 -7.906,94.563 -7.906,94.563c-74.062,155.75 -144.437,470.938 -144.437,470.938c-0.063,0 -251.345,-1.282 -601.625,-59.657c0,0 -29.625,27.75 -29.844,106.782c-0.157,59.281 396.781,226.374 633.718,232.999l-31.937,179.407c0,0 50.906,37.906 141.438,100.687c63.812,44.313 147.374,100.906 246.687,165.313c240.125,155.719 362.437,132.219 362.437,132.219c0,0 57.75,-534.907 0,-960.719Z" style="fill:#f8bc3f;fill-rule:nonzero;"/><path d="M7172.39,3733.78c0,0 -20.656,899.312 -454.219,826.218c0,0 163.563,98.469 231.782,147.781c68.218,49.313 184.344,132.094 255.937,133.751c0,0 73.782,-893.844 -33.5,-1107.75Z" style="fill:#f6a438;fill-rule:nonzero;"/><path d="M6836.8,3763.41c1.345,-4.282 7.751,-2.626 6.845,1.749c-34.876,174.657 -128.938,633.782 -173.469,734.969c-15.219,34.594 -42.25,45.813 -73.406,43.875c-90.532,-62.781 -141.438,-100.687 -141.438,-100.687l31.937,-179.407l76.906,-7.718c15.219,-1 74.095,-14.625 78.813,-20.25c64.657,-77.032 154.187,-346.5 193.812,-472.531Z" style="fill:#f6a438;fill-rule:nonzero;"/><path d="M5448.11,3930.62l34.344,-3.75c0,0 -5.875,-34.75 4.594,-38.531c10.469,-3.75 86.219,-19.656 86.219,-19.656c0,0 2.531,-5.875 -40.188,-2.938c-42.688,2.938 -80.657,5.532 -84.969,32.032c-4.281,26.468 0,32.843 0,32.843Z" style="fill:#77524e;fill-rule:nonzero;"/><path d="M5482.45,3926.88l76.218,-5.469l-51.812,0.469c-8.374,0.094 -16.687,1.781 -24.406,5Z" style="fill:#77524e;fill-rule:nonzero;"/><path d="M6409.67,2789.38l326.563,42.188c0,0 -9.687,9.906 -14.156,20.812l-312.407,-40.719c0,0 2.969,-9.281 0,-22.281Z" style="fill:#011158;fill-rule:nonzero;"/><path d="M6327.02,2717.41c-42.375,0 -76.844,37.063 -76.844,82.626c0,45.562 34.469,82.624 76.844,82.624c42.407,0 76.876,-37.062 76.876,-82.624c0,-45.563 -34.469,-82.626 -76.876,-82.626Zm0,175.063c-48.093,0 -87.218,-41.469 -87.218,-92.437c0,-51.001 39.125,-92.469 87.218,-92.469c48.125,0 87.25,41.468 87.25,92.469c0,50.968 -39.125,92.437 -87.25,92.437Z" style="fill:#011158;fill-rule:nonzero;"/><rect x="6692.64" y="5092.97" width="75.031" height="1484.16" style="fill:#7f7f7f;fill-rule:nonzero;"/><path d="M6767.67,6581.06l-75.032,0c-1.562,0 -2.843,-1.782 -2.843,-3.938l0,-1484.16c0,-2.156 1.281,-3.938 2.843,-3.938l75.032,0c1.593,0 2.874,1.782 2.874,3.938l0,1484.16c0,2.156 -1.281,3.938 -2.874,3.938Z" style="fill:#757575;fill-rule:nonzero;"/><rect x="6632.61" y="5966.41" width="195.094" height="367.687" style="fill:#9c9c9c;fill-rule:nonzero;"/><path d="M6073.33,6586.34c87.375,-58.063 329.875,-202.656 670.781,-198.656c324.281,3.812 554.594,139.968 642.875,198.656l0,-60.906c-92.875,-59.063 -322.688,-187.688 -642.875,-191.344c-336.625,-3.844 -578.531,132.687 -670.781,191.344l0,60.906Z" style="fill:#1d2a7c;fill-rule:nonzero;"/><path d="M6073.33,6589.19c-0.438,0 -0.906,-0.094 -1.344,-0.313c-0.906,-0.5 -1.5,-1.469 -1.5,-2.531l0,-60.937c0,-0.969 0.5,-1.875 1.313,-2.407c113.437,-72.094 348.593,-191.844 658.625,-191.844c4.562,0 9.093,0.032 13.718,0.094c288.438,3.281 509.626,106.094 644.375,191.75c0.813,0.532 1.313,1.438 1.313,2.407l0,60.937c0,1.062 -0.563,2.031 -1.5,2.531c-0.906,0.5 -2.063,0.438 -2.938,-0.156c-108.999,-72.469 -337.25,-194.594 -641.312,-198.188c-317.282,-3.437 -555.406,122.563 -669.156,198.188c-0.469,0.312 -1.032,0.469 -1.594,0.469Z" style="fill:#757575;fill-rule:nonzero;"/><path d="M7302.98,6586.34c0,-46.375 37.594,-84 84,-84c46.407,0 84,37.625 84,84c0,46.406 -37.593,84 -84,84c-46.406,0 -84,-37.594 -84,-84Z" style="fill:#0f0f0f;fill-rule:nonzero;"/><path d="M5989.33,6586.34c0,-46.375 37.625,-84 84,-84c46.406,0 84,37.625 84,84c0,46.406 -37.594,84 -84,84c-46.375,0 -84,-37.594 -84,-84Z" style="fill:#0f0f0f;fill-rule:nonzero;"/><path d="M6073.33,6505.22c-44.719,0 -81.125,36.406 -81.125,81.125c0,44.75 36.406,81.156 81.125,81.156c44.75,0 81.156,-36.406 81.156,-81.156c0,-44.719 -36.406,-81.125 -81.156,-81.125Z" style="fill:#0f0f0f;fill-rule:nonzero;"/><path d="M6650.83,6586.34c0,-43.813 35.531,-79.312 79.344,-79.312c43.812,0 79.312,35.499 79.312,79.312c0,43.813 -35.5,79.344 -79.312,79.344c-43.813,0 -79.344,-35.531 -79.344,-79.344Z" style="fill:#0f0f0f;fill-rule:nonzero;"/><path d="M6193.45,5232.47l991.031,0c3.5,0 6.344,-2.844 6.344,-6.344l0,-121.343c0,-31.25 -25.312,-56.563 -56.562,-56.563l-890.594,0c-31.25,0 -56.563,25.313 -56.563,56.563l0,121.343c0,3.5 2.844,6.344 6.344,6.344Z" style="fill:#a08570;fill-rule:nonzero;"/><path d="M7382.98,4464.5c0,-156.812 -4.031,-311.593 1.969,-467.687c3.969,-103.281 3.188,-207.313 -11.906,-309.782c-6.625,-45.031 -36.813,-250.843 -126.188,-212.031c-17.25,7.469 -24.968,31.906 -27.875,43.407c3.969,315.343 7.906,630.718 11.875,946.093c0,41.125 27.532,74.469 61.5,74.469l29.125,0c33.969,0 61.5,-33.344 61.5,-74.469Z" style="fill:#a08570;fill-rule:nonzero;"/><path d="M7086.3,5250.72l-740.657,0c-14.531,0 -26.343,-11.813 -26.343,-26.375c0,-14.562 11.812,-26.344 26.343,-26.344l740.657,0c73.281,0 142.187,-28.531 194,-80.343c51.812,-51.813 80.312,-120.719 80.312,-193.969l0,-990c0,-14.531 11.813,-26.344 26.375,-26.344c14.563,0 26.375,11.813 26.375,26.344l0,990c0,87.344 -34.031,169.469 -95.781,231.218c-61.781,61.782 -143.907,95.813 -231.281,95.813Z" style="fill:#9c9c9c;fill-rule:nonzero;"/><path d="M6322.14,2670.09c0,0 -79.937,-94.875 14.938,-181.969c94.906,-87.125 581.75,-110.969 508.656,152.438c0,0 60.407,19.187 84.001,123.375c23.561,104.219 -5.157,247.437 -106.407,326.937c0,0 -81.813,-47.468 -72.469,-81.687c0,0 63.75,-25 71.531,-116.719c7.782,-91.687 -88.062,-51.219 -99.124,0c0,0 -3.907,-71.719 -53.688,-69.531c-49.75,2.187 -204.937,-23.969 -214.281,-125.75c0,0 -54.063,29.625 -133.157,-27.094Z" style="fill:#4f2515;fill-rule:nonzero;"/><rect x="1935.11" y="4121.31" width="3936.88" height="111.125" style="fill:#9bc1e9;fill-rule:nonzero;"/><rect x="5544.39" y="4194.84" width="97.968" height="2568.5" style="fill:#9bc1e9;fill-rule:nonzero;"/><rect x="2129.64" y="4194.84" width="97.969" height="2568.5" style="fill:#9bc1e9;fill-rule:nonzero;"/><path d="M3370.52,6763.34c0,0 -70.876,19.031 -151.032,-6.25c-80.156,-25.344 -119.812,-320.719 -119.812,-320.719c0,0 18.562,-293.062 -13,-442.812c-31.563,-149.75 -10.626,-466.156 4.125,-520.969c4.375,-16.188 5.062,-46.466 3.875,-81.187c-2.844,-82.907 -16.5,-190.907 -16.5,-190.907c0,0 278.406,-128.687 316.375,16.875c7.968,30.563 9.812,73.125 7.406,122.469c-8.906,185.469 -77.313,466.375 -102.313,563.031c-31.656,122.281 -61.062,482.688 -23.093,632.469c37.937,149.75 93.969,228 93.969,228Z" style="fill:#dba78b;fill-rule:nonzero;"/><path d="M3394.55,5217.38c7.968,30.563 9.812,73.125 7.406,122.469c-59.625,20.281 -215.5,68.375 -307.281,51.563c-2.844,-82.907 -16.5,-190.907 -16.5,-190.907c0,0 278.406,-128.687 316.375,16.875Z" style="fill:#b78b73;fill-rule:nonzero;"/><path d="M4002.33,5225.53c0,0 -86.656,19.406 -374.906,59.878c-113.688,15.934 -231.969,18.215 -333.532,15.122c-155.843,-4.719 -272.312,-22.123 -272.312,-22.123c0,0 52.781,-423.971 48.156,-734.315c-4.687,-310.312 57.125,-367.219 57.125,-367.219c0,0 161.094,-226.843 334.156,-183.281c173.063,43.531 423.094,0 423.094,0l25.562,78.063l49.125,149.781c-8.905,188.062 43.532,1004.09 43.532,1004.09Z" style="fill:#011158;fill-rule:nonzero;"/><path d="M3909.67,4071.66c-52.409,19.281 -88.718,28.093 -88.718,28.093c0,0 -201.281,-15.937 -251.031,80.469c-49.813,96.438 5.062,155.562 -78.375,236.469c-83.438,80.875 -298.094,-9.344 -322.938,348.406c-14.781,211.812 61,409.437 125.281,535.438c-155.843,-4.719 -272.312,-22.123 -272.312,-22.123c0,0 4.656,-414.784 0,-725.127c-4.656,-310.313 93.437,-358.438 93.437,-358.438c0,0 172.938,-244.812 346,-201.25c173.063,43.531 423.094,0 423.094,0l25.562,78.063Z" style="fill:#021149;fill-rule:nonzero;"/><path d="M3360.45,2529.12c0,0 -145.656,99.719 -41.407,264.156c104.282,164.407 78.875,286.063 227.251,177.782c148.375,-108.282 211.218,-201.844 217.875,-267.344c6.687,-65.5 34,-379.625 -11.063,-368.937c-45.062,10.687 -392.656,194.343 -392.656,194.343Z" style="fill:#e2b370;fill-rule:nonzero;"/><path d="M3544.95,2628.84c0,0 -18.719,141.719 26.75,248.656c45.437,106.938 -294.094,85.563 -318.156,16.032c-24.063,-69.501 34.75,-439.782 109.624,-422.407c74.844,17.375 181.782,157.719 181.782,157.719Z" style="fill:#dba78b;fill-rule:nonzero;"/><path d="M3846.8,4027.81c-11.688,21 -436.344,9.625 -436.344,9.625c0,0 -0.375,-31.094 -0.75,-83.031c-1.813,-236.719 -4.031,-906.063 27.031,-1034.09c3.063,-12.5 6.438,-19.875 10.125,-21.125c0,0 96.719,7.969 118.438,-60.157c0,0 0.999,-6.874 10.312,-5.843c9.344,1.031 71.031,-0.125 71.031,-0.125c0,0 152.907,248.531 176.344,436.437c23.438,187.906 35.469,737.313 23.813,758.313Z" style="fill:#c3dffe;fill-rule:nonzero;"/><path d="M3846.8,4027.81c-11.688,21 -436.344,9.625 -436.344,9.625c0,0 -0.375,-31.094 -0.75,-83.031c46.406,22.749 197,89.468 283.063,43.812c102.656,-54.437 69.843,-249.938 71.562,-485.438c1.719,-235.437 -155.563,-637.562 -199.094,-609.593c-32.312,20.781 -97.187,19.312 -128.5,17.125c3.063,-12.5 6.438,-19.875 10.125,-21.125c0,0 96.719,7.969 118.438,-60.157c0,0 0.999,-6.874 10.312,-5.843c9.344,1.031 71.031,-0.125 71.031,-0.125c0,0 152.907,248.531 176.344,436.437c23.438,187.906 35.469,737.313 23.813,758.313Z" style="fill:#9bc1e9;fill-rule:nonzero;"/><path d="M3565.23,3545.59c0,0 17.094,-6.219 28.5,46.688c11.406,52.874 66.375,164.281 30.625,178.875c-35.75,14.593 -198.906,-133.25 -173.343,-165.407c25.562,-32.156 114.218,-60.156 114.218,-60.156Z" style="fill:#0d5dbc;fill-rule:nonzero;"/><path d="M3963.33,3591.22c-19.813,9.188 -37.25,15.063 -37.25,15.063c0,0 59.125,647.062 76.25,703.031c0,0 -96.469,37.344 -199.097,43.594c0,0 43.347,-406.907 10.691,-783.657c-9.751,-112.468 -26.25,-222.187 -52.719,-317.625c-115.094,-415.312 -158.625,-427.781 -158.625,-427.781c0,0 -8.313,-6.187 6.718,-11.375c0,0 29.032,-10.406 37.844,3.094c2.5,3.843 4,6.156 4.875,7.5c0.188,0.312 0.344,0.593 0.5,0.781c5.594,0.25 190.188,46.062 190.188,46.062c48.312,68.469 102.219,278.938 139.25,461.001c22.531,110.562 37.875,200.875 37.875,212.625c0,17.687 -30.344,35.562 -56.5,47.687Z" style="fill:#116ddb;fill-rule:nonzero;"/><path d="M4019.83,3543.53c0,17.687 -30.344,35.562 -56.5,47.687c-12.188,-11.5 -19.625,-26.906 -15.781,-41.125c14.656,-53.688 -50.031,-410.469 -50.031,-410.469c-5.626,-32 39.937,64.563 84.437,191.282c22.531,110.562 37.875,200.875 37.875,212.625Z" style="fill:#0d5dbc;fill-rule:nonzero;"/><path d="M3884.11,3327.84l-70.187,241.406c-9.751,-112.468 -26.25,-222.187 -52.719,-317.625c-115.094,-415.312 -158.625,-427.781 -158.625,-427.781c0,0 -8.313,-6.187 6.718,-11.375c0,0 29.032,-10.406 37.844,3.094c2.5,3.843 4,6.156 4.875,7.5l0.313,0.781l0.031,0.031l0.188,0.281l0.281,0.407l0.187,0.25c11.688,16.562 175.341,248.656 182.876,268.156l-34.594,77.75l82.812,157.125Z" style="fill:#1881ea;fill-rule:nonzero;"/><path d="M3997.26,3346.5l22.563,25.438l-0.032,0.031l-152.03,284.063l-167.719,-75.282l22.812,-38.812l114.563,-195.438l159.843,0Z" style="fill:#021149;fill-rule:nonzero;"/><path d="M4015.95,3480.94c0,0 -58.906,-14.5 -79.816,40.562c-20.934,55.063 -56.375,139.875 -28.094,147.531c28.316,7.626 85.066,44.001 109.691,-12.906c24.656,-56.906 63.812,-143.281 46.656,-156c-17.156,-12.687 -48.437,-19.187 -48.437,-19.187Z" style="fill:#b78b73;fill-rule:nonzero;"/><path d="M3997.26,3346.5l22.563,25.438l-0.032,0.031l-162.905,0l-97.251,165.844c-14.406,6.031 -26.718,7.062 -36.781,4.125l114.563,-195.438l159.843,0Z" style="fill:#132a7c;fill-rule:nonzero;"/><path d="M3894.2,3681.12c-7.347,8.719 -16.438,17.5 -26.437,25.657c-29.938,24.656 -67.157,44.187 -85.157,42.687c-24,-2 -208.187,-9.313 -208.187,-9.313l-42.094,-96.875l-5.406,-12.5c3.75,0.938 78.156,-51.031 95.437,-83.312c14.781,-27.844 51.125,-72.656 77.656,-82.375l0.032,-0.031c0,0 39.781,-26 58.843,-44.656c0,0 8.876,-9.469 15.188,6.968c6.281,16.469 -5.032,35.813 -5.032,35.813l-25.468,43.375c17.656,22.937 65.281,42.656 97.121,33.968c31.376,-8.499 82.567,-33.218 101.223,-25.093c2.746,1.187 4.781,3.062 5.934,5.812c9.222,21.563 -24.122,124.844 -53.653,159.875Z" style="fill:#dba78b;fill-rule:nonzero;"/><path d="M3706.73,3745.66c-23.312,-0.999 -48.469,-2.062 -70.531,-2.999c22.062,0.937 47.219,2 70.531,2.999Z" style="fill:#bcadab;"/><path d="M3636.2,3742.66c-34.719,-1.407 -61.75,-2.501 -61.75,-2.501l-0.031,0c0.656,0.032 27.468,1.094 61.781,2.501Z" style="fill:#737990;fill-rule:nonzero;"/><path d="M3821.92,3737.31c0.625,-0.313 1.25,-0.657 1.875,-0.969c-0.625,0.312 -1.25,0.656 -1.875,0.969Z" style="fill:#aca1a2;fill-rule:nonzero;"/><path d="M3823.8,3736.34c14.437,-7.656 30,-18.063 43.969,-29.562l0.031,0c-14,11.499 -29.563,21.906 -44,29.562Z" style="fill:#757f9d;fill-rule:nonzero;"/><path d="M3784.61,3749.53c-0.687,0 -1.375,0 -2,-0.062c-8.968,-0.75 -40.218,-2.219 -75.875,-3.813c-23.312,-0.999 -48.469,-2.062 -70.531,-2.999c-34.313,-1.407 -61.125,-2.469 -61.781,-2.501l-42.094,-96.906l0,-0.156c0,0 44.531,71.25 225.406,71.281c32.188,0 68.688,-2.281 110.032,-7.593c-13.969,11.499 -29.532,21.906 -43.969,29.562c-0.625,0.312 -1.25,0.656 -1.875,0.969c-14.66,7.593 -28.063,12.218 -37.313,12.218Z" style="fill:#c5967d;fill-rule:nonzero;"/><path d="M3534.67,3856.16c-10.406,188.126 -56.531,496.751 -56.531,496.751c-214.687,49.781 -534.312,-49.782 -534.312,-49.782c30.531,-49.937 59.375,-188.937 77.75,-293.437c12.562,-71.281 20.219,-126.532 20.219,-126.532c0,0 471.344,-259 491.562,-147c4.406,24.407 4.25,67.532 1.312,120Z" style="fill:#0d6ece;fill-rule:nonzero;"/><path d="M3534.67,3856.16c-0.437,0.469 -0.874,0.876 -1.312,1.313c0,0 -357,152.781 -511.781,152.219c12.562,-71.281 20.219,-126.532 20.219,-126.532c0,0 471.344,-259 491.562,-147c4.406,24.407 4.25,67.532 1.312,120Z" style="fill:#0d5dbc;fill-rule:nonzero;"/><path d="M3748.14,2423c-61.062,126.063 -28.062,183.125 -118.969,241.969c-66.468,42.969 -122.937,31.688 -216.375,-22.469c-34.375,-19.875 -73.749,-45.562 -120.468,-76.468c0,0 139.968,-387.656 230.375,-423.75c90.438,-36.094 143.875,-16.032 143.875,-16.032c0,0 15.125,24.782 32.75,61.844c30.062,63.312 81.469,167.531 48.812,234.906Z" style="fill:#dba78b;fill-rule:nonzero;"/><path d="M3293.08,2566.56c-0.25,-0.188 -0.5,-0.375 -0.75,-0.531c0.25,0.156 0.5,0.343 0.75,0.5l0,0.031Z" style="fill:#cdb4a9;fill-rule:nonzero;"/><path d="M3413.36,2921.81c-185.75,0 -79.5,-323.532 -120.281,-355.25l0,-0.031c46.406,30.687 85.531,56.218 119.718,75.968c12.376,7.188 24.094,13.594 35.251,19.219c41.281,27.906 92.75,29.531 93.156,29.531c-0.344,0.031 -39.781,4.375 -77.031,4.375c-2.907,0 -5.781,-0.031 -8.594,-0.094l-1.094,0c-38.437,0 -30.062,41.063 -30.062,41.063c15.5,68.125 35.281,133.031 43.718,162.5c-4.624,0.281 -8.687,0.375 -12.031,0.375c-5.781,0 -9.25,-0.281 -9.25,-0.281c-3.687,1.25 -7.062,8.593 -10.094,21.093c-8.281,1.032 -16.062,1.532 -23.406,1.532Z" style="fill:#c5967d;fill-rule:nonzero;"/><path d="M3436.76,2920.28c3.032,-12.5 6.407,-19.843 10.094,-21.093c0,0 3.469,0.281 9.25,0.281c3.344,0 7.407,-0.094 12.031,-0.375c1.875,6.625 3.219,11.5 3.782,14.156c-12.594,3.344 -24.282,5.657 -35.157,7.031Z" style="fill:#aca1a2;fill-rule:nonzero;"/><path d="M3297.01,2553.31c25.063,-67.188 145.094,-378.844 225.688,-411.063c42.843,-17.062 77.375,-21.562 101.844,-21.562c5.593,0 10.656,0.218 15.156,0.594c-4.5,-0.376 -9.563,-0.594 -15.156,-0.594c-24.469,0 -59.001,4.5 -101.844,21.594c-80.594,32.187 -200.625,343.843 -225.688,411.031Z" style="fill:#cdb4a9;fill-rule:nonzero;"/><path d="M3448.05,2661.72c-11.157,-5.625 -22.875,-12.031 -35.251,-19.219c-34.187,-19.75 -73.312,-45.281 -119.718,-75.968c-0.25,-0.157 -0.5,-0.344 -0.75,-0.5c0,0 1.625,-4.563 4.687,-12.719c25.063,-67.188 145.094,-378.844 225.688,-411.031c42.843,-17.094 77.375,-21.594 101.844,-21.594c5.593,0 10.656,0.218 15.156,0.594c17.531,1.437 26.875,4.968 26.875,4.968c0,0 15.125,24.782 32.75,61.844c-8.844,16.125 -19.375,26.375 -19.375,26.375c0,0 -2.906,-0.406 -7.688,-0.406c-14.343,0 -45.437,3.75 -64.468,33.812c-25.407,40.094 -191,171 -203.875,322.844c-0.844,10.219 -0.907,21.531 -0.344,33.656c8.75,26.219 25.531,44.563 44.469,57.344Z" style="fill:#c5967d;fill-rule:nonzero;"/><path d="M3624.36,3771.16c0,0 -406.968,154.687 -540.406,165.281c-84.469,6.719 -88.719,-29.532 -88.719,-29.532c0,0 -53.781,-113.468 -84.906,-461.906c-31.125,-348.437 53.812,-516.812 75.562,-546.906c0,0 70.625,-34.25 124.219,-53.062c14.344,-5.032 46.281,-11.969 46.281,-11.969c43.125,-18.938 51.688,-38.25 84.188,-35.875c99.344,7.219 148.875,88.906 148.875,88.906l130.656,328.187c28,96.438 13.25,339.125 13.25,339.125l31.875,-7.812c-63.781,160.219 59.125,225.563 59.125,225.563Z" style="fill:#116ddb;fill-rule:nonzero;"/><path d="M3411.98,3411.81c2.781,-158.906 -104.187,-303.282 -184.469,-370.938c-80.281,-67.687 -109.968,-198.187 -109.968,-198.187c43.125,-18.938 90.531,-47.875 123.031,-45.5c46.219,42.125 91.094,94.25 127.906,154.5c123.656,202.531 43.5,460.125 43.5,460.125Z" style="fill:#0d5dbc;fill-rule:nonzero;"/><path d="M3135.92,3206.5c0,0 3.281,431.219 11.062,460.782c0,0 248.688,-92.125 386.344,-113.907c0,0 -74.531,11.313 -285.25,46.875c0,0 -56.125,15.344 -61.5,-44.562c-4.844,-54.25 -50.656,-349.188 -50.656,-349.188Z" style="fill:#0d5dbc;fill-rule:nonzero;"/><path d="M3096.76,6382.69c0,0 42.907,209.375 93.032,283.312c50.093,73.938 71.656,85.094 173.437,73.344c0,0 31.938,-7.625 45.094,20.313c13.125,27.937 -2.469,55.031 -23.031,57.499l-207,0c0,0 -55.875,-7.25 -90.375,-217.218c-34.501,-209.969 -16,-220.375 8.843,-217.25Z" style="fill:#011158;fill-rule:nonzero;"/><path d="M3092.83,6836.06l-23.875,0l0,-387.781l47.718,43.531l-23.843,344.25Z" style="fill:#011158;fill-rule:nonzero;"/><path d="M3578.55,6382.69c0,0 42.906,209.375 93.031,283.312c50.125,73.938 71.687,85.094 173.437,73.344c0,0 31.938,-7.625 45.094,20.313c13.122,27.937 -2.472,55.031 -23,57.499l-207.031,0c0,0 -55.875,-7.25 -90.375,-217.218c-34.5,-209.969 -16,-220.375 8.844,-217.25Z" style="fill:#011158;fill-rule:nonzero;"/><path d="M3574.64,6836.06l-23.875,0l0,-387.781l47.688,43.531l-23.813,344.25Z" style="fill:#011158;fill-rule:nonzero;"/><path d="M3679.98,2214.47c0,0 -38.781,-46.782 -77.531,5.344c-38.781,52.125 -64.188,100.25 -179.125,157.75c0,0 -129.688,237.937 -68.188,355.562c61.501,117.625 239.313,385.969 56.844,678.719c0,0 41.938,-293.844 -108.594,-384.719c-150.531,-90.906 -83.468,-128.593 -176.156,-207.781c0,0 -72.187,-22.062 -30.094,-220.563c42.126,-198.5 138.375,-483.218 294.75,-531.343c156.407,-48.125 234.625,20.031 234.625,20.031c0,0 41.438,-25.406 110.032,92.25c68.625,117.625 135.75,482.188 1.624,665.313l-88.156,-22.438c0,0 143.25,-123.469 91.251,-509.344c-3.282,-24.406 -10.813,-48.156 -22.907,-69.625c-11.063,-19.594 -25.344,-37.187 -38.375,-29.156Z" style="fill:#f5d89d;fill-rule:nonzero;"/><path d="M3818.04,3560.97c-25.215,0 -45.84,-4.531 -54.215,-10.875c-22.844,-17.25 -20.25,-43.531 -20.25,-43.531c14.75,19.156 50.375,36.062 80.281,36.062c5.903,0 11.594,-0.656 16.84,-2.094c27.067,-7.343 68.813,-26.718 91.785,-26.718c3.653,0 6.875,0.5 9.438,1.625c-31.938,34.031 -83.688,45.531 -123.879,45.531Z" style="fill:#c5967d;fill-rule:nonzero;"/><path d="M7457.95,1448.88c0,9.591 -7.782,17.369 -17.375,17.369c-9.594,0 -17.375,-7.778 -17.375,-17.369c0,-9.593 7.781,-17.368 17.375,-17.368c9.593,0 17.375,7.775 17.375,17.368Z" style="fill:#d43d31;fill-rule:nonzero;"/><path d="M1445.11,3855.66c20.344,79.906 27.344,157.093 29.594,233.312c3.125,76.375 -0.5,151.406 -7.906,225.687c-11.375,149.219 -73,288.282 -112.844,431.75c-39.625,143.501 -81.313,286.625 -125.063,429.282c-45.906,142.25 -88.281,285.187 -137.281,426.812l-24.469,-4.937c9.938,-149.532 26.469,-297.719 39.469,-446.625c15.187,-148.469 32.406,-296.5 51.688,-444.125c19.093,-147.656 16.375,-299.75 63.906,-441.657c22.094,-71.312 47.938,-141.843 80.5,-211c31.719,-69.374 68.188,-137.749 117.969,-203.437l24.437,4.938Z" style="fill:#3694fc;fill-rule:nonzero;"/><path d="M381.278,4995.03c37.212,2.968 67.331,12.5 94.934,24.343c28.041,11.406 52.491,26.125 74.96,42.719c46.875,31.313 66.625,87.594 98.281,132.938c31.656,45.312 62.25,91.624 91.75,138.94c28.344,48.406 58.562,95.028 85.25,144.935l-13.031,11.968c-47.501,-30.75 -91.469,-64.747 -137.347,-97c-44.685,-33.34 -88.278,-67.656 -130.81,-102.996c-42.534,-35.316 -96.984,-59.691 -124.312,-109.004c-14.638,-23.75 -27.272,-49.343 -36.331,-78.25c-9.494,-28.5 -16.475,-59.312 -16.36,-96.625l13.016,-11.968Z" style="fill:#3694fc;fill-rule:nonzero;"/><path d="M1624.27,4656.97c10.282,53.75 8.751,100.719 3.063,145.25c-4.938,44.969 -15.844,86.5 -30.063,126.125c-25.218,81.094 -95.406,136.219 -145.874,202.75c-50.407,66.531 -102.626,132.031 -156.657,196.503c-55.969,63.344 -108.812,128.497 -167.5,190.278l-21.594,-12.5c24.157,-81.684 54.157,-160.031 81.032,-240.156c28.812,-79.031 59.406,-157 91.843,-233.937c32.375,-76.969 45,-165.313 102.625,-227.719c27.219,-32.125 57.751,-62.313 94.188,-89.094c35.75,-27.187 75.656,-51.969 127.344,-69.969l21.593,12.469Z" style="fill:#2f80db;fill-rule:nonzero;"/><path d="M1787.8,5103.47c-9.218,39.437 -24.25,69.844 -41.343,97.125c-16.75,27.781 -36.375,51.063 -57.688,71.781c-40.968,43.938 -104.094,53.532 -157.5,78.188c-53.406,24.691 -107.656,48 -162.843,69.906c-56.094,20.469 -110.688,43.312 -168.126,61.687l-10.655,-16.499c40.468,-44.719 83.812,-85 125.624,-127.657c42.751,-41.187 86.407,-81 130.938,-119.406c44.5,-38.469 79.312,-92 136.25,-111.188c27.656,-10.812 56.969,-19.093 89.187,-22.874c31.875,-4.313 65.813,-5.407 105.532,2.437l10.624,16.5Z" style="fill:#3694fc;fill-rule:nonzero;"/><path d="M933.797,3601.91c76.187,171.063 110.218,343.938 134.437,517.219c25.688,173.219 0.719,348.625 -2.719,523.063c-2.968,174.468 -8.031,349 -15.156,523.625c-9.375,174.718 -15.125,349.281 -27.625,524.125l-24.937,1.062c-27.313,-173.156 -47.907,-346.594 -72.094,-519.875c-21.969,-173.375 -41.844,-346.875 -59.625,-520.437c-18.25,-173.532 -58.062,-346.157 -47.188,-520.938c9.375,-174.719 28.594,-349.844 89.969,-526.781l24.938,-1.063Z" style="fill:#3694fc;fill-rule:nonzero;"/><path d="M514.772,4269.34c51.087,41.844 89.243,87.875 122.806,135.406c34.344,47.25 62.187,96.594 86.344,147.125c51.656,100.031 54.531,215.782 78.562,324.719c24.188,108.844 46.406,218.375 66.656,328.5c18.125,110.847 39.657,220.563 54.782,332.375l-23.75,7.656c-53.063,-99.562 -99.688,-201.187 -149.782,-301.718c-47.937,-101.188 -93.906,-203.032 -137.906,-305.532c-44.187,-102.406 -109.503,-198 -126.04,-309.343c-9.922,-55.157 -16.179,-111.469 -15.929,-169.907c-0.531,-58.156 3.522,-117.812 20.507,-181.625l23.75,-7.656Z" style="fill:#2f80db;fill-rule:nonzero;"/><rect x="597.359" y="5437.66" width="891.375" height="221.813" style="fill:#3694fc;fill-rule:nonzero;"/><rect x="666.668" y="5659.47" width="752.753" height="672.406" style="fill:#2f80db;fill-rule:nonzero;"/></svg>