<svg xmlns="http://www.w3.org/2000/svg" xmlns:xlink="http://www.w3.org/1999/xlink" viewBox="0 0 4680 3120"><defs><style>.cls-1,.cls-17,.cls-42,.cls-43,.cls-5,.cls-6,.cls-8{fill:none;}.cls-2{isolation:isolate;}.cls-15,.cls-3,.cls-47{fill:#fff;}.cls-4{fill:#eef2f9;}.cls-5,.cls-6,.cls-8{stroke:#8fc0fa;}.cls-17,.cls-43,.cls-5,.cls-6,.cls-8{stroke-miterlimit:10;}.cls-42,.cls-47,.cls-5,.cls-6,.cls-8{stroke-width:5px;}.cls-6{stroke-dasharray:27.89 27.89;}.cls-7{opacity:0.46;}.cls-8{stroke-dasharray:28.05 28.05;}.cls-9{fill:#8fc0fa;}.cls-10{fill:#f3f6fc;}.cls-11{fill:#c7defe;}.cls-12{fill:#4e95e5;}.cls-13{clip-path:url(#clip-path);}.cls-14{fill:#2946fb;}.cls-15{opacity:0.37;}.cls-16{fill:#627bf9;}.cls-17{stroke:#89000a;stroke-width:3px;}.cls-18{fill:#ca1017;}.cls-19{fill:#f47722;}.cls-20{fill:#f8bc3e;}.cls-21{fill:#f5b400;}.cls-22{opacity:0.7;}.cls-23{opacity:0.2;mix-blend-mode:multiply;}.cls-24{fill:#d92150;}.cls-25{fill:#4a0659;}.cls-26{fill:#1a2982;}.cls-27{fill:#003e61;}.cls-28{fill:#f9c89a;}.cls-29{fill:#f39f5f;}.cls-30{fill:#f7a82d;}.cls-31{fill:#553130;}.cls-32{fill:#471515;}.cls-33{fill:#397cf2;}.cls-34{fill:#f6a538;}.cls-35{fill:#072351;}.cls-36{fill:#0e61db;}.cls-37{fill:#07193d;}.cls-38{opacity:0.28;}.cls-39{fill:#587199;}.cls-40{fill:#00112b;}.cls-41{opacity:0.58;}.cls-42,.cls-47{stroke:#bbc6ff;stroke-linejoin:round;}.cls-43{stroke:#2946fb;stroke-width:4px;}.cls-44{fill:#b0c8ea;}.cls-45{fill:#fefefe;}.cls-46{fill:#0f111e;}</style><clipPath id="clip-path"><rect class="cls-1" x="2454.18" y="1595.79" width="354.74" height="288.98" rx="5.65"/></clipPath></defs><title>09</title><g class="cls-2"><g id="_09" data-name="09"><rect id="_09-2" data-name="09" class="cls-3" width="4680" height="3120"/><path class="cls-4" d="M1913.08,2735.58S721.23,2673.76,815.84,1421.36,2141.55,180.81,2543,660.74s1325.78,231.33,1283.41,1118.5S2552,2832.42,1913.08,2735.58Z"/><path class="cls-5" d="M1931.07,1962.32s-3.22,3.85-9.37,10.39"/><path class="cls-6" d="M1902,1992.47c-41.62,39.64-125.07,106.88-231.42,129.45-204.89,43.5-482.45-30.73-589.2-318.42C894.25,1299.1,1475,517.34,2348.15,637.36S3103.76,1292.9,3051.81,1723c-50.57,418.65,697.67,525.5,911.56,258.13"/><path class="cls-5" d="M3971.8,1970q4.08-5.68,7.85-11.59"/><g class="cls-7"><path class="cls-5" d="M2335.37,1053.63a94.66,94.66,0,0,1,2-13.84"/><path class="cls-8" d="M2345.79,1013.1c12.44-28.58,39.64-63.82,99-75.86,220.62-44.74,362.43,109.84,470.14,289.79,188.84,315.5-122.27,985.08-723.92,1013.65s-632.67-439.34-750.54-710.93c-191.28-440.72-618.36-364.43-731-160.45"/><path class="cls-5" d="M703.07,1381.77q-3,6.35-5.64,12.81"/></g><rect class="cls-3" x="2335.37" y="1364.86" width="1528.18" height="1036.79" rx="94.44"/><rect class="cls-9" x="3415.53" y="1947.36" width="338.13" height="262.66"/><path class="cls-10" d="M3725.36,1723.23a141.21,141.21,0,1,0-9.56,51.18A140.59,140.59,0,0,0,3725.36,1723.23Zm-58.38,0a81.9,81.9,0,0,1-5.81,30.5,82.86,82.86,0,0,1-77.17,52.48c-.71,0-1.43,0-2.11-.08a82.95,82.95,0,1,1,73.93-124.43A82,82,0,0,1,3667,1723.23Z"/><path class="cls-11" d="M3584,1864.55v-58.34c-.71,0-1.43,0-2.11-.08A82.9,82.9,0,0,1,3528.11,1662l-38.84-43.56A141.3,141.3,0,0,0,3584,1864.55Z"/><path class="cls-12" d="M3725.35,1723.23a140.87,140.87,0,0,0-19.35-71.45l-50.19,29.91a82.92,82.92,0,0,1,5.37,72l54.62,20.69A141.06,141.06,0,0,0,3725.35,1723.23Z"/><path class="cls-9" d="M3706,1651.78a141.34,141.34,0,0,0-216.74-33.39l38.86,43.54a82.92,82.92,0,0,1,127.69,19.76Z"/><path class="cls-11" d="M2454.18,1935.33v-.52A16.82,16.82,0,0,1,2471,1918H2792.1a16.83,16.83,0,0,1,16.82,16.86v.52a16.86,16.86,0,0,1-16.87,16.86H2471A16.86,16.86,0,0,1,2454.18,1935.33Zm337.87,41.14H2471a16.86,16.86,0,0,0-16.86,16.86v.51a16.86,16.86,0,0,0,16.86,16.87h321a16.87,16.87,0,0,0,16.87-16.87v-.51A16.86,16.86,0,0,0,2792.05,1976.47Zm-337.87,75.38v.51a16.86,16.86,0,0,0,16.86,16.87h321a16.87,16.87,0,0,0,16.87-16.87v-.51a16.86,16.86,0,0,0-16.87-16.86H2471A16.86,16.86,0,0,0,2454.18,2051.85Zm17.12,75.9h320.5a17.13,17.13,0,0,0,17.12-17.12h0a17.12,17.12,0,0,0-17.12-17.12H2471.3a17.11,17.11,0,0,0-17.12,17.12h0A17.12,17.12,0,0,0,2471.3,2127.75Z"/><g class="cls-13"><rect class="cls-10" x="2454.18" y="1595.79" width="354.74" height="288.98" rx="5.65"/><path class="cls-12" d="M2552,1849.9l170.94-89.32a29.57,29.57,0,0,1,29.73,1.36l158.93,102.61v29.34H2550.77Z"/><path class="cls-9" d="M2438.11,1819.55l114.07-92.1a29.55,29.55,0,0,1,35.77-1l226.33,161.82h-383Z"/><circle class="cls-11" cx="2674.89" cy="1671.17" r="33.27"/></g><path class="cls-4" d="M3543.72,2133v-113.1a11.39,11.39,0,0,1,17.65-9.52l85,55.83a11.39,11.39,0,0,1,.11,19l-85,57.26A11.39,11.39,0,0,1,3543.72,2133Z"/><path class="cls-14" d="M3843.94,1291.3a63,63,0,0,0-39.08-13.29H2394.06c-33.19,0-60.19,24.79-60.19,55.26v1014.5c0,24.92,18,46,42.73,52.89a65,65,0,0,0,17.46,2.37h1410.8c33.18,0,60.19-24.78,60.19-55.26V1333.27C3865.05,1316.48,3856.86,1301.42,3843.94,1291.3Zm6.83,1056.47c0,23.25-20.6,42.16-45.91,42.16H2394.06a49.52,49.52,0,0,1-8.15-.67c-21.44-3.54-37.76-20.8-37.76-41.49v-915.9H3850.77Z"/><path class="cls-3" d="M3526.82,1393.4H2880.28c-20.84,0-37.73-15.51-37.73-34.64h0c0-19.13,16.89-34.64,37.73-34.64h646.54c20.84,0,37.74,15.51,37.74,34.64h0C3564.56,1377.89,3547.66,1393.4,3526.82,1393.4Z"/><path class="cls-3" d="M2393.78,1378.08a7.53,7.53,0,0,1-5.09-1.94,6.24,6.24,0,0,1,0-9.35l34.51-31.67a7.66,7.66,0,0,1,10.18,0,6.24,6.24,0,0,1,0,9.35l-34.51,31.67A7.52,7.52,0,0,1,2393.78,1378.08Z"/><path class="cls-3" d="M2428.29,1378.08a7.52,7.52,0,0,1-5.09-1.94l-34.51-31.67a6.24,6.24,0,0,1,0-9.35,7.66,7.66,0,0,1,10.18,0l34.51,31.67a6.24,6.24,0,0,1,0,9.35A7.53,7.53,0,0,1,2428.29,1378.08Z"/><path class="cls-3" d="M2575.13,1333.19c-13.49,0-24.46,10.07-24.46,22.44a20.79,20.79,0,0,0,2.17,9.23c3.84,7.79,12.38,13.22,22.29,13.22s18.44-5.43,22.27-13.22a20.65,20.65,0,0,0,2.17-9.23C2599.57,1343.26,2588.6,1333.19,2575.13,1333.19Zm-10.06,22.44c0-5.09,4.51-9.24,10.06-9.24s10,4.15,10,9.24-4.5,9.23-10,9.23S2565.07,1360.71,2565.07,1355.63Z"/><path class="cls-3" d="M2509.35,1362.24h-37c-4,0-7.2-3-7.2-6.61s3.23-6.61,7.2-6.61h37c4,0,7.2,3,7.2,6.61S2513.32,1362.24,2509.35,1362.24Z"/><path class="cls-15" d="M3843.94,1291.3l-60.28,73.56-54.91,67-456.07,556.61L3239.46,2029l-1.73,2.1-33.23,40.55-260.76,318.25-9.61,11.72L2933,2403H2394.06a65,65,0,0,1-17.46-2.37l.7-.85,8.61-10.55,689.29-843.82,24-29.41,68.75-84.16,31.41-38.47,23.33-28.54,33.27-40.74,37.68-46.11h511.19A63,63,0,0,1,3843.94,1291.3Z"/><polygon class="cls-15" points="2846.2 1278.01 2764.73 1364.86 2701.85 1431.87 2348.15 1808.9 2335.37 1822.51 2333.87 1824.12 2333.87 1684.36 2335.37 1682.68 2348.15 1668.36 2559.24 1431.87 2619.06 1364.86 2696.57 1278.01 2846.2 1278.01"/><rect class="cls-16" x="1213.98" y="1503.03" width="1043.16" height="542.08" rx="27.82"/><rect class="cls-3" x="1232.93" y="1607.12" width="1004.56" height="417.5"/><path class="cls-3" d="M1282.92,1579.22a7.37,7.37,0,0,1-5-1.88,6.09,6.09,0,0,1,0-9.12l33.66-30.9a7.49,7.49,0,0,1,9.93,0,6.09,6.09,0,0,1,0,9.12l-33.66,30.9A7.36,7.36,0,0,1,1282.92,1579.22Z"/><path class="cls-3" d="M1316.57,1579.22a7.36,7.36,0,0,1-5-1.88l-33.66-30.9a6.09,6.09,0,0,1,0-9.12,7.49,7.49,0,0,1,9.93,0l33.66,30.9a6.09,6.09,0,0,1,0,9.12A7.37,7.37,0,0,1,1316.57,1579.22Z"/><path class="cls-3" d="M1459.81,1535.44c-13.16,0-23.86,9.82-23.86,21.89a20.2,20.2,0,0,0,2.12,9c3.74,7.6,12.07,12.9,21.74,12.9s18-5.3,21.72-12.9a20.2,20.2,0,0,0,2.12-9C1483.65,1545.26,1473,1535.44,1459.81,1535.44Zm-9.81,21.89c0-5,4.39-9,9.81-9s9.8,4,9.8,9-4.4,9-9.8,9S1450,1562.29,1450,1557.33Z"/><path class="cls-3" d="M1395.64,1563.78h-36.06a6.76,6.76,0,0,1-7-6.45c0-3.56,3.15-6.44,7-6.44h36.06c3.88,0,7,2.88,7,6.44S1399.52,1563.78,1395.64,1563.78Z"/><rect class="cls-11" x="1643.73" y="1698.29" width="514.74" height="17.56"/><rect class="cls-11" x="1643.73" y="1746.28" width="514.74" height="17.56"/><rect class="cls-11" x="1643.73" y="1794.26" width="514.74" height="17.56"/><rect class="cls-11" x="1643.73" y="1842.24" width="514.74" height="17.56"/><rect class="cls-11" x="1643.73" y="1890.22" width="269.45" height="17.56"/><circle class="cls-17" cx="1428.21" cy="1833.04" r="105.97"/><circle class="cls-4" cx="1404.36" cy="1813.68" r="115.39"/><circle class="cls-18" cx="1404.36" cy="1813.68" r="105.97"/><path class="cls-19" d="M2093.05,495.87a98.11,98.11,0,0,1,22.24,27.65h0a99.44,99.44,0,0,1,6.58,15c.52,1.52,1,3.05,1.45,4.58a99,99,0,0,1-62.85,121.28c-2.31.79-4.62,1.5-6.94,2.11a99,99,0,0,1-64.29-186.77c2.21-.94,4.46-1.81,6.77-2.6A98.93,98.93,0,0,1,2093.05,495.87Z"/><path class="cls-20" d="M2108.17,543.23q1.59,4.63,2.71,9.31a99,99,0,0,1-57.35,114c-2.2.94-4.46,1.81-6.76,2.61a99.1,99.1,0,0,1-131.21-97.43s0,0,0,0a98,98,0,0,1,3.34-21.9c0-.17.07-.26.07-.26a98.93,98.93,0,0,1,63.33-67.64c2.3-.79,4.62-1.49,6.93-2.11A99,99,0,0,1,2108.17,543.23Z"/><circle class="cls-21" cx="2014.54" cy="575.46" r="79.42" transform="translate(183.13 1593.04) rotate(-45)"/><path class="cls-19" d="M1946.48,603.58A79.44,79.44,0,0,1,2042.06,501a79.41,79.41,0,1,0-54.9,149,83.37,83.37,0,0,1-40.68-46.43Z"/><path class="cls-10" d="M2003.74,530.6l-3-8.57-8.72,3,3,8.56c-13.87,5.55-16.58,12.06-11.49,26.86,4.43,12.87,7.16,17.19,13.14,18.84,6.73,2,19.07,1,25.12,3.74,2.51,1,3.2,2.21,4.25,5.18.15.42.31.88.48,1.39,2.81,8.16,2.88,10.61-3.2,12.71s-7.88-1.32-10.07-7.68a34.83,34.83,0,0,1-1.2-4.38l-15.36,5.28a62.05,62.05,0,0,0,2.55,9.65c5,14.66,12.56,16.72,24.93,13.08l3.71,10.78,8.71-3-3.76-10.92c13.67-5.84,15.9-13.26,10.77-30.07-.44-1.44-.94-2.95-1.48-4.54-4.91-14.24-9.53-14.2-16.81-15.1-5.14-.55-10.64-.36-16.57-.95-5.42-.45-6.07-1-8.55-8.2-2.38-6.91-1.57-9,3.42-10.76,5.8-2,7.64.62,9.63,6.43a45.2,45.2,0,0,1,1.49,4.75l15.21-5.24a62.25,62.25,0,0,0-2.35-8.63C2023.07,529.67,2016.93,526.67,2003.74,530.6Z"/><path class="cls-19" d="M3426.73,1114.81a84,84,0,0,1-2.39,30.24h0a84.36,84.36,0,0,1-4.7,13.18c-.56,1.26-1.16,2.49-1.78,3.71a84.65,84.65,0,0,1-110.22,38.58c-1.9-.86-3.75-1.77-5.55-2.75a84.66,84.66,0,0,1,69.53-153.89q2.9,1.06,5.73,2.35A84.6,84.6,0,0,1,3426.73,1114.81Z"/><path class="cls-20" d="M3408.36,1153.13q-1.72,3.82-3.77,7.38a84.68,84.68,0,0,1-102.5,37.26q-2.9-1.07-5.74-2.35a84.7,84.7,0,0,1-24.48-137.55l0,0a84,84,0,0,1,14.93-11.66l.19-.12a84.57,84.57,0,0,1,79.06-4.94q2.85,1.29,5.55,2.75A84.66,84.66,0,0,1,3408.36,1153.13Z"/><circle class="cls-21" cx="3331.21" cy="1118.28" r="67.9" transform="translate(-181.88 1193.57) rotate(-19.78)"/><path class="cls-19" d="M3272.38,1095.86a67.9,67.9,0,0,1,119.62-7.77,67.88,67.88,0,1,0-121.54,60.5,71.27,71.27,0,0,1,1.92-52.73Z"/><path class="cls-10" d="M3350.8,1084,3354,1077l-7.18-3.24-3.19,7c-11.88-4.68-17.38-2.22-22.89,10-4.79,10.6-5.63,14.89-2.88,19.43,3,5.2,11.27,11.82,13.43,17,1,2.12.7,3.25-.39,5.72q-.22.52-.51,1.14c-3,6.73-4.44,8.3-9.45,6s-4.13-5.44-1.76-10.68A29.72,29.72,0,0,1,3321,1126l-12.65-5.72a52.67,52.67,0,0,0-4.07,7.5c-5.46,12.08-2,17.76,7.83,22.75l-4,8.88,7.18,3.25,4.06-9c11.93,4.38,17.67,1.07,24.34-12.39q.85-1.74,1.74-3.69c5.3-11.74,2.39-14.42-1.6-19.25-2.88-3.36-6.41-6.46-9.75-10.31-3.11-3.46-3.19-4.18-.51-10.11,2.57-5.7,4.33-6.55,8.43-4.7,4.79,2.16,4.39,4.87,2.23,9.65-.77,1.71-1.29,2.85-1.86,3.83l12.53,5.66a54.73,54.73,0,0,0,3.6-6.74C3363.37,1094.79,3361.31,1089.33,3350.8,1084Z"/><path class="cls-19" d="M1118.36,2064a60.08,60.08,0,0,1,13.36,17.05h0a60.21,60.21,0,0,1,3.9,9.2c.31.93.59,1.86.86,2.8a60.44,60.44,0,0,1-39.26,73.55c-1.42.46-2.83.87-4.25,1.23a60.43,60.43,0,0,1-37.84-114.45c1.35-.56,2.73-1.07,4.14-1.54A60.42,60.42,0,0,1,1118.36,2064Z"/><path class="cls-20" d="M1127.23,2093q.93,2.84,1.58,5.7a60.44,60.44,0,0,1-35.84,69.11c-1.35.56-2.74,1.08-4.15,1.54a60.46,60.46,0,0,1-79.34-60.43v0a60.27,60.27,0,0,1,2.2-13.34,1.66,1.66,0,0,1,.05-.16,60.35,60.35,0,0,1,39.15-40.8c1.41-.47,2.83-.88,4.25-1.24A60.44,60.44,0,0,1,1127.23,2093Z"/><circle class="cls-21" cx="1069.85" cy="2112.01" r="48.47" transform="translate(-1297.48 2081.53) rotate(-62.4)"/><path class="cls-19" d="M1028.11,2128.67a48.48,48.48,0,0,1,59.09-61.9,48.46,48.46,0,1,0-34.61,90.53,50.89,50.89,0,0,1-24.48-28.63Z"/><path class="cls-10" d="M1063.59,2084.55l-1.73-5.25-5.34,1.77,1.73,5.25c-8.51,3.28-10.21,7.23-7.21,16.3,2.61,7.89,4.24,10.54,7.88,11.6,4.09,1.28,11.63.76,15.3,2.46,1.53.65,1.93,1.38,2.55,3.2.09.26.19.54.29.85,1.65,5,1.68,6.5-2,7.73s-4.8-.86-6.09-4.76a20.78,20.78,0,0,1-.7-2.68l-9.41,3.11a37.18,37.18,0,0,0,1.48,5.9c3,9,7.54,10.3,15.12,8.17l2.18,6.61,5.34-1.77-2.21-6.69c8.38-3.46,9.8-8,6.79-18.27-.26-.88-.55-1.81-.87-2.78-2.88-8.73-5.71-8.74-10.14-9.34-3.13-.38-6.49-.3-10.11-.7-3.3-.32-3.69-.66-5.15-5.07-1.4-4.24-.89-5.54,2.16-6.54,3.56-1.18,4.66.43,5.83,4a27.09,27.09,0,0,1,.87,2.91l9.33-3.08a40.09,40.09,0,0,0-1.37-5.29C1075.4,2084.13,1071.67,2082.26,1063.59,2084.55Z"/><g class="cls-22"><path class="cls-19" d="M2820,532.3a60.07,60.07,0,0,1,13.37,17h0a62.27,62.27,0,0,1,3.9,9.2c.31.94.59,1.87.85,2.81a60.43,60.43,0,0,1-39.26,73.54c-1.41.47-2.83.88-4.24,1.24a60.43,60.43,0,0,1-37.85-114.45c1.35-.56,2.74-1.08,4.15-1.54A60.4,60.4,0,0,1,2820,532.3Z"/><path class="cls-20" d="M2828.88,561.32a59,59,0,0,1,1.59,5.7,60.46,60.46,0,0,1-35.84,69.11c-1.36.56-2.74,1.07-4.15,1.54a60.49,60.49,0,0,1-79.35-60.43v0a59.78,59.78,0,0,1,2.2-13.34c0-.1,0-.15,0-.15a60.4,60.4,0,0,1,39.15-40.81c1.42-.46,2.83-.88,4.25-1.23A60.43,60.43,0,0,1,2828.88,561.32Z"/><circle class="cls-21" cx="2771.51" cy="580.29" r="48.47" transform="translate(973.13 2767.48) rotate(-62.4)"/><path class="cls-19" d="M2729.76,596.94a48.48,48.48,0,0,1,59.09-61.89,48.46,48.46,0,1,0-34.61,90.53,50.86,50.86,0,0,1-24.48-28.64Z"/><path class="cls-10" d="M2765.25,552.83l-1.74-5.25-5.34,1.77,1.74,5.25c-8.51,3.28-10.21,7.23-7.22,16.3,2.61,7.88,4.24,10.54,7.88,11.6,4.09,1.28,11.63.76,15.3,2.46,1.53.65,1.94,1.37,2.56,3.19.09.26.18.55.28.85,1.66,5,1.68,6.5-2.05,7.74s-4.8-.86-6.09-4.76a22.17,22.17,0,0,1-.7-2.69l-9.41,3.12a38.48,38.48,0,0,0,1.49,5.9c3,9,7.54,10.3,15.11,8.17l2.19,6.6,5.34-1.76-2.22-6.69c8.39-3.47,9.8-8,6.8-18.28-.26-.88-.55-1.8-.87-2.77-2.89-8.73-5.71-8.74-10.14-9.34-3.14-.38-6.5-.3-10.11-.71-3.3-.31-3.7-.65-5.16-5.06-1.4-4.24-.89-5.54,2.17-6.55,3.56-1.17,4.65.44,5.83,4a29.64,29.64,0,0,1,.87,2.91l9.32-3.09a38.86,38.86,0,0,0-1.37-5.28C2777.05,552.41,2773.33,550.53,2765.25,552.83Z"/></g><g class="cls-22"><path class="cls-19" d="M1165.3,1012a91.47,91.47,0,0,1,7.14,32.11h0a93.4,93.4,0,0,1-.69,15.16c-.19,1.48-.41,3-.67,4.4a91.78,91.78,0,0,1-102,75q-3.36-.44-6.63-1.09A91.79,91.79,0,0,1,1085.63,956q3.33.18,6.69.61A91.74,91.74,0,0,1,1165.3,1012Z"/><path class="cls-20" d="M1158.43,1057.52q-.57,4.5-1.56,8.84a91.81,91.81,0,0,1-94.41,71.2c-2.21-.12-4.45-.32-6.69-.61a91.85,91.85,0,0,1-69.1-134.8l0,0a91.48,91.48,0,0,1,11.77-16.83,2.28,2.28,0,0,0,.16-.19A91.7,91.7,0,0,1,1079,954.86c2.24.28,4.45.65,6.63,1.09A91.78,91.78,0,0,1,1158.43,1057.52Z"/><circle class="cls-21" cx="1067.39" cy="1045.9" r="73.61" transform="translate(-426.94 1061.09) rotate(-45)"/><path class="cls-19" d="M999.28,1041.36a73.62,73.62,0,0,1,121.53-46.07,73.6,73.6,0,1,0-106.76,101.34,77.26,77.26,0,0,1-14.77-55.27Z"/><path class="cls-10" d="M1076.81,1004.18l1.06-8.33-8.47-1.08-1.06,8.33c-13.81-1.08-18.73,3.21-20.57,17.61-1.59,12.51-1.1,17.22,3.19,21,4.77,4.43,15.44,8.66,19.35,13.4,1.67,1.89,1.75,3.16,1.41,6,0,.42-.11.87-.17,1.36-1,7.93-2,10-7.88,9.25s-6-4.33-5.22-10.51a32.49,32.49,0,0,1,.8-4.14l-14.93-1.91a57.18,57.18,0,0,0-1.84,9.07c-1.82,14.26,3.59,19.05,15.36,21.1l-1.34,10.47L1065,1097l1.36-10.61c13.75.75,18.65-4.51,21.28-20.58q.33-2.07.63-4.38c1.77-13.85-2.1-15.71-7.77-19.44-4-2.57-8.7-4.67-13.39-7.59-4.32-2.6-4.64-3.32-3.74-10.32.86-6.72,2.41-8.17,7.25-7.55,5.65.72,6.1,3.65,5.37,9.3a41.5,41.5,0,0,1-.71,4.55l14.8,1.89a60,60,0,0,0,1.58-8.13C1093.26,1011.34,1089.39,1006.33,1076.81,1004.18Z"/></g><g class="cls-22"><path class="cls-19" d="M2139.81,2460.87A91,91,0,0,1,2147,2493h0a92.27,92.27,0,0,1-.68,15.16c-.19,1.48-.41,3-.67,4.4a91.79,91.79,0,0,1-102,75q-3.36-.43-6.63-1.09a91.79,91.79,0,0,1,23.17-181.61q3.33.18,6.69.61A91.74,91.74,0,0,1,2139.81,2460.87Z"/><path class="cls-20" d="M2133,2506.44c-.38,3-.91,5.95-1.56,8.84a91.82,91.82,0,0,1-94.41,71.2q-3.33-.18-6.69-.61a91.85,91.85,0,0,1-69.1-134.8s0,0,0,0a91.43,91.43,0,0,1,11.76-16.83l.17-.19a91.7,91.7,0,0,1,80.38-30.24c2.24.28,4.45.65,6.63,1.09A91.78,91.78,0,0,1,2133,2506.44Z"/><circle class="cls-21" cx="2041.9" cy="2494.82" r="73.61" transform="translate(-1166.05 2174.56) rotate(-45)"/><path class="cls-19" d="M1973.8,2490.28a73.62,73.62,0,0,1,121.53-46.07,73.6,73.6,0,1,0-106.76,101.34,77.26,77.26,0,0,1-14.77-55.27Z"/><path class="cls-10" d="M2051.33,2453.1l1.06-8.33-8.47-1.08-1.07,8.33c-13.8-1.08-18.73,3.21-20.56,17.61-1.6,12.51-1.11,17.22,3.19,21,4.77,4.43,15.44,8.66,19.34,13.4,1.68,1.89,1.76,3.15,1.42,6.05,0,.42-.11.87-.17,1.35-1,7.94-2,10-7.88,9.26s-6-4.33-5.22-10.52a32.64,32.64,0,0,1,.8-4.13l-14.93-1.91a57.18,57.18,0,0,0-1.84,9.07c-1.82,14.26,3.58,19,15.35,21.09l-1.33,10.48,8.47,1.08,1.35-10.61c13.76.75,18.66-4.51,21.29-20.58q.33-2.07.63-4.38c1.76-13.85-2.1-15.71-7.78-19.44-4-2.57-8.7-4.67-13.38-7.59-4.32-2.6-4.64-3.32-3.74-10.32.85-6.73,2.4-8.17,7.25-7.55,5.65.72,6.09,3.65,5.37,9.3-.26,2-.43,3.36-.71,4.55l14.79,1.89a59.69,59.69,0,0,0,1.59-8.13C2067.78,2460.26,2063.9,2455.25,2051.33,2453.1Z"/></g><path class="cls-14" d="M2946.88,1513.58c-.21.4-.33,12.1-.4,23.14-.08,12.66-4.24,26.46-11.74,39l-52.56,87.4c-8.62,14.41-6.82,30.41,3.93,34.82h0c9.34,3.83,22.32-2.49,30.27-14.73l95.1-143.12Z"/><g class="cls-23"><path class="cls-24" d="M2946.54,1528.67c.07-8,.18-14.79.34-15.09l64.6,26.5-95.1,143.12c-6.75,10.39-17.11,16.44-25.8,15.71,27.44-37.58,50.13-86.62,71.34-120.62C2983.6,1548,2959.11,1543.47,2946.54,1528.67Z"/></g><path class="cls-3" d="M2587,1462.63s147.39-43.21,319.63,69.2l57.72-88.43c-172.24-112.42-192-264.74-192-264.74Z"/><g class="cls-23"><path class="cls-25" d="M2639.89,1381.64c79.32,61.33,169.84,74.4,270.47,97.93a262.77,262.77,0,0,1,25.87,7l-29.57,45.3c-172.24-112.41-319.63-69.2-319.63-69.2Z"/></g><ellipse class="cls-14" cx="2679.69" cy="1320.65" rx="169.55" ry="69.04" transform="matrix(0.55, -0.84, 0.84, 0.55, 109.15, 2842.86)"/><path class="cls-26" d="M2767.28,1186.44c-27.13-17.71-88,27.45-135.88,100.86s-64.76,147.28-37.63,165,88-27.45,135.89-100.86S2794.42,1204.15,2767.28,1186.44Z"/><g class="cls-23"><path class="cls-25" d="M2776.57,1248.24a16.21,16.21,0,0,0-3.91-3.67c-19.32-12.61-62.62,19.54-96.73,71.79s-46.09,104.84-26.78,117.45a16.26,16.26,0,0,0,4.93,2.11c24.55-18.26,51.68-47.86,75.58-84.49S2769.74,1278.06,2776.57,1248.24Z"/></g><path class="cls-27" d="M3009.62,1472.22l-59.84-39-1,3.63a167.87,167.87,0,0,1-52.11,81.24l-5.12,4.4,59.84,39.06c19.18,12.52,44.5,7.69,56.55-10.78l14.62-22.39C3034.57,1509.86,3028.8,1484.74,3009.62,1472.22Z"/><path class="cls-9" d="M2891.51,1522.43l19.9,13,15.18,9.92,24.78,16.17c19.16,12.49,44.47,7.69,56.54-10.79l14.61-22.42c12.06-18.44,6.27-43.59-12.89-56.08l-27.32-17.85-13.72-8.94-18.82-12.26-1,3.62a167.94,167.94,0,0,1-52.12,81.25Z"/><path class="cls-14" d="M2911.41,1535.43l15.18,9.92a236.87,236.87,0,0,0,55.72-91l-13.72-8.94A236.62,236.62,0,0,1,2911.41,1535.43Z"/><path class="cls-18" d="M2667.63,1310.94c-7.12,10.91-6.32,25.42,2,36.72l31.4,42.58a422.36,422.36,0,0,0,52.63-80.63L2702.05,1298C2688.35,1294.93,2674.74,1300,2667.63,1310.94Z"/><path class="cls-3" d="M2684.24,1321.78c-6.44,9.87-15.38,15.45-20,12.45s-3.09-13.42,3.36-23.29,15.38-15.44,20-12.44S2690.68,1311.92,2684.24,1321.78Z"/><g class="cls-23"><path class="cls-27" d="M2896.63,1518.05a167.7,167.7,0,0,0,30.1-34c31.12,9.2,65.39,29.52,98.87,38.46a38.68,38.68,0,0,1-3.08,5.82l-14.61,22.42c-12.07,18.48-37.38,23.28-56.54,10.79l-24.78-16.17-15.18-9.92-19.9-13Z"/></g><path class="cls-28" d="M3263.84,1632.63c-5.66,28.28-62.84,50.28-62.84,50.28s-6,28.53,3.42,59.64v0c.46,1.55,1,3.12,1.52,4.68a104.34,104.34,0,0,0,6.43,14.64,96.1,96.1,0,0,0,7.48,11.83c29.54,39.9,27,107.12,9.43,146.71s-55.3,141.39-55.3,141.39c-63.47,40.21-177.83,0-177.83,0s-5-75.41-5.66-81.69-22-25.13-22-25.13c22.61-8.18,74.14-41.48,74.14-41.48,67.25,18.22,121.7-62.42,101.17-123.16a69.19,69.19,0,0,0-3.85-9.25c-12-23.56-32.84-26.5-50.75-23.55a106.74,106.74,0,0,0-32.88,11.82,149.57,149.57,0,0,1,28.06-16c12.84-5.75,23.71-9.2,29.68-13.68,2-1.47,4-4.34,5.94-8.05,6.14-11.58,11.79-31.4,14-42.8a40.11,40.11,0,0,0,1-7.81c-.18-3-8.64-9.12-18.83-17-14.3-11-32-25.44-35.22-39.13-5.44-23.46,10.06-54,10.9-60.33s-10.68-14.66-11.1-25.55c-.35-9,20.54.24,46.71-20.11,5.37-4.18,10.53-18.79,16.55-24.92,31.66-32.3,67.66-26.18,67.66-26.18s32.67,8.37,46.49,31.62S3269.49,1604.35,3263.84,1632.63Z"/><path class="cls-29" d="M3168.1,1490.53s3.72,19.35,25.57,46.79c7.58,9.53,6.84,40.51-3.28,51l3.28,1.74s26-20.11,37.28-17.6,18.86,35.61,6.71,44.41-15.2,2.74-15.2,2.74-23.76,20.3-27.11,42.09,3.91,37.22,3.91,37.22l1.74-16.06s83.41-24.52,67.36-91.13-7.66-71.21-35.31-87.55S3168.1,1490.53,3168.1,1490.53Z"/><path class="cls-29" d="M3212.37,1761.89a12.34,12.34,0,0,1-3.76,5.15c-8.45,6.38-42.72,13.92-68.65,14.07-12.6.08-23.23-1.59-28-6-6.05-5.58-15.53-11.74-22.77-17.57-1.77-1.43-3.4-2.84-4.82-4.21,12.84-5.75,23.71-9.2,29.68-13.68,2-1.47,4-4.34,5.94-8.05,0,0,78.77,38.37,84.41,11,.46,1.55,1,3.12,1.52,4.68A104.34,104.34,0,0,0,3212.37,1761.89Z"/><path class="cls-28" d="M3056.26,1769.41s-39,36.45-74.57,67.87c0,0-13.19-86.51-5.65-122.33s2.46-109.19-3.2-116.73c0,0-1.48,3.34-7.45,11.23-7.26,9.58-24.41,17.77-37.88-1-9.49-13.26,1.47-23.11,1.47-23.11s-12.22-7.61-19.48-2-21.58,35.68-27.72,48.52,8.19,29.38,17,34.35c15.91,9,23.33,28,22.49,36.1s-26.88,216.94-10.55,247.73,57.82,5,57.82,5l147-17s50.9-72.27,55.93-110-44.62-80.43-44.62-80.43S3079.16,1754.61,3056.26,1769.41Z"/><path class="cls-29" d="M3042.65,1913.52s51.18-35.61,56.48-39.24,13.9,15.36,26-3.07,31.21-51.28,0-107.54c0,0,50.07,2.25,51.32,40.86s-23.88,117.79-37.28,128.26S3043.27,1947,3042.65,1913.52Z"/><path class="cls-29" d="M2981.69,1837.28s-31.42,23.6-38.68,46.5c0,0-5.86,14.52-1.67-10.9s39.21-43.82,39.21-43.82Z"/><path class="cls-18" d="M2996.15,2061.82a919.45,919.45,0,0,0,0,108.5c3.56,58.65-7.34,222.87-7.34,222.87h255.55s26.07-127.35,5.49-191.87-68.33-103.89-75.87-139.5S2996.15,2061.82,2996.15,2061.82Z"/><path class="cls-20" d="M3229.28,1920.43c-17.59,39.59-55.3,141.39-55.3,141.39-63.47,40.21-177.83,0-177.83,0S2992.49,2007,2991,1987c-.25-3.48-.45-5.91-.54-6.84-.63-6.29-22-25.13-22-25.13,22.61-8.18,74.14-41.48,74.14-41.48,67.25,18.22,121.7-62.42,101.17-123.16a60.63,60.63,0,0,0-8.75-17.18l0,0c-25.78-34.21-76.69-5-78.71-3.78,23.85-17.57,47.7-22.18,57.74-29.71,0,0,87.39,40.51,91.87,7.58a100.09,100.09,0,0,0,13.91,26.47C3249.39,1813.62,3246.87,1880.84,3229.28,1920.43Z"/><path class="cls-30" d="M3047,1914.57s-56.68,40.38-75.57,43.12l-3-2.69s33.17-13,74.14-41.48Z"/><path class="cls-29" d="M3134,1688.82a40.11,40.11,0,0,0,1-7.81c-.18-3-8.64-9.12-18.83-17,0,0,31.82,17,42.29,17.84S3134.73,1688.69,3134,1688.82Z"/><path class="cls-31" d="M3393.8,1600.42a73.23,73.23,0,0,1-8.06,14c-32,44.62-71,10-71,10-17.6,103.06-103.47,67-113.74,58.45s15.71-62.63,25.35-66.41,16.75-14.66,13-26.6-26.39-13.2-37.07-1.89-32.05,7.55-17.59,3.14,42.1-37.07,14.45-59.32c-16-12.88-25.48-29-30.6-40.35h0a93.57,93.57,0,0,1-5.15-13.86s-26.45-33.5,72.21-32.17S3325.43,1561,3325.43,1561C3373,1545.32,3409.07,1564.53,3393.8,1600.42Z"/><path class="cls-32" d="M3393.8,1600.42a73.23,73.23,0,0,1-8.06,14c-32,44.62-71,10-71,10-17.6,103.06-103.47,67-113.74,58.45s15.71-62.63,25.35-66.41,16.75-14.66,13-26.6-26.39-13.2-37.07-1.89-32.05,7.55-17.59,3.14,42.1-37.07,14.45-59.32c-16-12.88-25.48-29-30.6-40.35.81,1.2,24.22,35.42,54.48,53.87,30.79,18.78,34.3,54.57,48.17,71.43,6.72,8.17,31,21.51,44.2-4.89C3315.37,1611.89,3374.22,1634.81,3393.8,1600.42Z"/><path class="cls-28" d="M1904.7,1301.18c-7.89-3.67-406.81-121.41-405.24-133,.57-4.15,4.13-19.12,8.82-37.52,8.36-32.74,20.3-76.35,25.34-89.14,2.05-5.18,9.11-10.24,18.94-15,12.32-6,29-11.72,45.67-16.83l.1,0c21.11-6.48,42.13-12.09,54.08-16.44a17.31,17.31,0,0,0,5.58-3.35c21.71-19.17,11.84-96,19.64-137,8.42-44.16,39.42-15.77,78.32-46.78S1837.42,794,1837.42,794c38.55,22.6,12,90.57,8.06,107.85s-4.68,42.76-36.67,61.91-50.76,6.32-50.76,6.32-2.76,19.77,1.63,29.64a13.49,13.49,0,0,0,1,1.89c3.2,4.95,30.17,11.67,57.09,17.87l1.14.26c14,3.22,27.95,6.3,38.39,8.91h0c5.36,1.33,9.8,2.56,12.86,3.61,21.43,7.34,61.79,137.16,75,199.53a218.33,218.33,0,0,1,4.17,25C1950.94,1276.35,1912.57,1304.86,1904.7,1301.18Z"/><path class="cls-33" d="M1904.7,1301.18c-7.89-3.67-406.81-121.41-405.24-133,.57-4.15,4.13-19.12,8.82-37.52,8.36-32.74,20.3-76.35,25.34-89.14,2.05-5.18,9.11-10.24,18.94-15,12.32-6,29-11.72,45.67-16.83l.1,0c21.11-6.48,42.13-12.09,54.08-16.44a17.31,17.31,0,0,0,5.58-3.35s41.77,26.17,101.69,9.88a13.49,13.49,0,0,0,1,1.89c3.2,4.95,30.17,11.67,57.09,17.87l1.14.26c14,3.22,27.95,6.3,38.39,8.91h0c5.36,1.33,9.8,2.56,12.86,3.61,21.43,7.34,61.79,137.16,75,199.53a218.33,218.33,0,0,1,4.17,25C1950.94,1276.35,1912.57,1304.86,1904.7,1301.18Z"/><path class="cls-29" d="M1713.11,847.69s-24.61.2-27.18,12.81,7.48,29.2,1.4,39.25-14.13,25.48-14.13,25.48v-32s1.28-44.85,8.76-51.63S1713.11,847.69,1713.11,847.69Z"/><path class="cls-29" d="M1858,841.11s-19.31-41.38-64-24.52A75.4,75.4,0,0,0,1757.62,846c-10.33,15.77-27.81,38.95-32.62,23.53,0,0,52-89.57,78.25-81.23S1861.87,812.81,1858,841.11Z"/><path class="cls-34" d="M1872.81,1366.71s31.53,6.3,6.3,51.85-154.41,92.51-204.4,79.19-130.57-90.4-99-114.93S1872.81,1366.71,1872.81,1366.71Z"/><path class="cls-35" d="M1705.26,759.12a72,72,0,0,0-15.54,8.58h0s-52.93-46.3-108,4.59,49.19,201,49.19,201-38.57-163.79,39.25-183.62c-7.85,13.61-11.77,30-12.08,47.47a149.71,149.71,0,0,0,7.53,48.3c5.83,18,1.93,27.85,1.93,27.85,10.86-.69,17.17-19.62,17.17-19.62-3.51-3.15-16.47-42,13-46.95S1725,869.5,1725,869.5c17.23,12.61,19.91-49,72.47-62.37s60.53,34,60.53,34a52.61,52.61,0,0,0,2.83-10.5C1870,772.77,1769.19,733.36,1705.26,759.12Z"/><path class="cls-36" d="M1499.46,1168.2c-1.57,11.57,397.35,129.31,405.23,133s46.25-24.83,44.68-44.44a217.87,217.87,0,0,0-4.17-24.94c-24.14-8.42-74.67-93-87.87-110.37s0-92.78,0-92.78h0l-38.39-8.91-1.14-.26s2.32,45-21.36,83.57-68.32,27.85-127.72,25.22-70.38-118.63-70.38-118.63l-.09,0-45.67,16.83s6.64,65.51,7.7,86.53-13.5,17.35-13.5,17.35c-12.17-1.55-25.91-2.38-38.48.31C1503.59,1149.08,1500,1164.05,1499.46,1168.2Z"/><path class="cls-29" d="M1758.05,970.06s-40.67-18.4-55.23-36.23c0,0-6.91-5.83-2.18,8.37s57.41,52,57.41,52S1756.86,980.45,1758.05,970.06Z"/><path class="cls-20" d="M1825,1019.53c.32.07-.51,82.36-37.57,108.46s-137.28,31.84-160.76-12-32.57-108.1-32.57-108.1l-37.61,13.71s18.5,86.56,3.88,135.1S1841.17,1187,1841.17,1187s-4-122.31,12.89-161.62Z"/><rect class="cls-37" x="1499.46" y="1135.37" width="410.53" height="266.79" rx="6.88"/><ellipse class="cls-3" cx="1706.45" cy="1272.74" rx="31.74" ry="18"/><g class="cls-38"><path class="cls-39" d="M1499.46,1208.68v186.6a6.91,6.91,0,0,0,6.88,6.88h396.77a6.91,6.91,0,0,0,6.88-6.88v-64.67Z"/></g><path class="cls-20" d="M1550.37,1468.81c11.08,19.13,21.84,44.63,28.27,60.82l2.82-.35,1.14-.14,3.51-.39,4.9-.49.63-.06c36.9-3.42,92.85-4.24,129.52-4.36,21.88-.08,36.9.08,36.9.08,4,.28,8,.52,11.91.75,225.71,12.92,316-52.1,299.93-104.55a46.51,46.51,0,0,0-4-9.18c-12.38-22-40.08-31.52-68.76-35.13A210.47,210.47,0,0,0,1874,1398.32a758.12,758.12,0,0,1-98.78,42.92c-2.28.79-4.58,1.58-6.89,2.35s-4.63,1.55-7,2.3a302.07,302.07,0,0,1-32.26,8.22c-44.73,9.05-100.24,12.64-143.5,14l-.68,0-2.91.08H1582l-2.44.07-3.46.09-2.27.05-5.5.13-1.49,0-5,.08-4,.06-2.13,0c-.91,0-1.81,0-2.7,0h-1.17Z"/><path class="cls-20" d="M1556.24,1479.57h0a1.66,1.66,0,0,0,.13.14c5.19,6.08,13.41,25.25,22.59,49.89,7,18.89,14.63,41,21.88,62.87,1.24,3.72,2.46,7.45,3.68,11.15l.88,2.74.65,2,.8,2.47c.37,1.15.74,2.29,1.1,3.42.27.85.55,1.69.82,2.53.51,1.57,1,3.12,1.5,4.66.26.81.51,1.62.76,2.42.41,1.27.82,2.53,1.22,3.78s.76,2.4,1.13,3.58c.81,2.53,1.59,5,2.36,7.46.57,1.8,1.13,3.56,1.67,5.32.18.57.36,1.16.55,1.74s.36,1.16.55,1.73c.37,1.23.75,2.44,1.12,3.65.16.5.33,1,.48,1.52.22.69.43,1.39.64,2.09h0c1.18,3.76,2.29,7.37,3.33,10.77.26.85.51,1.68.77,2.51l1.27,4.17c.23.75.44,1.48.66,2.21,2,6.67,3.67,12.23,4.86,16.33.06.17.11.35.15.51.1.35.21.7.3,1a128.09,128.09,0,0,0,10.22,25.34c.3.58.62,1.15.93,1.71s.62,1.12.94,1.66.63,1.09,1,1.62.63,1.06,1,1.58.64,1,1,1.54.6.94.91,1.4l.89,1.33,1,1.4q1.45,2.07,2.92,4c.32.43.64.85,1,1.25s.63.83,1,1.22.64.8,1,1.19.64.77,1,1.14.64.75,1,1.11.67.76,1,1.13c.65.74,1.32,1.45,2,2.15a114.12,114.12,0,0,0,11.48,10.58c10.87,8.77,10.51,45.21,10.51,45.21.42,3.34.8,6.58,1.12,9.73.16,1.51.31,3,.44,4.45.2,2.2.39,4.34.54,6.43.09,1.17.17,2.31.23,3.45,0,.23,0,.46.05.69,0,.58.07,1.15.1,1.72q.07,1.15.12,2.28c0,.66.07,1.31.1,2,0,.26,0,.51,0,.76l.09,2.3c0,.26,0,.51,0,.77,0,.63,0,1.25.05,1.87,0,.8,0,1.59,0,2.37,0,.43,0,.85,0,1.27.3,40.59-9.75,59-21.56,69.92-.5.46-1,.91-1.5,1.34a89.46,89.46,0,0,1-11.41,8.18,26.31,26.31,0,0,1-3,1.62c-20.85,9.76-61.76,1-67.76-10.38-6.31-11.92,4.55-23.49,4.55-23.49a94.14,94.14,0,0,0,6.9-13.81c10-25,11.23-58.26,3.61-111.62a43.56,43.56,0,0,0-1.3-5.82h0c-3-10.46-10.36-24.66-20.51-41.55-4.84-8-10.34-16.71-16.31-25.86-3.54-5.43-7.26-11-11.1-16.77l-3-4.39-2.72-4-4.41-6.51c-1.87-2.75-3.77-5.54-5.69-8.34-1-1.5-2-3-3.09-4.51-1.18-1.75-2.38-3.49-3.58-5.24-11.4-16.66-23.35-34-35.25-51.71l-3.56-5.31c-2.37-3.53-4.73-7.09-7.1-10.64s-4.63-7-6.93-10.53c-1.19-1.83-2.4-3.66-3.58-5.5h0c-52.72-81.21-96-162-69.52-197.62,16.46-22.16,55.4-21.57,101.79-9.93,28.2,7.08,59.16,18.24,89.49,30.86,19.19,8,38.12,16.54,56,25,12.24,5.83,24,11.62,34.89,17.15,26,13.15,47.42,24.89,60.7,32.31h0c9.29,5.2,14.57,8.3,14.57,8.3-6,3.57-18.46,6.52-34.36,8.94-24.86,3.79-58.14,6.29-88.26,7.9-19.51,1.06-37.7,1.74-51.42,2.17C1566.52,1479.38,1557,1479.55,1556.24,1479.57Z"/><path class="cls-34" d="M1467.93,1384.75c48.88,22.08,88.27,94.81,88.27,94.81s170.67-2.83,198.88-19.65c0,0,12.85,4.86-31.27-17.49-106.25,29-155-19.3-209.63-48.74S1467.93,1384.75,1467.93,1384.75Z"/><path class="cls-28" d="M1770,1524.67q-5.9-.33-11.92-.75s-12.68-.14-31.73-.09c-5.12,0-10.71,0-16.62.06l-3.24,0c-34.5.28-79.28,1.22-111.34,4-6,.52-11.53,1.09-16.48,1.75-6.43-16.19-17.19-41.71-28.27-60.84,10.21-.09,22.18-.28,35.24-.7,37.85-1.18,85-4.08,126.19-10.84,5.78-1,11.44-2,16.93-3.08a300.06,300.06,0,0,0,32.65-8.29c.94-.3,1.88-.6,2.81-.92,1.4-.45,2.79-.91,4.16-1.37C1765.39,1462.37,1762.18,1495.68,1770,1524.67Z"/><path class="cls-29" d="M1550.37,1468.81c11.08,19.13,21.84,44.63,28.27,60.82l2.82-.35,1.14-.14,3.51-.39,4.9-.49.63-.06,3.47-.31c-26.33-40.63-9.49-59.79-9.49-59.79l-.68,0-2.91.08H1582l-2.44.07-3.46.09-2.27.05-5.5.13c-.5,0-1,0-1.49,0l-5,.08-4,.06-2.13,0-2.7,0h-2.66Z"/><path class="cls-28" d="M1685.48,1838.79c.3,40.59-9.75,59-21.56,69.92-.5.46-1,.91-1.5,1.34a89.46,89.46,0,0,1-11.41,8.18,26.31,26.31,0,0,1-3,1.62c-20.85,9.76-61.76,1-67.76-10.38-6.31-11.92,4.55-23.49,4.55-23.49a94.14,94.14,0,0,0,6.9-13.81c10-25,11.23-58.26,3.61-111.62a43.56,43.56,0,0,0-1.3-5.82h0c-3-10.46-10.36-24.66-20.51-41.55-4.84-8-10.34-16.71-16.31-25.86-3.54-5.43-7.26-11-11.1-16.77l-3-4.39-2.72-4-4.41-6.51c-1.87-2.75-3.77-5.54-5.69-8.34-1-1.5-2-3-3.09-4.51-.29-.44-.59-.87-.89-1.3l-2.69-3.94c36.42,2,80-33.23,80.85-33.89h0l.88,2.74.65,2,.8,2.47c.37,1.15.74,2.29,1.1,3.42.27.85.55,1.69.82,2.53s.5,1.56.75,2.34l.75,2.32c.26.81.51,1.62.76,2.42.41,1.27.82,2.53,1.22,3.78s.76,2.4,1.13,3.58c.81,2.53,1.59,5,2.36,7.46.57,1.8,1.13,3.56,1.67,5.32.18.57.36,1.16.55,1.74s.36,1.16.55,1.73c.37,1.23.75,2.44,1.12,3.65.16.5.33,1,.48,1.52.22.69.43,1.39.64,2.09h0c1.18,3.76,2.29,7.37,3.33,10.77.26.85.51,1.68.77,2.51l1.27,4.17c.23.75.44,1.48.66,2.21,2,6.67,3.67,12.23,4.86,16.33.06.17.11.35.15.51.1.35.21.7.3,1a128.09,128.09,0,0,0,10.22,25.34c.3.58.62,1.14.93,1.71s.62,1.12.94,1.66.63,1.09,1,1.62.63,1.06,1,1.58.64,1,1,1.54.6.94.91,1.4l.89,1.33,1,1.4q1.45,2.07,2.92,4c.32.43.65.85,1,1.25s.64.83,1,1.22.64.8,1,1.19.64.76,1,1.14l1,1.11c.33.38.68.76,1,1.13.65.74,1.32,1.45,2,2.15a114.12,114.12,0,0,0,11.48,10.58c10.87,8.77,10.51,45.21,10.51,45.21.42,3.34.8,6.58,1.12,9.73.16,1.51.31,3,.44,4.45.2,2.2.39,4.34.54,6.43.09,1.17.17,2.31.23,3.45,0,.23,0,.46.05.69,0,.58.07,1.15.1,1.72q.07,1.15.12,2.28c0,.66.07,1.31.1,2,0,.26,0,.51,0,.76l.09,2.3c0,.26,0,.51,0,.77,0,.63,0,1.25.05,1.87,0,.8,0,1.59,0,2.37C1685.47,1838,1685.48,1838.37,1685.48,1838.79Z"/><path class="cls-40" d="M1665.55,885.44c5.83,18,1.93,27.85,1.93,27.85,10.86-.69,17.17-19.62,17.17-19.62-3.51-3.15-16.47-42,13-46.95S1725,869.5,1725,869.5c17.23,12.61,19.91-49,72.47-62.37s60.53,34,60.53,34a52.61,52.61,0,0,0,2.83-10.5c-3.33-8.41-21.46-46.85-69.17-28.39-47.23,18.29-93.52,45.09-133.64,34.92A149.71,149.71,0,0,0,1665.55,885.44Z"/><path class="cls-29" d="M1610.23,1621.4s-9.7-5.25-35.58,7.68-48.34,12.38-48.34,12.38l-2.69-3.94c36.42,2,80-33.23,80.85-33.89l5,15.45Z"/><path class="cls-29" d="M1770,1524.67q-5.9-.33-11.92-.75s-12.68-.14-31.73-.09c-5.12,0-10.71,0-16.62.06l-3.24,0s32.09-13.79,39.3-30.74,18.43-48.21,18.43-48.21c1.4-.45,2.79-.91,4.16-1.37C1765.39,1462.37,1762.18,1495.68,1770,1524.67Z"/><path class="cls-35" d="M1685.48,1838.79c.3,40.59-9.75,59-21.56,69.92-.5.46-1,.91-1.5,1.34a89.46,89.46,0,0,1-11.41,8.18,26.31,26.31,0,0,1-3,1.62c-20.85,9.76-61.76,1-67.76-10.38-6.31-11.92,4.55-23.49,4.55-23.49a94.14,94.14,0,0,0,6.9-13.81c10-25,11.23-58.26,3.61-111.62a43.56,43.56,0,0,0-1.3-5.82c24,15.39,54-27.66,54-27.66l.89,1.33,1,1.4q1.45,2.07,2.92,4c.32.43.65.85,1,1.25s.64.83,1,1.22.64.8,1,1.19.64.76,1,1.14l1,1.11c.33.38.68.76,1,1.13.65.74,1.32,1.45,2,2.15a114.12,114.12,0,0,0,11.48,10.58c10.87,8.77,10.51,45.21,10.51,45.21.42,3.34.8,6.58,1.12,9.73.16,1.51.31,3,.44,4.45.2,2.2.39,4.34.54,6.43.09,1.17.17,2.31.23,3.45,0,.23,0,.46.05.69,0,.58.07,1.15.1,1.72q.07,1.15.12,2.28c0,.66.07,1.31.1,2,0,.26,0,.51,0,.76l.09,2.3c0,.26,0,.51,0,.77,0,.63,0,1.25.05,1.87,0,.8,0,1.59,0,2.37C1685.47,1838,1685.48,1838.37,1685.48,1838.79Z"/><path class="cls-11" d="M4074,1969c-1.27-3-26.71-40.23-26.71-40.23l22-111Z"/><polygon class="cls-33" points="3999.58 1929.54 4047.24 1928.81 4069.28 1817.85 3999.58 1929.54"/><polygon class="cls-9" points="3999.58 1929.54 4029.41 1898.65 4069.28 1817.85 3999.58 1929.54"/><polygon class="cls-11" points="4029.41 1898.65 3999.21 1851.88 4069.28 1817.85 4029.41 1898.65"/><g class="cls-41"><path class="cls-11" d="M627,1383.66c1.22,2.48,24.52,32.16,24.52,32.16l-12.33,93.94Z"/><polygon class="cls-33" points="691.28 1412.6 651.49 1415.82 639.16 1509.77 691.28 1412.6"/><polygon class="cls-9" points="691.28 1412.6 668.04 1440.04 639.16 1509.77 691.28 1412.6"/><polygon class="cls-11" points="668.04 1440.04 695.86 1477.47 639.16 1509.77 668.04 1440.04"/></g><polyline class="cls-42" points="2160.84 1467.6 2160.84 1182.57 2462.02 1182.57 2462.02 1250.71"/><polyline class="cls-42" points="2311.43 2161.45 1944.32 2161.45 1944.32 2061.61"/><rect class="cls-3" x="2170.67" y="971.84" width="227.18" height="115.5" rx="52.94"/><rect class="cls-43" x="2170.67" y="971.84" width="227.18" height="115.5" rx="52.94"/><circle class="cls-14" cx="2228.42" cy="1029.59" r="57.75"/><rect class="cls-14" x="1220.76" y="2105.18" width="352.06" height="78.57" rx="30.04"/><polygon class="cls-3" points="1261.54 2122.57 1261.54 2166.36 1297.53 2141.91 1261.54 2122.57"/><rect class="cls-3" x="1314.92" y="2119.57" width="4.8" height="52.78"/><rect class="cls-3" x="1358.9" y="2122.08" width="169.73" height="4.47"/><rect class="cls-3" x="1358.9" y="2135.35" width="169.73" height="4.47"/><rect class="cls-3" x="1358.9" y="2148.62" width="169.73" height="4.47"/><rect class="cls-3" x="1358.9" y="2161.89" width="107.51" height="4.47"/><rect class="cls-3" x="606.05" y="1631.74" width="503.35" height="246.64"/><rect class="cls-42" x="606.05" y="1631.74" width="503.35" height="246.64"/><path class="cls-11" d="M822.14,1752a87.27,87.27,0,0,1-35.34,70.43,88.47,88.47,0,0,1-9.91,6.38,86.75,86.75,0,0,1-34.36,10.47c-2.49.22-5,.34-7.56.34-1.81,0-3.6,0-5.38-.15a86.74,86.74,0,0,1-33.57-8.87,88.43,88.43,0,0,1-9.73-5.62,87.41,87.41,0,1,1,135.85-73Z"/><path class="cls-44" d="M776.89,1828.79a70.79,70.79,0,0,0-.34-8.85,45.88,45.88,0,0,0-2.25-10.3,22.49,22.49,0,0,0-10-12.45c-.66-.38-1.48-.54-2-1.2a25.46,25.46,0,0,1,5.62,1.55,42.51,42.51,0,0,1,5.65,2.92c.94.78,1.91,1.54,2.82,2.35a31.23,31.23,0,0,1,7.65,10.91c.09.21.21.41.32.61a59.9,59.9,0,0,1,2.39,8.08A88.47,88.47,0,0,1,776.89,1828.79Z"/><path class="cls-44" d="M708,1796.83c0,.35-.36.43-.61.57A16.52,16.52,0,0,0,704,1800a24.92,24.92,0,0,0-6.33,11.44,52.58,52.58,0,0,0-1.75,14c0,1.71,0,3.42.1,5.13a88.43,88.43,0,0,1-9.73-5.62,47.59,47.59,0,0,1,2.72-10.13,1.09,1.09,0,0,0,0-.26,49.22,49.22,0,0,1,3.45-6.39,31.75,31.75,0,0,1,6.65-7l.45-.26A27.31,27.31,0,0,1,708,1796.83Z"/><path class="cls-4" d="M776.89,1828.79a86.75,86.75,0,0,1-34.36,10.47q0-16.76-.1-33.5c0-.9,0-1.81,0-2.72l.72-.32a12.72,12.72,0,0,0,7.36-8.68c1.95.11,3.91.13,5.85.43s4,1.07,6,1.52c.51.66,1.33.82,2,1.2a22.49,22.49,0,0,1,10,12.45,45.88,45.88,0,0,1,2.25,10.3A70.79,70.79,0,0,1,776.89,1828.79Z"/><path class="cls-4" d="M729.5,1803.23l.09,36.22a86.74,86.74,0,0,1-33.57-8.87c-.07-1.71-.1-3.42-.1-5.13a52.58,52.58,0,0,1,1.75-14A24.92,24.92,0,0,1,704,1800a16.52,16.52,0,0,1,3.4-2.59c.25-.14.56-.22.61-.57,1-.38,1.9-.78,2.86-1.14a30.44,30.44,0,0,1,11.48-1.57c.12.39.22.79.36,1.17a12.94,12.94,0,0,0,6.82,7.42C729.52,1802.88,729.5,1803.06,729.5,1803.23Z"/><path class="cls-45" d="M742.53,1839.26c-2.49.22-5,.34-7.56.34-1.81,0-3.6,0-5.38-.15l-.09-36.22c0-.17,0-.35,0-.52a18.15,18.15,0,0,0,12.86.33c0,.91,0,1.82,0,2.72Q742.49,1822.52,742.53,1839.26Z"/><path class="cls-14" d="M722.35,1794.12a30.44,30.44,0,0,0-11.48,1.57c-1,.36-1.9.76-2.85,1.14a27.3,27.3,0,0,0-8.44,4.05c-.14.1-.29.17-.44.26-.11-5.51-.25-11-.33-16.53q-.31-19.12-.57-38.25a66.32,66.32,0,0,1,3.26-22.68c2.66-7.7,6.91-14.28,13.61-19.08a34.21,34.21,0,0,1,16.53-6.17,40.1,40.1,0,0,1,21.29,3.19,29.06,29.06,0,0,1,11.31,9.48c6.4,8.57,9.11,18.32,9.78,28.78.48,7.55.16,15.12.09,22.68-.13,12.43-.31,24.86-.46,37.29l0,.61a43.13,43.13,0,0,0-5.65-2.92,25.46,25.46,0,0,0-5.62-1.55c-2-.45-4-1.21-6-1.52s-3.9-.32-5.85-.43a30.31,30.31,0,0,1-.48-13.66,2,2,0,0,1,.68-1.18,39.06,39.06,0,0,0,6.73-7.73,56.55,56.55,0,0,0,6.79-13.93c.09-.27,0-.75.5-.69,1.89.23,3-.95,4-2.27a14.85,14.85,0,0,0,2.47-6,15.42,15.42,0,0,0-.29-8.41,4.23,4.23,0,0,0-1.91-2.49c-.06.71-.11,1.35-.18,2a21.85,21.85,0,0,1-2.16,8.28,7.43,7.43,0,0,1-3.63,3.76h0c-.18-.35,0-.69,0-1a52.69,52.69,0,0,0,.61-15.4,22.31,22.31,0,0,0-3-9.22,12.37,12.37,0,0,0-3.9-4c1.37,7.63,2.53,15.1,4.56,22.44l-.51,0a78.11,78.11,0,0,1-14.89-.92,50.67,50.67,0,0,1-16.82-5.35c-5.87-3.25-10.21-7.8-12.05-14.42a28.66,28.66,0,0,1-.93-6.4,2.43,2.43,0,0,0-.41.65,96.55,96.55,0,0,0-4.51,11.71,59.21,59.21,0,0,0-2.34,10.27c-.49,4-.54,7.93,1.06,11.75-4.88-3.29-6.36-8.29-6.87-13.85a5,5,0,0,0-1.86,3,17.3,17.3,0,0,0,.66,10.19,11.53,11.53,0,0,0,2.64,4.52,3.33,3.33,0,0,0,3,1.24c.53-.11.71,0,.86.52A51.8,51.8,0,0,0,721.81,1779a2.71,2.71,0,0,1,1,1.77A47.13,47.13,0,0,1,722.35,1794.12Z"/><path class="cls-28" d="M763,1751.74a7.43,7.43,0,0,0,3.63-3.76,21.85,21.85,0,0,0,2.16-8.28c.07-.63.12-1.27.18-2a4.23,4.23,0,0,1,1.91,2.49,15.42,15.42,0,0,1,.29,8.41,14.85,14.85,0,0,1-2.47,6c-1,1.32-2.07,2.5-4,2.27-.5-.06-.41.42-.5.69a56.55,56.55,0,0,1-6.79,13.93,39.06,39.06,0,0,1-6.73,7.73,2,2,0,0,0-.68,1.18,30.31,30.31,0,0,0,.48,13.66,12.72,12.72,0,0,1-7.36,8.68l-.72.32a18.15,18.15,0,0,1-12.86-.33,13,13,0,0,1-6.83-7.42c-.14-.38-.23-.78-.35-1.17a47.13,47.13,0,0,0,.42-13.31,2.71,2.71,0,0,0-1-1.77,51.8,51.8,0,0,1-13.41-21.53c-.15-.48-.33-.63-.86-.52a3.33,3.33,0,0,1-3-1.24,11.53,11.53,0,0,1-2.64-4.52,17.3,17.3,0,0,1-.66-10.19,5,5,0,0,1,1.86-3c.51,5.56,2,10.56,6.87,13.85-1.6-3.82-1.55-7.76-1.06-11.75a59.21,59.21,0,0,1,2.34-10.27,96.55,96.55,0,0,1,4.51-11.71,2.43,2.43,0,0,1,.41-.65,28.66,28.66,0,0,0,.93,6.4c1.84,6.62,6.18,11.17,12.05,14.42a50.67,50.67,0,0,0,16.82,5.35,78.11,78.11,0,0,0,14.89.92l.51,0c-2-7.34-3.19-14.81-4.56-22.44a12.37,12.37,0,0,1,3.9,4,22.31,22.31,0,0,1,3,9.22,52.69,52.69,0,0,1-.61,15.4c-.06.33-.23.67,0,1l-.1,0h0S762.94,1751.76,763,1751.74Z"/><path class="cls-46" d="M763,1751.74s0,0,0,.06h0l.1,0Z"/><line class="cls-47" x1="849.55" y1="1656.48" x2="849.55" y2="1854.68"/><line class="cls-47" x1="881.22" y1="1701.83" x2="1084.23" y2="1701.83"/><line class="cls-47" x1="881.22" y1="1721.48" x2="955.88" y2="1721.48"/><line class="cls-47" x1="881.22" y1="1741.13" x2="1084.23" y2="1741.13"/><line class="cls-47" x1="881.22" y1="1760.78" x2="924" y2="1760.78"/><line class="cls-47" x1="937" y1="1760.78" x2="1084.23" y2="1760.78"/><line class="cls-47" x1="881.22" y1="1780.43" x2="1084.23" y2="1780.43"/><line class="cls-47" x1="881.22" y1="1800.08" x2="1084.23" y2="1800.08"/><line class="cls-47" x1="881.22" y1="1819.73" x2="1084.23" y2="1819.73"/><line class="cls-47" x1="979.79" y1="1721.48" x2="1084.23" y2="1721.48"/></g></g></svg>